<svg width="96" height="96" viewBox="0 0 96 96" fill="none" xmlns="http://www.w3.org/2000/svg">
<path d="M9.39999 66.4C11.3 72.7 35.5 82.7 42 80.8C60 75.8 69.2 65 68.2 56.4C67.5 50.1 71.6 45.3 69.4 29.5C68.5 23.3 59.9 20.1 54.5 16.9C49.2 13.8 31.3 15.3 25.3 16.9C8.29999 21.4 6.79999 34.6 5.99999 43.7C5.89999 43.7 5.59999 53.6 9.39999 66.4Z" fill="#FFE0B7"/>
<path d="M29.3 53C30.9 53 30.9 50.5 29.3 50.5C27.7 50.6 27.7 53 29.3 53Z" fill="#222222"/>
<path d="M80.2 56.5C80 56 79.5 55.7 78.9 55.7C76.8 55.6 74.8 55.4 72.7 55.1C73.1 54.6 73.5 54.1 73.8 53.6C74.6 52.5 75.4 51.3 76.4 50.4C76.9 49.9 77 49.3 76.7 48.7C76.4 48.1 75.7 47.7 75 47.9C72.3 48.5 69.4 48.4 66.5 48.3C66 48.3 65.5 48.3 65 48.3C64.8 48.3 64.7 48.3 64.5 48.3C63.9 48.3 63.2 48.2 62.6 48.5C61.5 49.1 60.9 50.2 60.4 51.2C60 52 59.5 52.8 58.9 53.4C58.5 53.3 58.2 53.3 57.8 53.2C49.7 52 41.3 50.8 33 50.4C39.7 45.6 46 40.2 52.1 35C52.2 35 52.2 34.9 52.3 34.9C53.2 35.3 54.2 35.6 55.3 35.8C55.8 35.9 56.2 36 56.6 36.1C57.4 36.3 58 36.5 58.6 36.5C59.3 36.5 60 36.3 60.8 35.6C62.4 34.4 63.9 33.2 65.5 31.8C65.8 31.5 66.2 31.2 66.5 30.9C67.3 30.1 68.3 29.2 69 28.9C69.8 28.6 70.1 27.7 70 27C69.9 26.5 69.5 25.9 68.6 26H68.5V25.9L68.6 26C67 26.1 65.5 25.7 64 25.3C65.5 24.1 67 22.9 68.5 21.8C69.3 21.2 69.3 20.2 68.8 19.5C68.4 19 67.7 18.7 67 19.2C65.6 20.3 64.1 21.4 62.7 22.5C62.6 21.4 62.6 20.3 62.8 19.2C62.9 18.5 62.6 17.8 62 17.5C61.4 17.2 60.8 17.3 60.3 17.7C58.9 19 57.3 20.5 55.5 22.2C54.7 22.9 53.9 23.6 53.2 24.3C53.1 24.4 53 24.5 52.9 24.6C52.7 24.8 52.5 24.9 52.3 25.1C52.2 25.2 52.1 25.3 52 25.3C51.9 25.3 51.8 25.4 51.8 25.5C51.4 25.8 51.1 26.3 51.2 26.7C51.3 28 51.2 29.3 51.2 30.5C51.2 31 51.2 31.5 51.2 32.1C51.1 32.2 51 32.3 50.9 32.3C43.9 38.3 36.6 44.5 28.8 49.8C28.3 50.1 28.1 50.6 28.1 51.2C28 51.6 28.1 52 28.3 52.4C28.6 52.8 29 53.1 29.5 53.1C39.1 53.2 48.7 54.6 58.1 55.9C58.3 55.9 58.4 55.9 58.6 56C59.4 56.9 60.1 57.9 60.8 58.9C61.1 59.3 61.4 59.7 61.7 60.2C61.8 60.3 61.9 60.5 62 60.6C62.5 61.4 63 62.1 64 62.3C65.6 62.7 67.2 62.7 68.8 62.8C70.5 62.9 72.3 63 73.9 63.4C74 63.4 74.1 63.4 74.2 63.4C74.7 63.4 75.2 63.1 75.5 62.7C75.8 62.2 75.9 61.6 75.5 61.1C74.8 60.1 74.1 59.2 73.4 58.3C73.3 58.2 73.2 58 73.1 57.9C75.1 58.1 77.1 58.3 79 58.4H79.1C79.6 58.4 79.9 58.2 80.2 57.8C80.4 57.7 80.5 57.1 80.2 56.5ZM71.7 51.6C71.1 52.5 70.5 53.4 69.8 54.2C69.6 54.4 69.5 54.6 69.5 54.8C67.2 54.5 64.8 54.2 62.5 53.9C62.7 53.6 62.9 53.2 63.1 52.8C63.3 52.4 63.5 52.1 63.8 51.7C63.9 51.5 64 51.4 64 51.3C64.1 51.3 64.1 51.3 64.2 51.3C64.5 51.2 65 51.3 65.4 51.3C65.6 51.3 65.8 51.3 66 51.3H67C68.6 51.3 70.3 51.4 72 51.3C71.9 51.3 71.8 51.5 71.7 51.6ZM64.6 59.5C64.4 59.2 64.1 58.8 63.6 58.3C63.5 58.1 63.4 58 63.3 58L62.7 57.2C62.6 57.1 62.5 57 62.5 56.9C64.6 57.2 66.8 57.5 68.9 57.8C69.4 58.6 70 59.3 70.5 60C68.4 59.6 66.3 59.4 64.6 59.5ZM54 29.7C54 29 54 28.4 54 27.7C54.7 27.2 55.3 26.6 55.9 26C56.2 25.7 56.5 25.4 56.7 25.2C57.7 24.3 58.7 23.4 59.6 22.5C59.7 23.3 59.8 24.1 59.9 24.8C57.9 26.4 55.9 28.1 54 29.7ZM63.8 29.5C63.2 30.1 62.6 30.6 62.1 31C61.8 31.2 61.6 31.5 61.3 31.7C60.3 32.6 59.3 33.6 58.2 33.4C57 33.2 55.9 32.9 55.1 32.7C57.1 31 59.2 29.3 61.3 27.5C61.4 27.5 61.4 27.6 61.5 27.6L61.7 27.7C62.8 28 63.8 28.3 64.8 28.6C64.4 28.9 64.1 29.2 63.8 29.5Z" fill="black"/>
<path d="M32.7999 43.9C33.5999 44.2 34.2999 43.8 34.4999 43.2C34.7999 42.4 34.5999 41.4 33.5999 41.1C28.6999 39.1 23.2999 41.7 20.5999 45.3C17.6999 49.1 17.6999 54.9 20.6999 58.8C22.6999 61.4 26.2999 63 30.0999 63.1C30.1999 63.1 30.2999 63.1 30.3999 63.1C34.3999 63.1 37.2999 61.4 39.6999 57.7C40.1999 56.9 39.7999 56.1 39.1999 55.7C38.5999 55.3 37.5999 55.3 37.0999 56.1C35.2999 59 33.3999 60.1 30.2999 60.1H30.1999C27.6999 60.1 25.2999 59.2 23.6999 57.8C20.3999 54.8 20.7999 50.4 22.6999 47.5C24.7999 44.5 28.5999 42.2 32.7999 43.9Z" fill="black"/>
<path d="M42.1 36.9C42.6 36.4 42.8 35.5 42.1 34.8C37.9 30.6 29.7 30.6 23.9 32.4C18.1 34.2 13.7 38.2 12.3 43.3C9.99995 51.6 11.2 59.3 15.9 65C19.8 69.8 25 72.2 31.6 72.2C32.3 72.2 33 72.2 33.8 72.1C40.6 71.6 48.4 66.9 50.1 58.9C50.2 58.4 50 57.8 49.6 57.5C49.2 57.1 48.5 57 48 57.1C47.5 57.2 47.2 57.6 47.1 58.1C45.5 65.9 37.4 69.5 30.3 69.1C26.3 69 23.5 68 20.9 66C17.5 63.2 15.1 59.3 14.4 55.1C13.3 48.9 14.6 40.2 22.1 36.4C25 34.9 28.4 34.3 32 34.4C34.6 34.5 38.2 35.1 40.1 37C40.7 37.6 41.6 37.4 42.1 36.9Z" fill="black"/>
<path d="M57.9 58C57.5 57.7 56.8 57.7 56.3 57.9C55.8 58.1 55.5 58.6 55.5 59.2C55.2 63.7 53 67.6 48.6 71.5C45.8 73.9 42.4 76.5 37.8 77.4C29.5 79 18.3 77.5 11.8 70.2C5.49996 63.1 2.89996 52.2 5.29996 42.9C6.29996 39.1 7.99996 35.7 10.2 32.8C12.4 30 15.6 28 20.5 26.5C26.4 24.6 31.9 24.4 36.9 26C38.9 26.6 43.6 28.4 46 31.8C46.3 32.3 46.8 32.5 47.4 32.5C48 32.5 48.5 32.1 48.7 31.6C48.9 31.2 48.8 30.7 48.6 30.3C43.3 22.7 32 21 23.7 22.7C19.5 23.6 13.6 25.4 9.59996 29.2C7.19996 31.5 5.29996 34.7 3.69996 38.7C-0.300038 48.8 1.49996 61.2 8.19996 70.4C13.2 77.2 21.8 81 31.8 81C33 81 34.3 80.9 35.5 80.8C46 79.8 57.7 70.9 58.5 59.3C58.4 58.7 58.3 58.2 57.9 58Z" fill="black"/>
<path d="M53.6999 37.4C53.0999 37.4 52.5999 37.7 52.2999 38.2C52.0999 38.6 52.0999 39.1 52.3999 39.6C54.2999 42.8 55.4999 45.5 55.4999 49.3C55.4999 49.8 55.6999 50.3 56.1999 50.5C56.3999 50.6 56.6999 50.7 56.9999 50.7C57.2999 50.7 57.5999 50.6 57.7999 50.5C58.1999 50.2 58.4999 49.8 58.4999 49.3C58.4999 44.9 57.0999 41.6 54.9999 38.1C54.6999 37.7 54.1999 37.4 53.6999 37.4Z" fill="black"/>
<path d="M47.7999 42.7C47.1999 42.8 46.6999 43.1 46.4999 43.6C46.2999 44 46.3999 44.5 46.6999 44.9C47.3999 45.8 47.8999 47.3 47.8999 48.8C47.8999 49.3 48.1999 49.8 48.6999 50C48.8999 50.1 49.1999 50.2 49.4999 50.2C49.7999 50.2 50.0999 50.1 50.2999 50C50.6999 49.7 50.8999 49.3 50.8999 48.8C50.7999 46.7 50.1999 44.7 49.1999 43.4C48.8999 42.8 48.3999 42.6 47.7999 42.7Z" fill="black"/>
</svg>
