<svg width="96" height="96" viewBox="0 0 96 96" fill="none" xmlns="http://www.w3.org/2000/svg">
<path d="M30 64.2C13.1 88.8 58.8 80.8 64.5 79.1C69.8 77.5 59.9 62 63.1 56.6C70.7 43.9 74.7 43.7 70.7 28.9C69.1 23.1 65.5 21.6 59.5 20.7C52.5 19.7 40.3 22.4 32.4 22.8C25.2 23.2 18.1 33.4 16.7 38.4C12 55 34.4 57.7 30 64.2Z" fill="#FFE0B7"/>
<path d="M80.2 23.3C77.8 20.1 73.9 18.9 70.5 20.2C70.5 20.1 70.5 20 70.5 19.9C70.5 19.8 70.5 19.6 70.4 19.5C70.4 19.4 70.4 19.2 70.4 19.1C70.4 18.9 70.4 18.6 70.4 18.4C70.3 18 69.9 17.6 69.4 17.5C62.7 16 55 15.3 46.1 15.4C40 15.4 33.6 15.6 27.6 17.2C27.2 17.3 27 17.5 26.8 17.8C26.4 18 26.1 18.4 26.1 18.9C26.1 19.4 26 19.9 26 20.3C22.8 18.9 18.9 19.8 16.4 22.8C13.9 25.7 13 29.9 14 33.8C15 37.6 17.7 40.2 20.7 42.7C23.4 45 26.6 47.6 30.2 49.2C31.2 50.8 32.5 52.2 34.1 53.4C36.5 55.2 39 56.2 41.7 57.2L42 57.3C42.7 57.6 43.3 58.4 43.7 59.5C44.1 60.8 44.1 62.2 43.5 62.9C42.8 63.9 41.2 64.3 39.6 64.6C38.5 64.8 37.5 65.1 36.7 65.5C34.9 66.5 34 67.9 33.8 69.8C32.9 69.8 31.9 69.7 31 69.7C30.5 69.7 30.1 69.9 29.8 70.3C29.8 70.3 29.8 70.3 29.8 70.4C29.7 70.6 29.6 70.8 29.6 71.1C29.6 73.1 29.6 75.2 29.6 77.2C29.6 78 29.6 78.8 29.6 79.6C27.9 79.5 26.3 79.3 24.6 79C24.1 78.9 23.5 79.1 23.2 79.5C22.8 79.9 22.7 80.5 22.9 81C23.1 81.4 23.4 81.7 23.9 81.8C28.1 82.5 32.4 82.6 36.6 82.6C38.1 82.6 39.6 82.6 41 82.6C42.4 82.6 43.8 82.6 45.2 82.6H70.7C71.2 82.6 71.7 82.4 71.9 81.9C72.2 81.4 72.2 80.8 71.9 80.3C71.7 79.9 71.2 79.6 70.7 79.6H66.1C66.1 78.8 66.2 78 66.2 77.2C66.2 75.4 66.2 73.6 66.7 71.8C66.8 71.4 66.7 70.9 66.4 70.5C66.1 70.1 65.7 69.9 65.3 69.9C64 69.9 62.7 69.9 61.4 69.9C61.4 68.4 60.8 66.9 59 65.8C58 65.2 56.9 65 55.8 64.7C54.6 64.4 53.4 64.2 52.5 63.4C51.7 62.8 51.4 61.7 51.6 60.4C51.9 58.7 52.9 57.2 54.1 56.8C54.9 56.5 55.8 56.3 56.6 56C58 55.6 59.5 55.2 60.9 54.4C63.2 53.1 64.9 51.5 66.1 49.7C73.9 46.8 79.6 41.3 81.5 35C83 30.4 82.5 26.4 80.2 23.3ZM49 62.7C49.3 64.7 50.5 66 52.8 66.9C53.4 67.1 54 67.3 54.6 67.4C56.5 67.9 58.4 68.4 58.6 70.1C57.9 70.1 57.1 70.1 56.4 70.1C53.7 70.2 50.9 70.2 48.2 70.2H48.1C44.9 70.2 41.7 70 38.5 69.9C38 69.9 37.5 69.8 37 69.8C37.4 68 39.2 67.6 41.2 67C41.7 66.9 42.2 66.7 42.7 66.6C44.5 66 46.3 65.1 46.8 62.8C47.2 60.9 46.9 58.6 46.1 56.8C45.2 55 43.9 54.6 42.3 54.1C41.9 54 41.5 53.8 41.1 53.7C35 51.4 31.2 46.6 30.3 39.8C29.5 34 28.7 27.2 29.2 20.5C35.4 21.8 42.2 22.4 50.1 22.4C50.5 22.4 50.9 22.4 51.3 22.4C56.7 22.4 62.5 22.2 67.9 21C68 27.9 68 35 66.5 41.8C65.9 44.6 65.2 47.4 63.3 49.4C61.4 51.4 58.7 52.9 55.3 53.8C53.7 54.2 52.1 54.6 50.9 55.9C49.2 57.4 48.6 59.9 49 62.7ZM63.4 79.6H46.3C44.7 79.6 43.1 79.6 41.5 79.7C38.6 79.7 35.6 79.8 32.6 79.7C32.6 78.9 32.6 78 32.6 77.2C32.6 75.7 32.6 74.1 32.6 72.6C33.4 72.6 34.1 72.6 34.9 72.7C34.9 72.7 34.9 72.7 35 72.7C35.2 72.8 35.4 72.8 35.7 72.8C35.9 72.8 36.1 72.8 36.2 72.7C37 72.7 37.8 72.8 38.5 72.8C41.6 73 44.9 73.1 48.1 73.1H48.2C51 73.1 53.7 73 56.4 73C58.8 73 61.2 72.9 63.6 72.9C63.4 74.3 63.4 75.6 63.4 77C63.5 77.9 63.4 78.8 63.4 79.6ZM51 19.5C45.3 19.5 40.2 19.3 35.6 18.7C39.1 18.3 42.7 18.3 46.2 18.2C51.9 18.2 57 18.4 61.6 19C58 19.4 54.5 19.5 51 19.5ZM27.1 39.7C27.3 41.6 27.7 43.3 28.3 44.9C25 42.9 21.8 40.3 19.1 37.2C16.9 34.7 16 31.3 16.8 28.2C17.4 25.8 19.2 23.7 21.1 22.9C22.5 22.3 24 22.5 25.4 23.3C25.5 23.4 25.7 23.4 25.9 23.5C25.8 28.9 26.5 34.4 27.1 39.7ZM69.3 41.2C70.4 35.3 70.5 29.1 70.5 23.4C70.6 23.4 70.7 23.3 70.7 23.3C72.5 22.2 74.1 22.5 75.1 23C77.1 23.8 78.7 25.9 79.2 28.1C79.8 30.8 79.1 34.5 77.2 38.1C75.5 41.3 71.7 44.2 68 46.1C68.7 44.4 69.1 42.7 69.3 41.2Z" fill="black"/>
<path d="M56.2 44.1C56.2 42.6 55.7 41.6 55.2 40.5C55 40.1 54.8 39.7 54.7 39.3C54.3 38.4 54.4 38.3 55.2 37.5C55.7 37 56.3 36.5 56.9 36.1C57.4 35.7 57.9 35.4 58.4 34.9C58.8 34.5 58.9 33.8 58.7 33.3C58.5 32.7 58 32.4 57.4 32.5L54.8 32.7C54.7 32.7 54.5 32.7 54.2 32.8C53.7 32.9 52.6 33.1 52.3 33C51.5 32.7 50.9 30.7 50.5 29.5C50.4 29.1 50.3 28.7 50.1 28.4C49.9 27.8 49.3 27.4 48.7 27.4C48.2 27.4 47.7 27.6 47.5 28.1C46.6 29.7 46.3 31.4 45.9 33.2C43.5 33.4 41.1 33.7 38.7 34.3C38.2 34.4 37.8 34.8 37.7 35.3C37.6 35.8 37.7 36.4 38.1 36.7C39.4 37.9 41.1 38.6 42.6 39C42.7 39 42.9 39.1 43 39.1C43.2 39.2 43.5 39.3 43.8 39.3C43.2 41 42.6 42.8 42.5 44.7C42.5 45.3 42.8 45.8 43.3 46C43.5 46.1 43.7 46.1 43.9 46.1C44.3 46.1 44.6 46 44.9 45.7C45.7 44.9 46.5 44.2 47.4 43.5C48.1 42.9 48.8 42.3 49.4 41.7H49.5C49.8 42.1 50.3 42.4 50.7 42.7C50.9 42.8 51.1 43 51.2 43.1C52.2 43.9 53.1 44.6 54.1 45.2C54.5 45.5 55 45.5 55.5 45.2C55.9 45.1 56.2 44.6 56.2 44.1ZM51.5 39.7C51.4 39.6 51.3 39.5 51.2 39.5C50.6 39 49.9 38.4 48.9 38.5C48.2 38.6 47.5 39.3 47 39.8C46.8 40 46.7 40.1 46.6 40.2C46.5 40.3 46.5 40.3 46.4 40.4C46.5 40.1 46.6 39.8 46.7 39.5C46.8 39.1 47 38.8 47.1 38.4C47.3 37.9 47.1 37.4 46.7 37C46.4 36.7 46.1 36.6 45.7 36.6C45.6 36.6 45.4 36.6 45.3 36.7C45 36.8 44.2 36.6 43.3 36.3C44.5 36.1 45.8 36 47 35.9C47.7 35.8 48.1 35.5 48.4 34.9L48.5 34.7C48.6 34.6 48.6 34.4 48.7 34.3C48.8 34.2 48.8 34 48.8 33.9L48.9 33.6C48.9 33.5 48.9 33.4 49 33.3C49.4 34.2 49.9 35 50.5 35.4C51.1 35.8 51.8 35.9 52.6 35.9C52 36.6 51.5 37.3 51.5 38.2C51.5 38.8 51.6 39.3 51.8 39.8C51.5 39.8 51.5 39.7 51.5 39.7Z" fill="black"/>
</svg>
