<svg width="88" height="96" viewBox="0 0 88 96" fill="none" xmlns="http://www.w3.org/2000/svg">
<path d="M24.6356 71.5C28.1279 77.5 32.02 82.7 38.3065 82.7C46.7883 82.7 60.2596 84.5 62.0557 79C63.0536 75.9 62.9538 72.9 62.0557 65C61.3572 59.2 61.1577 60.7 59.0621 46C58.2639 40.3 60.5589 23.4 55.5696 20.5C50.6801 17.6 44.8924 23.1 39.4041 24.9C33.9159 26.7 33.417 20.6 30.6229 25.9C27.7291 31.4 20.0456 42.7 19.1475 49.5C18.0499 57.8 22.1408 65.5 24.6356 71.5Z" fill="#FFE0B7"/>
<path d="M67.6436 45.6C67.2445 41.9 66.2466 38.1 65.4483 34.5C64.3507 30 63.253 25.4 62.9537 20.8C63.0534 19.8 63.0534 18.9 62.9537 17.9V17.8C62.9537 17.3 62.6543 16.7 61.9558 16.6C51.4782 14.9 41.1005 15.8 32.1197 16.8C32.0199 16.8 31.9201 16.8 31.7206 16.9C31.521 16.9 31.4212 17 31.3214 17.1C30.9223 17.3 30.7227 17.8 30.7227 18.3C30.9223 24.1 29.0263 29.4 27.33 34.6C25.8332 38.9 24.3364 43.3 23.9372 48C23.5381 52.2 23.5381 56.5 23.5381 60.6V63.4C23.5381 68 23.5381 72.8 24.2366 77.4C24.3364 77.9 24.5359 78.2 25.0349 78.4C25.1347 78.4 25.1347 78.4 25.2345 78.4C25.434 78.6 25.7334 78.7 26.0327 78.7C27.4297 78.8 28.8268 78.8 30.3236 78.9C37.4084 79.2 44.7926 79.6 52.077 79.6C52.8752 79.6 53.6735 79.6 54.4718 79.6C54.6714 79.6 54.9708 79.5 55.0705 79.4C57.8646 78.8 60.0599 78 61.9558 76.7C62.4547 76.4 62.8539 76.1 63.3528 75.7C64.4505 74.9 65.4483 74.2 66.6457 73.7C66.7455 73.7 66.8453 73.6 66.9451 73.6H67.0449C67.444 73.4 67.6436 72.9 67.7434 72.4C67.7434 67.9 67.8432 63.4 67.8432 59V55.5C67.8432 54.8 67.8432 54.1 67.8432 53.4C67.943 50.8 67.943 48.2 67.6436 45.6ZM60.1596 19.1C60.1596 19.7 60.1596 20.2 60.1596 20.8C60.0599 22.4 59.7605 24 59.4611 25.6C51.1789 25.1 42.697 25.1 34.5146 25.1H33.0178C33.3171 23.2 33.5167 21.3 33.5167 19.4C42.0983 18.5 51.1789 17.8 60.1596 19.1ZM26.3321 63.4V59.8C26.3321 55.7 26.3321 51.5 26.7312 47.3C27.1304 43.3 28.5274 39.5 29.8246 35.9C30.2238 34.8 30.6229 33.6 31.0221 32.5C31.521 30.9 32.0199 29.4 32.3193 28H34.4148C42.3977 28 50.5802 28 58.6628 28.5C58.3635 29.5 58.0641 30.5 57.7648 31.4C57.5652 32.2 57.2658 33 57.0663 33.8C56.8667 34.6 56.5673 35.5 56.3678 36.3C55.1703 40.2 54.0727 44.2 53.6735 48.2C52.975 55.8 53.0748 63.6 53.1746 71.2C53.1746 73.1 53.1746 74.9 53.1746 76.8C45.4911 76.8 37.8075 76.5 30.3236 76.2C29.1261 76 28.0285 76 26.831 75.9C26.2323 71.8 26.2323 67.5 26.3321 63.4ZM55.9686 76.2C55.9686 74.5 55.9686 72.7 55.9686 71C55.8688 63.5 55.8688 55.7 56.4675 48.2C56.8667 44.3 57.9643 40.4 59.1618 36.6C59.4611 35.5 59.8603 34.4 60.1596 33.2C60.3592 32.6 60.5588 32 60.6586 31.4C60.8581 30.7 61.0577 30 61.2573 29.2C61.6564 31.1 62.0556 32.9 62.5545 34.7C63.4526 38.3 64.3507 42 64.7498 45.7C65.0492 48.2 64.9494 50.8 64.9494 53.3C64.9494 54 64.9494 54.7 64.9494 55.4V59.2C64.9494 63.2 64.8496 67.4 64.8496 71.5C63.6522 72.1 62.5545 72.8 61.4569 73.6L61.2573 73.8C59.6607 74.9 57.9643 75.7 55.9686 76.2Z" fill="black"/>
<path d="M36.5104 68.9C37.1091 68.9 37.608 68.9 38.107 69C39.6038 69.1 41.1006 69.3 42.4976 69.3C44.3935 69.3 46.1896 69.1 47.886 68.5L48.0856 68.4C48.9837 68.1 50.0813 67.7 50.4805 66.7C50.68 66.1 50.68 65.4 50.5802 64.8C50.5802 64.4 50.4805 64.1 50.4805 63.8C50.7798 59.6 50.7798 56.5 50.4805 53.3C50.2809 50.8 49.5824 50.2 47.0877 50.1C45.8903 50.1 44.6929 50 43.5952 49.9C41.1006 49.7 38.4063 49.5 35.8119 50.1C34.1155 49.9 31.3215 49.6 30.2239 51.6C29.8247 52.4 29.8247 53.4 29.8247 54.2V54.5C29.8247 55.1 29.8247 55.7 29.8247 56.4C29.8247 57.3 29.8247 58.2 29.8247 59.1C29.8247 59.8 29.8247 60.5 29.8247 61.1C29.8247 62 29.8247 63 29.9245 64C29.9245 64.2 29.9245 64.5 29.9245 64.7C29.9245 65.8 30.0243 67 30.8226 67.7C32.1198 68.8 34.5147 68.9 36.5104 68.9ZM36.1112 52.8C38.2067 52.3 40.3023 52.5 42.3978 52.7C43.4954 52.8 44.5931 52.9 45.7905 52.9C45.9901 52.9 46.1897 52.9 46.489 52.9C46.8882 52.9 47.2873 52.8 47.5867 52.9C47.5867 53 47.5867 53 47.5867 53.1C47.6864 53.7 47.6864 54.4 47.6864 55C47.6864 55.3 47.6864 55.5 47.6864 55.8C47.6864 56.2 47.7862 56.6 47.7862 57C47.886 57.8 47.886 58.6 47.886 59.4C47.886 60.2 47.7862 61 47.6864 61.8C47.5867 62.6 47.4869 63.4 47.4869 64.2C47.4869 64.4 47.4869 64.6 47.5867 64.8C47.6864 65 47.6864 65.3 47.6864 65.4C47.5867 65.6 47.3871 65.7 46.7884 65.9C46.6886 65.9 46.489 66 46.3892 66C44.7926 66.5 42.9965 66.5 41.5995 66.5C40.2025 66.5 38.8055 66.3 37.4085 66.2H37.3087C36.9095 66.2 36.4106 66.1 36.0115 66.1C35.2132 66.1 34.4149 66 33.6166 65.8C32.8183 65.6 32.8183 65.5 32.7185 64.7C32.7185 64.6 32.7185 64.4 32.6187 64.3C32.5189 63.6 32.5189 62.9 32.4191 62.3C32.4191 61.6 32.4191 61 32.4191 60.3C32.4191 59.5 32.4191 58.6 32.4191 57.8C32.4191 57.3 32.4191 56.8 32.4191 56.3C32.4191 55.6 32.4191 55 32.4191 54.3C32.4191 53.6 32.5189 53.2 32.8183 52.9C33.1177 52.7 33.5168 52.6 33.9159 52.6C34.3151 52.6 34.814 52.7 35.2132 52.7C35.7121 52.9 35.9117 52.9 36.1112 52.8Z" fill="black"/>
</svg>
