<?xml version="1.0" standalone="no"?>
<!DOCTYPE svg PUBLIC "-//W3C//DTD SVG 1.1//EN" "http://www.w3.org/Graphics/SVG/1.1/DTD/svg11.dtd" >
<svg>
<metadata>
Created by FontForge 20120731 at Tue May 21 14:11:04 2019
 By www-data
Copyright (c) 2011 ParaType Inc., ParaType Ltd. All rights reserved.
</metadata>
<defs>
<font id="Quartal-ExtBold" horiz-adv-x="500" >
  <font-face 
    font-family="Quartal-ExtBold"
    font-weight="400"
    font-stretch="normal"
    units-per-em="1000"
    panose-1="2 11 7 3 2 2 3 2 2 4"
    ascent="792"
    descent="-208"
    x-height="496"
    cap-height="700"
    bbox="-366 -217 1074 990"
    underline-thickness="50"
    underline-position="-100"
    unicode-range="U+0020-FB02"
  />
<missing-glyph horiz-adv-x="190" 
 />
    <glyph glyph-name="afii10017.var.accented" unicode="&#x410;`" horiz-adv-x="574" 
d="M371 176h-168l-34 -176h-149l148 700h238l148 -700h-149zM256 455l-30 -154h122l-30 154q-4 22 -9 48t-11 60.5t-10 55.5h-2q-4 -21 -10 -55.5t-11 -60.5t-9 -48zM174 733l74 152h160l-124 -152h-110z" />
    <glyph glyph-name="afii10022.var.accented" unicode="&#x415;`" horiz-adv-x="521" 
d="M477 0h-407v700h399v-125h-255v-144h219v-124h-219v-182h263v-125zM180 733l74 152h160l-124 -152h-110z" />
    <glyph glyph-name="afii10026.var.accented" unicode="&#x418;`" horiz-adv-x="626" 
d="M556 700v-700h-144v440h-1l-187 -440h-154v700h144v-440h1l187 440h154zM230 733l74 152h160l-124 -152h-110z" />
    <glyph glyph-name="afii10032.var.accented" unicode="&#x41e;`" horiz-adv-x="628" 
d="M582 350q0 -173 -65.5 -269.5t-202.5 -96.5t-202.5 96.5t-65.5 269.5t65.5 269.5t202.5 96.5t202.5 -96.5t65.5 -269.5zM434 350q0 241 -120 241t-120 -241t120 -241t120 241zM222 733l74 152h160l-124 -152h-110z" />
    <glyph glyph-name="afii10037.var.accented" unicode="&#x423;`" horiz-adv-x="558" 
d="M288 343h2l99 357h155l-188 -532q-41 -119 -98 -185l-140 35q70 72 99 153l-203 529h156zM207 733l74 152h160l-124 -152h-110z" />
    <glyph glyph-name="afii10045.var.accented" unicode="&#x42b;`" horiz-adv-x="815" 
d="M745 0h-144v700h144v-700zM70 0v700h144v-251q305 -66 305 -255q0 -82 -64 -138t-192 -56h-193zM214 319v-194h45q59 0 85.5 21.5t26.5 54.5q0 82 -157 118zM317 733l74 152h160l-124 -152h-110z" />
    <glyph glyph-name="afii10047.var.accented" unicode="&#x42d;`" horiz-adv-x="580" 
d="M262 -16q-93 0 -152.5 51.5t-59.5 136.5q0 39 7 75l140 12q-11 -43 -11 -73q0 -33 20 -55t54 -22q110 0 124 187h-153v122h152q-17 173 -123 173q-34 0 -54 -22t-20 -55q0 -30 11 -73l-140 12q-7 36 -7 75q0 85 59.5 136.5t152.5 51.5q121 0 196.5 -91t75.5 -275
t-75.5 -275t-196.5 -91zM192 733l74 152h160l-124 -152h-110z" />
    <glyph glyph-name="afii10048.var.accented" unicode="&#x42e;`" horiz-adv-x="872" 
d="M678 350q0 241 -108 241t-108 -241t108 -241t108 241zM826 350q0 -173 -63 -269.5t-193 -96.5q-121 0 -183.5 83t-71.5 233h-101v-300h-144v700h144v-275h103q12 138 74.5 214.5t178.5 76.5q130 0 193 -96.5t63 -269.5zM309 733l74 152h160l-124 -152h-110z" />
    <glyph glyph-name="afii10049.var.accented" unicode="&#x42f;`" horiz-adv-x="575" 
d="M328 365q-77 -81 -106 -159t-29 -206h-145q0 126 26 213.5t91 161.5q-83 83 -83 167q0 70 62 114t174 44h187v-700h-144v575h-39q-97 0 -97 -64q0 -60 103 -146zM236 733l74 152h160l-124 -152h-110z" />
    <glyph glyph-name="afii10023.var.accented" unicode="&#x401;`" horiz-adv-x="521" 
d="M477 0h-407v700h399v-125h-255v-144h219v-124h-219v-182h263v-125zM211 838l74 152h140l-124 -152h-90zM199 750h-96v120h96v-120zM439 750h-96v120h96v-120z" />
    <glyph glyph-name="afii10065.var.accented" unicode="&#x430;`" horiz-adv-x="515" 
d="M184 -16q-64 0 -103 39t-39 100q0 160 236 189l41 5v12q0 34 -18.5 54t-53.5 20q-58 0 -58 -55q0 -15 5 -33l-123 10q-4 21 -4 37q0 70 48 109.5t131 39.5q201 0 201 -179v-132q0 -111 28 -195l-127 -13l-10 63q-32 -38 -65.5 -54.5t-88.5 -16.5zM319 191v25l-39 -5
q-106 -14 -106 -78q0 -17 11.5 -30t34.5 -13q47 0 73 32.5t26 68.5zM174 548l57 185h149l-104 -185h-102z" />
    <glyph glyph-name="afii10070.var.accented" unicode="&#x435;`" horiz-adv-x="536" 
d="M278 96q39 0 57 17t18 40q0 12 -3 30l124 -13q1 -12 1 -27q0 -67 -51.5 -113t-141.5 -46q-65 0 -113 21.5t-75 59t-39.5 83t-12.5 100.5q0 131 63 197.5t165 66.5q95 0 156.5 -63.5t61.5 -200.5v-26h-314q12 -126 104 -126zM362 320q0 36 -25.5 62t-66.5 26
q-31 0 -58.5 -23t-33.5 -65h184zM183 548l57 185h149l-104 -185h-102z" />
    <glyph glyph-name="afii10074.var.accented" unicode="&#x438;`" horiz-adv-x="531" 
d="M336 496h128v-246q0 -125 27 -245l-126 -13l-10 63q-50 -71 -136 -71q-70 0 -114.5 42.5t-44.5 135.5v334h128v-324q0 -39 19 -57.5t46 -18.5q83 0 83 180v220zM180 548l57 185h149l-104 -185h-102z" />
    <glyph glyph-name="afii10080.var.accented" unicode="&#x43e;`" horiz-adv-x="542" 
d="M368 248q0 71 -24.5 111.5t-72.5 40.5t-72.5 -40.5t-24.5 -111.5t24.5 -111.5t72.5 -40.5t72.5 40.5t24.5 111.5zM500 248q0 -133 -63.5 -198.5t-165.5 -65.5t-165.5 65.5t-63.5 198.5t63.5 198.5t165.5 65.5t165.5 -65.5t63.5 -198.5zM189 548l57 185h149l-104 -185
h-102z" />
    <glyph glyph-name="afii10085.var.accented" unicode="&#x443;`" horiz-adv-x="516" 
d="M297 262l63 234h136l-146 -496q-24 -78 -41.5 -121t-45.5 -77l-135 28q62 70 94 170h-56l-146 496h136l63 -234q6 -22 19 -79.5t19 -81.5h2q6 24 19 81.5t19 79.5zM190 548l57 185h149l-104 -185h-102z" />
    <glyph glyph-name="afii10093.var.accented" unicode="&#x44b;`" horiz-adv-x="719" 
d="M659 0h-128v496h128v-496zM328 162q0 24 -17.5 40.5t-46.5 16.5q-33 0 -54.5 -22.5t-21.5 -63.5v-28q31 -7 62 -7q78 0 78 64zM188 496v-207q44 42 100 42q79 0 125.5 -47.5t46.5 -121.5q0 -76 -54 -126t-160 -50q-99 0 -186 27v483h128zM274 548l57 185h149l-104 -185
h-102z" />
    <glyph glyph-name="afii10095.var.accented" unicode="&#x44d;`" horiz-adv-x="505" 
d="M234 -16q-87 0 -136.5 43t-49.5 106q0 19 3 40l123 13q-4 -16 -4 -33q0 -27 17.5 -42t46.5 -15q37 0 62.5 27t32.5 84h-127v93h125q-17 100 -93 100q-29 0 -46.5 -15t-17.5 -42q0 -17 4 -33l-123 13q-3 21 -3 40q0 63 49.5 106t136.5 43q109 0 169 -70.5t60 -193.5
t-60 -193.5t-169 -70.5zM165 548l57 185h149l-104 -185h-102z" />
    <glyph glyph-name="afii10096.var.accented" unicode="&#x44e;`" horiz-adv-x="744" 
d="M572 248q0 72 -22.5 112t-66.5 40t-66.5 -40t-22.5 -112t22.5 -112t66.5 -40t66.5 40t22.5 112zM702 248q0 -133 -61 -198.5t-158 -65.5q-88 0 -147 54t-70 165h-78v-203h-128v496h128v-181h81q15 99 73 148t141 49q97 0 158 -65.5t61 -198.5zM263 548l57 185h149
l-104 -185h-102z" />
    <glyph glyph-name="afii10097.var.accented" unicode="&#x44f;`" horiz-adv-x="497" 
d="M272 254q-66 -38 -86.5 -97.5t-20.5 -156.5h-128q0 89 15 148t59 106q-60 51 -60 117q0 60 49.5 97.5t142.5 37.5q83 0 194 -23v-483h-128v388q-36 6 -60 6q-68 0 -68 -52q0 -24 21.5 -44t69.5 -44zM183 548l57 185h149l-104 -185h-102z" />
    <glyph glyph-name="afii10071.var.accented" unicode="&#x451;`" horiz-adv-x="536" 
d="M278 96q39 0 57 17t18 40q0 12 -3 30l124 -13q1 -12 1 -27q0 -67 -51.5 -113t-141.5 -46q-65 0 -113 21.5t-75 59t-39.5 83t-12.5 100.5q0 131 63 197.5t165 66.5q95 0 156.5 -63.5t61.5 -200.5v-26h-314q12 -126 104 -126zM362 320q0 36 -25.5 62t-66.5 26
q-31 0 -58.5 -23t-33.5 -65h184zM199 679l57 185h149l-104 -185h-102zM189 580h-96v120h96v-120zM423 580h-96v120h96v-120z" />
    <glyph glyph-name="fi" unicode="fi" horiz-adv-x="556" 
d="M496 0h-128v384h-139v-384h-128v384h-76v112h76v56q0 92 58 148t154 56q74 0 183 -28v-163h-128v69q-35 10 -61 10q-78 0 -78 -92v-56h267v-496z" />
    <glyph glyph-name="fl" unicode="fl" horiz-adv-x="583" 
d="M307 644q-78 0 -78 -92v-56h86v-112h-86v-384h-128v384h-76v112h76v56q0 91 57.5 147.5t154.5 56.5q77 0 187 -29v-547q0 -47 16.5 -65.5t61.5 -18.5l-33 -111q-95 0 -134 45.5t-39 146.5v456q-39 11 -65 11z" />
    <glyph glyph-name=".notdef" horiz-adv-x="190" 
 />
    <glyph glyph-name=".null" horiz-adv-x="0" 
 />
    <glyph glyph-name="nonmarkingreturn" horiz-adv-x="333" 
 />
    <glyph glyph-name="space" unicode=" " horiz-adv-x="190" 
 />
    <glyph glyph-name="exclam" unicode="!" horiz-adv-x="304" 
d="M234 700l-28 -490h-108l-28 490h164zM215 0h-136v126h136v-126z" />
    <glyph glyph-name="quotedbl" unicode="&#x22;" horiz-adv-x="346" 
d="M41 445l-19 255h136l-19 -255h-98zM207 445l-19 255h136l-19 -255h-98z" />
    <glyph glyph-name="numbersign" unicode="#" horiz-adv-x="629" 
d="M290 394l-39 -128h88l39 128h-88zM372 0h-111l52 173h-88l-52 -173h-111l52 173h-89l27 93h88l39 128h-88l27 93h88l51 173h111l-51 -173h88l51 173h111l-52 -173h89l-27 -93h-88l-39 -128h88l-27 -93h-88z" />
    <glyph glyph-name="dollar" unicode="$" horiz-adv-x="555" 
d="M329 -104h-100v90q-88 7 -133.5 52t-45.5 118q0 36 11 79l134 11q-16 -43 -16 -75q0 -34 23 -51.5t64 -17.5q47 0 73 20t26 51q0 28 -21.5 51t-94.5 55q-186 81 -186 214q0 66 44.5 115t121.5 63v93h100v-91q83 -9 123.5 -52t40.5 -107q0 -29 -9 -71l-133 -11
q13 40 13 69q0 27 -22.5 42t-59.5 15q-34 0 -57.5 -17t-23.5 -48q0 -25 20 -45.5t88 -51.5q110 -51 153 -103t43 -118q0 -65 -43.5 -118t-132.5 -68v-93z" />
    <glyph glyph-name="percent" unicode="%" horiz-adv-x="788" 
d="M606 660l-336 -660h-88l336 660h88zM328 478q0 -191 -141 -191t-141 191t141 191t141 -191zM141 478q0 -112 46 -112t46 112t-46 112t-46 -112zM460 182q0 191 141 191t141 -191t-141 -191t-141 191zM647 182q0 112 -46 112t-46 -112t46 -112t46 112z" />
    <glyph glyph-name="ampersand" unicode="&#x26;" horiz-adv-x="708" 
d="M498 358h134q0 -54 -24 -120t-61 -113q29 -29 106 -94l-143 -52q-45 42 -59 57q-87 -52 -189 -52q-88 0 -147.5 49.5t-59.5 133.5q0 57 29 106.5t105 96.5q-46 81 -46 142q0 77 56 120.5t143 43.5q82 0 130 -43t48 -100q0 -55 -39.5 -107.5t-117.5 -90.5q53 -73 99 -122
q36 63 36 145zM249 279q-54 -42 -54 -99q0 -35 22.5 -58.5t71.5 -23.5q38 0 79 22q-61 68 -119 159zM398 519q0 22 -16 35.5t-42 13.5q-29 0 -46 -16t-17 -41q0 -32 31 -90q90 42 90 98z" />
    <glyph glyph-name="quotesingle" unicode="'" horiz-adv-x="180" 
d="M41 445l-19 255h136l-19 -255h-98z" />
    <glyph glyph-name="parenleft" unicode="(" horiz-adv-x="377" 
d="M176 299q0 -229 157 -421l-102 -45q-92 93 -139.5 214.5t-47.5 251.5t47.5 251.5t139.5 214.5l102 -45q-157 -192 -157 -421z" />
    <glyph glyph-name="parenright" unicode=")" horiz-adv-x="377" 
d="M201 299q0 229 -157 421l102 45q92 -93 139.5 -214.5t47.5 -251.5t-47.5 -251.5t-139.5 -214.5l-102 45q157 192 157 421z" />
    <glyph glyph-name="asterisk" unicode="*" horiz-adv-x="492" 
d="M183 700h126l-28 -126l112 65l39 -120l-129 -13l97 -86l-102 -74l-52 119l-52 -119l-102 74l97 86l-129 13l39 120l111 -65z" />
    <glyph glyph-name="plus" unicode="+" horiz-adv-x="498" 
d="M197 136v149h-147v100h147v149h104v-149h147v-100h-147v-149h-104z" />
    <glyph glyph-name="comma" unicode="," horiz-adv-x="276" 
d="M121 0h-51v126h136v-126q0 -77 -50 -149l-80 21q45 57 45 128z" />
    <glyph glyph-name="hyphen" unicode="-" horiz-adv-x="402" 
d="M358 206h-314v116h314v-116z" />
    <glyph glyph-name="period" unicode="." horiz-adv-x="276" 
d="M206 0h-136v126h136v-126z" />
    <glyph glyph-name="slash" unicode="/" horiz-adv-x="333" 
d="M311 700l-222 -842h-105l222 842h105z" />
    <glyph glyph-name="zero" unicode="0" horiz-adv-x="578" 
d="M532 330q0 -183 -65.5 -264.5t-177.5 -81.5t-177.5 81.5t-65.5 264.5t65.5 264.5t177.5 81.5t177.5 -81.5t65.5 -264.5zM186 330q0 -228 103 -228t103 228t-103 228t-103 -228z" />
    <glyph glyph-name="one" unicode="1" horiz-adv-x="358" 
d="M270 0h-136v542h-104v118h240v-660z" />
    <glyph glyph-name="two" unicode="2" horiz-adv-x="528" 
d="M484 496q0 -70 -38.5 -124.5t-119.5 -109.5q-75 -50 -113 -83t-38 -61h308v-118h-439v100q0 69 43 121.5t140 116.5q117 76 117 147q0 33 -27 53t-64 20q-36 0 -58 -22t-22 -57t13 -75l-133 12q-9 43 -9 77q0 77 57.5 130t151.5 53t162.5 -47t68.5 -133z" />
    <glyph glyph-name="three" unicode="3" horiz-adv-x="538" 
d="M169 173q0 -33 22.5 -52t58.5 -19q48 0 75 26t27 64q0 44 -29 68t-76 24q-9 0 -21 -2l-17 114q121 19 121 104q0 23 -20 40.5t-54 17.5q-40 0 -58.5 -20.5t-18.5 -49.5q0 -24 7 -53l-128 12q-7 32 -7 60q0 74 55.5 121.5t150.5 47.5q99 0 155 -43t56 -110
q0 -102 -99 -157q123 -50 123 -175q0 -97 -68.5 -152t-173.5 -55q-104 0 -157 46t-53 127q0 29 8 68l131 11q-10 -35 -10 -63z" />
    <glyph glyph-name="four" unicode="4" horiz-adv-x="550" 
d="M30 268l190 392h219v-394h74v-118h-74v-148h-136v148h-273v120zM244 445l-87 -179h146v322q-32 -91 -59 -143z" />
    <glyph glyph-name="five" unicode="5" horiz-adv-x="544" 
d="M176 174q0 -30 21 -51t60 -21q49 0 78 28.5t29 71.5q0 48 -35 77t-102 29q-59 0 -144 -19v371h360v-118h-224v-117q16 1 48 1q103 0 170 -60.5t67 -163.5q0 -93 -63 -155.5t-184 -62.5q-105 0 -157.5 48t-52.5 121q0 32 8 71l132 11q-11 -39 -11 -61z" />
    <glyph glyph-name="six" unicode="6" horiz-adv-x="557" 
d="M295 102q39 0 60.5 25.5t21.5 67.5q0 46 -28 70.5t-76 24.5q-40 0 -85 -13q1 -94 28 -134.5t79 -40.5zM293 -16q-123 0 -185 89t-62 257q0 82 16 145.5t40.5 100.5t59 60.5t66 31.5t66.5 8q89 0 144.5 -44.5t55.5 -113.5q0 -29 -6 -57l-149 -13q10 29 10 54t-14.5 40.5
t-41.5 15.5q-52 0 -76.5 -40.5t-30.5 -125.5q55 16 102 16q42 0 79 -10t72 -32.5t55.5 -65.5t20.5 -103q0 -95 -59.5 -154t-162.5 -59z" />
    <glyph glyph-name="seven" unicode="7" horiz-adv-x="488" 
d="M461 660v-96q-96 -148 -145 -277t-73 -287h-140q47 281 207 542h-283v118h434z" />
    <glyph glyph-name="eight" unicode="8" horiz-adv-x="568" 
d="M284 362q36 36 55.5 64.5t23.5 42.5t4 30q0 59 -83 59t-83 -59q0 -16 4 -30t23.5 -42.5t55.5 -64.5zM284 102q98 0 98 72q0 35 -21.5 72.5t-76.5 93.5q-55 -56 -76.5 -93.5t-21.5 -72.5q0 -72 98 -72zM417 356q105 -116 105 -198q0 -76 -57 -125t-181 -49t-181 49
t-57 125q0 82 105 198q-87 96 -87 166q0 73 58.5 113.5t161.5 40.5t161.5 -40.5t58.5 -113.5q0 -70 -87 -166z" />
    <glyph glyph-name="nine" unicode="9" horiz-adv-x="557" 
d="M262 558q-39 0 -60.5 -25.5t-21.5 -67.5q0 -46 28 -70.5t76 -24.5q40 0 85 13q-1 94 -28 134.5t-79 40.5zM264 676q123 0 185 -89t62 -257q0 -82 -16 -145.5t-40.5 -100.5t-59 -60.5t-66 -31.5t-66.5 -8q-89 0 -144.5 44.5t-55.5 113.5q0 29 6 57l149 13q-10 -29 -10 -54
t14.5 -40.5t41.5 -15.5q52 0 76.5 40.5t30.5 125.5q-55 -16 -102 -16q-42 0 -79 10t-72 32.5t-55.5 65.5t-20.5 103q0 95 59.5 154t162.5 59z" />
    <glyph glyph-name="colon" unicode=":" horiz-adv-x="276" 
d="M206 0h-136v126h136v-126zM206 370h-136v126h136v-126z" />
    <glyph glyph-name="semicolon" unicode=";" horiz-adv-x="276" 
d="M121 0h-51v126h136v-126q0 -77 -50 -149l-80 21q45 57 45 128zM206 370h-136v126h136v-126z" />
    <glyph glyph-name="less" unicode="&#x3c;" horiz-adv-x="498" 
d="M194 335l254 -87v-108l-398 142v106l398 142v-108z" />
    <glyph glyph-name="equal" unicode="=" horiz-adv-x="498" 
d="M50 375v100h398v-100h-398zM50 195v100h398v-100h-398z" />
    <glyph glyph-name="greater" unicode="&#x3e;" horiz-adv-x="498" 
d="M50 248l254 87l-254 87v108l398 -142v-106l-398 -142v108z" />
    <glyph glyph-name="question" unicode="?" horiz-adv-x="516" 
d="M245 598q-38 0 -57 -18.5t-19 -47.5q0 -30 10 -64l-127 11q-8 32 -8 68q0 80 57.5 124.5t143.5 44.5q107 0 167 -48.5t60 -124.5q0 -82 -92 -175q-55 -56 -70.5 -82.5t-15.5 -54.5v-21h-108v22q0 60 18.5 101t70.5 97q34 36 45.5 57.5t11.5 44.5q0 27 -24 46.5t-63 19.5z
M308 0h-136v126h136v-126z" />
    <glyph glyph-name="at" unicode="@" horiz-adv-x="978" 
d="M695 200q0 -66 4 -88q54 16 89 67t35 128q0 140 -89 223t-230 83q-107 0 -186 -52.5t-116.5 -134.5t-37.5 -179q0 -70 21.5 -134.5t62.5 -116.5t107.5 -83.5t148.5 -31.5q155 0 285 56l37 -95q-150 -59 -322 -59q-106 0 -193.5 40t-142 106.5t-84 148.5t-29.5 169
q0 68 17.5 134t55 126t89.5 105.5t126 72t161 26.5q79 0 152 -25t133.5 -73t97 -127t36.5 -179q0 -145 -93 -228.5t-234 -86.5l-10 63q-32 -38 -65.5 -54.5t-88.5 -16.5q-64 0 -103 39t-39 100q0 79 60.5 127t175.5 62l41 5v12q0 34 -18.5 54t-53.5 20q-58 0 -58 -55
q0 -15 5 -33l-123 10q-4 21 -4 37q0 70 48 109.5t131 39.5q201 0 201 -179v-132zM567 191v25l-39 -5q-106 -14 -106 -78q0 -17 11.5 -30t34.5 -13q47 0 73 32.5t26 68.5z" />
    <glyph glyph-name="A" unicode="A" horiz-adv-x="574" 
d="M371 176h-168l-34 -176h-149l148 700h238l148 -700h-149zM256 455l-30 -154h122l-30 154q-4 22 -9 48t-11 60.5t-10 55.5h-2q-4 -21 -10 -55.5t-11 -60.5t-9 -48z" />
    <glyph glyph-name="B" unicode="B" horiz-adv-x="576" 
d="M493 552q0 -72 -75 -154q65 -57 91.5 -104.5t26.5 -101.5q0 -87 -64.5 -139.5t-199.5 -52.5h-202v700h191q103 0 167.5 -37t64.5 -111zM349 507q0 27 -21.5 47.5t-70.5 20.5h-43v-450h54q64 0 92 22.5t28 56.5q0 35 -27.5 71.5t-110.5 98.5q99 73 99 133z" />
    <glyph glyph-name="C" unicode="C" horiz-adv-x="580" 
d="M194 350q0 -123 33.5 -182t92.5 -59q34 0 54 22t20 55q0 35 -13 81l140 -12q9 -39 9 -83q0 -85 -59.5 -136.5t-152.5 -51.5q-121 0 -196.5 91t-75.5 275t75.5 275t196.5 91q93 0 152.5 -51.5t59.5 -136.5q0 -44 -9 -83l-140 -12q13 46 13 81q0 33 -20 55t-54 22
q-59 0 -92.5 -59t-33.5 -182z" />
    <glyph glyph-name="D" unicode="D" horiz-adv-x="618" 
d="M70 0v700h147q186 0 270.5 -85.5t84.5 -264.5t-84.5 -264.5t-270.5 -85.5h-147zM214 575v-450q117 0 163.5 48.5t46.5 176.5t-46.5 176.5t-163.5 48.5z" />
    <glyph glyph-name="E" unicode="E" horiz-adv-x="521" 
d="M477 0h-407v700h399v-125h-255v-144h219v-124h-219v-182h263v-125z" />
    <glyph glyph-name="F" unicode="F" horiz-adv-x="498" 
d="M463 575h-249v-176h232v-125h-232v-274h-144v700h393v-125z" />
    <glyph glyph-name="G" unicode="G" horiz-adv-x="607" 
d="M428 -3l-2 62q-54 -75 -154 -75q-53 0 -92.5 17t-64.5 47t-41 77t-22 101t-6 124q0 105 25 180.5t67.5 114t86 55t92.5 16.5q106 0 160 -55t54 -125q0 -36 -6 -73l-140 -13q11 38 11 73q0 29 -22 48.5t-60 19.5q-47 0 -83.5 -57t-36.5 -184q0 -135 29 -188t83 -53
q43 0 70 29.5t27 75.5v8h-103v125h247v-350h-119z" />
    <glyph glyph-name="H" unicode="H" horiz-adv-x="614" 
d="M544 0h-144v316h-186v-316h-144v700h144v-259h186v259h144v-700z" />
    <glyph glyph-name="I" unicode="I" horiz-adv-x="284" 
d="M214 0h-144v700h144v-700z" />
    <glyph glyph-name="J" unicode="J" horiz-adv-x="543" 
d="M477 700v-454q0 -262 -237 -262q-104 0 -157 51t-53 135q0 37 11 89l143 13q-16 -60 -16 -91q0 -72 72 -72q43 0 68 34.5t25 102.5v454h144z" />
    <glyph glyph-name="K" unicode="K" horiz-adv-x="575" 
d="M214 700v-700h-144v700h144zM247 370l124 330h147l-127 -290q77 -72 107.5 -167.5t30.5 -242.5h-144q0 143 -32 225t-106 145z" />
    <glyph glyph-name="L" unicode="L" horiz-adv-x="467" 
d="M443 0h-373v700h144v-575h229v-125z" />
    <glyph glyph-name="M" unicode="M" horiz-adv-x="750" 
d="M546 572l-110 -462h-122l-110 462h-1q6 -210 6 -234v-338h-139v700h212l93 -392l93 392h212v-700h-139v338q0 24 6 234h-1z" />
    <glyph glyph-name="N" unicode="N" horiz-adv-x="634" 
d="M564 700v-700h-199l-167 540h-1q12 -180 12 -226v-314h-139v700h199l167 -540h1q-12 180 -12 226v314h139z" />
    <glyph glyph-name="O" unicode="O" horiz-adv-x="628" 
d="M582 350q0 -173 -65.5 -269.5t-202.5 -96.5t-202.5 96.5t-65.5 269.5t65.5 269.5t202.5 96.5t202.5 -96.5t65.5 -269.5zM434 350q0 241 -120 241t-120 -241t120 -241t120 241z" />
    <glyph glyph-name="P" unicode="P" horiz-adv-x="523" 
d="M214 575v-174q68 13 102 41.5t34 64.5q0 31 -24.5 49.5t-65.5 18.5h-46zM214 272v-272h-144v700h194q102 0 165.5 -54.5t63.5 -133.5q0 -91 -67.5 -148.5t-211.5 -91.5z" />
    <glyph glyph-name="Q" unicode="Q" horiz-adv-x="628" 
d="M434 350q0 241 -120 241t-120 -241t120 -241t120 241zM582 350q0 -152 -50.5 -245.5t-155.5 -114.5q1 -36 27 -48.5t84 -14.5l-51 -121q-91 1 -137.5 52.5t-46.5 131.5q-105 21 -155.5 114.5t-50.5 245.5q0 173 65 269.5t202 96.5t203 -96.5t66 -269.5z" />
    <glyph glyph-name="R" unicode="R" horiz-adv-x="575" 
d="M247 365q103 86 103 146q0 64 -97 64h-39v-575h-144v700h187q112 0 174 -44t62 -114q0 -84 -83 -167q65 -74 91 -161.5t26 -213.5h-145q0 128 -29 206t-106 159z" />
    <glyph glyph-name="S" unicode="S" horiz-adv-x="561" 
d="M266 -16q-111 0 -168.5 49t-57.5 133q0 38 11 83l142 12q-17 -45 -17 -80t24.5 -53.5t67.5 -18.5q51 0 78 21t27 55q0 29 -23 53t-100 58q-197 87 -197 226q0 82 64 138t168 56q113 0 168 -47t55 -124q0 -31 -9 -75l-141 -12q14 46 14 73q0 28 -24 44t-63 16
q-36 0 -60.5 -18t-24.5 -50q0 -27 21 -48.5t93 -54.5q111 -52 159 -107t48 -127q0 -81 -62.5 -141.5t-192.5 -60.5z" />
    <glyph glyph-name="T" unicode="T" horiz-adv-x="548" 
d="M523 575h-177v-575h-144v575h-177v125h498v-125z" />
    <glyph glyph-name="U" unicode="U" horiz-adv-x="630" 
d="M315 109q59 0 82 28.5t23 82.5v480h144v-480q0 -111 -60 -173.5t-189 -62.5t-189 62.5t-60 173.5v480h144v-480q0 -54 23 -82.5t82 -28.5z" />
    <glyph glyph-name="V" unicode="V" horiz-adv-x="574" 
d="M260 264q4 -18 26 -149h2q20 122 26 149l90 436h150l-163 -700h-208l-163 700h150z" />
    <glyph glyph-name="W" unicode="W" horiz-adv-x="890" 
d="M348 700h194l71 -437q8 -52 20 -166h2q12 114 20 166l65 437h144l-114 -700h-214l-69 422q-8 51 -21 176h-2q-13 -125 -21 -176l-69 -422h-214l-114 700h144l65 -437q8 -52 20 -166h2q12 114 20 166z" />
    <glyph glyph-name="X" unicode="X" horiz-adv-x="584" 
d="M291 395h2l93 305h154l-114 -330l128 -370h-155l-106 355h-2l-106 -355h-155l128 370l-114 330h154z" />
    <glyph glyph-name="Y" unicode="Y" horiz-adv-x="564" 
d="M318 511l72 189h160l-196 -430v-270h-144v270l-196 430h160l72 -189q12 -32 36 -101z" />
    <glyph glyph-name="Z" unicode="Z" horiz-adv-x="517" 
d="M484 0h-451v101l259 474h-242v125h417v-101l-259 -474h276v-125z" />
    <glyph glyph-name="bracketleft" unicode="[" horiz-adv-x="340" 
d="M296 -142h-226v882h226v-100h-98v-682h98v-100z" />
    <glyph glyph-name="backslash" unicode="\" horiz-adv-x="333" 
d="M206 0l-184 700h105l184 -700h-105z" />
    <glyph glyph-name="bracketright" unicode="]" horiz-adv-x="340" 
d="M270 -142h-226v100h98v682h-98v100h226v-882z" />
    <glyph glyph-name="asciicircum" unicode="^" horiz-adv-x="496" 
d="M315 660l148 -360h-128l-87 232l-87 -232h-128l148 360h134z" />
    <glyph glyph-name="underscore" unicode="_" horiz-adv-x="422" 
d="M422 -78v-112h-422v112h422z" />
    <glyph glyph-name="grave" unicode="`" 
d="M296 733l57 -185h-102l-104 185h149z" />
    <glyph glyph-name="a" unicode="a" horiz-adv-x="515" 
d="M184 -16q-64 0 -103 39t-39 100q0 160 236 189l41 5v12q0 34 -18.5 54t-53.5 20q-58 0 -58 -55q0 -15 5 -33l-123 10q-4 21 -4 37q0 70 48 109.5t131 39.5q201 0 201 -179v-132q0 -111 28 -195l-127 -13l-10 63q-32 -38 -65.5 -54.5t-88.5 -16.5zM319 191v25l-39 -5
q-106 -14 -106 -78q0 -17 11.5 -30t34.5 -13q47 0 73 32.5t26 68.5z" />
    <glyph glyph-name="b" unicode="b" horiz-adv-x="551" 
d="M240 -14q-91 0 -180 26v728h128v-283q43 55 130 55q88 0 139.5 -62t51.5 -189q0 -119 -69.5 -197t-199.5 -78zM377 261q0 139 -90 139q-50 0 -74.5 -46t-24.5 -154v-94q24 -8 54 -8q65 0 100 42t35 121z" />
    <glyph glyph-name="c" unicode="c" horiz-adv-x="505" 
d="M174 248q0 -78 27 -115t70 -37q29 0 46.5 15t17.5 42q0 20 -7 47l124 -13q5 -30 5 -54q0 -63 -49.5 -106t-136.5 -43q-109 0 -169 70.5t-60 193.5t60 193.5t169 70.5q87 0 136.5 -43t49.5 -106q0 -24 -5 -54l-124 -13q7 27 7 47q0 27 -17.5 42t-46.5 15q-43 0 -70 -37
t-27 -115z" />
    <glyph glyph-name="d" unicode="d" horiz-adv-x="560" 
d="M394 -8l-10 63q-49 -71 -146 -71q-92 0 -144 65.5t-52 198.5q0 134 51 199t139 65q86 0 133 -59v287h128v-490q0 -125 27 -245zM370 248q0 78 -27.5 115t-70.5 37t-70.5 -37t-27.5 -115t27.5 -115t70.5 -37t70.5 37t27.5 115z" />
    <glyph glyph-name="e" unicode="e" horiz-adv-x="536" 
d="M278 96q39 0 57 17t18 40q0 12 -3 30l124 -13q1 -12 1 -27q0 -67 -51.5 -113t-141.5 -46q-65 0 -113 21.5t-75 59t-39.5 83t-12.5 100.5q0 131 63 197.5t165 66.5q95 0 156.5 -63.5t61.5 -200.5v-26h-314q12 -126 104 -126zM362 320q0 36 -25.5 62t-66.5 26
q-31 0 -58.5 -23t-33.5 -65h184z" />
    <glyph glyph-name="f" unicode="f" horiz-adv-x="351" 
d="M301 644q-72 0 -72 -80v-68h97v-112h-97v-384h-128v384h-76v112h76v68q0 91 47.5 141.5t133.5 50.5q43 0 104 -13l-29 -116q-29 17 -56 17z" />
    <glyph glyph-name="g" unicode="g" horiz-adv-x="493" 
d="M142 -37q0 -26 26.5 -42.5t68.5 -16.5q52 0 77.5 19t25.5 44q0 22 -23.5 37.5t-85.5 33.5l-29 8q-60 -40 -60 -83zM306 348q0 27 -20.5 46t-48.5 19t-48.5 -19t-20.5 -46t20.5 -46t48.5 -19t48.5 19t20.5 46zM117 140q0 38 36 57q-51 18 -79.5 57.5t-28.5 93.5
q0 74 53.5 119t138.5 45q55 0 100 -21l125 12l8 -89h-55q14 -31 14 -66q0 -64 -41 -107t-110 -54q-38 -6 -38 -27q0 -19 26 -25q112 -26 159 -64t47 -102q0 -73 -65 -118.5t-170 -45.5q-101 0 -158 37t-57 102q0 46 25 82t86 71q-16 21 -16 43z" />
    <glyph glyph-name="h" unicode="h" horiz-adv-x="524" 
d="M336 0v324q0 39 -19 57.5t-46 18.5q-83 0 -83 -180v-220h-128v740h128l-5 -281q46 53 122 53q70 0 114.5 -42.5t44.5 -135.5v-334h-128z" />
    <glyph glyph-name="i" unicode="i" horiz-adv-x="248" 
d="M188 0h-128v496h128v-496zM188 565h-128v135h128v-135z" />
    <glyph glyph-name="j" unicode="j" horiz-adv-x="252" 
d="M192 496v-432q0 -205 -139 -262l-88 83q99 27 99 181v430h128zM192 565h-128v135h128v-135z" />
    <glyph glyph-name="k" unicode="k" horiz-adv-x="495" 
d="M216 254l98 242h132l-96 -195q62 -48 83.5 -120.5t21.5 -180.5h-128q0 104 -22 161t-89 93zM188 0h-128v740h128v-740z" />
    <glyph glyph-name="l" unicode="l" horiz-adv-x="271" 
d="M60 177v563h128v-560q0 -47 16.5 -65.5t61.5 -18.5l-33 -111q-95 0 -134 45.5t-39 146.5z" />
    <glyph glyph-name="m" unicode="m" horiz-adv-x="797" 
d="M466 0h-128v324q0 37 -18 56.5t-45 19.5q-80 0 -80 -180v-220h-128v246q0 125 -27 245l126 13l10 -63q48 71 134 71q93 0 133 -70q47 70 135 70q75 0 117 -44.5t42 -133.5v-334h-128v324q0 37 -18 56.5t-45 19.5q-80 0 -80 -180v-220z" />
    <glyph glyph-name="n" unicode="n" horiz-adv-x="531" 
d="M40 491l126 13l10 -63q50 71 136 71q70 0 114.5 -42.5t44.5 -135.5v-334h-128v324q0 39 -19 57.5t-46 18.5q-83 0 -83 -180v-220h-128v246q0 125 -27 245z" />
    <glyph glyph-name="o" unicode="o" horiz-adv-x="542" 
d="M368 248q0 71 -24.5 111.5t-72.5 40.5t-72.5 -40.5t-24.5 -111.5t24.5 -111.5t72.5 -40.5t72.5 40.5t24.5 111.5zM500 248q0 -133 -63.5 -198.5t-165.5 -65.5t-165.5 65.5t-63.5 198.5t63.5 198.5t165.5 65.5t165.5 -65.5t63.5 -198.5z" />
    <glyph glyph-name="p" unicode="p" horiz-adv-x="558" 
d="M384 261q0 139 -90 139q-46 0 -72.5 -42.5t-26.5 -157.5v-94q25 -4 45 -4q71 0 107.5 36t36.5 123zM166 504l10 -63q56 71 150 71q95 0 142.5 -66t47.5 -185q0 -128 -68.5 -199.5t-199.5 -71.5q-29 0 -53 3v-173h-128v426q0 125 -27 245z" />
    <glyph glyph-name="q" unicode="q" horiz-adv-x="555" 
d="M384 441l9 59h100v-680h-128v223q-47 -59 -133 -59q-88 0 -139 65t-51 199q0 133 52 198.5t144 65.5q97 0 146 -71zM370 248q0 78 -27.5 115t-70.5 37t-70.5 -37t-27.5 -115t27.5 -115t70.5 -37t70.5 37t27.5 115z" />
    <glyph glyph-name="r" unicode="r" horiz-adv-x="454" 
d="M166 504l10 -60q45 68 123 68q61 0 97 -36.5t36 -108.5q0 -29 -8 -65l-123 -14q9 40 9 65q0 23 -13.5 35t-33.5 12q-68 0 -68 -180v-220h-128v246q0 125 -27 245z" />
    <glyph glyph-name="s" unicode="s" horiz-adv-x="490" 
d="M252 406q-35 0 -52 -13t-17 -31q0 -20 16.5 -30.5t63.5 -21.5q97 -23 142 -63t45 -105q0 -68 -54 -113t-159 -45q-100 0 -148.5 38t-48.5 103q0 21 5 46l123 10q-6 -24 -6 -41q0 -50 75 -50q42 0 61.5 14.5t19.5 35.5t-17.5 33.5t-73.5 25.5q-175 39 -175 161
q0 67 52.5 109.5t148.5 42.5q93 0 139 -38t46 -99q0 -22 -4 -43l-124 -10q6 21 6 39q0 45 -64 45z" />
    <glyph glyph-name="t" unicode="t" horiz-adv-x="375" 
d="M326 496v-112h-97v-237q0 -29 9 -40t34 -11q23 0 49 9l14 -106q-51 -15 -102 -15q-132 0 -132 162v238h-76v112h76v144l128 14v-158h97z" />
    <glyph glyph-name="u" unicode="u" horiz-adv-x="531" 
d="M336 496h128v-246q0 -125 27 -245l-126 -13l-10 63q-50 -71 -136 -71q-70 0 -114.5 42.5t-44.5 135.5v334h128v-324q0 -39 19 -57.5t46 -18.5q83 0 83 180v220z" />
    <glyph glyph-name="v" unicode="v" horiz-adv-x="516" 
d="M257 108h2q17 75 27 115l74 273h136l-146 -496h-184l-146 496h136l74 -273q10 -40 27 -115z" />
    <glyph glyph-name="w" unicode="w" horiz-adv-x="784" 
d="M472 496l49 -236q14 -66 32 -163h2l30 163l43 236h126l-102 -496h-186l-49 240q-9 43 -24 133h-2q-15 -90 -24 -133l-49 -240h-186l-102 496h126l43 -236l30 -163h2q18 97 32 163l49 236h160z" />
    <glyph glyph-name="x" unicode="x" horiz-adv-x="504" 
d="M253 282l74 214h141l-101 -232l112 -264h-141l-85 248h-2l-85 -248h-141l112 264l-101 232h141l74 -214h2z" />
    <glyph glyph-name="y" unicode="y" horiz-adv-x="516" 
d="M297 262l63 234h136l-146 -496q-24 -78 -41.5 -121t-45.5 -77l-135 28q62 70 94 170h-56l-146 496h136l63 -234q6 -22 19 -79.5t19 -81.5h2q6 24 19 81.5t19 79.5z" />
    <glyph glyph-name="z" unicode="z" horiz-adv-x="448" 
d="M415 0h-382v90l198 294h-183v112h352v-90l-198 -294h213v-112z" />
    <glyph glyph-name="braceleft" unicode="{" horiz-adv-x="397" 
d="M353 -60l-78 -94q-74 16 -111 70.5t-37 135.5v91q0 44 -19.5 68t-67.5 29v118q48 5 67.5 29t19.5 68v91q0 81 37 135.5t111 70.5l78 -94q-49 -9 -73.5 -36t-24.5 -79v-90q0 -116 -76 -153v-2q76 -37 76 -153v-90q0 -52 24.5 -79t73.5 -36z" />
    <glyph glyph-name="bar" unicode="|" horiz-adv-x="282" 
d="M77 -150v890h128v-890h-128z" />
    <glyph glyph-name="braceright" unicode="}" horiz-adv-x="397" 
d="M122 -154l-78 94q49 9 73.5 36t24.5 79v90q0 116 76 153v2q-76 37 -76 153v90q0 52 -24.5 79t-73.5 36l78 94q74 -16 111 -70.5t37 -135.5v-91q0 -44 19.5 -68t67.5 -29v-118q-48 -5 -67.5 -29t-19.5 -68v-91q0 -81 -37 -135.5t-111 -70.5z" />
    <glyph glyph-name="asciitilde" unicode="~" horiz-adv-x="820" 
d="M373 324l98 -19q91 -17 122 -17q73 0 73 61l88 -10q0 -66 -39 -108t-125 -42q-56 0 -143 17l-98 19q-91 17 -123 17q-39 0 -55.5 -15t-16.5 -46l-88 10q0 66 38.5 108t124.5 42q57 0 144 -17z" />
    <glyph glyph-name="nbspace" unicode="&#xa0;" horiz-adv-x="190" 
 />
    <glyph glyph-name="exclamdown" unicode="&#xa1;" horiz-adv-x="304" 
d="M206 290l28 -490h-164l28 490h108zM79 500h136v-126h-136v126z" />
    <glyph glyph-name="cent" unicode="&#xa2;" horiz-adv-x="507" 
d="M174 248q0 -78 27 -115t70 -37q29 0 46.5 15t17.5 42q0 20 -7 47l124 -13q5 -30 5 -54q0 -55 -39 -96t-109 -50v-99h-95v102q-83 17 -127.5 84.5t-44.5 173.5q0 105 44.5 173t127.5 85v102h95v-99q70 -9 109 -50t39 -96q0 -24 -5 -54l-124 -13q7 27 7 47q0 27 -17.5 42
t-46.5 15q-43 0 -70 -37t-27 -115z" />
    <glyph glyph-name="sterling" unicode="&#xa3;" horiz-adv-x="541" 
d="M344 266h-87v-4q0 -81 -50 -144h290v-118h-444v102q70 57 70 148v16h-79v100h53q-34 75 -34 125q0 85 64 135t160 50q95 0 149.5 -50t54.5 -126q0 -30 -6 -62l-133 -12q11 30 11 61t-19.5 51t-56.5 20t-60.5 -17.5t-23.5 -51.5q0 -22 5.5 -37.5t17 -38.5t19.5 -47h99
v-100z" />
    <glyph glyph-name="currency" unicode="&#xa4;" horiz-adv-x="498" 
d="M171 330q0 -32 23 -55t55 -23t55 23t23 55t-23 55t-55 23t-55 -23t-23 -55zM443 461l-48 -48q22 -39 22 -83q0 -45 -22 -83l48 -48l-63 -63l-48 48q-39 -22 -83 -22q-45 0 -83 22l-48 -48l-63 63l48 48q-22 38 -22 83q0 44 22 83l-48 48l63 63l48 -48q38 22 83 22
q44 0 83 -22l48 48z" />
    <glyph glyph-name="yen" unicode="&#xa5;" horiz-adv-x="566" 
d="M317 481l68 179h151l-116 -255h68v-100h-114l-19 -43h133v-100h-137v-162h-136v162h-137v100h133l-20 43h-113v100h68l-116 255h151l68 -179q19 -51 34 -95q8 25 34 95z" />
    <glyph glyph-name="brokenbar" unicode="&#xa6;" horiz-adv-x="282" 
d="M77 230h128v-380h-128v380zM205 360h-128v380h128v-380z" />
    <glyph glyph-name="section" unicode="&#xa7;" horiz-adv-x="573" 
d="M303 307q-30 13 -59 29q-31 -7 -46.5 -25t-15.5 -41q0 -27 20 -46t68 -41q28 -13 58 -30q31 7 47 25.5t16 41.5q0 27 -20 46t-68 41zM50 265q0 101 93 148q-47 50 -47 108q0 67 50.5 111t154.5 44q87 0 138.5 -38t51.5 -108q0 -25 -8 -60l-123 -10q9 28 9 55
q0 22 -18 35.5t-50 13.5q-37 0 -55 -13.5t-18 -33.5q0 -21 19.5 -37t80.5 -43q115 -53 155 -100t40 -112q0 -101 -93 -148q47 -52 47 -108q0 -67 -50.5 -111t-154.5 -44q-87 0 -138.5 38t-51.5 108q0 25 8 60l123 10q-9 -28 -9 -55q0 -22 18 -35.5t50 -13.5q37 0 55 13.5
t18 33.5q0 21 -19.5 37t-80.5 43q-115 53 -155 100t-40 112z" />
    <glyph glyph-name="dieresis" unicode="&#xa8;" 
d="M200 565h-111v135h111v-135zM411 565h-111v135h111v-135z" />
    <glyph glyph-name="copyright" unicode="&#xa9;" horiz-adv-x="830" 
d="M55 345q0 149 105.5 254.5t254.5 105.5t254.5 -105.5t105.5 -254.5t-105.5 -254.5t-254.5 -105.5t-254.5 105.5t-105.5 254.5zM129 345q0 -120 83.5 -204.5t202.5 -84.5t202.5 84.5t83.5 204.5t-83.5 204.5t-202.5 84.5t-202.5 -84.5t-83.5 -204.5zM337 345
q0 -159 83 -159q22 0 35.5 14.5t13.5 36.5q0 23 -9 53l93 -8q6 -30 6 -54q0 -56 -39.5 -90.5t-100.5 -34.5q-80 0 -130 60t-50 182t50 182t130 60q61 0 100.5 -34.5t39.5 -90.5q0 -24 -6 -54l-93 -8q9 30 9 53q0 22 -13.5 36.5t-35.5 14.5q-83 0 -83 -159z" />
    <glyph glyph-name="ordfeminine" unicode="&#xaa;" horiz-adv-x="471" 
d="M169 201q-58 0 -92.5 35t-34.5 90q0 145 212 171l37 4v11q0 31 -16.5 49t-48.5 18q-27 0 -39.5 -14.5t-12.5 -35.5q0 -10 4 -30l-110 9q-4 20 -4 34q0 63 43 98.5t118 35.5q181 0 181 -161v-119q0 -100 25 -176l-114 -11l-9 56q-29 -35 -59 -49.5t-80 -14.5zM291 388v22
l-35 -4q-96 -13 -96 -71q0 -15 10.5 -26.5t31.5 -11.5q42 0 65.5 29t23.5 62z" />
    <glyph glyph-name="guillemotleft" unicode="&#xab;" horiz-adv-x="562" 
d="M322 470l-170 -206l170 -206h-127l-170 206l170 206h127zM537 470l-170 -206l170 -206h-127l-170 206l170 206h127z" />
    <glyph glyph-name="logicalnot" unicode="&#xac;" horiz-adv-x="498" 
d="M50 385h398v-249h-104v149h-294v100z" />
    <glyph glyph-name="uni00AD" unicode="&#xad;" horiz-adv-x="402" 
d="M358 206h-314v116h314v-116z" />
    <glyph glyph-name="registered" unicode="&#xae;" horiz-adv-x="772" 
d="M55 374q0 137 97 234t234 97t234 -97t97 -234t-97 -234t-234 -97t-234 97t-97 234zM124 374q0 -109 76.5 -185.5t185.5 -76.5q108 0 184.5 76.5t76.5 185.5t-76.5 185.5t-184.5 76.5q-109 0 -185.5 -76.5t-76.5 -185.5zM369 383q59 51 59 84q0 38 -57 38h-22v-334h-84
v406h109q64 0 100.5 -25.5t36.5 -66.5q0 -48 -49 -97q38 -43 53 -93t15 -124h-84q0 75 -16.5 120.5t-60.5 91.5z" />
    <glyph glyph-name="macron" unicode="&#xaf;" 
d="M408 582h-316v101h316v-101z" />
    <glyph glyph-name="degree" unicode="&#xb0;" horiz-adv-x="360" 
d="M320 536q0 -71 -42.5 -105.5t-97.5 -34.5t-97.5 34.5t-42.5 105.5t42.5 105.5t97.5 34.5t97.5 -34.5t42.5 -105.5zM128 536q0 -29 15.5 -44t36.5 -15t36.5 15t15.5 44t-15.5 44t-36.5 15t-36.5 -15t-15.5 -44z" />
    <glyph glyph-name="plusminus" unicode="&#xb1;" horiz-adv-x="498" 
d="M197 266v129h-147v100h147v129h104v-129h147v-100h-147v-129h-104zM448 112h-398v100h398v-100z" />
    <glyph glyph-name="twosuperior" unicode="&#xb2;" horiz-adv-x="345" 
d="M301 569q0 -37 -23 -68.5t-74 -66.5q-47 -31 -60.5 -42t-13.5 -22h171v-73h-257v63q0 28 18 54t34.5 39.5t48.5 34.5q37 25 51 40t14 32q0 15 -13 25.5t-31 10.5q-40 0 -40 -37q0 -22 7 -42l-84 8q-5 24 -5 42q0 45 33 73.5t89 28.5q58 0 96.5 -28t38.5 -72z" />
    <glyph glyph-name="threesuperior" unicode="&#xb3;" horiz-adv-x="348" 
d="M302 404q0 -52 -38 -83.5t-103 -31.5q-61 0 -91 27t-30 72q0 16 4 37l83 6q-6 -19 -6 -32q0 -16 11.5 -26.5t28.5 -10.5q24 0 37 12t13 32t-14 32t-38 12q-6 0 -11 -1l-10 69q66 10 66 49q0 12 -10.5 21t-28.5 9q-40 0 -40 -33q0 -13 4 -28l-81 8q-3 18 -3 31
q0 41 31.5 67.5t88.5 26.5q60 0 94 -25.5t34 -62.5q0 -54 -56 -82q65 -27 65 -95z" />
    <glyph glyph-name="acute" unicode="&#xb4;" 
d="M147 548l57 185h149l-104 -185h-102z" />
    <glyph glyph-name="mu" unicode="&#xb5;" horiz-adv-x="533" 
d="M338 496h128v-246q0 -125 27 -245l-126 -13l-10 63q-50 -71 -136 -71q-22 0 -39 4l8 -168h-128v676h128v-324q0 -39 19 -57.5t46 -18.5q83 0 83 180v220z" />
    <glyph glyph-name="mu" unicode="&#x3bc;" horiz-adv-x="533" 
d="M338 496h128v-246q0 -125 27 -245l-126 -13l-10 63q-50 -71 -136 -71q-22 0 -39 4l8 -168h-128v676h128v-324q0 -39 19 -57.5t46 -18.5q83 0 83 180v220z" />
    <glyph glyph-name="paragraph" unicode="&#xb6;" horiz-adv-x="707" 
d="M652 700v-112h-55v-738h-128v738h-92v-738h-128v461q-109 37 -159 91t-50 130q0 78 51.5 123t142.5 45h418z" />
    <glyph glyph-name="periodcentered" unicode="&#xb7;" horiz-adv-x="276" 
d="M206 201h-136v126h136v-126z" />
    <glyph glyph-name="cedilla" unicode="&#xb8;" 
d="M182 -91l24 101h71l-9 -36q75 -19 75 -89q0 -39 -28 -66.5t-92 -27.5q-34 0 -66 7l14 68q23 -8 48 -8q37 0 37 27t-37 27q-16 0 -37 -3z" />
    <glyph glyph-name="onesuperior" unicode="&#xb9;" horiz-adv-x="250" 
d="M174 297h-89v290h-55v74h144v-364z" />
    <glyph glyph-name="ordmasculine" unicode="&#xba;" horiz-adv-x="496" 
d="M335 438q0 65 -22 101t-65 36t-65 -36t-22 -101t22 -101t65 -36t65 36t22 101zM454 438q0 -120 -57.5 -179t-148.5 -59t-148.5 59t-57.5 179t57.5 179t148.5 59t148.5 -59t57.5 -179z" />
    <glyph glyph-name="guillemotright" unicode="&#xbb;" horiz-adv-x="562" 
d="M410 264l-170 206h127l170 -206l-170 -206h-127zM195 264l-170 206h127l170 -206l-170 -206h-127z" />
    <glyph glyph-name="onequarter" unicode="&#xbc;" horiz-adv-x="643" 
d="M474 660l-305 -660h-79l305 660h79zM174 297h-89v290h-55v74h144v-364zM326 152l98 212h143v-214h39v-73h-39v-77h-88v77h-153v75zM453 259l-49 -109h75v178q-12 -37 -26 -69z" />
    <glyph glyph-name="onehalf" unicode="&#xbd;" horiz-adv-x="670" 
d="M474 660l-305 -660h-79l305 660h79zM174 297h-89v290h-55v74h144v-364zM626 272q0 -37 -23 -68.5t-74 -66.5q-47 -31 -60.5 -42t-13.5 -22h171v-73h-257v63q0 28 18 54t34.5 39.5t48.5 34.5q37 25 51 40t14 32q0 15 -13 25.5t-31 10.5q-40 0 -40 -37q0 -22 7 -42l-84 8
q-5 24 -5 42q0 45 33 73.5t89 28.5q58 0 96.5 -28t38.5 -72z" />
    <glyph glyph-name="threequarters" unicode="&#xbe;" horiz-adv-x="743" 
d="M574 660l-305 -660h-79l305 660h79zM426 152l98 212h143v-214h39v-73h-39v-77h-88v77h-153v75zM553 259l-49 -109h75v178q-13 -37 -26 -69zM302 404q0 -52 -38 -83.5t-103 -31.5q-61 0 -91 27t-30 72q0 16 4 37l83 6q-6 -19 -6 -32q0 -16 11.5 -26.5t28.5 -10.5
q24 0 37 12t13 32t-14 32t-38 12q-6 0 -11 -1l-10 69q66 10 66 49q0 12 -10.5 21t-28.5 9q-40 0 -40 -33q0 -13 4 -28l-81 8q-3 18 -3 31q0 41 31.5 67.5t88.5 26.5q60 0 94 -25.5t34 -62.5q0 -54 -56 -82q65 -27 65 -95z" />
    <glyph glyph-name="questiondown" unicode="&#xbf;" horiz-adv-x="516" 
d="M271 -98q38 0 57 18.5t19 47.5q0 30 -10 64l127 -11q8 -32 8 -68q0 -80 -57.5 -124.5t-143.5 -44.5q-107 0 -167 48.5t-60 124.5q0 82 92 175q55 56 70.5 82.5t15.5 54.5v21h108v-22q0 -60 -18.5 -101t-70.5 -97q-34 -36 -45.5 -57.5t-11.5 -44.5q0 -27 24 -46.5
t63 -19.5zM208 500h136v-126h-136v126z" />
    <glyph glyph-name="Agrave" unicode="&#xc0;" horiz-adv-x="574" 
d="M371 176h-168l-34 -176h-149l148 700h238l148 -700h-149zM256 455l-30 -154h122l-30 154q-4 22 -9 48t-11 60.5t-10 55.5h-2q-4 -21 -10 -55.5t-11 -60.5t-9 -48zM304 885l74 -152h-110l-124 152h160z" />
    <glyph glyph-name="Aacute" unicode="&#xc1;" horiz-adv-x="574" 
d="M371 176h-168l-34 -176h-149l148 700h238l148 -700h-149zM256 455l-30 -154h122l-30 154q-4 22 -9 48t-11 60.5t-10 55.5h-2q-4 -21 -10 -55.5t-11 -60.5t-9 -48zM174 733l74 152h160l-124 -152h-110z" />
    <glyph glyph-name="Acircumflex" unicode="&#xc2;" horiz-adv-x="574" 
d="M371 176h-168l-34 -176h-149l148 700h238l148 -700h-149zM256 455l-30 -154h122l-30 154q-4 22 -9 48t-11 60.5t-10 55.5h-2q-4 -21 -10 -55.5t-11 -60.5t-9 -48zM353 887l97 -153h-107l-56 82l-56 -82h-107l97 153h132z" />
    <glyph glyph-name="Atilde" unicode="&#xc3;" horiz-adv-x="574" 
d="M371 176h-168l-34 -176h-149l148 700h238l148 -700h-149zM256 455l-30 -154h122l-30 154q-4 22 -9 48t-11 60.5t-10 55.5h-2q-4 -21 -10 -55.5t-11 -60.5t-9 -48zM304 855q39 -29 53 -29q16 0 21.5 16.5t5.5 53.5l87 -8v-29q0 -131 -104 -131q-49 0 -97 37q-38 29 -53 29
q-16 0 -21.5 -16.5t-5.5 -53.5l-87 8v29q0 131 104 131q50 0 97 -37z" />
    <glyph glyph-name="Adieresis" unicode="&#xc4;" horiz-adv-x="574" 
d="M371 176h-168l-34 -176h-149l148 700h238l148 -700h-149zM256 455l-30 -154h122l-30 154q-4 22 -9 48t-11 60.5t-10 55.5h-2q-4 -21 -10 -55.5t-11 -60.5t-9 -48zM237 743h-111v135h111v-135zM448 743h-111v135h111v-135z" />
    <glyph glyph-name="Aring" unicode="&#xc5;" horiz-adv-x="574" 
d="M371 176h-168l-34 -176h-149l148 700h238l148 -700h-149zM256 455l-30 -154h122l-30 154q-4 22 -9 48t-11 60.5t-10 55.5h-2q-4 -21 -10 -55.5t-11 -60.5t-9 -48zM388 811q0 -45 -29 -70t-72 -25t-72 25t-29 70t29 70t72 25t72 -25t29 -70zM252 811q0 -19 10 -28.5
t25 -9.5t25 9.5t10 28.5t-10 28.5t-25 9.5t-25 -9.5t-10 -28.5z" />
    <glyph glyph-name="AE" unicode="&#xc6;" horiz-adv-x="843" 
d="M277 575l-32 -174h147v174h-115zM799 0h-407v276h-170l-53 -276h-149l148 700h623v-125h-255v-144h219v-124h-219v-182h263v-125z" />
    <glyph glyph-name="Ccedilla" unicode="&#xc7;" horiz-adv-x="580" 
d="M194 350q0 -123 33.5 -182t92.5 -59q34 0 54 22t20 55q0 35 -13 81l140 -12q9 -39 9 -83q0 -77 -48.5 -126.5t-127.5 -59.5l-3 -12q75 -19 75 -89q0 -39 -28 -66.5t-92 -27.5q-34 0 -66 7l14 68q23 -8 48 -8q37 0 37 27t-37 27q-23 0 -37 -2l18 76q-107 12 -172 102.5
t-65 261.5q0 184 75.5 275t196.5 91q93 0 152.5 -51.5t59.5 -136.5q0 -44 -9 -83l-140 -12q13 46 13 81q0 33 -20 55t-54 22q-59 0 -92.5 -59t-33.5 -182z" />
    <glyph glyph-name="Egrave" unicode="&#xc8;" horiz-adv-x="521" 
d="M477 0h-407v700h399v-125h-255v-144h219v-124h-219v-182h263v-125zM290 885l74 -152h-110l-124 152h160z" />
    <glyph glyph-name="Eacute" unicode="&#xc9;" horiz-adv-x="521" 
d="M477 0h-407v700h399v-125h-255v-144h219v-124h-219v-182h263v-125zM180 733l74 152h160l-124 -152h-110z" />
    <glyph glyph-name="Ecircumflex" unicode="&#xca;" horiz-adv-x="521" 
d="M477 0h-407v700h399v-125h-255v-144h219v-124h-219v-182h263v-125zM335 887l97 -153h-107l-56 82l-56 -82h-107l97 153h132z" />
    <glyph glyph-name="Edieresis" unicode="&#xcb;" horiz-adv-x="521" 
d="M477 0h-407v700h399v-125h-255v-144h219v-124h-219v-182h263v-125zM219 743h-111v135h111v-135zM430 743h-111v135h111v-135z" />
    <glyph glyph-name="Igrave" unicode="&#xcc;" horiz-adv-x="284" 
d="M214 0h-144v700h144v-700zM169 885l74 -152h-110l-124 152h160z" />
    <glyph glyph-name="Iacute" unicode="&#xcd;" horiz-adv-x="284" 
d="M214 0h-144v700h144v-700zM41 733l74 152h160l-124 -152h-110z" />
    <glyph glyph-name="Icircumflex" unicode="&#xce;" horiz-adv-x="284" 
d="M214 0h-144v700h144v-700zM208 887l97 -153h-107l-56 82l-56 -82h-107l97 153h132z" />
    <glyph glyph-name="Idieresis" unicode="&#xcf;" horiz-adv-x="284" 
d="M113 743h-106v135h106v-135zM277 743h-106v135h106v-135zM214 0h-144v700h144v-700z" />
    <glyph glyph-name="Eth" unicode="&#xd0;" horiz-adv-x="622" 
d="M74 0v301h-63v105h63v294h147q186 0 270.5 -85.5t84.5 -264.5t-84.5 -264.5t-270.5 -85.5h-147zM218 575v-169h93v-105h-93v-176q117 0 163.5 48.5t46.5 176.5t-46.5 176.5t-163.5 48.5z" />
    <glyph glyph-name="Ntilde" unicode="&#xd1;" horiz-adv-x="634" 
d="M564 700v-700h-199l-167 540h-1q12 -180 12 -226v-314h-139v700h199l167 -540h1q-12 180 -12 226v314h139zM334 855q39 -29 53 -29q16 0 21.5 16.5t5.5 53.5l87 -8v-29q0 -131 -104 -131q-49 0 -97 37q-38 29 -53 29q-16 0 -21.5 -16.5t-5.5 -53.5l-87 8v29
q0 131 104 131q50 0 97 -37z" />
    <glyph glyph-name="Ograve" unicode="&#xd2;" horiz-adv-x="628" 
d="M582 350q0 -173 -65.5 -269.5t-202.5 -96.5t-202.5 96.5t-65.5 269.5t65.5 269.5t202.5 96.5t202.5 -96.5t65.5 -269.5zM434 350q0 241 -120 241t-120 -241t120 -241t120 241zM333 885l74 -152h-110l-124 152h160z" />
    <glyph glyph-name="Oacute" unicode="&#xd3;" horiz-adv-x="628" 
d="M582 350q0 -173 -65.5 -269.5t-202.5 -96.5t-202.5 96.5t-65.5 269.5t65.5 269.5t202.5 96.5t202.5 -96.5t65.5 -269.5zM434 350q0 241 -120 241t-120 -241t120 -241t120 241zM222 733l74 152h160l-124 -152h-110z" />
    <glyph glyph-name="Ocircumflex" unicode="&#xd4;" horiz-adv-x="628" 
d="M582 350q0 -173 -65.5 -269.5t-202.5 -96.5t-202.5 96.5t-65.5 269.5t65.5 269.5t202.5 96.5t202.5 -96.5t65.5 -269.5zM434 350q0 241 -120 241t-120 -241t120 -241t120 241zM380 887l97 -153h-107l-56 82l-56 -82h-107l97 153h132z" />
    <glyph glyph-name="Otilde" unicode="&#xd5;" horiz-adv-x="628" 
d="M582 350q0 -173 -65.5 -269.5t-202.5 -96.5t-202.5 96.5t-65.5 269.5t65.5 269.5t202.5 96.5t202.5 -96.5t65.5 -269.5zM434 350q0 241 -120 241t-120 -241t120 -241t120 241zM331 855q39 -29 53 -29q16 0 21.5 16.5t5.5 53.5l87 -8v-29q0 -131 -104 -131q-49 0 -97 37
q-38 29 -53 29q-16 0 -21.5 -16.5t-5.5 -53.5l-87 8v29q0 131 104 131q50 0 97 -37z" />
    <glyph glyph-name="Odieresis" unicode="&#xd6;" horiz-adv-x="628" 
d="M582 350q0 -173 -65.5 -269.5t-202.5 -96.5t-202.5 96.5t-65.5 269.5t65.5 269.5t202.5 96.5t202.5 -96.5t65.5 -269.5zM434 350q0 241 -120 241t-120 -241t120 -241t120 241zM265 743h-111v135h111v-135zM476 743h-111v135h111v-135z" />
    <glyph glyph-name="multiply" unicode="&#xd7;" horiz-adv-x="498" 
d="M145 512l104 -103l104 103l73 -73l-103 -104l103 -104l-73 -73l-104 103l-104 -103l-73 73l103 104l-103 104z" />
    <glyph glyph-name="Oslash" unicode="&#xd8;" horiz-adv-x="628" 
d="M314 591q-120 0 -120 -241q0 -70 10 -123l153 355q-21 9 -43 9zM434 350q0 69 -10 122l-153 -354q17 -9 43 -9q120 0 120 241zM203 -40h-114l42 97q-85 91 -85 293q0 173 65.5 269.5t202.5 96.5q47 0 94 -15l17 39h114l-42 -97q85 -92 85 -293q0 -173 -65.5 -269.5
t-202.5 -96.5q-48 0 -95 15z" />
    <glyph glyph-name="Ugrave" unicode="&#xd9;" horiz-adv-x="630" 
d="M315 109q59 0 82 28.5t23 82.5v480h144v-480q0 -111 -60 -173.5t-189 -62.5t-189 62.5t-60 173.5v480h144v-480q0 -54 23 -82.5t82 -28.5zM318 885l74 -152h-110l-124 152h160z" />
    <glyph glyph-name="Uacute" unicode="&#xda;" horiz-adv-x="630" 
d="M315 109q59 0 82 28.5t23 82.5v480h144v-480q0 -111 -60 -173.5t-189 -62.5t-189 62.5t-60 173.5v480h144v-480q0 -54 23 -82.5t82 -28.5zM230 733l74 152h160l-124 -152h-110z" />
    <glyph glyph-name="Ucircumflex" unicode="&#xdb;" horiz-adv-x="630" 
d="M315 109q59 0 82 28.5t23 82.5v480h144v-480q0 -111 -60 -173.5t-189 -62.5t-189 62.5t-60 173.5v480h144v-480q0 -54 23 -82.5t82 -28.5zM381 887l97 -153h-107l-56 82l-56 -82h-107l97 153h132z" />
    <glyph glyph-name="Udieresis" unicode="&#xdc;" horiz-adv-x="630" 
d="M315 109q59 0 82 28.5t23 82.5v480h144v-480q0 -111 -60 -173.5t-189 -62.5t-189 62.5t-60 173.5v480h144v-480q0 -54 23 -82.5t82 -28.5zM251 743h-111v135h111v-135zM462 743h-111v135h111v-135z" />
    <glyph glyph-name="Yacute" unicode="&#xdd;" horiz-adv-x="564" 
d="M318 511l72 189h160l-196 -430v-270h-144v270l-196 430h160l72 -189q12 -32 36 -101zM209 733l74 152h160l-124 -152h-110z" />
    <glyph glyph-name="Thorn" unicode="&#xde;" horiz-adv-x="523" 
d="M214 570h50q102 0 165.5 -54.5t63.5 -133.5q0 -91 -67.5 -148.5t-211.5 -91.5v-142h-144v700h144v-130zM214 445v-174q68 13 102 41.5t34 64.5q0 31 -24.5 49.5t-65.5 18.5h-46z" />
    <glyph glyph-name="germandbls" unicode="&#xdf;" horiz-adv-x="572" 
d="M75 343h-53v112h53v91q0 104 57 157t160 53q85 0 140.5 -45t55.5 -109q0 -44 -24.5 -83t-49 -67.5t-24.5 -47.5q0 -29 60 -87q47 -46 64.5 -81t17.5 -76q0 -72 -51.5 -121.5t-161.5 -49.5q-41 0 -74 5v113q31 -6 57 -6q98 0 98 69q0 32 -48 82q-52 56 -68 83.5t-16 61.5
q0 31 23.5 64t47 64t23.5 58q0 26 -19 43.5t-51 17.5q-47 0 -68 -24t-21 -75v-545h-128v343z" />
    <glyph glyph-name="agrave" unicode="&#xe0;" horiz-adv-x="515" 
d="M184 -16q-64 0 -103 39t-39 100q0 160 236 189l41 5v12q0 34 -18.5 54t-53.5 20q-58 0 -58 -55q0 -15 5 -33l-123 10q-4 21 -4 37q0 70 48 109.5t131 39.5q201 0 201 -179v-132q0 -111 28 -195l-127 -13l-10 63q-32 -38 -65.5 -54.5t-88.5 -16.5zM319 191v25l-39 -5
q-106 -14 -106 -78q0 -17 11.5 -30t34.5 -13q47 0 73 32.5t26 68.5zM277 733l57 -185h-102l-104 185h149z" />
    <glyph glyph-name="aacute" unicode="&#xe1;" horiz-adv-x="515" 
d="M184 -16q-64 0 -103 39t-39 100q0 160 236 189l41 5v12q0 34 -18.5 54t-53.5 20q-58 0 -58 -55q0 -15 5 -33l-123 10q-4 21 -4 37q0 70 48 109.5t131 39.5q201 0 201 -179v-132q0 -111 28 -195l-127 -13l-10 63q-32 -38 -65.5 -54.5t-88.5 -16.5zM319 191v25l-39 -5
q-106 -14 -106 -78q0 -17 11.5 -30t34.5 -13q47 0 73 32.5t26 68.5zM174 548l57 185h149l-104 -185h-102z" />
    <glyph glyph-name="acircumflex" unicode="&#xe2;" horiz-adv-x="515" 
d="M184 -16q-64 0 -103 39t-39 100q0 160 236 189l41 5v12q0 34 -18.5 54t-53.5 20q-58 0 -58 -55q0 -15 5 -33l-123 10q-4 21 -4 37q0 70 48 109.5t131 39.5q201 0 201 -179v-132q0 -111 28 -195l-127 -13l-10 63q-32 -38 -65.5 -54.5t-88.5 -16.5zM319 191v25l-39 -5
q-106 -14 -106 -78q0 -17 11.5 -30t34.5 -13q47 0 73 32.5t26 68.5zM257 651l-59 -103h-101l99 185h122l99 -185h-101z" />
    <glyph glyph-name="atilde" unicode="&#xe3;" horiz-adv-x="515" 
d="M184 -16q-64 0 -103 39t-39 100q0 160 236 189l41 5v12q0 34 -18.5 54t-53.5 20q-58 0 -58 -55q0 -15 5 -33l-123 10q-4 21 -4 37q0 70 48 109.5t131 39.5q201 0 201 -179v-132q0 -111 28 -195l-127 -13l-10 63q-32 -38 -65.5 -54.5t-88.5 -16.5zM319 191v25l-39 -5
q-106 -14 -106 -78q0 -17 11.5 -30t34.5 -13q47 0 73 32.5t26 68.5zM243 590q-36 27 -49 27q-15 0 -20 -15t-5 -50l-80 8v27q0 63 24 92t72 29q46 0 90 -34q36 -27 49 -27q15 0 20 15t5 50l80 -8v-27q0 -63 -24 -92t-72 -29q-46 0 -90 34z" />
    <glyph glyph-name="adieresis" unicode="&#xe4;" horiz-adv-x="515" 
d="M184 -16q-64 0 -103 39t-39 100q0 160 236 189l41 5v12q0 34 -18.5 54t-53.5 20q-58 0 -58 -55q0 -15 5 -33l-123 10q-4 21 -4 37q0 70 48 109.5t131 39.5q201 0 201 -179v-132q0 -111 28 -195l-127 -13l-10 63q-32 -38 -65.5 -54.5t-88.5 -16.5zM319 191v25l-39 -5
q-106 -14 -106 -78q0 -17 11.5 -30t34.5 -13q47 0 73 32.5t26 68.5zM207 565h-111v135h111v-135zM418 565h-111v135h111v-135z" />
    <glyph glyph-name="aring" unicode="&#xe5;" horiz-adv-x="515" 
d="M184 -16q-64 0 -103 39t-39 100q0 160 236 189l41 5v12q0 34 -18.5 54t-53.5 20q-58 0 -58 -55q0 -15 5 -33l-123 10q-4 21 -4 37q0 70 48 109.5t131 39.5q201 0 201 -179v-132q0 -111 28 -195l-127 -13l-10 63q-32 -38 -65.5 -54.5t-88.5 -16.5zM319 191v25l-39 -5
q-106 -14 -106 -78q0 -17 11.5 -30t34.5 -13q47 0 73 32.5t26 68.5zM357 633q0 -45 -29 -70t-72 -25t-72 25t-29 70t29 70t72 25t72 -25t29 -70zM221 633q0 -19 10 -28.5t25 -9.5t25 9.5t10 28.5t-10 28.5t-25 9.5t-25 -9.5t-10 -28.5z" />
    <glyph glyph-name="ae" unicode="&#xe6;" horiz-adv-x="814" 
d="M640 320q0 36 -25.5 62t-66.5 26q-31 0 -58.5 -23t-33.5 -65h184zM184 -16q-64 0 -103 39t-39 100q0 79 62 127t178 62l41 5v12q0 34 -19.5 54t-54.5 20q-60 0 -60 -55q0 -15 5 -33l-123 10q-4 21 -4 37q0 70 49 109.5t132 39.5q104 0 154 -47q58 48 146 48
q95 0 156.5 -63.5t61.5 -200.5v-26h-314q12 -126 104 -126q39 0 57 17t18 40q0 12 -3 30l124 -13q1 -12 1 -27q0 -67 -51.5 -113t-141.5 -46q-134 0 -195 90q-42 -47 -82 -68.5t-99 -21.5zM319 191v25l-39 -5q-106 -14 -106 -78q0 -17 11.5 -30t34.5 -13q47 0 73 32.5
t26 68.5z" />
    <glyph glyph-name="ccedilla" unicode="&#xe7;" horiz-adv-x="505" 
d="M218 -90l18 76q-93 11 -143.5 80t-50.5 182q0 123 60 193.5t169 70.5q87 0 136.5 -43t49.5 -106q0 -24 -5 -54l-124 -13q7 27 7 47q0 27 -17.5 42t-46.5 15q-43 0 -70 -37t-27 -115t27 -115t70 -37q29 0 46.5 15t17.5 42q0 20 -7 47l124 -13q5 -30 5 -54q0 -56 -39.5 -97
t-110.5 -50l-3 -12q75 -19 75 -89q0 -39 -28 -66.5t-92 -27.5q-34 0 -66 7l14 68q23 -8 48 -8q37 0 37 27t-37 27q-23 0 -37 -2z" />
    <glyph glyph-name="egrave" unicode="&#xe8;" horiz-adv-x="536" 
d="M278 96q39 0 57 17t18 40q0 12 -3 30l124 -13q1 -12 1 -27q0 -67 -51.5 -113t-141.5 -46q-65 0 -113 21.5t-75 59t-39.5 83t-12.5 100.5q0 131 63 197.5t165 66.5q95 0 156.5 -63.5t61.5 -200.5v-26h-314q12 -126 104 -126zM362 320q0 36 -25.5 62t-66.5 26
q-31 0 -58.5 -23t-33.5 -65h184zM289 733l57 -185h-102l-104 185h149z" />
    <glyph glyph-name="eacute" unicode="&#xe9;" horiz-adv-x="536" 
d="M278 96q39 0 57 17t18 40q0 12 -3 30l124 -13q1 -12 1 -27q0 -67 -51.5 -113t-141.5 -46q-65 0 -113 21.5t-75 59t-39.5 83t-12.5 100.5q0 131 63 197.5t165 66.5q95 0 156.5 -63.5t61.5 -200.5v-26h-314q12 -126 104 -126zM362 320q0 36 -25.5 62t-66.5 26
q-31 0 -58.5 -23t-33.5 -65h184zM183 548l57 185h149l-104 -185h-102z" />
    <glyph glyph-name="ecircumflex" unicode="&#xea;" horiz-adv-x="536" 
d="M278 96q39 0 57 17t18 40q0 12 -3 30l124 -13q1 -12 1 -27q0 -67 -51.5 -113t-141.5 -46q-65 0 -113 21.5t-75 59t-39.5 83t-12.5 100.5q0 131 63 197.5t165 66.5q95 0 156.5 -63.5t61.5 -200.5v-26h-314q12 -126 104 -126zM362 320q0 36 -25.5 62t-66.5 26
q-31 0 -58.5 -23t-33.5 -65h184zM270 651l-59 -103h-101l99 185h122l99 -185h-101z" />
    <glyph glyph-name="edieresis" unicode="&#xeb;" horiz-adv-x="536" 
d="M278 96q39 0 57 17t18 40q0 12 -3 30l124 -13q1 -12 1 -27q0 -67 -51.5 -113t-141.5 -46q-65 0 -113 21.5t-75 59t-39.5 83t-12.5 100.5q0 131 63 197.5t165 66.5q95 0 156.5 -63.5t61.5 -200.5v-26h-314q12 -126 104 -126zM362 320q0 36 -25.5 62t-66.5 26
q-31 0 -58.5 -23t-33.5 -65h184zM221 565h-111v135h111v-135zM432 565h-111v135h111v-135z" />
    <glyph glyph-name="igrave" unicode="&#xec;" horiz-adv-x="248" 
d="M188 0h-128v496h128v-496zM159 733l57 -185h-102l-104 185h149z" />
    <glyph glyph-name="iacute" unicode="&#xed;" horiz-adv-x="248" 
d="M188 0h-128v496h128v-496zM32 548l57 185h149l-104 -185h-102z" />
    <glyph glyph-name="icircumflex" unicode="&#xee;" horiz-adv-x="248" 
d="M188 0h-128v496h128v-496zM124 651l-59 -103h-101l99 185h122l99 -185h-101z" />
    <glyph glyph-name="idieresis" unicode="&#xef;" horiz-adv-x="248" 
d="M104 565h-94v135h94v-135zM238 565h-94v135h94v-135zM188 0h-128v496h128v-496z" />
    <glyph glyph-name="eth" unicode="&#xf0;" horiz-adv-x="554" 
d="M508 318q0 -160 -55.5 -247t-181.5 -87q-61 0 -106.5 21.5t-71.5 59.5t-38.5 84t-12.5 99q0 113 53 188.5t161 75.5q37 0 92 -15q-11 48 -57 87l-78 -39l-52 80l31 15q-38 14 -59 19l72 96q69 -23 116 -50l67 34l53 -80l-38 -19q105 -112 105 -322zM373 318q0 31 -5 66
q-51 16 -91 16q-103 0 -103 -152q0 -83 28 -117.5t69 -34.5q58 0 80 56t22 166z" />
    <glyph glyph-name="ntilde" unicode="&#xf1;" horiz-adv-x="531" 
d="M40 491l126 13l10 -63q50 71 136 71q70 0 114.5 -42.5t44.5 -135.5v-334h-128v324q0 39 -19 57.5t-46 18.5q-83 0 -83 -180v-220h-128v246q0 125 -27 245zM253 590q-36 27 -49 27q-15 0 -20 -15t-5 -50l-80 8v27q0 63 24 92t72 29q46 0 90 -34q36 -27 49 -27q15 0 20 15
t5 50l80 -8v-27q0 -63 -24 -92t-72 -29q-46 0 -90 34z" />
    <glyph glyph-name="ograve" unicode="&#xf2;" horiz-adv-x="542" 
d="M368 248q0 71 -24.5 111.5t-72.5 40.5t-72.5 -40.5t-24.5 -111.5t24.5 -111.5t72.5 -40.5t72.5 40.5t24.5 111.5zM500 248q0 -133 -63.5 -198.5t-165.5 -65.5t-165.5 65.5t-63.5 198.5t63.5 198.5t165.5 65.5t165.5 -65.5t63.5 -198.5zM296 733l57 -185h-102l-104 185
h149z" />
    <glyph glyph-name="oacute" unicode="&#xf3;" horiz-adv-x="542" 
d="M368 248q0 71 -24.5 111.5t-72.5 40.5t-72.5 -40.5t-24.5 -111.5t24.5 -111.5t72.5 -40.5t72.5 40.5t24.5 111.5zM500 248q0 -133 -63.5 -198.5t-165.5 -65.5t-165.5 65.5t-63.5 198.5t63.5 198.5t165.5 65.5t165.5 -65.5t63.5 -198.5zM189 548l57 185h149l-104 -185
h-102z" />
    <glyph glyph-name="ocircumflex" unicode="&#xf4;" horiz-adv-x="542" 
d="M368 248q0 71 -24.5 111.5t-72.5 40.5t-72.5 -40.5t-24.5 -111.5t24.5 -111.5t72.5 -40.5t72.5 40.5t24.5 111.5zM500 248q0 -133 -63.5 -198.5t-165.5 -65.5t-165.5 65.5t-63.5 198.5t63.5 198.5t165.5 65.5t165.5 -65.5t63.5 -198.5zM271 651l-59 -103h-101l99 185h122
l99 -185h-101z" />
    <glyph glyph-name="otilde" unicode="&#xf5;" horiz-adv-x="542" 
d="M368 248q0 71 -24.5 111.5t-72.5 40.5t-72.5 -40.5t-24.5 -111.5t24.5 -111.5t72.5 -40.5t72.5 40.5t24.5 111.5zM500 248q0 -133 -63.5 -198.5t-165.5 -65.5t-165.5 65.5t-63.5 198.5t63.5 198.5t165.5 65.5t165.5 -65.5t63.5 -198.5zM255 590q-36 27 -49 27
q-15 0 -20 -15t-5 -50l-80 8v27q0 63 24 92t72 29q46 0 90 -34q36 -27 49 -27q15 0 20 15t5 50l80 -8v-27q0 -63 -24 -92t-72 -29q-46 0 -90 34z" />
    <glyph glyph-name="odieresis" unicode="&#xf6;" horiz-adv-x="542" 
d="M368 248q0 71 -24.5 111.5t-72.5 40.5t-72.5 -40.5t-24.5 -111.5t24.5 -111.5t72.5 -40.5t72.5 40.5t24.5 111.5zM500 248q0 -133 -63.5 -198.5t-165.5 -65.5t-165.5 65.5t-63.5 198.5t63.5 198.5t165.5 65.5t165.5 -65.5t63.5 -198.5zM221 565h-111v135h111v-135z
M432 565h-111v135h111v-135z" />
    <glyph glyph-name="divide" unicode="&#xf7;" horiz-adv-x="498" 
d="M50 285v100h398v-100h-398zM317 456h-136v126h136v-126zM317 88h-136v126h136v-126z" />
    <glyph glyph-name="oslash" unicode="&#xf8;" horiz-adv-x="542" 
d="M368 248q0 71 -24.5 111.5t-72.5 40.5t-72.5 -40.5t-24.5 -111.5t24.5 -111.5t72.5 -40.5t72.5 40.5t24.5 111.5zM500 248q0 -133 -63.5 -198.5t-165.5 -65.5q-36 0 -67 9l-15 -33h-105l35 76q-77 69 -77 212q0 133 63.5 198.5t165.5 65.5q34 0 67 -9l15 33h105l-36 -76
q78 -68 78 -212z" />
    <glyph glyph-name="ugrave" unicode="&#xf9;" horiz-adv-x="531" 
d="M336 496h128v-246q0 -125 27 -245l-126 -13l-10 63q-50 -71 -136 -71q-70 0 -114.5 42.5t-44.5 135.5v334h128v-324q0 -39 19 -57.5t46 -18.5q83 0 83 180v220zM284 733l57 -185h-102l-104 185h149z" />
    <glyph glyph-name="uacute" unicode="&#xfa;" horiz-adv-x="531" 
d="M336 496h128v-246q0 -125 27 -245l-126 -13l-10 63q-50 -71 -136 -71q-70 0 -114.5 42.5t-44.5 135.5v334h128v-324q0 -39 19 -57.5t46 -18.5q83 0 83 180v220zM180 548l57 185h149l-104 -185h-102z" />
    <glyph glyph-name="ucircumflex" unicode="&#xfb;" horiz-adv-x="531" 
d="M336 496h128v-246q0 -125 27 -245l-126 -13l-10 63q-50 -71 -136 -71q-70 0 -114.5 42.5t-44.5 135.5v334h128v-324q0 -39 19 -57.5t46 -18.5q83 0 83 180v220zM262 651l-59 -103h-101l99 185h122l99 -185h-101z" />
    <glyph glyph-name="udieresis" unicode="&#xfc;" horiz-adv-x="531" 
d="M336 496h128v-246q0 -125 27 -245l-126 -13l-10 63q-50 -71 -136 -71q-70 0 -114.5 42.5t-44.5 135.5v334h128v-324q0 -39 19 -57.5t46 -18.5q83 0 83 180v220zM212 565h-111v135h111v-135zM423 565h-111v135h111v-135z" />
    <glyph glyph-name="yacute" unicode="&#xfd;" horiz-adv-x="516" 
d="M297 262l63 234h136l-146 -496q-24 -78 -41.5 -121t-45.5 -77l-135 28q62 70 94 170h-56l-146 496h136l63 -234q6 -22 19 -79.5t19 -81.5h2q6 24 19 81.5t19 79.5zM190 548l57 185h149l-104 -185h-102z" />
    <glyph glyph-name="thorn" unicode="&#xfe;" horiz-adv-x="551" 
d="M188 740v-278q50 50 131 50q95 0 142.5 -66t47.5 -185q0 -128 -68.5 -199.5t-199.5 -71.5q-29 0 -53 3v-173h-128v920h128zM377 261q0 139 -90 139q-46 0 -72.5 -42.5t-26.5 -157.5v-94q25 -4 45 -4q71 0 107.5 36t36.5 123z" />
    <glyph glyph-name="ydieresis" unicode="&#xff;" horiz-adv-x="516" 
d="M297 262l63 234h136l-146 -496q-24 -78 -41.5 -121t-45.5 -77l-135 28q62 70 94 170h-56l-146 496h136l63 -234q6 -22 19 -79.5t19 -81.5h2q6 24 19 81.5t19 79.5zM208 565h-111v135h111v-135zM419 565h-111v135h111v-135z" />
    <glyph glyph-name="dotlessi" unicode="&#x131;" horiz-adv-x="248" 
d="M188 0h-128v496h128v-496z" />
    <glyph glyph-name="Lslash" unicode="&#x141;" horiz-adv-x="478" 
d="M454 0h-373v262l-59 -18v110l59 18v328h144v-283l111 34v-110l-111 -34v-182h229v-125z" />
    <glyph glyph-name="lslash" unicode="&#x142;" horiz-adv-x="293" 
d="M72 177v179l-54 -16v99l54 16v285h128v-248l56 17v-99l-56 -17v-213q0 -47 16.5 -65.5t61.5 -18.5l-33 -111q-95 0 -134 45.5t-39 146.5z" />
    <glyph glyph-name="OE" unicode="&#x152;" horiz-adv-x="864" 
d="M419 2v1q-49 -19 -105 -19q-137 0 -202.5 96.5t-65.5 269.5t65.5 269.5t202.5 96.5q56 0 105 -19v3h393v-125h-255v-144h219v-124h-219v-182h263v-125h-401v2zM413 137v426q-53 28 -96 28q-58 0 -90.5 -53t-32.5 -188t32.5 -188t90.5 -53q43 0 96 28z" />
    <glyph glyph-name="oe" unicode="&#x153;" horiz-adv-x="862" 
d="M368 248q0 71 -24.5 111.5t-72.5 40.5t-72.5 -40.5t-24.5 -111.5t24.5 -111.5t72.5 -40.5t72.5 40.5t24.5 111.5zM688 320q0 36 -25.5 62t-66.5 26q-31 0 -58.5 -23t-33.5 -65h184zM604 96q39 0 57 17t18 40q0 12 -3 30l124 -13q1 -12 1 -27q0 -67 -51.5 -113t-141.5 -46
q-113 0 -174 63q-60 -63 -163 -63q-102 0 -165.5 65.5t-63.5 198.5t63.5 198.5t165.5 65.5t163 -64q61 64 162 64q95 0 156.5 -63.5t61.5 -200.5v-26h-314q12 -126 104 -126z" />
    <glyph glyph-name="Scaron" unicode="&#x160;" horiz-adv-x="561" 
d="M266 -16q-111 0 -168.5 49t-57.5 133q0 38 11 83l142 12q-17 -45 -17 -80t24.5 -53.5t67.5 -18.5q51 0 78 21t27 55q0 29 -23 53t-100 58q-197 87 -197 226q0 82 64 138t168 56q113 0 168 -47t55 -124q0 -31 -9 -75l-141 -12q14 46 14 73q0 28 -24 44t-63 16
q-36 0 -60.5 -18t-24.5 -50q0 -27 21 -48.5t93 -54.5q111 -52 159 -107t48 -127q0 -81 -62.5 -141.5t-192.5 -60.5zM442 887l-97 -153h-132l-97 153h107l56 -82l56 82h107z" />
    <glyph glyph-name="scaron" unicode="&#x161;" horiz-adv-x="490" 
d="M252 406q-35 0 -52 -13t-17 -31q0 -20 16.5 -30.5t63.5 -21.5q97 -23 142 -63t45 -105q0 -68 -54 -113t-159 -45q-100 0 -148.5 38t-48.5 103q0 21 5 46l123 10q-6 -24 -6 -41q0 -50 75 -50q42 0 61.5 14.5t19.5 35.5t-17.5 33.5t-73.5 25.5q-175 39 -175 161
q0 67 52.5 109.5t148.5 42.5q93 0 139 -38t46 -99q0 -22 -4 -43l-124 -10q6 21 6 39q0 45 -64 45zM185 733l59 -103l59 103h101l-99 -185h-122l-99 185h101z" />
    <glyph glyph-name="Ydieresis" unicode="&#x178;" horiz-adv-x="564" 
d="M318 511l72 189h160l-196 -430v-270h-144v270l-196 430h160l72 -189q12 -32 36 -101zM232 743h-111v135h111v-135zM443 743h-111v135h111v-135z" />
    <glyph glyph-name="Zcaron" unicode="&#x17d;" horiz-adv-x="517" 
d="M484 0h-451v101l259 474h-242v125h417v-101l-259 -474h276v-125zM422 887l-97 -153h-132l-97 153h107l56 -82l56 82h107z" />
    <glyph glyph-name="zcaron" unicode="&#x17e;" horiz-adv-x="448" 
d="M415 0h-382v90l198 294h-183v112h352v-90l-198 -294h213v-112zM165 733l59 -103l59 103h101l-99 -185h-122l-99 185h101z" />
    <glyph glyph-name="florin" unicode="&#x192;" horiz-adv-x="472" 
d="M33 -100l86 401h-86v118h111l17 75q19 85 66.5 133.5t140.5 48.5q42 0 100 -12l-37 -124q-25 18 -55 18q-63 0 -78 -64l-17 -75h106v-118h-131l-86 -401h-137z" />
    <glyph glyph-name="circumflex" unicode="&#x2c6;" 
d="M250 651l-59 -103h-101l99 185h122l99 -185h-101z" />
    <glyph glyph-name="caron" unicode="&#x2c7;" 
d="M191 733l59 -103l59 103h101l-99 -185h-122l-99 185h101z" />
    <glyph glyph-name="breve" unicode="&#x2d8;" 
d="M250 549q-153 0 -153 172h84q0 -86 69 -86t69 86h84q0 -172 -153 -172z" />
    <glyph glyph-name="dotaccent" unicode="&#x2d9;" 
d="M314 565h-128v135h128v-135z" />
    <glyph glyph-name="ring" unicode="&#x2da;" 
d="M351 633q0 -45 -29 -70t-72 -25t-72 25t-29 70t29 70t72 25t72 -25t29 -70zM215 633q0 -19 10 -28.5t25 -9.5t25 9.5t10 28.5t-10 28.5t-25 9.5t-25 -9.5t-10 -28.5z" />
    <glyph glyph-name="ogonek" unicode="&#x2db;" 
d="M332 10l-70 -87q-16 -21 -16 -38q0 -27 37 -27q19 0 44 6l14 -67q-33 -6 -70 -6q-53 0 -82.5 25t-29.5 66q0 39 29 70l57 58h87z" />
    <glyph glyph-name="tilde" unicode="&#x2dc;" 
d="M234 590q-36 27 -49 27q-15 0 -20 -15t-5 -50l-80 8v27q0 63 24 92t72 29q46 0 90 -34q36 -27 49 -27q15 0 20 15t5 50l80 -8v-27q0 -63 -24 -92t-72 -29q-46 0 -90 34z" />
    <glyph glyph-name="hungarumlaut" unicode="&#x2dd;" 
d="M247 548l57 185h119l-103 -185h-73zM77 548l57 185h119l-103 -185h-73z" />
    <glyph glyph-name="acutecomb" unicode="&#x301;" horiz-adv-x="2" 
d="M-308 548l57 185h149l-104 -185h-102z" />
    <glyph glyph-name="Delta" unicode="&#x394;" horiz-adv-x="574" 
d="M554 0h-534l149 700h238zM286 619l-93 -494h188l-93 494h-2z" />
    <glyph glyph-name="Delta" unicode="&#x2206;" horiz-adv-x="574" 
d="M554 0h-534l149 700h238zM286 619l-93 -494h188l-93 494h-2z" />
    <glyph glyph-name="Omega" unicode="&#x3a9;" horiz-adv-x="646" 
d="M323 591q-56 0 -88 -38t-32 -103t17.5 -141.5t64.5 -203.5v-105h-217v125h79q-92 212 -92 335q0 126 76.5 191t191.5 65t191.5 -65t76.5 -191q0 -123 -92 -335h79v-125h-217v105q47 127 64.5 203.5t17.5 141.5t-32 103t-88 38z" />
    <glyph glyph-name="Omega" unicode="&#x2126;" horiz-adv-x="646" 
d="M323 591q-56 0 -88 -38t-32 -103t17.5 -141.5t64.5 -203.5v-105h-217v125h79q-92 212 -92 335q0 126 76.5 191t191.5 65t191.5 -65t76.5 -191q0 -123 -92 -335h79v-125h-217v105q47 127 64.5 203.5t17.5 141.5t-32 103t-88 38z" />
    <glyph glyph-name="pi" unicode="&#x3c0;" horiz-adv-x="559" 
d="M475 384v-384h-128v384h-135v-384h-128v384h-40v112h471v-112h-40z" />
    <glyph glyph-name="afii10023" unicode="&#x401;" horiz-adv-x="521" 
d="M199 750h-96v120h96v-120zM413 750h-96v120h96v-120zM477 0h-407v700h399v-125h-255v-144h219v-124h-219v-182h263v-125z" />
    <glyph glyph-name="afii10051" unicode="&#x402;" horiz-adv-x="675" 
d="M489 137q0 54 -46 97t-112 58v-292h-144v575h-162v125h498v-125h-192v-155q154 -31 230 -105.5t76 -177.5q0 -80 -46.5 -139.5t-116.5 -77.5l-63 97q78 25 78 120z" />
    <glyph glyph-name="afii10052" unicode="&#x403;" horiz-adv-x="488" 
d="M214 0h-144v700h393v-125h-249v-575zM175 733l74 152h160l-124 -152h-110z" />
    <glyph glyph-name="afii10053" unicode="&#x404;" horiz-adv-x="580" 
d="M318 -16q-121 0 -196.5 91t-75.5 275t75.5 275t196.5 91q93 0 152.5 -51.5t59.5 -136.5q0 -39 -7 -75l-140 -12q11 43 11 73q0 33 -20 55t-54 22q-106 0 -123 -173h152v-122h-153q14 -187 124 -187q34 0 54 22t20 55q0 30 -11 73l140 -12q7 -36 7 -75q0 -85 -59.5 -136.5
t-152.5 -51.5z" />
    <glyph glyph-name="afii10054" unicode="&#x405;" horiz-adv-x="561" 
d="M266 -16q-111 0 -168.5 49t-57.5 133q0 38 11 83l142 12q-17 -45 -17 -80t24.5 -53.5t67.5 -18.5q51 0 78 21t27 55q0 29 -23 53t-100 58q-197 87 -197 226q0 82 64 138t168 56q113 0 168 -47t55 -124q0 -31 -9 -75l-141 -12q14 46 14 73q0 28 -24 44t-63 16
q-36 0 -60.5 -18t-24.5 -50q0 -27 21 -48.5t93 -54.5q111 -52 159 -107t48 -127q0 -81 -62.5 -141.5t-192.5 -60.5z" />
    <glyph glyph-name="afii10055" unicode="&#x406;" horiz-adv-x="284" 
d="M214 0h-144v700h144v-700z" />
    <glyph glyph-name="afii10056" unicode="&#x407;" horiz-adv-x="284" 
d="M113 743h-106v135h106v-135zM277 743h-106v135h106v-135zM214 0h-144v700h144v-700z" />
    <glyph glyph-name="afii10057" unicode="&#x408;" horiz-adv-x="543" 
d="M477 700v-454q0 -262 -237 -262q-104 0 -157 51t-53 135q0 37 11 89l143 13q-16 -60 -16 -91q0 -72 72 -72q43 0 68 34.5t25 102.5v454h144z" />
    <glyph glyph-name="afii10058" unicode="&#x409;" horiz-adv-x="815" 
d="M634 201q0 39 -39.5 69.5t-114.5 47.5l45 -193q57 0 83 21.5t26 54.5zM526 0h-122l-90 436q-6 27 -26 149h-2q-19 -114 -26 -149l-90 -436h-150l163 700h208l57 -246q165 -30 249.5 -96.5t84.5 -163.5q0 -82 -64 -138t-192 -56z" />
    <glyph glyph-name="afii10059" unicode="&#x40a;" horiz-adv-x="882" 
d="M593 0h-193v316h-186v-316h-144v700h144v-259h186v259h144v-251q305 -66 305 -255q0 -82 -64 -138t-192 -56zM544 319v-194h45q59 0 85.5 21.5t26.5 54.5q0 82 -157 118z" />
    <glyph glyph-name="afii10060" unicode="&#x40b;" horiz-adv-x="679" 
d="M331 575v-155q90 -19 149.5 -47.5t92.5 -70.5t46 -92t13 -120v-90h-144v87q0 44 -4.5 72t-20 56.5t-48 47t-84.5 29.5v-292h-144v575h-162v125h498v-125h-192z" />
    <glyph glyph-name="afii10061" unicode="&#x40c;" horiz-adv-x="575" 
d="M214 700v-700h-144v700h144zM247 370l124 330h147l-127 -290q77 -72 107.5 -167.5t30.5 -242.5h-144q0 143 -32 225t-106 145zM205 733l74 152h160l-124 -152h-110z" />
    <glyph glyph-name="afii10062" unicode="&#x40e;" horiz-adv-x="558" 
d="M288 343h2l99 357h155l-188 -532q-41 -119 -98 -185l-140 35q70 72 99 153l-203 529h156zM279 711q-80 0 -126 43t-46 130h99q0 -82 73 -82t73 82h99q0 -87 -46 -130t-126 -43z" />
    <glyph glyph-name="afii10145" unicode="&#x40f;" horiz-adv-x="614" 
d="M400 700h144v-700h-168v-150h-138v150h-168v700h144v-575h186v575z" />
    <glyph glyph-name="afii10017" unicode="&#x410;" horiz-adv-x="574" 
d="M371 176h-168l-34 -176h-149l148 700h238l148 -700h-149zM256 455l-30 -154h122l-30 154q-4 22 -9 48t-11 60.5t-10 55.5h-2q-4 -21 -10 -55.5t-11 -60.5t-9 -48z" />
    <glyph glyph-name="afii10018" unicode="&#x411;" horiz-adv-x="576" 
d="M70 0v700h399v-125h-255v-126q322 -63 322 -255q0 -84 -62.5 -139t-201.5 -55h-202zM214 319v-194h54q120 0 120 76q0 43 -43 71t-131 47z" />
    <glyph glyph-name="afii10019" unicode="&#x412;" horiz-adv-x="576" 
d="M493 552q0 -72 -75 -154q65 -57 91.5 -104.5t26.5 -101.5q0 -87 -64.5 -139.5t-199.5 -52.5h-202v700h191q103 0 167.5 -37t64.5 -111zM349 507q0 27 -21.5 47.5t-70.5 20.5h-43v-450h54q64 0 92 22.5t28 56.5q0 35 -27.5 71.5t-110.5 98.5q99 73 99 133z" />
    <glyph glyph-name="afii10020" unicode="&#x413;" horiz-adv-x="488" 
d="M214 0h-144v700h393v-125h-249v-575z" />
    <glyph glyph-name="afii10021" unicode="&#x414;" horiz-adv-x="634" 
d="M316 619l-93 -494h188l-93 494h-2zM483 0h-332l-10 -126h-114v251h49l122 575h238l122 -575h49v-251h-114z" />
    <glyph glyph-name="afii10022" unicode="&#x415;" horiz-adv-x="521" 
d="M477 0h-407v700h399v-125h-255v-144h219v-124h-219v-182h263v-125z" />
    <glyph glyph-name="afii10024" unicode="&#x416;" horiz-adv-x="830" 
d="M485 700v-700h-140v700h140zM515 370l115 330h143l-117 -290q71 -70 99.5 -166t28.5 -244h-140q0 143 -29.5 223.5t-99.5 146.5zM200 700l115 -330q-70 -66 -99.5 -146.5t-29.5 -223.5h-140q0 148 28.5 244t99.5 166l-117 290h143z" />
    <glyph glyph-name="afii10025" unicode="&#x417;" horiz-adv-x="568" 
d="M376 204q0 45 -32 72t-83 27q-15 0 -28 -3l-24 118q148 30 148 116q0 24 -22.5 40.5t-60.5 16.5q-40 0 -59.5 -19.5t-19.5 -49.5q0 -23 9 -54l-138 12q-7 32 -7 59q0 73 54.5 125t160.5 52q102 0 165.5 -47.5t63.5 -118.5q0 -105 -113 -159q65 -27 99.5 -78.5
t34.5 -113.5q0 -96 -68.5 -155.5t-189.5 -59.5q-61 0 -107 17.5t-70 46.5t-35.5 60t-11.5 65q0 29 7 61l140 12q-11 -31 -11 -63q0 -31 24 -52.5t64 -21.5q51 0 80.5 28t29.5 67z" />
    <glyph glyph-name="afii10026" unicode="&#x418;" horiz-adv-x="626" 
d="M556 700v-700h-144v440h-1l-187 -440h-154v700h144v-440h1l187 440h154z" />
    <glyph glyph-name="afii10027" unicode="&#x419;" horiz-adv-x="626" 
d="M556 700v-700h-144v440h-1l-187 -440h-154v700h144v-440h1l187 440h154zM313 711q-80 0 -126 43t-46 130h99q0 -82 73 -82t73 82h99q0 -87 -46 -130t-126 -43z" />
    <glyph glyph-name="afii10028" unicode="&#x41a;" horiz-adv-x="575" 
d="M214 700v-700h-144v700h144zM247 370l124 330h147l-127 -290q77 -72 107.5 -167.5t30.5 -242.5h-144q0 143 -32 225t-106 145z" />
    <glyph glyph-name="afii10029" unicode="&#x41b;" horiz-adv-x="574" 
d="M260 436l-90 -436h-150l163 700h208l163 -700h-150l-90 436q-6 27 -26 149h-2q-22 -131 -26 -149z" />
    <glyph glyph-name="afii10030" unicode="&#x41c;" horiz-adv-x="750" 
d="M546 572l-110 -462h-122l-110 462h-1q6 -210 6 -234v-338h-139v700h212l93 -392l93 392h212v-700h-139v338q0 24 6 234h-1z" />
    <glyph glyph-name="afii10031" unicode="&#x41d;" horiz-adv-x="614" 
d="M544 0h-144v316h-186v-316h-144v700h144v-259h186v259h144v-700z" />
    <glyph glyph-name="afii10032" unicode="&#x41e;" horiz-adv-x="628" 
d="M582 350q0 -173 -65.5 -269.5t-202.5 -96.5t-202.5 96.5t-65.5 269.5t65.5 269.5t202.5 96.5t202.5 -96.5t65.5 -269.5zM434 350q0 241 -120 241t-120 -241t120 -241t120 241z" />
    <glyph glyph-name="afii10033" unicode="&#x41f;" horiz-adv-x="614" 
d="M544 0h-144v575h-186v-575h-144v700h474v-700z" />
    <glyph glyph-name="afii10034" unicode="&#x420;" horiz-adv-x="523" 
d="M214 575v-174q68 13 102 41.5t34 64.5q0 31 -24.5 49.5t-65.5 18.5h-46zM214 272v-272h-144v700h194q102 0 165.5 -54.5t63.5 -133.5q0 -91 -67.5 -148.5t-211.5 -91.5z" />
    <glyph glyph-name="afii10035" unicode="&#x421;" horiz-adv-x="580" 
d="M194 350q0 -123 33.5 -182t92.5 -59q34 0 54 22t20 55q0 35 -13 81l140 -12q9 -39 9 -83q0 -85 -59.5 -136.5t-152.5 -51.5q-121 0 -196.5 91t-75.5 275t75.5 275t196.5 91q93 0 152.5 -51.5t59.5 -136.5q0 -44 -9 -83l-140 -12q13 46 13 81q0 33 -20 55t-54 22
q-59 0 -92.5 -59t-33.5 -182z" />
    <glyph glyph-name="afii10036" unicode="&#x422;" horiz-adv-x="548" 
d="M523 575h-177v-575h-144v575h-177v125h498v-125z" />
    <glyph glyph-name="afii10037" unicode="&#x423;" horiz-adv-x="558" 
d="M288 343h2l99 357h155l-188 -532q-41 -119 -98 -185l-140 35q70 72 99 153l-203 529h156z" />
    <glyph glyph-name="afii10038" unicode="&#x424;" horiz-adv-x="768" 
d="M192 350q0 -100 37 -141t92 -41v364q-55 0 -92 -41t-37 -141zM456 43v-83h-144v83q-48 0 -93 16t-85.5 49.5t-65 96t-24.5 145.5t24.5 145.5t65 96t85.5 49.5t93 16v83h144v-83q48 0 93 -16t85.5 -49.5t65 -96t24.5 -145.5t-24.5 -145.5t-65 -96t-85.5 -49.5t-93 -16z
M576 350q0 100 -37 141t-92 41v-364q55 0 92 41t37 141z" />
    <glyph glyph-name="afii10039" unicode="&#x425;" horiz-adv-x="584" 
d="M291 395h2l93 305h154l-114 -330l128 -370h-155l-106 355h-2l-106 -355h-155l128 370l-114 330h154z" />
    <glyph glyph-name="afii10040" unicode="&#x426;" horiz-adv-x="635" 
d="M601 -126h-115l-10 126h-406v700h144v-575h186v575h144v-575h57v-251z" />
    <glyph glyph-name="afii10041" unicode="&#x427;" horiz-adv-x="562" 
d="M348 398v302h144v-700h-144v270q-90 19 -149.5 47.5t-92.5 70.5t-46 92t-13 120v100h144v-97q0 -44 4.5 -72t20 -56.5t48 -47t84.5 -29.5z" />
    <glyph glyph-name="afii10042" unicode="&#x428;" horiz-adv-x="838" 
d="M768 0h-698v700h144v-575h133v575h144v-575h133v575h144v-700z" />
    <glyph glyph-name="afii10043" unicode="&#x429;" horiz-adv-x="859" 
d="M700 0h-630v700h144v-575h133v575h144v-575h133v575h144v-575h57v-251h-115z" />
    <glyph glyph-name="afii10044" unicode="&#x42a;" horiz-adv-x="611" 
d="M33 700h240v-251q305 -66 305 -255q0 -82 -64 -138t-192 -56h-193v575h-96v125zM273 319v-194h45q59 0 85.5 21.5t26.5 54.5q0 82 -157 118z" />
    <glyph glyph-name="afii10045" unicode="&#x42b;" horiz-adv-x="815" 
d="M745 0h-144v700h144v-700zM70 0v700h144v-251q305 -66 305 -255q0 -82 -64 -138t-192 -56h-193zM214 319v-194h45q59 0 85.5 21.5t26.5 54.5q0 82 -157 118z" />
    <glyph glyph-name="afii10046" unicode="&#x42c;" horiz-adv-x="552" 
d="M70 0v700h144v-251q305 -66 305 -255q0 -82 -64 -138t-192 -56h-193zM214 319v-194h45q59 0 85.5 21.5t26.5 54.5q0 82 -157 118z" />
    <glyph glyph-name="afii10047" unicode="&#x42d;" horiz-adv-x="580" 
d="M262 -16q-93 0 -152.5 51.5t-59.5 136.5q0 39 7 75l140 12q-11 -43 -11 -73q0 -33 20 -55t54 -22q110 0 124 187h-153v122h152q-17 173 -123 173q-34 0 -54 -22t-20 -55q0 -30 11 -73l-140 12q-7 36 -7 75q0 85 59.5 136.5t152.5 51.5q121 0 196.5 -91t75.5 -275
t-75.5 -275t-196.5 -91z" />
    <glyph glyph-name="afii10048" unicode="&#x42e;" horiz-adv-x="872" 
d="M678 350q0 241 -108 241t-108 -241t108 -241t108 241zM826 350q0 -173 -63 -269.5t-193 -96.5q-121 0 -183.5 83t-71.5 233h-101v-300h-144v700h144v-275h103q12 138 74.5 214.5t178.5 76.5q130 0 193 -96.5t63 -269.5z" />
    <glyph glyph-name="afii10049" unicode="&#x42f;" horiz-adv-x="575" 
d="M328 365q-77 -81 -106 -159t-29 -206h-145q0 126 26 213.5t91 161.5q-83 83 -83 167q0 70 62 114t174 44h187v-700h-144v575h-39q-97 0 -97 -64q0 -60 103 -146z" />
    <glyph glyph-name="afii10065" unicode="&#x430;" horiz-adv-x="515" 
d="M184 -16q-64 0 -103 39t-39 100q0 160 236 189l41 5v12q0 34 -18.5 54t-53.5 20q-58 0 -58 -55q0 -15 5 -33l-123 10q-4 21 -4 37q0 70 48 109.5t131 39.5q201 0 201 -179v-132q0 -111 28 -195l-127 -13l-10 63q-32 -38 -65.5 -54.5t-88.5 -16.5zM319 191v25l-39 -5
q-106 -14 -106 -78q0 -17 11.5 -30t34.5 -13q47 0 73 32.5t26 68.5z" />
    <glyph glyph-name="afii10066" unicode="&#x431;" horiz-adv-x="554" 
d="M283 -16q-99 0 -168 68.5t-69 214.5q0 98 17 173t44.5 124t71.5 84.5t89.5 55t107.5 34.5l53 13l59 -107l-53 -13q-143 -35 -196.5 -80t-66.5 -121h1q48 82 147 82q80 0 136 -64t56 -200q0 -123 -60 -193.5t-169 -70.5zM380 248q0 71 -24.5 111.5t-72.5 40.5t-72.5 -40.5
t-24.5 -111.5t24.5 -111.5t72.5 -40.5t72.5 40.5t24.5 111.5z" />
    <glyph glyph-name="afii10067" unicode="&#x432;" horiz-adv-x="512" 
d="M188 190v-94q33 -8 60 -8q83 0 83 55t-83 55q-27 0 -60 -8zM361 276q111 -32 111 -138q0 -72 -55.5 -113t-170.5 -41q-94 0 -186 33v330q0 77 51.5 121t144.5 44q78 0 131 -35t53 -90q0 -77 -79 -111zM306 366q0 16 -14 29t-38 13q-66 0 -66 -63v-53q118 8 118 74z" />
    <glyph glyph-name="afii10068" unicode="&#x433;" horiz-adv-x="416" 
d="M388 496v-112h-200v-384h-128v496h328z" />
    <glyph glyph-name="afii10069" unicode="&#x434;" horiz-adv-x="554" 
d="M508 318q0 -160 -55.5 -247t-181.5 -87q-61 0 -106.5 21.5t-71.5 59.5t-38.5 84t-12.5 99q0 113 53 188.5t161 75.5q37 0 92 -15q-11 53 -68.5 97t-146.5 65l72 96q155 -47 229 -153.5t74 -283.5zM373 318q0 31 -5 66q-51 16 -91 16q-103 0 -103 -152q0 -83 28 -117.5
t69 -34.5q58 0 80 56t22 166z" />
    <glyph glyph-name="afii10070" unicode="&#x435;" horiz-adv-x="536" 
d="M278 96q39 0 57 17t18 40q0 12 -3 30l124 -13q1 -12 1 -27q0 -67 -51.5 -113t-141.5 -46q-65 0 -113 21.5t-75 59t-39.5 83t-12.5 100.5q0 131 63 197.5t165 66.5q95 0 156.5 -63.5t61.5 -200.5v-26h-314q12 -126 104 -126zM362 320q0 36 -25.5 62t-66.5 26
q-31 0 -58.5 -23t-33.5 -65h184z" />
    <glyph glyph-name="afii10072" unicode="&#x436;" horiz-adv-x="730" 
d="M455 254l89 242h130l-85 -195q56 -48 75.5 -120.5t19.5 -180.5h-128q0 105 -19.5 161.5t-81.5 92.5zM429 0h-128v496h128v-496zM186 496l89 -242q-62 -36 -81.5 -92.5t-19.5 -161.5h-128q0 108 19.5 180.5t75.5 120.5l-85 195h130z" />
    <glyph glyph-name="afii10073" unicode="&#x437;" horiz-adv-x="484" 
d="M29 37l126 15q-11 -41 -11 -66q0 -30 21.5 -50t54.5 -20q50 0 76 29t26 70q0 46 -29.5 73t-75.5 27q-15 0 -28 -3l-19 106q74 16 104 50.5t30 73.5q0 23 -20.5 40.5t-54.5 17.5q-30 0 -48 -17t-18 -44q0 -30 5 -49l-123 15q-4 16 -4 48q0 62 51 110.5t139 48.5
q91 0 146.5 -45t55.5 -111q0 -44 -26 -86.5t-76 -70.5q61 -24 92 -73t31 -111q0 -85 -60.5 -148t-173.5 -63q-100 0 -149 50t-49 118q0 31 7 65z" />
    <glyph glyph-name="afii10074" unicode="&#x438;" horiz-adv-x="531" 
d="M336 496h128v-246q0 -125 27 -245l-126 -13l-10 63q-50 -71 -136 -71q-70 0 -114.5 42.5t-44.5 135.5v334h128v-324q0 -39 19 -57.5t46 -18.5q83 0 83 180v220z" />
    <glyph glyph-name="afii10075" unicode="&#x439;" horiz-adv-x="531" 
d="M336 496h128v-246q0 -125 27 -245l-126 -13l-10 63q-50 -71 -136 -71q-70 0 -114.5 42.5t-44.5 135.5v334h128v-324q0 -39 19 -57.5t46 -18.5q83 0 83 180v220zM262 625q63 0 63 88h96q0 -90 -44 -132t-115 -42t-115 42t-44 132h96q0 -88 63 -88z" />
    <glyph glyph-name="afii10076" unicode="&#x43a;" horiz-adv-x="495" 
d="M216 254l98 242h132l-96 -195q62 -48 83.5 -120.5t21.5 -180.5h-128q0 104 -22 161t-89 93zM188 0h-128v496h128v-496z" />
    <glyph glyph-name="afii10077" unicode="&#x43b;" horiz-adv-x="512" 
d="M259 388h-2q-17 -75 -27 -115l-74 -273h-136l146 496h184l146 -496h-136l-74 273q-10 40 -27 115z" />
    <glyph glyph-name="afii10078" unicode="&#x43c;" horiz-adv-x="666" 
d="M60 496h190l83 -318l83 318h190v-496h-120v240q0 75 4 144h-2l-100 -384h-110l-100 384h-2q4 -69 4 -144v-240h-120v496z" />
    <glyph glyph-name="afii10079" unicode="&#x43d;" horiz-adv-x="514" 
d="M188 0h-128v496h128v-173h138v173h128v-496h-128v211h-138v-211z" />
    <glyph glyph-name="afii10080" unicode="&#x43e;" horiz-adv-x="542" 
d="M368 248q0 71 -24.5 111.5t-72.5 40.5t-72.5 -40.5t-24.5 -111.5t24.5 -111.5t72.5 -40.5t72.5 40.5t24.5 111.5zM500 248q0 -133 -63.5 -198.5t-165.5 -65.5t-165.5 65.5t-63.5 198.5t63.5 198.5t165.5 65.5t165.5 -65.5t63.5 -198.5z" />
    <glyph glyph-name="afii10081" unicode="&#x43f;" horiz-adv-x="531" 
d="M40 491l126 13l10 -63q50 71 136 71q70 0 114.5 -42.5t44.5 -135.5v-334h-128v324q0 39 -19 57.5t-46 18.5q-83 0 -83 -180v-220h-128v246q0 125 -27 245z" />
    <glyph glyph-name="afii10082" unicode="&#x440;" horiz-adv-x="558" 
d="M384 261q0 139 -90 139q-46 0 -72.5 -42.5t-26.5 -157.5v-94q25 -4 45 -4q71 0 107.5 36t36.5 123zM166 504l10 -63q56 71 150 71q95 0 142.5 -66t47.5 -185q0 -128 -68.5 -199.5t-199.5 -71.5q-29 0 -53 3v-173h-128v426q0 125 -27 245z" />
    <glyph glyph-name="afii10083" unicode="&#x441;" horiz-adv-x="505" 
d="M174 248q0 -78 27 -115t70 -37q29 0 46.5 15t17.5 42q0 20 -7 47l124 -13q5 -30 5 -54q0 -63 -49.5 -106t-136.5 -43q-109 0 -169 70.5t-60 193.5t60 193.5t169 70.5q87 0 136.5 -43t49.5 -106q0 -24 -5 -54l-124 -13q7 27 7 47q0 27 -17.5 42t-46.5 15q-43 0 -70 -37
t-27 -115z" />
    <glyph glyph-name="afii10084" unicode="&#x442;" horiz-adv-x="454" 
d="M426 496v-112h-135v-384h-128v384h-135v112h398z" />
    <glyph glyph-name="afii10085" unicode="&#x443;" horiz-adv-x="516" 
d="M297 262l63 234h136l-146 -496q-24 -78 -41.5 -121t-45.5 -77l-135 28q62 70 94 170h-56l-146 496h136l63 -234q6 -22 19 -79.5t19 -81.5h2q6 24 19 81.5t19 79.5z" />
    <glyph glyph-name="afii10086" unicode="&#x444;" horiz-adv-x="772" 
d="M328 248q0 82 -22.5 117t-55.5 35t-55.5 -35t-22.5 -117t22.5 -117t55.5 -35t55.5 35t22.5 117zM444 248q0 -82 22.5 -117t55.5 -35t55.5 35t22.5 117t-22.5 117t-55.5 35t-55.5 -35t-22.5 -117zM450 -180h-128l2 238q-43 -74 -122 -74q-72 0 -116 64.5t-44 199.5
t44 199.5t116 64.5q79 0 122 -74l-2 302h128l-2 -302q43 74 122 74q72 0 116 -64.5t44 -199.5t-44 -199.5t-116 -64.5q-79 0 -122 74z" />
    <glyph glyph-name="afii10087" unicode="&#x445;" horiz-adv-x="504" 
d="M253 282l74 214h141l-101 -232l112 -264h-141l-85 248h-2l-85 -248h-141l112 264l-101 232h141l74 -214h2z" />
    <glyph glyph-name="afii10088" unicode="&#x446;" horiz-adv-x="547" 
d="M336 496h128v-246q0 -79 8 -138h50v-238h-104l-10 126h-44l-9 55q-50 -71 -136 -71q-70 0 -114.5 42.5t-44.5 135.5v334h128v-324q0 -39 19 -57.5t46 -18.5q83 0 83 180v220z" />
    <glyph glyph-name="afii10089" unicode="&#x447;" horiz-adv-x="483" 
d="M295 0v194q-77 3 -129.5 22t-79.5 53.5t-38 75t-11 95.5v56h128v-53q0 -74 30.5 -104t99.5 -33v190h128v-496h-128z" />
    <glyph glyph-name="afii10090" unicode="&#x448;" horiz-adv-x="797" 
d="M730 496v-246q0 -125 27 -245l-126 -13l-10 63q-48 -71 -134 -71q-93 0 -133 70q-47 -70 -135 -70q-75 0 -117 44.5t-42 133.5v334h128v-324q0 -37 18 -56.5t45 -19.5q80 0 80 180v220h128v-324q0 -37 18 -56.5t45 -19.5q80 0 80 180v220h128z" />
    <glyph glyph-name="afii10091" unicode="&#x449;" horiz-adv-x="813" 
d="M730 496v-246q0 -79 8 -138h50v-238h-104l-10 126h-44l-9 55q-48 -71 -134 -71q-93 0 -133 70q-47 -70 -135 -70q-75 0 -117 44.5t-42 133.5v334h128v-324q0 -37 18 -56.5t45 -19.5q80 0 80 180v220h128v-324q0 -37 18 -56.5t45 -19.5q80 0 80 180v220h128z" />
    <glyph glyph-name="afii10092" unicode="&#x44a;" horiz-adv-x="551" 
d="M118 13v371h-90v112h218v-207q44 42 100 42q79 0 125.5 -47.5t46.5 -121.5q0 -76 -54 -126t-160 -50q-99 0 -186 27zM386 162q0 24 -17.5 40.5t-46.5 16.5q-33 0 -54.5 -22.5t-21.5 -63.5v-28q32 -7 62 -7q78 0 78 64z" />
    <glyph glyph-name="afii10093" unicode="&#x44b;" horiz-adv-x="719" 
d="M659 0h-128v496h128v-496zM328 162q0 24 -17.5 40.5t-46.5 16.5q-33 0 -54.5 -22.5t-21.5 -63.5v-28q31 -7 62 -7q78 0 78 64zM188 496v-207q44 42 100 42q79 0 125.5 -47.5t46.5 -121.5q0 -76 -54 -126t-160 -50q-99 0 -186 27v483h128z" />
    <glyph glyph-name="afii10094" unicode="&#x44c;" horiz-adv-x="493" 
d="M328 162q0 24 -17.5 40.5t-46.5 16.5q-33 0 -54.5 -22.5t-21.5 -63.5v-28q31 -7 62 -7q78 0 78 64zM188 496v-207q44 42 100 42q79 0 125.5 -47.5t46.5 -121.5q0 -76 -54 -126t-160 -50q-99 0 -186 27v483h128z" />
    <glyph glyph-name="afii10095" unicode="&#x44d;" horiz-adv-x="505" 
d="M234 -16q-87 0 -136.5 43t-49.5 106q0 19 3 40l123 13q-4 -16 -4 -33q0 -27 17.5 -42t46.5 -15q37 0 62.5 27t32.5 84h-127v93h125q-17 100 -93 100q-29 0 -46.5 -15t-17.5 -42q0 -17 4 -33l-123 13q-3 21 -3 40q0 63 49.5 106t136.5 43q109 0 169 -70.5t60 -193.5
t-60 -193.5t-169 -70.5z" />
    <glyph glyph-name="afii10096" unicode="&#x44e;" horiz-adv-x="744" 
d="M572 248q0 72 -22.5 112t-66.5 40t-66.5 -40t-22.5 -112t22.5 -112t66.5 -40t66.5 40t22.5 112zM702 248q0 -133 -61 -198.5t-158 -65.5q-88 0 -147 54t-70 165h-78v-203h-128v496h128v-181h81q15 99 73 148t141 49q97 0 158 -65.5t61 -198.5z" />
    <glyph glyph-name="afii10097" unicode="&#x44f;" horiz-adv-x="497" 
d="M272 254q-66 -38 -86.5 -97.5t-20.5 -156.5h-128q0 89 15 148t59 106q-60 51 -60 117q0 60 49.5 97.5t142.5 37.5q83 0 194 -23v-483h-128v388q-36 6 -60 6q-68 0 -68 -52q0 -24 21.5 -44t69.5 -44z" />
    <glyph glyph-name="afii10071" unicode="&#x451;" horiz-adv-x="536" 
d="M199 580h-96v120h96v-120zM413 580h-96v120h96v-120zM278 96q39 0 57 17t18 40q0 12 -3 30l124 -13q1 -12 1 -27q0 -67 -51.5 -113t-141.5 -46q-65 0 -113 21.5t-75 59t-39.5 83t-12.5 100.5q0 131 63 197.5t165 66.5q95 0 156.5 -63.5t61.5 -200.5v-26h-314
q12 -126 104 -126zM362 320q0 36 -25.5 62t-66.5 26q-31 0 -58.5 -23t-33.5 -65h184z" />
    <glyph glyph-name="afii10099" unicode="&#x452;" horiz-adv-x="538" 
d="M350 87v237q0 39 -19 57.5t-46 18.5q-83 0 -83 -180v-220h-128v569h-63v95h63v76h128l-2 -76h121v-95h-122l-2 -110q46 53 122 53q70 0 114.5 -42.5t44.5 -135.5v-249q0 -79 -28.5 -133t-75.5 -75l-89 69q65 27 65 141z" />
    <glyph glyph-name="afii10100" unicode="&#x453;" horiz-adv-x="416" 
d="M388 496v-112h-200v-384h-128v496h328zM152 548l57 185h149l-104 -185h-102z" />
    <glyph glyph-name="afii10101" unicode="&#x454;" horiz-adv-x="505" 
d="M271 -16q-109 0 -169 70.5t-60 193.5t60 193.5t169 70.5q87 0 136.5 -43t49.5 -106q0 -19 -3 -40l-123 -13q4 16 4 33q0 27 -17.5 42t-46.5 15q-76 0 -93 -100h125v-93h-127q7 -57 32.5 -84t62.5 -27q29 0 46.5 15t17.5 42q0 17 -4 33l123 -13q3 -21 3 -40
q0 -63 -49.5 -106t-136.5 -43z" />
    <glyph glyph-name="afii10102" unicode="&#x455;" horiz-adv-x="490" 
d="M252 406q-35 0 -52 -13t-17 -31q0 -20 16.5 -30.5t63.5 -21.5q97 -23 142 -63t45 -105q0 -68 -54 -113t-159 -45q-100 0 -148.5 38t-48.5 103q0 21 5 46l123 10q-6 -24 -6 -41q0 -50 75 -50q42 0 61.5 14.5t19.5 35.5t-17.5 33.5t-73.5 25.5q-175 39 -175 161
q0 67 52.5 109.5t148.5 42.5q93 0 139 -38t46 -99q0 -22 -4 -43l-124 -10q6 21 6 39q0 45 -64 45z" />
    <glyph glyph-name="afii10103" unicode="&#x456;" horiz-adv-x="248" 
d="M188 0h-128v496h128v-496zM188 565h-128v135h128v-135z" />
    <glyph glyph-name="afii10104" unicode="&#x457;" horiz-adv-x="248" 
d="M104 565h-94v135h94v-135zM238 565h-94v135h94v-135zM188 0h-128v496h128v-496z" />
    <glyph glyph-name="afii10105" unicode="&#x458;" horiz-adv-x="252" 
d="M192 496v-432q0 -205 -139 -262l-88 83q99 27 99 181v430h128zM192 565h-128v135h128v-135z" />
    <glyph glyph-name="afii10106" unicode="&#x459;" horiz-adv-x="745" 
d="M580 162q0 24 -17.5 40.5t-46.5 16.5q-50 0 -71 -47l22 -72q15 -2 35 -2q78 0 78 64zM259 388h-2q-17 -75 -27 -115l-74 -273h-136l146 496h184l64 -218q61 53 124 53q79 0 126.5 -48t47.5 -121q0 -76 -54 -126t-160 -50q-60 0 -138 15l-74 272q-10 40 -27 115z" />
    <glyph glyph-name="afii10107" unicode="&#x45a;" horiz-adv-x="759" 
d="M326 13v198h-138v-211h-128v496h128v-173h138v173h128v-207q44 42 100 42q79 0 125.5 -47.5t46.5 -121.5q0 -76 -54 -126t-160 -50q-99 0 -186 27zM594 162q0 24 -17.5 40.5t-46.5 16.5q-33 0 -54.5 -22.5t-21.5 -63.5v-28q32 -7 62 -7q78 0 78 64z" />
    <glyph glyph-name="afii10108" unicode="&#x45b;" horiz-adv-x="538" 
d="M350 0v324q0 39 -19 57.5t-46 18.5q-83 0 -83 -180v-220h-128v569h-63v95h63v76h128l-2 -76h121v-95h-122l-2 -110q46 53 122 53q70 0 114.5 -42.5t44.5 -135.5v-334h-128z" />
    <glyph glyph-name="afii10109" unicode="&#x45c;" horiz-adv-x="495" 
d="M216 254l98 242h132l-96 -195q62 -48 83.5 -120.5t21.5 -180.5h-128q0 104 -22 161t-89 93zM188 0h-128v496h128v-496zM199 548l57 185h149l-104 -185h-102z" />
    <glyph glyph-name="afii10110" unicode="&#x45e;" horiz-adv-x="516" 
d="M297 262l63 234h136l-146 -496q-24 -78 -41.5 -121t-45.5 -77l-135 28q62 70 94 170h-56l-146 496h136l63 -234q6 -22 19 -79.5t19 -81.5h2q6 24 19 81.5t19 79.5zM258 625q63 0 63 88h96q0 -90 -44 -132t-115 -42t-115 42t-44 132h96q0 -88 63 -88z" />
    <glyph glyph-name="afii10193" unicode="&#x45f;" horiz-adv-x="531" 
d="M324 -150h-124v110h124v-110zM336 496h128v-246q0 -125 27 -245l-126 -13l-10 63q-50 -71 -136 -71q-70 0 -114.5 42.5t-44.5 135.5v334h128v-324q0 -39 19 -57.5t46 -18.5q83 0 83 180v220z" />
    <glyph glyph-name="afii10050" unicode="&#x490;" horiz-adv-x="488" 
d="M463 575h-249v-575h-144v700h292l7 96h94v-221z" />
    <glyph glyph-name="afii10098" unicode="&#x491;" horiz-adv-x="416" 
d="M388 590v-206h-200v-384h-128v496h235l8 94h85z" />
    <glyph glyph-name="uni2010" unicode="&#x2010;" horiz-adv-x="402" 
d="M358 206h-314v116h314v-116z" />
    <glyph glyph-name="uni2011" unicode="&#x2011;" horiz-adv-x="402" 
d="M358 206h-314v116h314v-116z" />
    <glyph glyph-name="figuredash" unicode="&#x2012;" horiz-adv-x="674" 
d="M597 287h-520v102h520v-102z" />
    <glyph glyph-name="endash" unicode="&#x2013;" horiz-adv-x="674" 
d="M597 213h-520v102h520v-102z" />
    <glyph glyph-name="emdash" unicode="&#x2014;" horiz-adv-x="834" 
d="M757 213h-680v102h680v-102z" />
    <glyph glyph-name="afii00208" unicode="&#x2015;" horiz-adv-x="834" 
d="M757 213h-680v102h680v-102z" />
    <glyph glyph-name="quoteleft" unicode="&#x2018;" horiz-adv-x="166" 
d="M98 589h46v-113h-122v113q0 70 45 134l72 -19q-41 -51 -41 -115z" />
    <glyph glyph-name="quoteright" unicode="&#x2019;" horiz-adv-x="166" 
d="M68 587h-46v113h122v-113q0 -70 -45 -134l-72 19q41 51 41 115z" />
    <glyph glyph-name="quotesinglbase" unicode="&#x201a;" horiz-adv-x="166" 
d="M68 0h-46v113h122v-113q0 -70 -45 -134l-72 19q41 51 41 115z" />
    <glyph glyph-name="quotedblleft" unicode="&#x201c;" horiz-adv-x="328" 
d="M260 589h46v-113h-122v113q0 70 45 134l72 -19q-41 -51 -41 -115zM98 589h46v-113h-122v113q0 70 45 134l72 -19q-41 -51 -41 -115z" />
    <glyph glyph-name="quotedblright" unicode="&#x201d;" horiz-adv-x="328" 
d="M68 587h-46v113h122v-113q0 -70 -45 -134l-72 19q41 51 41 115zM230 587h-46v113h122v-113q0 -70 -45 -134l-72 19q41 51 41 115z" />
    <glyph glyph-name="quotedblbase" unicode="&#x201e;" horiz-adv-x="328" 
d="M68 0h-46v113h122v-113q0 -70 -45 -134l-72 19q41 51 41 115zM230 0h-46v113h122v-113q0 -70 -45 -134l-72 19q41 51 41 115z" />
    <glyph glyph-name="dagger" unicode="&#x2020;" horiz-adv-x="472" 
d="M428 454v-112h-128v-501h-128v501h-128v112h128v206h128v-206h128z" />
    <glyph glyph-name="daggerdbl" unicode="&#x2021;" horiz-adv-x="472" 
d="M428 160v-112h-128v-207h-128v207h-128v112h128v182h-128v112h128v206h128v-206h128v-112h-128v-182h128z" />
    <glyph glyph-name="bullet" unicode="&#x2022;" horiz-adv-x="462" 
d="M111 264q0 50 35.5 85t84.5 35t84.5 -35t35.5 -85t-35.5 -85t-84.5 -35t-84.5 35t-35.5 85z" />
    <glyph glyph-name="ellipsis" unicode="&#x2026;" horiz-adv-x="808" 
d="M206 0h-136v126h136v-126zM472 0h-136v126h136v-126zM738 0h-136v126h136v-126z" />
    <glyph glyph-name="perthousand" unicode="&#x2030;" horiz-adv-x="1120" 
d="M606 660l-336 -660h-88l336 660h88zM328 478q0 -191 -141 -191t-141 191t141 191t141 -191zM141 478q0 -112 46 -112t46 112t-46 112t-46 -112zM460 182q0 191 141 191t141 -191t-141 -191t-141 191zM647 182q0 112 -46 112t-46 -112t46 -112t46 112zM792 182
q0 191 141 191t141 -191t-141 -191t-141 191zM979 182q0 112 -46 112t-46 -112t46 -112t46 112z" />
    <glyph glyph-name="guilsinglleft" unicode="&#x2039;" horiz-adv-x="347" 
d="M322 470l-170 -206l170 -206h-127l-170 206l170 206h127z" />
    <glyph glyph-name="guilsinglright" unicode="&#x203a;" horiz-adv-x="347" 
d="M195 264l-170 206h127l170 -206l-170 -206h-127z" />
    <glyph glyph-name="fraction" unicode="&#x2044;" horiz-adv-x="338" 
d="M321 660l-197 -660h-107l196 660h108z" />
    <glyph glyph-name="Euro" unicode="&#x20ac;" horiz-adv-x="594" 
d="M345 102q32 0 51 20.5t19 52.5q0 25 -6 55l130 -11q5 -27 5 -57q0 -81 -56.5 -129.5t-144.5 -48.5q-92 0 -158 56.5t-89 172.5h-71l19 100h42v37h-61l19 100h53q23 114 89 170t157 56q88 0 144.5 -48.5t56.5 -129.5q0 -30 -5 -57l-130 -11q6 30 6 55q0 32 -19 52.5
t-51 20.5q-80 0 -107 -108h143l-19 -100h-136v-37h129l-19 -100h-98q26 -111 107 -111z" />
    <glyph glyph-name="uni20B4" unicode="&#x20b4;" horiz-adv-x="611" 
d="M323 -17q-114 0 -177.5 53t-63.5 111q0 43 17 86h-49v80h114q28 21 52 37h-166v80h285q51 31 51 75q0 22 -21 37.5t-60 15.5q-81 0 -81 -57q0 -21 6 -44l-131 10q-4 21 -4 47q0 72 51.5 117t158.5 45q96 0 158.5 -48t62.5 -110q0 -50 -20 -88h55v-80h-127
q-26 -20 -56 -37h183v-80h-298q-41 -31 -41 -67q0 -32 28.5 -48.5t70.5 -16.5q39 0 63 16t24 45q0 21 -7 48l132 -9q4 -29 4 -49q0 -74 -53.5 -121.5t-160.5 -47.5z" />
    <glyph glyph-name="uni20B6" unicode="&#x20b6;" horiz-adv-x="536" 
d="M237 547v-165q65 12 96.5 39t31.5 63q0 30 -23 46.5t-62 16.5h-43zM402 192l-165 -49v-143h-136v103l-90 -26v86l90 26v36l-90 -26v115l90 27v319h183q98 0 157 -47t59 -122q0 -164 -263 -226v-36l165 49v-86z" />
    <glyph glyph-name="uni20B6" unicode="&#x20cf;" horiz-adv-x="536" 
d="M237 547v-165q65 12 96.5 39t31.5 63q0 30 -23 46.5t-62 16.5h-43zM402 192l-165 -49v-143h-136v103l-90 -26v86l90 26v36l-90 -26v115l90 27v319h183q98 0 157 -47t59 -122q0 -164 -263 -226v-36l165 49v-86z" />
    <glyph glyph-name="uni20B6" unicode="&#x20ce;" horiz-adv-x="536" 
d="M237 547v-165q65 12 96.5 39t31.5 63q0 30 -23 46.5t-62 16.5h-43zM402 192l-165 -49v-143h-136v103l-90 -26v86l90 26v36l-90 -26v115l90 27v319h183q98 0 157 -47t59 -122q0 -164 -263 -226v-36l165 49v-86z" />
    <glyph glyph-name="uni20B6" unicode="&#x20cd;" horiz-adv-x="536" 
d="M237 547v-165q65 12 96.5 39t31.5 63q0 30 -23 46.5t-62 16.5h-43zM402 192l-165 -49v-143h-136v103l-90 -26v86l90 26v36l-90 -26v115l90 27v319h183q98 0 157 -47t59 -122q0 -164 -263 -226v-36l165 49v-86z" />
    <glyph glyph-name="uni20B6" unicode="&#x20cc;" horiz-adv-x="536" 
d="M237 547v-165q65 12 96.5 39t31.5 63q0 30 -23 46.5t-62 16.5h-43zM402 192l-165 -49v-143h-136v103l-90 -26v86l90 26v36l-90 -26v115l90 27v319h183q98 0 157 -47t59 -122q0 -164 -263 -226v-36l165 49v-86z" />
    <glyph glyph-name="uni20B6" unicode="&#x20cb;" horiz-adv-x="536" 
d="M237 547v-165q65 12 96.5 39t31.5 63q0 30 -23 46.5t-62 16.5h-43zM402 192l-165 -49v-143h-136v103l-90 -26v86l90 26v36l-90 -26v115l90 27v319h183q98 0 157 -47t59 -122q0 -164 -263 -226v-36l165 49v-86z" />
    <glyph glyph-name="uni20B6" unicode="&#x20ca;" horiz-adv-x="536" 
d="M237 547v-165q65 12 96.5 39t31.5 63q0 30 -23 46.5t-62 16.5h-43zM402 192l-165 -49v-143h-136v103l-90 -26v86l90 26v36l-90 -26v115l90 27v319h183q98 0 157 -47t59 -122q0 -164 -263 -226v-36l165 49v-86z" />
    <glyph glyph-name="uni20B6" unicode="&#x20c9;" horiz-adv-x="536" 
d="M237 547v-165q65 12 96.5 39t31.5 63q0 30 -23 46.5t-62 16.5h-43zM402 192l-165 -49v-143h-136v103l-90 -26v86l90 26v36l-90 -26v115l90 27v319h183q98 0 157 -47t59 -122q0 -164 -263 -226v-36l165 49v-86z" />
    <glyph glyph-name="uni20B6" unicode="&#x20c8;" horiz-adv-x="536" 
d="M237 547v-165q65 12 96.5 39t31.5 63q0 30 -23 46.5t-62 16.5h-43zM402 192l-165 -49v-143h-136v103l-90 -26v86l90 26v36l-90 -26v115l90 27v319h183q98 0 157 -47t59 -122q0 -164 -263 -226v-36l165 49v-86z" />
    <glyph glyph-name="uni20B6" unicode="&#x20c7;" horiz-adv-x="536" 
d="M237 547v-165q65 12 96.5 39t31.5 63q0 30 -23 46.5t-62 16.5h-43zM402 192l-165 -49v-143h-136v103l-90 -26v86l90 26v36l-90 -26v115l90 27v319h183q98 0 157 -47t59 -122q0 -164 -263 -226v-36l165 49v-86z" />
    <glyph glyph-name="uni20B6" unicode="&#x20c6;" horiz-adv-x="536" 
d="M237 547v-165q65 12 96.5 39t31.5 63q0 30 -23 46.5t-62 16.5h-43zM402 192l-165 -49v-143h-136v103l-90 -26v86l90 26v36l-90 -26v115l90 27v319h183q98 0 157 -47t59 -122q0 -164 -263 -226v-36l165 49v-86z" />
    <glyph glyph-name="uni20B6" unicode="&#x20c5;" horiz-adv-x="536" 
d="M237 547v-165q65 12 96.5 39t31.5 63q0 30 -23 46.5t-62 16.5h-43zM402 192l-165 -49v-143h-136v103l-90 -26v86l90 26v36l-90 -26v115l90 27v319h183q98 0 157 -47t59 -122q0 -164 -263 -226v-36l165 49v-86z" />
    <glyph glyph-name="uni20B6" unicode="&#x20c4;" horiz-adv-x="536" 
d="M237 547v-165q65 12 96.5 39t31.5 63q0 30 -23 46.5t-62 16.5h-43zM402 192l-165 -49v-143h-136v103l-90 -26v86l90 26v36l-90 -26v115l90 27v319h183q98 0 157 -47t59 -122q0 -164 -263 -226v-36l165 49v-86z" />
    <glyph glyph-name="uni20B6" unicode="&#x20c3;" horiz-adv-x="536" 
d="M237 547v-165q65 12 96.5 39t31.5 63q0 30 -23 46.5t-62 16.5h-43zM402 192l-165 -49v-143h-136v103l-90 -26v86l90 26v36l-90 -26v115l90 27v319h183q98 0 157 -47t59 -122q0 -164 -263 -226v-36l165 49v-86z" />
    <glyph glyph-name="uni20B6" unicode="&#x20c2;" horiz-adv-x="536" 
d="M237 547v-165q65 12 96.5 39t31.5 63q0 30 -23 46.5t-62 16.5h-43zM402 192l-165 -49v-143h-136v103l-90 -26v86l90 26v36l-90 -26v115l90 27v319h183q98 0 157 -47t59 -122q0 -164 -263 -226v-36l165 49v-86z" />
    <glyph glyph-name="uni20B6" unicode="&#x20c1;" horiz-adv-x="536" 
d="M237 547v-165q65 12 96.5 39t31.5 63q0 30 -23 46.5t-62 16.5h-43zM402 192l-165 -49v-143h-136v103l-90 -26v86l90 26v36l-90 -26v115l90 27v319h183q98 0 157 -47t59 -122q0 -164 -263 -226v-36l165 49v-86z" />
    <glyph glyph-name="uni20B6" unicode="&#x20c0;" horiz-adv-x="536" 
d="M237 547v-165q65 12 96.5 39t31.5 63q0 30 -23 46.5t-62 16.5h-43zM402 192l-165 -49v-143h-136v103l-90 -26v86l90 26v36l-90 -26v115l90 27v319h183q98 0 157 -47t59 -122q0 -164 -263 -226v-36l165 49v-86z" />
    <glyph glyph-name="uni20B6" unicode="&#x20bf;" horiz-adv-x="536" 
d="M237 547v-165q65 12 96.5 39t31.5 63q0 30 -23 46.5t-62 16.5h-43zM402 192l-165 -49v-143h-136v103l-90 -26v86l90 26v36l-90 -26v115l90 27v319h183q98 0 157 -47t59 -122q0 -164 -263 -226v-36l165 49v-86z" />
    <glyph glyph-name="uni20B6" unicode="&#x20be;" horiz-adv-x="536" 
d="M237 547v-165q65 12 96.5 39t31.5 63q0 30 -23 46.5t-62 16.5h-43zM402 192l-165 -49v-143h-136v103l-90 -26v86l90 26v36l-90 -26v115l90 27v319h183q98 0 157 -47t59 -122q0 -164 -263 -226v-36l165 49v-86z" />
    <glyph glyph-name="uni20B6" unicode="&#x20bd;" horiz-adv-x="536" 
d="M237 547v-165q65 12 96.5 39t31.5 63q0 30 -23 46.5t-62 16.5h-43zM402 192l-165 -49v-143h-136v103l-90 -26v86l90 26v36l-90 -26v115l90 27v319h183q98 0 157 -47t59 -122q0 -164 -263 -226v-36l165 49v-86z" />
    <glyph glyph-name="uni20B6" unicode="&#x20bc;" horiz-adv-x="536" 
d="M237 547v-165q65 12 96.5 39t31.5 63q0 30 -23 46.5t-62 16.5h-43zM402 192l-165 -49v-143h-136v103l-90 -26v86l90 26v36l-90 -26v115l90 27v319h183q98 0 157 -47t59 -122q0 -164 -263 -226v-36l165 49v-86z" />
    <glyph glyph-name="uni20B6" unicode="&#x20bb;" horiz-adv-x="536" 
d="M237 547v-165q65 12 96.5 39t31.5 63q0 30 -23 46.5t-62 16.5h-43zM402 192l-165 -49v-143h-136v103l-90 -26v86l90 26v36l-90 -26v115l90 27v319h183q98 0 157 -47t59 -122q0 -164 -263 -226v-36l165 49v-86z" />
    <glyph glyph-name="uni20B6" unicode="&#x20ba;" horiz-adv-x="536" 
d="M237 547v-165q65 12 96.5 39t31.5 63q0 30 -23 46.5t-62 16.5h-43zM402 192l-165 -49v-143h-136v103l-90 -26v86l90 26v36l-90 -26v115l90 27v319h183q98 0 157 -47t59 -122q0 -164 -263 -226v-36l165 49v-86z" />
    <glyph glyph-name="uni20B6" unicode="&#x20b9;" horiz-adv-x="536" 
d="M237 547v-165q65 12 96.5 39t31.5 63q0 30 -23 46.5t-62 16.5h-43zM402 192l-165 -49v-143h-136v103l-90 -26v86l90 26v36l-90 -26v115l90 27v319h183q98 0 157 -47t59 -122q0 -164 -263 -226v-36l165 49v-86z" />
    <glyph glyph-name="uni20B6" unicode="&#x20b7;" horiz-adv-x="536" 
d="M237 547v-165q65 12 96.5 39t31.5 63q0 30 -23 46.5t-62 16.5h-43zM402 192l-165 -49v-143h-136v103l-90 -26v86l90 26v36l-90 -26v115l90 27v319h183q98 0 157 -47t59 -122q0 -164 -263 -226v-36l165 49v-86z" />
    <glyph glyph-name="afii61352" unicode="&#x2116;" horiz-adv-x="1007" 
d="M940 121h-276v93h276v-93zM564 700v-700h-199l-167 540h-1q12 -180 12 -226v-314h-139v700h199l167 -540h1q-12 180 -12 226v314h139zM647 459q0 92 43 136.5t112 44.5t112 -44.5t43 -136.5t-43 -136.5t-112 -44.5t-112 44.5t-43 136.5zM857 459q0 96 -55 96t-55 -96
t55 -96t55 96z" />
    <glyph glyph-name="trademark" unicode="&#x2122;" horiz-adv-x="811" 
d="M336 625h-95v-311h-90v311h-96v75h281v-75zM534 700l47 -210l47 210h128v-386h-84v186q0 51 4 126h-1l-57 -251h-75l-56 251h-1q4 -112 4 -126v-186h-85v386h129z" />
    <glyph glyph-name="partialdiff" unicode="&#x2202;" horiz-adv-x="554" 
d="M373 318q0 31 -5 66q-51 16 -91 16q-103 0 -103 -152q0 -83 28 -117.5t69 -34.5q58 0 80 56t22 166zM508 318q0 -160 -55.5 -247t-181.5 -87q-61 0 -106.5 21.5t-71.5 59.5t-38.5 84t-12.5 99q0 113 53 188.5t161 75.5q37 0 92 -15q-11 53 -68.5 97t-146.5 65l72 96
q155 -47 229 -153.5t74 -283.5z" />
    <glyph glyph-name="product" unicode="&#x220f;" horiz-adv-x="666" 
d="M570 0h-144v575h-186v-575h-144v575h-46v125h566v-125h-46v-575z" />
    <glyph glyph-name="summation" unicode="&#x2211;" horiz-adv-x="517" 
d="M380 290l-172 -315h276v-125h-451v101l185 339l-168 309v101h417v-125h-242z" />
    <glyph glyph-name="minus" unicode="&#x2212;" horiz-adv-x="498" 
d="M50 285v100h398v-100h-398z" />
    <glyph glyph-name="radical" unicode="&#x221a;" horiz-adv-x="495" 
d="M473 700l-171 -700h-174l-54 266h-41v112h153l43 -241l129 563h115z" />
    <glyph glyph-name="infinity" unicode="&#x221e;" horiz-adv-x="874" 
d="M437 240q-57 -42 -82 -59.5t-62.5 -33.5t-72.5 -16q-79 0 -126 59t-47 140t47 140t126 59q35 0 72.5 -16t62.5 -33.5t82 -59.5q57 42 82 59.5t62.5 33.5t72.5 16q79 0 126 -59t47 -140t-47 -140t-126 -59q-35 0 -72.5 16t-62.5 33.5t-82 59.5zM395 330q-105 96 -156 96
q-42 0 -63 -29.5t-21 -66.5t21 -66.5t63 -29.5q51 0 156 96zM479 330q105 -96 156 -96q42 0 63 29.5t21 66.5t-21 66.5t-63 29.5q-51 0 -156 -96z" />
    <glyph glyph-name="integral" unicode="&#x222b;" horiz-adv-x="389" 
d="M208 424l98 -291q21 -61 21 -111q0 -89 -51.5 -138.5t-126.5 -49.5q-50 0 -113 17l30 113q32 -18 59 -18q35 0 52.5 21.5t17.5 51.5q0 23 -14 67l-98 291q-21 61 -21 111q0 89 51.5 138.5t126.5 49.5q50 0 113 -17l-30 -113q-32 18 -59 18q-35 0 -52.5 -21.5t-17.5 -51.5
q0 -23 14 -67z" />
    <glyph glyph-name="approxequal" unicode="&#x2248;" horiz-adv-x="508" 
d="M254 373q-67 21 -85 21q-39 0 -39 -35l-80 11q5 58 28.5 91.5t84.5 33.5q36 0 91 -16q68 -21 85 -21q39 0 39 35l80 -11q-5 -58 -28.5 -91.5t-84.5 -33.5q-36 0 -91 16zM254 192q-67 21 -85 21q-39 0 -39 -35l-80 11q5 58 28.5 91.5t84.5 33.5q36 0 91 -16q68 -21 85 -21
q39 0 39 35l80 -11q-5 -58 -28.5 -91.5t-84.5 -33.5q-36 0 -91 16z" />
    <glyph glyph-name="notequal" unicode="&#x2260;" horiz-adv-x="498" 
d="M50 375v100h229l57 118h75l-57 -118h94v-100h-142l-38 -80h180v-100h-228l-58 -121h-75l58 121h-95v100h143l38 80h-181z" />
    <glyph glyph-name="lessequal" unicode="&#x2264;" horiz-adv-x="498" 
d="M50 188v106l398 -142v-106zM194 430l254 -87v-108l-398 142v106l398 142v-108z" />
    <glyph glyph-name="greaterequal" unicode="&#x2265;" horiz-adv-x="498" 
d="M448 294v-106l-398 -142v106zM50 343l254 87l-254 87v108l398 -142v-106l-398 -142v108z" />
    <glyph glyph-name="lozenge" unicode="&#x25ca;" horiz-adv-x="466" 
d="M433 331l-200 -369l-200 369l200 369zM233 141l103 190l-103 190l-103 -190z" />
    <glyph glyph-name="uniF400" unicode="&#xf400;" horiz-adv-x="2" 
d="M-308 548l57 185h149l-104 -185h-102z" />
    <glyph glyph-name="uniF401" unicode="&#xf401;" horiz-adv-x="2" 
d="M-366 733l74 152h160l-124 -152h-110z" />
    <glyph glyph-name="uniF407" unicode="&#xf407;" 
d="M182 -91l24 101h71l-9 -36q75 -19 75 -89q0 -39 -28 -66.5t-92 -27.5q-34 0 -66 7l14 68q23 -8 48 -8q37 0 37 27t-37 27q-16 0 -37 -3z" />
    <glyph glyph-name="uniF408" unicode="&#xf408;" 
d="M316 887l97 -153h-107l-56 82l-56 -82h-107l97 153h132z" />
    <glyph glyph-name="uniF40C" unicode="&#xf40c;" 
d="M351 811q0 -45 -29 -70t-72 -25t-72 25t-29 70t29 70t72 25t72 -25t29 -70zM215 811q0 -19 10 -28.5t25 -9.5t25 9.5t10 28.5t-10 28.5t-25 9.5t-25 -9.5t-10 -28.5z" />
    <glyph glyph-name="uniF40D" unicode="&#xf40d;" 
d="M267 855q39 -29 53 -29q16 0 21.5 16.5t5.5 53.5l87 -8v-29q0 -131 -104 -131q-49 0 -97 37q-38 29 -53 29q-16 0 -21.5 -16.5t-5.5 -53.5l-87 8v29q0 131 104 131q50 0 97 -37z" />
    <glyph glyph-name="uniF6BA" unicode="&#xf6ba;" horiz-adv-x="402" 
d="M358 280h-314v116h314v-116z" />
    <glyph glyph-name="uniF6BB" unicode="&#xf6bb;" horiz-adv-x="674" 
d="M597 287h-520v102h520v-102z" />
    <glyph glyph-name="uniF6BC" unicode="&#xf6bc;" horiz-adv-x="834" 
d="M757 287h-680v102h680v-102z" />
    <glyph glyph-name="uniF6C9" unicode="&#xf6c9;" 
d="M133 733l74 152h160l-124 -152h-110z" />
    <glyph glyph-name="uniF6CA" unicode="&#xf6ca;" 
d="M413 887l-97 -153h-132l-97 153h107l56 -82l56 82h107z" />
    <glyph glyph-name="uniF6CB" unicode="&#xf6cb;" 
d="M200 743h-111v135h111v-135zM411 743h-111v135h111v-135z" />
    <glyph glyph-name="uniF6CE" unicode="&#xf6ce;" 
d="M293 885l74 -152h-110l-124 152h160z" />
    <glyph glyph-name="uniF6D1" unicode="&#xf6d1;" 
d="M250 711q-80 0 -126 43t-46 130h99q0 -82 73 -82t73 82h99q0 -87 -46 -130t-126 -43z" />
    <glyph glyph-name="uniF6D4" unicode="&#xf6d4;" 
d="M250 625q63 0 63 88h96q0 -90 -44 -132t-115 -42t-115 42t-44 132h96q0 -88 63 -88z" />
    <glyph glyph-name="uniF6DE" unicode="&#xf6de;" horiz-adv-x="625" 
d="M568 213h-510v102h510v-102z" />
    <glyph glyph-name="r.alt01" horiz-adv-x="393" 
d="M166 504l9 -56q42 64 121 64q33 0 75 -13l-27 -129q-36 19 -62 19q-46 0 -66.5 -37t-20.5 -132v-220h-128v246q0 125 -27 245z" />
    <glyph glyph-name="g.alt01" horiz-adv-x="560" 
d="M370 264q0 70 -27.5 103t-70.5 33t-70.5 -33t-27.5 -103t27.5 -103t70.5 -33t70.5 33t27.5 103zM238 16q-92 0 -144 61.5t-52 186.5t52 186.5t144 61.5q97 0 146 -71l10 63l126 -13q-27 -120 -27 -245v-202q0 -51 -10 -90.5t-35.5 -75t-76 -55t-123.5 -19.5
q-58 0 -99.5 16t-62 42t-29.5 50.5t-9 49.5q0 19 2 34l123 11q-3 -18 -3 -32q0 -59 82 -59q113 0 113 125v20q-47 -45 -127 -45z" />
    <glyph glyph-name="afii10098.alt01" horiz-adv-x="256" 
d="M110 -167l-112 35q37 44 53.5 100t16.5 185v286q0 143 56 214t176 93l8 84h86v-183l-30 -5q-99 -15 -133.5 -59.5t-34.5 -145.5v-286q0 -123 -21 -195t-65 -123z" />
    <glyph glyph-name="afii10067.alt01" horiz-adv-x="558" 
d="M367 418q151 -50 151 -208q0 -102 -64.5 -164t-189.5 -62q-100 0 -204 33v538q0 87 57.5 144t154.5 57q91 0 148.5 -49.5t57.5 -124.5q0 -47 -29 -90.5t-82 -73.5zM350 576q0 29 -21 48.5t-56 19.5q-43 0 -64 -25.5t-21 -65.5v-121q82 25 122 63t40 81zM188 326v-220
q36 -10 74 -10q56 0 90 31.5t34 88.5t-34 88.5t-90 31.5q-38 0 -74 -10z" />
    <glyph glyph-name="afii10068.alt01" horiz-adv-x="256" 
d="M110 -197l-112 35q37 44 53.5 100t16.5 185v296q0 156 60.5 233t189.5 97l32 5l44 -107l-30 -5q-98 -15 -133 -65.5t-35 -159.5v-296q0 -123 -21 -195t-65 -123z" />
    <glyph glyph-name="afii10068_afii10103.alt01_" horiz-adv-x="507" 
d="M447 0h-128v496h128v-496zM68 123v316q0 150 68 233.5t206 83.5q46 0 105 -11v-180h-128v78q-72 -6 -97.5 -55.5t-25.5 -150.5v-316q0 -123 -21 -195t-65 -123l-112 35q37 44 53.5 100t16.5 185z" />
    <glyph glyph-name="afii10059.alt01" horiz-adv-x="902" 
d="M613 0h-248l-167 540h-1q12 -180 12 -226v-314h-139v700h199l167 -540h1q-12 180 -12 226v314h139v-251q305 -66 305 -255q0 -82 -64 -138t-192 -56zM564 319v-194h45q59 0 85.5 21.5t26.5 54.5q0 82 -157 118z" />
    <glyph glyph-name="afii10042.alt01" horiz-adv-x="846" 
d="M493 700v-588q83 9 113 45t30 117v426h144v-426q0 -155 -81 -222.5t-276 -67.5t-276 67.5t-81 222.5v426h144v-426q0 -81 30 -117t113 -45v588h140z" />
    <glyph glyph-name="afii10043.alt01" horiz-adv-x="846" 
d="M493 700v-588q83 9 113 45t30 117v426h144v-426q0 -141 -66.5 -209.5t-222.5 -78.5q1 -34 30.5 -51.5t102.5 -17.5l-62 -117q-106 0 -156 49.5t-51 136.5q-156 10 -222.5 78.5t-66.5 209.5v426h144v-426q0 -81 30 -117t113 -45v588h140z" />
    <glyph glyph-name="afii10041.alt01" horiz-adv-x="562" 
d="M209 0v303q-87 16 -126 67.5t-39 148.5v181h144v-179q0 -44 20.5 -68.5t72.5 -24.5t72.5 24.5t20.5 68.5v179h144v-181q0 -97 -39 -148.5t-126 -67.5v-303h-144z" />
    <glyph glyph-name="afii10145.alt01" horiz-adv-x="630" 
d="M315 109q59 0 82 28.5t23 82.5v480h144v-480q0 -200 -180 -230v-140h-138v140q-180 29 -180 230v480h144v-480q0 -54 23 -82.5t82 -28.5z" />
    <glyph glyph-name="afii10109.alt01" horiz-adv-x="495" 
d="M216 254l98 242h132l-96 -195q62 -48 83.5 -120.5t21.5 -180.5h-128q0 104 -22 161t-89 93zM188 0h-128v740h128v-740zM199 548l57 185h149l-104 -185h-102z" />
    <glyph glyph-name="afii10031.alt01" horiz-adv-x="634" 
d="M564 700v-700h-199l-167 540h-1q12 -180 12 -226v-314h-139v700h199l167 -540h1q-12 180 -12 226v314h139z" />
    <glyph glyph-name="afii10025.alt01" horiz-adv-x="566" 
d="M374 217q0 58 -35.5 85t-84.5 27q-29 0 -52 -10l-35 97l51 68q29 40 78 96q-68 -5 -114 -5h-100v125h395v-101l-120 -160q79 -21 122 -81.5t43 -138.5q0 -100 -67.5 -167.5t-190.5 -67.5q-114 0 -168 56t-54 133q0 29 8 68l140 11q-12 -38 -12 -66q0 -31 22 -54t66 -23
q48 0 78 30.5t30 77.5z" />
    <glyph glyph-name="afii10021.alt01" horiz-adv-x="618" 
d="M70 0v700h147q186 0 270.5 -85.5t84.5 -264.5t-84.5 -264.5t-270.5 -85.5h-147zM214 575v-450q117 0 163.5 48.5t46.5 176.5t-46.5 176.5t-163.5 48.5z" />
    <glyph glyph-name="afii10073.alt01" horiz-adv-x="472" 
d="M400 406l-110 -166q77 -24 115 -82t38 -130q0 -100 -65 -162t-168 -62q-100 0 -149.5 50t-49.5 122q0 25 7 61l125 15q-10 -38 -10 -63q0 -36 22 -54.5t55 -18.5q45 0 73 28.5t28 83.5q0 57 -28 83.5t-74 26.5q-25 0 -46 -8l-34 88l60 91q36 52 57 79q-51 -4 -91 -4h-96
v112h341v-90z" />
    <glyph glyph-name="afii10065.alt01" horiz-adv-x="560" 
d="M493 500v-250q0 -125 27 -245l-126 -13l-10 63q-49 -71 -146 -71q-92 0 -144 65.5t-52 198.5t52 198.5t144 65.5q97 0 146 -71l9 59h100zM370 248q0 78 -27.5 115t-70.5 37t-70.5 -37t-27.5 -115t27.5 -115t70.5 -37t70.5 37t27.5 115z" />
    <glyph glyph-name="afii10084.alt01" horiz-adv-x="343" 
d="M315 496v-112h-81v-384h-128v384h-78v112h78v145l128 13v-158h81z" />
    <glyph glyph-name="a.alt01" horiz-adv-x="560" 
d="M493 500v-250q0 -125 27 -245l-126 -13l-10 63q-49 -71 -146 -71q-92 0 -144 65.5t-52 198.5t52 198.5t144 65.5q97 0 146 -71l9 59h100zM370 248q0 78 -27.5 115t-70.5 37t-70.5 -37t-27.5 -115t27.5 -115t70.5 -37t70.5 37t27.5 115z" />
    <glyph glyph-name="afii10037.alt01" horiz-adv-x="564" 
d="M318 511l72 189h160l-196 -430v-270h-144v270l-196 430h160l72 -189q12 -32 36 -101z" />
    <glyph glyph-name="afii10040.alt01" horiz-adv-x="630" 
d="M315 109q59 0 82 28.5t23 82.5v480h144v-480q0 -111 -58 -172q54 -33 79.5 -80t25.5 -121l-139 -6q0 110 -96 148q-32 -5 -61 -5q-129 0 -189 62.5t-60 173.5v480h144v-480q0 -54 23 -82.5t82 -28.5z" />
    <glyph glyph-name="afii10076.alt01" horiz-adv-x="495" 
d="M216 254l98 242h132l-96 -195q62 -48 83.5 -120.5t21.5 -180.5h-128q0 104 -22 161t-89 93zM188 0h-128v740h128v-740z" />
    <glyph glyph-name="afii10069.alt01" horiz-adv-x="560" 
d="M394 -8l-10 63q-49 -71 -146 -71q-92 0 -144 65.5t-52 198.5q0 134 51 199t139 65q86 0 133 -59v287h128v-490q0 -125 27 -245zM370 248q0 78 -27.5 115t-70.5 37t-70.5 -37t-27.5 -115t27.5 -115t70.5 -37t70.5 37t27.5 115z" />
    <glyph glyph-name="afii10068_afii10076.alt01_alt01" horiz-adv-x="760" 
d="M475 254l98 242h132l-96 -195q62 -48 83.5 -120.5t21.5 -180.5h-128q0 104 -22 161t-89 93zM68 123v316q0 150 68 233.5t206 83.5q43 0 105 -10v-746h-128v643q-72 -6 -97.5 -55.5t-25.5 -150.5v-316q0 -123 -21 -195t-65 -123l-112 35q37 44 53.5 100t16.5 185z" />
    <glyph glyph-name="afii10062.alt01" horiz-adv-x="564" 
d="M318 511l72 189h160l-196 -430v-270h-144v270l-196 430h160l72 -189q12 -32 36 -101zM282 711q-80 0 -126 43t-46 130h99q0 -82 73 -82t73 82h99q0 -87 -46 -130t-126 -43z" />
    </font>
</defs>
</svg>
