<?xml version="1.0" standalone="no"?>
<!DOCTYPE svg PUBLIC "-//W3C//DTD SVG 1.1//EN" "http://www.w3.org/Graphics/SVG/1.1/DTD/svg11.dtd" >
<svg>
<metadata>
Created by FontForge 20120731 at Tue May 21 14:28:18 2019
 By www-data
LCG stand for Latin, Cyrillic and Greek.
</metadata>
<defs>
<font id="GraphikLCG-Bold" horiz-adv-x="608" >
  <font-face 
    font-family="Graphik LCG"
    font-weight="700"
    font-stretch="normal"
    units-per-em="1000"
    panose-1="2 11 8 3 3 2 2 6 2 3"
    ascent="825"
    descent="-175"
    x-height="523"
    cap-height="715"
    bbox="-239 -232 1202 1137"
    underline-thickness="50"
    underline-position="-50"
    stemh="146"
    stemv="179"
    unicode-range="U+000D-FB02"
  />
<missing-glyph horiz-adv-x="519" 
 />
    <glyph glyph-name="f_f" unicode="ff" horiz-adv-x="724" 
d="M84 401h-66v122h66v40c0 129 80 191 204 191c33 0 57 -3 80 -10v-131c-13 4 -28 7 -48 7c-40 0 -58 -24 -58 -57v-40h152v46c0 65 20 113 56 145s88 47 149 47c33 0 58 -4 82 -11v-131c-13 4 -29 7 -49 7c-41 0 -59 -22 -59 -57v-46h106v-122h-106v-401h-179v401h-152
v-401h-178v401z" />
    <glyph glyph-name=".notdef" horiz-adv-x="519" 
 />
    <glyph glyph-name="NULL" horiz-adv-x="0" 
 />
    <glyph glyph-name="NULL" horiz-adv-x="0" 
 />
    <glyph glyph-name="CR" unicode="&#xd;" horiz-adv-x="197" 
 />
    <glyph glyph-name="space" unicode=" " horiz-adv-x="197" 
 />
    <glyph glyph-name="exclam" unicode="!" horiz-adv-x="342" 
d="M171 -11c-60 0 -106 43 -106 99s46 100 106 100c29 0 56 -12 76 -29c19 -19 31 -43 31 -71s-12 -53 -31 -70c-20 -19 -47 -29 -76 -29zM70 715h202l-27 -480h-148z" />
    <glyph glyph-name="quotedbl" unicode="&#x22;" horiz-adv-x="470" 
d="M45 715h168l-21 -275h-127zM257 715h169l-21 -275h-127z" />
    <glyph glyph-name="numbersign" unicode="#" horiz-adv-x="584" 
d="M295 241h-62l-21 -142h-121l21 142h-69v141h90l11 76h-77v134h97l18 123h121l-18 -123h62l19 123h121l-19 -123h72v-134h-92l-11 -76h79v-141h-100l-21 -142h-121zM254 382h62l11 76h-62z" />
    <glyph glyph-name="dollar" unicode="$" horiz-adv-x="655" 
d="M292 -10c-173 12 -257 104 -264 236h185c5 -47 23 -82 79 -94v146c-87 12 -149 35 -189 71s-59 87 -59 156c0 60 23 112 67 151c43 37 105 63 181 68v89h78v-90c145 -12 231 -79 243 -216h-181c-7 39 -21 64 -62 75v-138c76 -11 140 -30 184 -63c44 -35 69 -84 69 -156
c0 -61 -20 -118 -61 -159c-41 -43 -105 -71 -192 -76v-125h-78v125zM437 203c0 33 -14 50 -67 62v-133c44 9 67 35 67 71zM224 520c0 -35 13 -53 68 -64v128c-45 -8 -68 -32 -68 -64z" />
    <glyph glyph-name="percent" unicode="%" horiz-adv-x="835" 
d="M219 468c37 0 57 30 57 77s-20 76 -57 76s-59 -28 -59 -75c0 -51 22 -78 59 -78zM218 364c-59 0 -106 20 -138 52c-33 32 -51 77 -51 129c0 51 20 95 55 127c33 32 80 51 135 51c53 0 100 -18 135 -49c33 -32 54 -75 54 -126c0 -52 -19 -98 -51 -131
c-33 -33 -82 -53 -139 -53zM618 715h98l-496 -715h-98zM617 93c39 0 58 29 58 77c0 47 -19 75 -58 75c-36 0 -58 -28 -58 -75c0 -51 22 -77 58 -77zM616 -12c-59 0 -106 20 -138 52c-33 32 -51 77 -51 129c0 51 20 95 55 127c33 32 80 51 135 51c53 0 102 -18 135 -49
s54 -74 54 -126s-19 -98 -51 -131c-33 -33 -82 -53 -139 -53z" />
    <glyph glyph-name="ampersand" unicode="&#x26;" horiz-adv-x="770" 
d="M636 146l119 -146h-233l-42 52c-45 -36 -100 -64 -193 -64c-76 0 -139 20 -182 57c-44 37 -69 91 -69 159c0 92 56 160 157 208c-31 44 -44 90 -44 125c0 61 25 108 68 140c41 31 99 47 162 47c57 0 111 -14 151 -42s66 -70 66 -125c0 -76 -47 -136 -143 -177l90 -110
l52 102h156zM318 137c28 0 51 10 70 30l-113 136c-27 -16 -48 -38 -48 -77c0 -52 31 -89 91 -89zM325 535c0 -27 16 -51 41 -80c48 23 71 52 71 87c0 32 -21 55 -53 55c-35 0 -59 -23 -59 -62z" />
    <glyph glyph-name="quotesingle" unicode="'" horiz-adv-x="264" 
d="M45 715h175l-21 -275h-134z" />
    <glyph glyph-name="parenleft" unicode="(" horiz-adv-x="364" 
d="M208 -148c-39 47 -80 106 -112 182s-54 168 -54 279c0 112 22 204 54 280s73 135 112 182h140c-33 -51 -67 -114 -92 -190c-25 -77 -43 -167 -43 -272c0 -104 18 -194 43 -270c25 -77 59 -140 92 -191h-140z" />
    <glyph glyph-name="parenright" unicode=")" horiz-adv-x="364" 
d="M15 -148c33 51 68 114 93 191c25 76 42 166 42 271c0 104 -17 194 -42 271c-25 76 -60 139 -93 190h140c39 -47 81 -106 113 -182s54 -167 54 -279s-22 -204 -54 -280s-74 -135 -113 -182h-140z" />
    <glyph glyph-name="asterisk" unicode="*" horiz-adv-x="448" 
d="M61 447l89 90l-117 13l34 123l110 -53l-24 123h143l-24 -123l109 53l35 -123l-118 -13l89 -90l-107 -77l-56 115l-55 -115z" />
    <glyph glyph-name="plus" unicode="+" horiz-adv-x="578" 
d="M217 275h-176v130h176v192h144v-192h176v-130h-176v-192h-144v192z" />
    <glyph glyph-name="comma" unicode="," horiz-adv-x="314" 
d="M20 -81l84 263l166 -59l-144 -245z" />
    <glyph glyph-name="hyphen" unicode="-" horiz-adv-x="390" 
d="M55 353h280v-135h-280v135z" />
    <glyph glyph-name="period" unicode="." horiz-adv-x="307" 
d="M152 -11c-29 0 -56 11 -73 30c-19 17 -29 43 -29 71s10 53 29 72c17 17 44 29 73 29s56 -12 75 -29c19 -19 30 -44 30 -72s-11 -54 -30 -71c-19 -19 -46 -30 -75 -30z" />
    <glyph glyph-name="slash" unicode="/" horiz-adv-x="442" 
d="M297 776h143l-318 -924h-142z" />
    <glyph glyph-name="zero" unicode="0" horiz-adv-x="740" 
d="M372 147c88 0 123 64 123 197v29c0 132 -37 197 -125 197c-87 0 -125 -64 -125 -197v-30c0 -133 39 -196 127 -196zM366 -12c-100 0 -182 32 -238 93c-56 60 -88 149 -88 261v30c0 113 35 201 94 261s141 92 236 92c93 0 176 -30 236 -87c59 -59 94 -146 94 -262v-28
c0 -113 -33 -204 -90 -265c-59 -61 -143 -95 -244 -95z" />
    <glyph glyph-name="one" unicode="1" horiz-adv-x="458" 
d="M172 513l-136 -84v171l164 115h177v-715h-205v513z" />
    <glyph glyph-name="two" unicode="2" horiz-adv-x="623" 
d="M12 29l250 265c72 76 118 137 118 197c0 48 -25 80 -76 80s-83 -31 -92 -116h-186c7 179 115 270 288 270c88 0 155 -24 200 -64c44 -40 68 -97 68 -162c0 -49 -14 -92 -37 -132c-24 -41 -58 -78 -98 -117l-100 -97h240v-153h-575v29z" />
    <glyph glyph-name="three" unicode="3" horiz-adv-x="660" 
d="M330 -12c-199 0 -293 92 -298 247h182c7 -60 33 -99 105 -99c64 0 94 30 94 81c0 56 -31 84 -94 84h-57v127h53c64 0 95 28 95 79c0 43 -27 71 -82 71c-56 0 -87 -32 -95 -91h-181c4 71 30 129 77 172c47 41 115 66 204 66c84 0 151 -20 198 -53c45 -35 71 -83 71 -143
c0 -80 -45 -131 -121 -154c83 -17 139 -74 139 -162c0 -136 -101 -225 -290 -225z" />
    <glyph glyph-name="four" unicode="4" horiz-adv-x="686" 
d="M370 137h-348v77l298 501h247v-437h92v-141h-92v-137h-197v137zM375 278v283l-160 -283h160z" />
    <glyph glyph-name="five" unicode="5" horiz-adv-x="639" 
d="M311 -12c-95 0 -164 25 -209 68c-47 43 -69 102 -72 169h186c4 -25 10 -45 25 -60c13 -15 35 -23 68 -23c60 0 86 44 86 101c0 64 -34 102 -97 102c-59 0 -94 -23 -118 -51h-122l15 421h482v-150h-334l-4 -158c27 39 78 76 167 76c65 0 119 -22 158 -63
c37 -41 59 -103 59 -180c0 -76 -28 -139 -77 -183c-51 -44 -122 -69 -213 -69z" />
    <glyph glyph-name="six" unicode="6" horiz-adv-x="682" 
d="M355 -12c-115 0 -192 36 -243 99c-51 61 -72 148 -72 251v19c0 116 35 208 92 272c57 63 138 96 229 96c161 0 256 -70 271 -211h-188c-7 35 -25 60 -76 60c-79 0 -121 -68 -125 -189c32 49 79 83 167 83c65 0 124 -19 167 -58s70 -96 70 -171c0 -76 -28 -138 -77 -182
c-51 -44 -124 -69 -215 -69zM353 133c57 0 95 43 95 104c0 60 -35 103 -95 103s-97 -44 -97 -101c0 -64 37 -106 97 -106z" />
    <glyph glyph-name="seven" unicode="7" horiz-adv-x="584" 
d="M316 549h-288v166h544v-21l-248 -694h-208z" />
    <glyph glyph-name="eight" unicode="8" horiz-adv-x="665" 
d="M332 -12c-91 0 -165 19 -217 55s-81 90 -81 159c0 83 45 144 130 175c-63 28 -100 76 -100 148c0 64 31 113 80 148c49 33 117 52 190 52c76 0 144 -18 192 -51c48 -35 78 -84 78 -148c0 -73 -40 -120 -101 -148c85 -29 128 -90 128 -171c0 -69 -30 -124 -82 -161
s-126 -58 -217 -58zM333 132c57 0 97 34 97 91s-39 91 -96 91c-56 0 -98 -32 -98 -91c0 -57 41 -91 97 -91zM335 430c47 0 84 30 84 79c0 48 -38 78 -85 78s-84 -30 -84 -78c0 -49 38 -79 85 -79z" />
    <glyph glyph-name="nine" unicode="9" horiz-adv-x="683" 
d="M326 -11c-171 0 -267 76 -282 213h188c7 -36 28 -61 84 -61c85 0 120 63 123 186c-31 -49 -74 -84 -162 -84c-68 0 -129 19 -172 59c-44 39 -70 96 -70 172c0 75 28 138 79 182s124 70 215 70c107 0 185 -36 237 -97c51 -63 76 -149 76 -253v-24
c0 -233 -111 -363 -316 -363zM326 375c60 0 98 43 98 100c0 64 -38 107 -98 107c-57 0 -95 -44 -95 -105c0 -60 35 -102 95 -102z" />
    <glyph glyph-name="colon" unicode=":" horiz-adv-x="313" 
d="M155 -11c-29 0 -55 11 -72 30c-19 17 -30 43 -30 71s11 53 30 72c17 17 43 29 72 29s56 -12 75 -29c19 -19 30 -44 30 -72s-11 -54 -30 -71c-19 -19 -46 -30 -75 -30zM155 275c-59 0 -102 44 -102 101c0 28 11 53 30 72c17 17 43 29 72 29s56 -12 75 -29
c19 -19 30 -44 30 -72c0 -57 -45 -101 -105 -101z" />
    <glyph glyph-name="semicolon" unicode=";" horiz-adv-x="329" 
d="M14 -81l83 263l166 -59l-143 -245zM178 275c-60 0 -102 44 -102 101c0 28 10 53 29 72c17 17 44 29 73 29s56 -12 75 -29c19 -19 30 -44 30 -72c0 -57 -45 -101 -105 -101z" />
    <glyph glyph-name="less" unicode="&#x3c;" horiz-adv-x="521" 
d="M46 305v34l421 246v-162l-190 -100l190 -106v-158z" />
    <glyph glyph-name="equal" unicode="=" horiz-adv-x="565" 
d="M43 289h479v-122h-479v122zM43 486h479v-122h-479v122z" />
    <glyph glyph-name="greater" unicode="&#x3e;" horiz-adv-x="521" 
d="M53 223l191 99l-191 106v158l422 -246v-34l-422 -246v163z" />
    <glyph glyph-name="question" unicode="?" horiz-adv-x="564" 
d="M173 254c0 37 13 69 32 96s43 49 66 72c35 33 65 63 65 98c0 40 -20 60 -61 60c-43 0 -72 -32 -79 -88h-174c3 76 30 134 78 174c47 39 112 59 189 59c155 0 241 -68 241 -188c0 -67 -33 -111 -73 -150c-24 -24 -51 -47 -72 -68c-23 -23 -39 -45 -43 -69v-15h-169v19z
M258 -11c-31 0 -57 10 -76 29c-20 17 -32 42 -32 70s12 52 32 71c19 17 45 29 76 29c29 0 55 -12 75 -29c19 -19 31 -43 31 -71s-12 -53 -31 -70c-20 -19 -46 -29 -75 -29z" />
    <glyph glyph-name="at" unicode="@" horiz-adv-x="929" 
d="M464 -158c-135 0 -244 46 -317 119c-75 75 -115 177 -115 290c0 132 54 243 137 320c83 76 195 120 314 120s221 -36 296 -100c73 -64 117 -155 117 -264c0 -100 -27 -168 -67 -212c-41 -44 -96 -63 -149 -63c-88 0 -132 29 -147 82c-27 -53 -70 -84 -134 -84
c-99 0 -163 70 -163 186c0 71 22 130 58 171c36 40 85 64 140 64c63 0 94 -27 109 -60l7 52h147l-34 -273c-5 -43 8 -66 44 -66c28 0 55 15 75 48c20 32 34 84 34 157c0 87 -33 160 -90 212c-57 51 -140 80 -241 80c-103 0 -196 -36 -261 -100c-67 -65 -107 -158 -107 -271
c0 -95 29 -180 88 -241s147 -97 263 -97c117 0 206 40 257 88h91c-33 -48 -83 -87 -143 -115s-132 -43 -209 -43zM447 168c44 0 80 47 80 116c0 44 -21 71 -64 71c-45 0 -77 -45 -77 -113c0 -43 21 -74 61 -74z" />
    <glyph glyph-name="A" unicode="A" horiz-adv-x="755" 
d="M246 715h265l227 -715h-217l-38 133h-237l-38 -133h-191zM286 274h157l-78 275z" />
    <glyph glyph-name="B" unicode="B" horiz-adv-x="687" 
d="M73 715h319c84 0 145 -19 184 -52s57 -79 57 -135v-4c0 -81 -40 -133 -121 -154c88 -15 143 -67 143 -167v-4c0 -128 -83 -199 -260 -199h-322v715zM358 137c65 0 95 30 95 83v4c0 55 -29 82 -101 82h-79v-169h85zM351 431c64 0 88 22 88 73v4c0 49 -25 71 -88 71h-78
v-148h78z" />
    <glyph glyph-name="C" unicode="C" horiz-adv-x="767" 
d="M409 -12c-125 0 -219 36 -280 100c-63 64 -93 156 -93 265v8c0 109 39 201 104 265s157 100 261 100c93 0 171 -22 230 -66c57 -45 94 -114 102 -209h-211c-8 73 -48 113 -120 113c-92 0 -150 -71 -150 -202v-8c0 -129 54 -202 153 -202c72 0 122 37 133 117h204
c-7 -92 -45 -163 -102 -210c-59 -47 -139 -71 -231 -71z" />
    <glyph glyph-name="D" unicode="D" horiz-adv-x="751" 
d="M326 158c123 0 176 64 176 197v8c0 137 -53 194 -178 194h-45v-399h47zM73 715h260c253 0 383 -128 383 -349v-8c0 -112 -33 -201 -97 -262c-65 -63 -162 -96 -287 -96h-259v715z" />
    <glyph glyph-name="E" unicode="E" horiz-adv-x="620" 
d="M73 715h494v-158h-290v-123h231v-146h-231v-130h306v-158h-510v715z" />
    <glyph glyph-name="F" unicode="F" horiz-adv-x="587" 
d="M73 715h483v-159h-277v-152h221v-151h-221v-253h-206v715z" />
    <glyph glyph-name="G" unicode="G" horiz-adv-x="795" 
d="M410 -12c-121 0 -215 38 -278 103c-64 64 -97 155 -97 262v8c0 109 40 200 107 264s160 101 268 101c84 0 164 -19 225 -62c60 -43 101 -108 108 -201h-203c-9 68 -53 102 -129 102c-101 0 -162 -78 -162 -207v-8c0 -59 10 -110 37 -146c27 -37 67 -60 130 -60
c49 0 84 13 107 33s32 47 35 75h-134v143h336v-88c0 -91 -29 -171 -88 -228s-146 -91 -262 -91z" />
    <glyph glyph-name="H" unicode="H" horiz-adv-x="792" 
d="M73 715h206v-273h235v273h205v-715h-205v282h-235v-282h-206v715z" />
    <glyph glyph-name="I" unicode="I" horiz-adv-x="360" 
d="M77 715h207v-715h-207v715z" />
    <glyph glyph-name="J" unicode="J" horiz-adv-x="486" 
d="M167 -9c-68 0 -101 9 -130 24v153c24 -8 46 -14 87 -14c56 0 93 24 93 99v462h206v-464c0 -173 -87 -260 -256 -260z" />
    <glyph glyph-name="K" unicode="K" horiz-adv-x="734" 
d="M73 715h206v-283l215 283h214l-262 -332l276 -383h-237l-206 299v-299h-206v715z" />
    <glyph glyph-name="L" unicode="L" horiz-adv-x="583" 
d="M73 715h206v-556h270v-159h-476v715z" />
    <glyph glyph-name="M" unicode="M" horiz-adv-x="950" 
d="M73 715h267l137 -381l137 381h262v-715h-204v445l-175 -445h-68l-173 445v-445h-183v715z" />
    <glyph glyph-name="N" unicode="N" horiz-adv-x="785" 
d="M73 715h231l229 -403v403h179v-715h-198l-261 449v-449h-180v715z" />
    <glyph glyph-name="O" unicode="O" horiz-adv-x="827" 
d="M414 149c101 0 164 77 164 206v8c0 128 -64 202 -165 202s-164 -72 -164 -203v-8c0 -131 65 -205 165 -205zM410 -12c-116 0 -209 38 -274 102s-101 155 -101 263v8c0 109 41 200 109 264s162 100 269 100c109 0 204 -35 272 -96c67 -63 107 -152 107 -263v-8
c0 -111 -37 -203 -104 -267c-67 -65 -162 -103 -278 -103z" />
    <glyph glyph-name="P" unicode="P" horiz-adv-x="660" 
d="M73 715h272c196 0 287 -87 287 -239v-4c0 -151 -99 -231 -278 -231h-77v-241h-204v715zM336 381c68 0 101 30 101 90v4c0 61 -36 86 -100 86h-60v-180h59z" />
    <glyph glyph-name="Q" unicode="Q" horiz-adv-x="827" 
d="M501 -3c-29 -7 -59 -9 -91 -9c-116 0 -209 38 -274 102s-101 155 -101 263v8c0 109 41 200 109 264s162 100 269 100c109 0 204 -35 272 -96c67 -63 107 -152 107 -263v-8c0 -125 -49 -227 -133 -292l72 -72l-114 -114zM249 354c0 -108 39 -175 103 -200l115 106l64 -65
c32 37 47 91 47 160v8c0 128 -64 202 -165 202s-164 -72 -164 -203v-8z" />
    <glyph glyph-name="R" unicode="R" horiz-adv-x="705" 
d="M73 715h280c188 0 291 -75 291 -227v-4c0 -103 -54 -159 -129 -188l171 -296h-216l-145 256h-48v-256h-204v715zM343 389c69 0 103 30 103 87v4c0 59 -35 81 -102 81h-67v-172h66z" />
    <glyph glyph-name="S" unicode="S" horiz-adv-x="655" 
d="M335 -12c-201 0 -301 83 -308 239h195c3 -25 10 -49 27 -65c16 -17 43 -28 86 -28c60 0 92 28 92 71c0 21 -7 36 -24 47c-17 9 -46 15 -89 22c-101 12 -169 33 -210 69c-43 36 -60 87 -60 159c0 64 26 120 74 160s118 63 203 63c173 0 269 -71 282 -223h-190
c-7 51 -36 77 -92 77s-83 -25 -83 -61c0 -20 6 -34 23 -45c16 -12 44 -20 88 -25c91 -11 158 -27 205 -60c45 -35 69 -85 69 -162c0 -65 -26 -125 -75 -168s-121 -70 -213 -70z" />
    <glyph glyph-name="T" unicode="T" horiz-adv-x="626" 
d="M210 557h-185v158h576v-158h-185v-557h-206v557z" />
    <glyph glyph-name="U" unicode="U" horiz-adv-x="772" 
d="M385 -12c-203 0 -317 101 -317 302v425h205v-416c0 -101 25 -150 112 -150c85 0 112 45 112 153v413h207v-422c0 -104 -30 -181 -85 -230c-56 -51 -135 -75 -234 -75z" />
    <glyph glyph-name="V" unicode="V" horiz-adv-x="736" 
d="M16 715h221l145 -502l146 502h192l-234 -715h-233z" />
    <glyph glyph-name="W" unicode="W" horiz-adv-x="1004" 
d="M18 715h207l92 -446l96 446h182l104 -450l97 450h190l-167 -715h-214l-110 454l-111 -454h-200z" />
    <glyph glyph-name="X" unicode="X" horiz-adv-x="763" 
d="M247 368l-204 347h233l112 -213l110 213h210l-192 -340l221 -375h-234l-133 246l-133 -246h-211z" />
    <glyph glyph-name="Y" unicode="Y" horiz-adv-x="685" 
d="M245 306l-233 409h223l121 -241l121 241h196l-222 -409v-306h-206v306z" />
    <glyph glyph-name="Z" unicode="Z" horiz-adv-x="635" 
d="M17 23l304 535h-265v157h556v-22l-300 -535h285v-158h-580v23z" />
    <glyph glyph-name="bracketleft" unicode="[" horiz-adv-x="417" 
d="M70 776h305v-131h-125v-662h125v-131h-305v924z" />
    <glyph glyph-name="backslash" unicode="\" horiz-adv-x="442" 
d="M2 776h143l317 -924h-142z" />
    <glyph glyph-name="bracketright" unicode="]" horiz-adv-x="417" 
d="M43 -17h124v662h-124v131h304v-924h-304v131z" />
    <glyph glyph-name="asciicircum" unicode="^" horiz-adv-x="539" 
d="M191 715h157l164 -322h-153l-91 176l-91 -176h-150z" />
    <glyph glyph-name="underscore" unicode="_" horiz-adv-x="442" 
d="M3 -75h436v-86h-436v86z" />
    <glyph glyph-name="grave" unicode="`" horiz-adv-x="408" 
d="M42 749h180l53 -166h-128z" />
    <glyph glyph-name="a" unicode="a" horiz-adv-x="586" 
d="M204 -12c-47 0 -91 12 -123 37c-33 25 -54 64 -54 120c0 123 103 171 278 171h50v12c0 51 -12 83 -69 83c-49 0 -67 -29 -71 -62h-168c4 63 31 110 75 142c43 31 103 46 175 46s131 -15 172 -47s64 -82 64 -151v-339h-174v61c-25 -39 -71 -73 -155 -73zM266 109
c51 0 89 29 89 74v32h-47c-72 0 -104 -14 -104 -57c0 -31 19 -49 62 -49z" />
    <glyph glyph-name="b" unicode="b" horiz-adv-x="651" 
d="M398 -12c-79 0 -135 37 -162 93v-81h-179v753h179v-308c31 51 83 92 163 92c61 0 116 -23 156 -68s65 -114 65 -203v-8c0 -91 -25 -158 -65 -202c-40 -45 -96 -68 -157 -68zM335 125c68 0 103 46 103 133v8c0 92 -39 136 -103 136c-65 0 -104 -47 -104 -135v-8
c0 -89 39 -134 104 -134z" />
    <glyph glyph-name="c" unicode="c" horiz-adv-x="591" 
d="M304 -12c-79 0 -147 23 -196 68c-49 44 -79 111 -79 199v8c0 87 31 155 82 202s120 72 197 72c64 0 125 -14 172 -47c47 -35 79 -88 84 -168h-168c-8 49 -32 76 -84 76c-64 0 -100 -45 -100 -133v-8c0 -92 35 -138 103 -138c51 0 84 30 91 87h161
c-5 -132 -94 -218 -263 -218z" />
    <glyph glyph-name="d" unicode="d" horiz-adv-x="650" 
d="M251 -12c-60 0 -115 22 -155 66s-65 111 -65 202v8c0 89 24 157 64 204c40 45 95 69 158 69c83 0 130 -35 161 -88v304h179v-753h-179v85c-27 -55 -83 -97 -163 -97zM314 125c65 0 105 45 105 134v8c0 88 -36 135 -103 135c-68 0 -103 -45 -103 -136v-8
c0 -88 38 -133 101 -133z" />
    <glyph glyph-name="e" unicode="e" horiz-adv-x="606" 
d="M313 -12c-83 0 -154 24 -203 69c-51 45 -81 113 -81 198v8c0 84 31 152 82 200s122 74 201 74c72 0 138 -21 187 -65c48 -44 79 -112 79 -205v-47h-368c5 -69 45 -109 109 -109c60 0 84 27 91 62h168c-16 -119 -106 -185 -265 -185zM404 321c-3 64 -33 98 -92 98
c-55 0 -91 -34 -100 -98h192z" />
    <glyph glyph-name="f" unicode="f" horiz-adv-x="394" 
d="M84 401h-66v122h66v46c0 129 81 192 205 192c33 0 58 -4 82 -11v-131c-13 4 -29 7 -49 7c-43 0 -60 -22 -60 -57v-46h106v-122h-106v-401h-178v401z" />
    <glyph glyph-name="g" unicode="g" horiz-adv-x="649" 
d="M302 -194c-89 0 -154 19 -198 52c-45 35 -69 82 -76 142h178c8 -39 31 -68 96 -68c80 0 111 45 111 110v80c-13 -25 -34 -49 -61 -66c-28 -19 -62 -30 -101 -30c-61 0 -117 22 -157 65s-65 106 -65 186v8c0 77 25 140 65 184s96 68 157 68c84 0 131 -35 162 -88v74h179
v-479c0 -157 -102 -238 -290 -238zM314 158c64 0 104 45 104 120v7c0 72 -36 118 -103 118c-68 0 -103 -47 -103 -119v-8c0 -72 38 -118 102 -118z" />
    <glyph glyph-name="h" unicode="h" horiz-adv-x="632" 
d="M57 753h179v-314c28 55 84 98 172 98c101 0 171 -64 171 -197v-340h-179v304c0 60 -23 88 -75 88c-53 0 -89 -31 -89 -99v-293h-179v753z" />
    <glyph glyph-name="i" unicode="i" horiz-adv-x="303" 
d="M62 523h179v-523h-179v523zM151 573c-56 0 -98 39 -98 92s42 93 98 93s99 -40 99 -93s-43 -92 -99 -92z" />
    <glyph glyph-name="j" unicode="j" horiz-adv-x="303" 
d="M-2 -54c44 3 64 21 64 62v515h178v-519c0 -56 -13 -104 -50 -137c-37 -32 -97 -51 -192 -51v130zM151 573c-56 0 -98 39 -98 92s42 93 98 93s99 -40 99 -93s-43 -92 -99 -92z" />
    <glyph glyph-name="k" unicode="k" horiz-adv-x="585" 
d="M57 753h179v-437l141 207h186l-171 -235l185 -288h-200l-141 229v-229h-179v753z" />
    <glyph glyph-name="l" unicode="l" horiz-adv-x="302" 
d="M62 753h178v-753h-178v753z" />
    <glyph glyph-name="m" unicode="m" horiz-adv-x="939" 
d="M57 523h179v-80c28 51 83 94 164 94c69 0 117 -28 142 -87c45 61 106 87 173 87c49 0 92 -16 123 -48c29 -33 48 -82 48 -147v-342h-179v312c0 53 -26 79 -67 79c-48 0 -80 -31 -80 -88v-303h-177v312c0 53 -26 79 -67 79c-48 0 -80 -31 -80 -88v-303h-179v523z" />
    <glyph glyph-name="n" unicode="n" horiz-adv-x="632" 
d="M57 523h179v-84c28 55 84 98 172 98c101 0 171 -64 171 -197v-340h-179v304c0 60 -23 88 -75 88c-53 0 -89 -31 -89 -99v-293h-179v523z" />
    <glyph glyph-name="o" unicode="o" horiz-adv-x="630" 
d="M316 121c68 0 103 49 103 137v8c0 88 -35 137 -103 137s-104 -47 -104 -135v-8c0 -91 35 -139 104 -139zM315 -12c-80 0 -152 25 -203 70c-52 45 -83 113 -83 197v8c0 84 31 152 83 200c51 48 123 74 204 74c80 0 152 -25 203 -72s82 -114 82 -197v-8
c0 -85 -31 -153 -82 -200c-52 -47 -124 -72 -204 -72z" />
    <glyph glyph-name="p" unicode="p" horiz-adv-x="651" 
d="M57 523h179v-78c31 51 83 92 163 92c61 0 116 -23 156 -68s65 -114 65 -203v-8c0 -91 -25 -158 -65 -202c-40 -45 -96 -68 -157 -68c-80 0 -135 37 -162 89v-252h-179v698zM335 125c68 0 103 46 103 133v8c0 92 -39 136 -103 136c-65 0 -104 -47 -104 -135v-8
c0 -89 39 -134 104 -134z" />
    <glyph glyph-name="q" unicode="q" horiz-adv-x="650" 
d="M414 81c-27 -51 -83 -93 -163 -93c-60 0 -115 22 -155 66s-65 111 -65 202v8c0 89 24 157 64 204c40 45 95 69 158 69c83 0 130 -35 161 -88v74h179v-698h-179v256zM314 125c65 0 105 45 105 134v8c0 88 -36 135 -103 135c-68 0 -103 -45 -103 -136v-8
c0 -88 38 -133 101 -133z" />
    <glyph glyph-name="r" unicode="r" horiz-adv-x="436" 
d="M57 523h179v-104c33 79 88 112 169 111v-167c-109 3 -169 -31 -169 -115v-248h-179v523z" />
    <glyph glyph-name="s" unicode="s" horiz-adv-x="523" 
d="M262 -12c-149 0 -236 61 -240 178h165c7 -39 23 -59 74 -59c44 0 64 16 64 43c0 25 -25 36 -97 47c-71 9 -120 23 -152 50c-32 25 -47 63 -47 118c0 57 26 101 67 130c40 28 97 42 157 42c64 0 119 -11 159 -38s65 -68 72 -131h-162c-7 35 -26 52 -67 52
c-39 0 -59 -17 -59 -41c0 -25 24 -35 88 -43c72 -9 126 -23 162 -48c36 -27 53 -64 53 -120c0 -124 -92 -180 -237 -180z" />
    <glyph glyph-name="t" unicode="t" horiz-adv-x="397" 
d="M265 -12c-119 0 -184 56 -184 180v233h-63v122h63v109h179v-109h103v-122h-103v-216c0 -36 18 -55 53 -55c20 0 35 2 51 9v-136c-23 -7 -56 -15 -99 -15z" />
    <glyph glyph-name="u" unicode="u" horiz-adv-x="631" 
d="M229 -12c-51 0 -94 15 -125 47c-32 32 -51 80 -51 147v341h179v-312c0 -59 25 -88 74 -88c55 0 89 31 89 99v301h179v-523h-179v81c-28 -55 -78 -93 -166 -93z" />
    <glyph glyph-name="v" unicode="v" horiz-adv-x="601" 
d="M12 523h191l109 -337l107 337h171l-191 -523h-195z" />
    <glyph glyph-name="w" unicode="w" horiz-adv-x="853" 
d="M13 523h187l76 -313l88 313h144l78 -313l85 313h170l-166 -523h-171l-78 292l-81 -292h-174z" />
    <glyph glyph-name="x" unicode="x" 
d="M189 266l-163 257h206l81 -138l79 138h184l-165 -243l181 -280h-206l-93 156l-95 -156h-183z" />
    <glyph glyph-name="y" unicode="y" horiz-adv-x="597" 
d="M221 53l-209 470h194l108 -279l100 279h171l-280 -698h-171z" />
    <glyph glyph-name="z" unicode="z" horiz-adv-x="516" 
d="M14 18l229 370h-205v135h461v-19l-235 -369h223v-135h-473v18z" />
    <glyph glyph-name="braceleft" unicode="{" horiz-adv-x="426" 
d="M384 -148c-203 0 -294 70 -267 231l15 85c8 47 -20 85 -97 85v125c77 0 105 37 97 84l-15 84c-27 167 64 231 267 231v-130c-39 -3 -64 -8 -77 -23c-15 -15 -17 -37 -13 -73l13 -101c9 -68 -30 -116 -103 -133c73 -17 112 -66 103 -134l-13 -101c-9 -72 13 -96 90 -99
v-131z" />
    <glyph glyph-name="bar" unicode="|" horiz-adv-x="276" 
d="M75 776h125v-924h-125v924z" />
    <glyph glyph-name="braceright" unicode="}" horiz-adv-x="426" 
d="M42 -17c77 3 99 27 90 99l-13 101c-9 68 30 117 103 134c-73 17 -112 65 -103 133l13 101c4 36 1 58 -12 73c-15 15 -39 20 -78 23v130c101 0 175 -16 220 -53c44 -37 60 -94 47 -178l-15 -84c-8 -47 20 -84 97 -84v-125c-77 0 -105 -38 -97 -85l15 -85
c27 -161 -64 -231 -267 -231v131z" />
    <glyph glyph-name="asciitilde" unicode="~" horiz-adv-x="526" 
d="M32 214c4 72 22 121 50 153c27 31 62 45 98 45s66 -11 91 -22c24 -11 45 -22 62 -22c27 0 41 15 45 46h116c-3 -67 -21 -116 -48 -149s-62 -49 -98 -49c-37 0 -67 11 -91 22c-25 11 -46 22 -63 22c-27 0 -41 -18 -46 -46h-116z" />
    <glyph glyph-name="uni00A0" unicode="&#xa0;" horiz-adv-x="258" 
 />
    <glyph glyph-name="exclamdown" unicode="&#xa1;" horiz-adv-x="342" 
d="M171 608c60 0 106 -42 106 -98s-46 -100 -106 -100c-29 0 -56 12 -76 29c-19 19 -31 43 -31 71s12 53 31 70c20 19 47 28 76 28zM272 -117h-202l27 480h148z" />
    <glyph glyph-name="cent" unicode="&#xa2;" horiz-adv-x="603" 
d="M279 -10c-72 7 -135 32 -179 77c-44 44 -71 107 -71 188v8c0 79 27 142 72 189c45 45 107 74 178 82v95h78v-94c59 -5 111 -24 151 -59c39 -36 65 -86 70 -154h-164c-5 40 -26 67 -57 78v-284c37 11 63 41 67 90h157c-7 -121 -87 -203 -224 -216v-125h-78v125zM206 257
c0 -76 26 -122 73 -139v281c-45 -16 -73 -61 -73 -134v-8z" />
    <glyph glyph-name="sterling" unicode="&#xa3;" horiz-adv-x="665" 
d="M38 407h51c-7 27 -12 56 -12 89c0 73 30 130 79 170c49 39 119 59 196 59c92 0 159 -25 204 -66c44 -43 66 -103 70 -175h-187c-8 60 -32 87 -80 87s-79 -33 -79 -86c0 -27 3 -51 7 -78h177v-120h-157c3 -19 4 -37 4 -56c0 -23 -3 -40 -10 -59c35 -11 64 -22 91 -22
c40 0 60 20 63 59h184c-3 -63 -21 -117 -56 -156s-86 -62 -151 -62c-51 0 -91 13 -124 26c-35 13 -62 26 -86 26c-31 0 -46 -19 -49 -43h-151c5 77 38 148 106 176c5 16 8 35 8 55c0 17 -3 36 -8 56h-90v120z" />
    <glyph glyph-name="yen" unicode="&#xa5;" horiz-adv-x="654" 
d="M68 365h138l-191 350h222l104 -233l103 233h195l-182 -350h140v-72h-162v-50h162v-72h-162v-171h-205v171h-162v72h162v50h-162v72z" />
    <glyph glyph-name="brokenbar" unicode="&#xa6;" horiz-adv-x="278" 
d="M75 301h125v-449h-125v449zM75 776h125v-404h-125v404z" />
    <glyph glyph-name="section" unicode="&#xa7;" horiz-adv-x="614" 
d="M296 -137c-140 0 -217 70 -222 183h163c3 -39 20 -62 63 -62c39 0 58 18 58 46c0 31 -26 43 -107 62c-68 16 -124 36 -163 67c-40 29 -62 70 -62 129c0 68 43 113 108 137c-29 31 -45 69 -45 116c0 57 24 103 65 135c40 32 97 49 164 49c139 0 215 -70 220 -183h-162
c-4 39 -19 60 -62 60c-39 0 -57 -19 -57 -46c0 -16 5 -28 21 -36c16 -9 42 -18 83 -27c67 -16 124 -34 164 -63s64 -71 64 -132c0 -67 -43 -111 -108 -138c29 -29 44 -67 44 -115c0 -55 -23 -100 -63 -132c-41 -32 -98 -50 -166 -50zM372 224c32 7 44 23 44 47
c0 17 -7 28 -23 37s-41 17 -76 28l-74 24c-29 -5 -44 -20 -44 -47c0 -31 32 -43 100 -64z" />
    <glyph glyph-name="dieresis" unicode="&#xa8;" horiz-adv-x="408" 
d="M97 580c-24 0 -45 9 -60 24c-16 15 -25 36 -25 59s9 44 25 60c15 15 36 24 60 24c48 0 86 -37 86 -84s-38 -83 -86 -83zM310 580c-48 0 -85 36 -85 83s37 84 85 84s86 -37 86 -84s-38 -83 -86 -83z" />
    <glyph glyph-name="copyright" unicode="&#xa9;" horiz-adv-x="851" 
d="M432 151c-143 0 -212 80 -212 203v8c0 61 23 112 60 147c36 35 88 55 148 55c107 0 180 -48 188 -157h-128c-4 40 -24 59 -60 59c-48 0 -76 -35 -76 -104v-7c0 -68 27 -105 78 -105c36 0 64 18 68 61h123c-7 -105 -82 -160 -189 -160zM424 31c88 0 169 32 228 91
c59 57 95 138 95 237c0 96 -36 178 -93 235c-59 57 -139 90 -228 90c-91 0 -171 -34 -228 -91c-59 -57 -94 -139 -94 -236c0 -99 36 -180 95 -236c57 -57 138 -90 225 -90zM424 -20c-107 0 -202 41 -271 109c-69 67 -112 161 -112 268c0 105 43 200 112 268s165 110 273 110
c109 0 205 -41 274 -109c68 -68 110 -162 110 -267c0 -108 -43 -202 -112 -270s-166 -109 -274 -109z" />
    <glyph glyph-name="ordfeminine" unicode="&#xaa;" horiz-adv-x="491" 
d="M172 287c-37 0 -73 9 -98 30c-27 20 -43 52 -43 96c0 97 76 132 220 132h40v15c0 33 -9 54 -48 54c-33 0 -46 -21 -49 -44h-148c7 100 84 153 205 153c124 0 196 -49 196 -158v-267h-153v47c-19 -28 -54 -58 -122 -58zM230 393c35 0 61 19 61 50v23h-36
c-45 0 -69 -12 -69 -39c0 -23 15 -34 44 -34z" />
    <glyph glyph-name="guillemotleft" unicode="&#xab;" horiz-adv-x="488" 
d="M35 261l124 191h115l-119 -191l119 -191h-115zM215 261l124 191h115l-119 -191l119 -191h-115z" />
    <glyph glyph-name="uni00AD" unicode="&#xad;" horiz-adv-x="390" 
d="M55 353h280v-135h-280v135z" />
    <glyph glyph-name="registered" unicode="&#xae;" horiz-adv-x="525" 
d="M177 615h90c61 0 91 -23 91 -71v-1c0 -31 -14 -47 -37 -58l50 -89h-72l-40 75h-12v-75h-70v219zM262 516c19 0 28 8 28 23v1c0 15 -9 22 -28 22h-15v-46h15zM262 319c52 0 99 19 132 52c33 32 54 77 54 132c0 53 -20 100 -52 133c-33 32 -81 51 -134 51
c-55 0 -100 -19 -133 -52s-52 -80 -52 -133c0 -55 21 -100 54 -132c32 -32 79 -51 131 -51zM262 281c-64 0 -121 24 -162 64c-41 39 -67 94 -67 157c0 61 26 118 67 158c40 40 98 65 162 65c65 0 123 -25 164 -65s66 -96 66 -157c0 -63 -26 -118 -67 -158s-99 -64 -163 -64z
" />
    <glyph glyph-name="macron" unicode="&#xaf;" horiz-adv-x="408" 
d="M50 712h307v-100h-307v100z" />
    <glyph glyph-name="degree" unicode="&#xb0;" horiz-adv-x="461" 
d="M231 451c53 0 91 44 91 100c0 60 -38 103 -91 103c-55 0 -93 -43 -93 -103c0 -56 38 -100 93 -100zM231 381c-49 0 -93 19 -125 51c-32 31 -52 72 -52 119c0 48 20 91 52 123c32 31 76 50 125 50c48 0 92 -19 124 -50c32 -32 52 -75 52 -123c0 -47 -20 -88 -52 -119
c-32 -32 -76 -51 -124 -51z" />
    <glyph glyph-name="plusminus" unicode="&#xb1;" horiz-adv-x="578" 
d="M217 341h-176v131h176v164h144v-164h176v-131h-176v-165h-144v165zM41 118h498v-118h-498v118z" />
    <glyph glyph-name="twosuperior" unicode="&#xb2;" horiz-adv-x="361" 
d="M9 356l128 133c43 43 68 71 68 102c0 21 -10 32 -31 32c-23 0 -36 -17 -40 -52h-120c3 99 66 149 166 149c105 0 155 -52 155 -120c0 -51 -32 -91 -77 -132l-35 -34h113v-95h-327v17z" />
    <glyph glyph-name="threesuperior" unicode="&#xb3;" horiz-adv-x="382" 
d="M190 332c-59 0 -100 14 -127 38s-40 57 -41 96h116c3 -24 16 -42 45 -42c27 0 39 11 39 34s-14 34 -45 34h-30v74h30c32 0 45 11 45 34c0 17 -11 29 -34 29s-38 -13 -42 -38h-116c7 76 57 129 161 129c99 0 156 -37 156 -104c0 -43 -25 -69 -68 -81c45 -7 76 -37 76 -82
c0 -72 -54 -121 -165 -121z" />
    <glyph glyph-name="acute" unicode="&#xb4;" horiz-adv-x="408" 
d="M186 749h180l-105 -166h-128z" />
    <glyph glyph-name="mu" unicode="&#xb5;" horiz-adv-x="625" 
d="M53 523h179v-317c0 -57 25 -86 74 -86c55 0 89 31 89 99v304h179v-523h-176v71c-17 -47 -50 -71 -97 -71c-28 0 -53 12 -69 37v-212h-179v698z" />
    <glyph glyph-name="paragraph" unicode="&#xb6;" horiz-adv-x="559" 
d="M260 329h-8c-133 0 -220 62 -220 189c0 67 22 116 62 149c39 32 94 48 158 48h233v-815h-76v751h-74v-751h-75v429z" />
    <glyph glyph-name="periodcentered" unicode="&#xb7;" horiz-adv-x="307" 
d="M152 225c-29 0 -56 11 -73 30c-19 17 -29 43 -29 71s10 53 29 72c17 17 44 29 73 29s56 -12 75 -29c19 -19 30 -44 30 -72s-11 -54 -30 -71c-19 -19 -46 -30 -75 -30z" />
    <glyph glyph-name="cedilla" unicode="&#xb8;" horiz-adv-x="408" 
d="M208 -226c-72 0 -118 33 -127 93h84c4 -15 13 -28 36 -28c20 0 32 13 32 30c0 19 -12 31 -33 31c-16 0 -25 -6 -32 -11l-39 38l48 73h72l-31 -45c29 3 57 -2 78 -17c20 -13 33 -37 33 -69c0 -60 -48 -95 -121 -95z" />
    <glyph glyph-name="onesuperior" unicode="&#xb9;" horiz-adv-x="294" 
d="M106 587l-82 -46v107l102 67h114v-376h-134v248z" />
    <glyph glyph-name="ordmasculine" unicode="&#xba;" horiz-adv-x="530" 
d="M266 403c47 0 70 35 70 100v6c0 65 -23 98 -70 98s-72 -32 -72 -96v-6c0 -67 24 -102 72 -102zM265 287c-65 0 -123 19 -164 55s-67 89 -67 157v6c0 68 26 123 67 160s100 58 165 58c64 0 122 -20 163 -56c41 -37 67 -90 67 -157v-6c0 -68 -26 -123 -67 -160
s-100 -57 -164 -57z" />
    <glyph glyph-name="guillemotright" unicode="&#xbb;" horiz-adv-x="488" 
d="M154 261l-120 191h115l125 -191l-125 -191h-115zM334 261l-120 191h115l125 -191l-125 -191h-115z" />
    <glyph glyph-name="onequarter" unicode="&#xbc;" horiz-adv-x="803" 
d="M109 587l-82 -46v107l102 67h114v-376h-134v248zM630 715h94l-560 -715h-94zM600 70h-187v49l156 257h159v-219h48v-87h-48v-70h-128v70zM604 157v132l-77 -132h77z" />
    <glyph glyph-name="onehalf" unicode="&#xbd;" horiz-adv-x="815" 
d="M109 587l-82 -46v107l102 67h114v-376h-134v248zM617 715h94l-560 -715h-94zM459 17l128 133c43 43 68 71 68 102c0 21 -10 32 -31 32c-23 0 -36 -17 -40 -52h-120c3 99 66 149 166 149c105 0 155 -52 155 -120c0 -51 -32 -91 -77 -132l-35 -34h113v-95h-327v17z" />
    <glyph glyph-name="threequarters" unicode="&#xbe;" horiz-adv-x="834" 
d="M193 332c-59 0 -100 14 -127 38s-40 57 -41 96h116c3 -24 16 -42 45 -42c27 0 39 11 39 34s-14 34 -45 34h-30v74h30c32 0 45 11 45 34c0 17 -11 29 -34 29s-38 -13 -42 -38h-116c7 76 57 129 161 129c99 0 156 -37 156 -104c0 -43 -25 -69 -68 -81c45 -7 76 -37 76 -82
c0 -72 -54 -121 -165 -121zM678 715h94l-560 -715h-94zM629 70h-187v49l156 257h159v-219h48v-87h-48v-70h-128v70zM633 157v132l-77 -132h77z" />
    <glyph glyph-name="questiondown" unicode="&#xbf;" horiz-adv-x="564" 
d="M391 345c0 -37 -13 -69 -32 -96s-43 -49 -66 -72c-35 -33 -65 -63 -65 -98c0 -40 20 -60 61 -60c43 0 72 32 79 88h174c-3 -76 -30 -134 -78 -174c-47 -39 -112 -59 -189 -59c-155 0 -241 68 -241 188c0 67 33 111 73 150c24 24 51 47 72 68c23 23 39 45 43 69v15h169
v-19zM306 609c31 0 57 -9 76 -28c20 -17 32 -42 32 -70s-12 -52 -32 -71c-19 -17 -45 -29 -76 -29c-29 0 -55 12 -75 29c-19 19 -31 43 -31 71s12 53 31 70c20 19 46 28 75 28z" />
    <glyph glyph-name="Agrave" unicode="&#xc0;" horiz-adv-x="755" 
d="M246 715h265l227 -715h-217l-38 133h-237l-38 -133h-191zM286 274h157l-78 275zM216 905h186l49 -146h-135z" />
    <glyph glyph-name="Aacute" unicode="&#xc1;" horiz-adv-x="755" 
d="M246 715h265l227 -715h-217l-38 133h-237l-38 -133h-191zM286 274h157l-78 275zM350 905h187l-103 -146h-135z" />
    <glyph glyph-name="Acircumflex" unicode="&#xc2;" horiz-adv-x="755" 
d="M246 715h265l227 -715h-217l-38 133h-237l-38 -133h-191zM286 274h157l-78 275zM302 905h150l110 -146h-130l-59 49l-58 -49h-127z" />
    <glyph glyph-name="Atilde" unicode="&#xc3;" horiz-adv-x="755" 
d="M246 715h265l227 -715h-217l-38 133h-237l-38 -133h-191zM286 274h157l-78 275zM440 758c-28 0 -51 9 -70 17s-34 17 -50 17s-28 -14 -31 -33h-102c4 52 18 91 41 116c21 25 50 37 81 37c27 0 49 -8 69 -16c19 -9 36 -17 52 -17c19 0 28 13 32 32h101
c-4 -52 -20 -91 -41 -116c-23 -25 -53 -37 -82 -37z" />
    <glyph glyph-name="Adieresis" unicode="&#xc4;" horiz-adv-x="755" 
d="M246 715h265l227 -715h-217l-38 133h-237l-38 -133h-191zM286 274h157l-78 275zM263 758c-24 0 -45 9 -60 24c-16 15 -25 36 -25 59c0 47 38 84 85 84c48 0 86 -37 86 -84s-38 -83 -86 -83zM486 758c-48 0 -85 36 -85 83s37 84 85 84s86 -37 86 -84s-38 -83 -86 -83z" />
    <glyph glyph-name="Aring" unicode="&#xc5;" horiz-adv-x="755" 
d="M246 715h265l227 -715h-217l-38 133h-237l-38 -133h-191zM286 274h157l-78 275zM375 810c27 0 46 21 46 50c0 31 -19 50 -46 50c-28 0 -46 -19 -46 -50c0 -29 18 -50 46 -50zM375 744c-33 0 -63 14 -84 35c-23 20 -36 49 -36 81s13 61 36 82c21 21 51 34 84 34
s62 -13 85 -34c21 -21 35 -50 35 -82s-14 -61 -35 -81c-23 -21 -52 -35 -85 -35z" />
    <glyph glyph-name="AE" unicode="&#xc6;" horiz-adv-x="1010" 
d="M336 715h622v-158h-283v-123h223v-146h-223v-130h299v-158h-504v146h-197l-63 -146h-195zM332 284h138v273h-20z" />
    <glyph glyph-name="Ccedilla" unicode="&#xc7;" horiz-adv-x="767" 
d="M383 -226c-72 0 -118 33 -127 93h84c4 -15 13 -28 36 -28c20 0 32 13 32 30c0 19 -12 31 -33 31c-16 0 -25 -6 -32 -11l-39 38l42 65c-104 11 -181 51 -233 114s-77 147 -77 247v8c0 109 39 201 104 265s157 100 261 100c93 0 171 -22 230 -66c57 -45 94 -114 102 -209
h-211c-8 73 -48 113 -120 113c-92 0 -150 -71 -150 -202v-8c0 -129 54 -202 153 -202c72 0 122 37 133 117h204c-7 -92 -44 -161 -100 -208c-57 -48 -136 -72 -227 -73l-22 -33c29 3 57 -2 78 -17c20 -13 33 -37 33 -69c0 -60 -48 -95 -121 -95z" />
    <glyph glyph-name="Egrave" unicode="&#xc8;" horiz-adv-x="620" 
d="M73 715h494v-158h-290v-123h231v-146h-231v-130h306v-158h-510v715zM168 905h186l49 -146h-135z" />
    <glyph glyph-name="Eacute" unicode="&#xc9;" horiz-adv-x="620" 
d="M73 715h494v-158h-290v-123h231v-146h-231v-130h306v-158h-510v715zM302 905h187l-103 -146h-135z" />
    <glyph glyph-name="Ecircumflex" unicode="&#xca;" horiz-adv-x="620" 
d="M73 715h494v-158h-290v-123h231v-146h-231v-130h306v-158h-510v715zM254 905h150l110 -146h-130l-59 49l-58 -49h-127z" />
    <glyph glyph-name="Edieresis" unicode="&#xcb;" horiz-adv-x="620" 
d="M73 715h494v-158h-290v-123h231v-146h-231v-130h306v-158h-510v715zM215 758c-24 0 -45 9 -60 24c-16 15 -25 36 -25 59c0 47 38 84 85 84c48 0 86 -37 86 -84s-38 -83 -86 -83zM438 758c-48 0 -85 36 -85 83s37 84 85 84s86 -37 86 -84s-38 -83 -86 -83z" />
    <glyph glyph-name="Igrave" unicode="&#xcc;" horiz-adv-x="360" 
d="M77 715h207v-715h-207v715zM21 905h186l49 -146h-135z" />
    <glyph glyph-name="Iacute" unicode="&#xcd;" horiz-adv-x="360" 
d="M77 715h207v-715h-207v715zM155 905h187l-103 -146h-135z" />
    <glyph glyph-name="Icircumflex" unicode="&#xce;" horiz-adv-x="360" 
d="M77 715h207v-715h-207v715zM107 905h150l110 -146h-130l-59 49l-58 -49h-127z" />
    <glyph glyph-name="Idieresis" unicode="&#xcf;" horiz-adv-x="360" 
d="M77 715h207v-715h-207v715zM68 758c-24 0 -45 9 -60 24c-16 15 -25 36 -25 59c0 47 38 84 85 84c48 0 86 -37 86 -84s-38 -83 -86 -83zM291 758c-48 0 -85 36 -85 83s37 84 85 84s86 -37 86 -84s-38 -83 -86 -83z" />
    <glyph glyph-name="Eth" unicode="&#xd0;" horiz-adv-x="782" 
d="M33 428h59v287h259c255 0 383 -128 383 -349v-8c0 -112 -33 -201 -97 -262c-64 -63 -161 -96 -286 -96h-259v290h-59v138zM345 158c121 0 175 64 175 197v8c0 137 -52 194 -177 194h-50v-129h120v-138h-120v-132h52z" />
    <glyph glyph-name="Ntilde" unicode="&#xd1;" horiz-adv-x="785" 
d="M73 715h231l229 -403v403h179v-715h-198l-261 449v-449h-180v715zM475 758c-28 0 -51 9 -70 17s-34 17 -50 17s-28 -14 -31 -33h-102c4 52 18 91 41 116c21 25 50 37 81 37c27 0 49 -8 69 -16c19 -9 36 -17 52 -17c19 0 28 13 32 32h101c-4 -52 -20 -91 -41 -116
c-23 -25 -53 -37 -82 -37z" />
    <glyph glyph-name="Ograve" unicode="&#xd2;" horiz-adv-x="827" 
d="M414 149c101 0 164 77 164 206v8c0 128 -64 202 -165 202s-164 -72 -164 -203v-8c0 -131 65 -205 165 -205zM410 -12c-116 0 -209 38 -274 102s-101 155 -101 263v8c0 109 41 200 109 264s162 100 269 100c109 0 204 -35 272 -96c67 -63 107 -152 107 -263v-8
c0 -111 -37 -203 -104 -267c-67 -65 -162 -103 -278 -103zM253 905h186l49 -146h-135z" />
    <glyph glyph-name="Oacute" unicode="&#xd3;" horiz-adv-x="827" 
d="M414 149c101 0 164 77 164 206v8c0 128 -64 202 -165 202s-164 -72 -164 -203v-8c0 -131 65 -205 165 -205zM410 -12c-116 0 -209 38 -274 102s-101 155 -101 263v8c0 109 41 200 109 264s162 100 269 100c109 0 204 -35 272 -96c67 -63 107 -152 107 -263v-8
c0 -111 -37 -203 -104 -267c-67 -65 -162 -103 -278 -103zM387 905h187l-103 -146h-135z" />
    <glyph glyph-name="Ocircumflex" unicode="&#xd4;" horiz-adv-x="827" 
d="M414 149c101 0 164 77 164 206v8c0 128 -64 202 -165 202s-164 -72 -164 -203v-8c0 -131 65 -205 165 -205zM410 -12c-116 0 -209 38 -274 102s-101 155 -101 263v8c0 109 41 200 109 264s162 100 269 100c109 0 204 -35 272 -96c67 -63 107 -152 107 -263v-8
c0 -111 -37 -203 -104 -267c-67 -65 -162 -103 -278 -103zM339 905h150l110 -146h-130l-59 49l-58 -49h-127z" />
    <glyph glyph-name="Otilde" unicode="&#xd5;" horiz-adv-x="827" 
d="M414 149c101 0 164 77 164 206v8c0 128 -64 202 -165 202s-164 -72 -164 -203v-8c0 -131 65 -205 165 -205zM410 -12c-116 0 -209 38 -274 102s-101 155 -101 263v8c0 109 41 200 109 264s162 100 269 100c109 0 204 -35 272 -96c67 -63 107 -152 107 -263v-8
c0 -111 -37 -203 -104 -267c-67 -65 -162 -103 -278 -103zM477 758c-28 0 -51 9 -70 17s-34 17 -50 17s-28 -14 -31 -33h-102c4 52 18 91 41 116c21 25 50 37 81 37c27 0 49 -8 69 -16c19 -9 36 -17 52 -17c19 0 28 13 32 32h101c-4 -52 -20 -91 -41 -116
c-23 -25 -53 -37 -82 -37z" />
    <glyph glyph-name="Odieresis" unicode="&#xd6;" horiz-adv-x="827" 
d="M414 149c101 0 164 77 164 206v8c0 128 -64 202 -165 202s-164 -72 -164 -203v-8c0 -131 65 -205 165 -205zM410 -12c-116 0 -209 38 -274 102s-101 155 -101 263v8c0 109 41 200 109 264s162 100 269 100c109 0 204 -35 272 -96c67 -63 107 -152 107 -263v-8
c0 -111 -37 -203 -104 -267c-67 -65 -162 -103 -278 -103zM300 758c-24 0 -45 9 -60 24c-16 15 -25 36 -25 59c0 47 38 84 85 84c48 0 86 -37 86 -84s-38 -83 -86 -83zM523 758c-48 0 -85 36 -85 83s37 84 85 84s86 -37 86 -84s-38 -83 -86 -83z" />
    <glyph glyph-name="multiply" unicode="&#xd7;" horiz-adv-x="579" 
d="M43 184l152 152l-155 154l95 96l154 -156l153 153l94 -95l-153 -152l155 -154l-95 -95l-154 155l-152 -152z" />
    <glyph glyph-name="Oslash" unicode="&#xd8;" horiz-adv-x="827" 
d="M36 26l80 85c-52 63 -81 146 -81 242v8c0 109 41 200 109 264s162 100 269 100c88 0 164 -22 227 -62l73 77l59 -58l-69 -73c56 -60 89 -143 89 -243v-8c0 -111 -37 -203 -104 -267c-67 -65 -162 -103 -278 -103c-93 0 -172 24 -233 67l-82 -87zM414 149
c103 0 166 77 166 206v8c0 39 -5 71 -16 99l-260 -273c29 -27 66 -40 110 -40zM247 354c0 -36 5 -67 13 -92l255 270c-27 23 -61 33 -102 33c-103 0 -166 -72 -166 -203v-8z" />
    <glyph glyph-name="Ugrave" unicode="&#xd9;" horiz-adv-x="772" 
d="M385 -12c-203 0 -317 101 -317 302v425h205v-416c0 -101 25 -150 112 -150c85 0 112 45 112 153v413h207v-422c0 -104 -30 -181 -85 -230c-56 -51 -135 -75 -234 -75zM225 905h186l49 -146h-135z" />
    <glyph glyph-name="Uacute" unicode="&#xda;" horiz-adv-x="772" 
d="M385 -12c-203 0 -317 101 -317 302v425h205v-416c0 -101 25 -150 112 -150c85 0 112 45 112 153v413h207v-422c0 -104 -30 -181 -85 -230c-56 -51 -135 -75 -234 -75zM359 905h187l-103 -146h-135z" />
    <glyph glyph-name="Ucircumflex" unicode="&#xdb;" horiz-adv-x="772" 
d="M385 -12c-203 0 -317 101 -317 302v425h205v-416c0 -101 25 -150 112 -150c85 0 112 45 112 153v413h207v-422c0 -104 -30 -181 -85 -230c-56 -51 -135 -75 -234 -75zM311 905h150l110 -146h-130l-59 49l-58 -49h-127z" />
    <glyph glyph-name="Udieresis" unicode="&#xdc;" horiz-adv-x="772" 
d="M385 -12c-203 0 -317 101 -317 302v425h205v-416c0 -101 25 -150 112 -150c85 0 112 45 112 153v413h207v-422c0 -104 -30 -181 -85 -230c-56 -51 -135 -75 -234 -75zM272 758c-24 0 -45 9 -60 24c-16 15 -25 36 -25 59c0 47 38 84 85 84c48 0 86 -37 86 -84
s-38 -83 -86 -83zM495 758c-48 0 -85 36 -85 83s37 84 85 84s86 -37 86 -84s-38 -83 -86 -83z" />
    <glyph glyph-name="Yacute" unicode="&#xdd;" horiz-adv-x="685" 
d="M245 306l-233 409h223l121 -241l121 241h196l-222 -409v-306h-206v306zM324 905h187l-103 -146h-135z" />
    <glyph glyph-name="Thorn" unicode="&#xde;" horiz-adv-x="660" 
d="M73 715h204v-117h68c197 0 287 -75 287 -230v-4c0 -149 -99 -229 -278 -229h-77v-135h-204v715zM336 275c68 0 101 29 101 88v4c0 63 -36 85 -100 85h-60v-177h59z" />
    <glyph glyph-name="germandbls" unicode="&#xdf;" horiz-adv-x="644" 
d="M385 -10c-44 0 -77 6 -96 11v135c12 -4 28 -9 49 -9c25 0 48 7 67 24c17 17 29 47 29 92v6c0 45 -15 74 -39 93c-25 17 -60 25 -100 25v133c33 0 57 9 73 24c15 15 22 34 22 54v3c0 45 -26 72 -75 72c-48 0 -79 -34 -79 -94v-559h-179v544c0 80 31 137 80 174
c48 36 116 53 189 53c144 0 234 -62 234 -183v-2c0 -69 -50 -121 -119 -142c47 -11 91 -33 123 -66c32 -35 52 -81 52 -141v-7c0 -81 -25 -141 -65 -181c-41 -40 -99 -59 -166 -59z" />
    <glyph glyph-name="agrave" unicode="&#xe0;" horiz-adv-x="586" 
d="M204 -12c-47 0 -91 12 -123 37c-33 25 -54 64 -54 120c0 123 103 171 278 171h50v12c0 51 -12 83 -69 83c-49 0 -67 -29 -71 -62h-168c4 63 31 110 75 142c43 31 103 46 175 46s131 -15 172 -47s64 -82 64 -151v-339h-174v61c-25 -39 -71 -73 -155 -73zM266 109
c51 0 89 29 89 74v32h-47c-72 0 -104 -14 -104 -57c0 -31 19 -49 62 -49zM131 749h180l53 -166h-128z" />
    <glyph glyph-name="aacute" unicode="&#xe1;" horiz-adv-x="586" 
d="M204 -12c-47 0 -91 12 -123 37c-33 25 -54 64 -54 120c0 123 103 171 278 171h50v12c0 51 -12 83 -69 83c-49 0 -67 -29 -71 -62h-168c4 63 31 110 75 142c43 31 103 46 175 46s131 -15 172 -47s64 -82 64 -151v-339h-174v61c-25 -39 -71 -73 -155 -73zM266 109
c51 0 89 29 89 74v32h-47c-72 0 -104 -14 -104 -57c0 -31 19 -49 62 -49zM279 749h180l-105 -166h-128z" />
    <glyph glyph-name="acircumflex" unicode="&#xe2;" horiz-adv-x="586" 
d="M204 -12c-47 0 -91 12 -123 37c-33 25 -54 64 -54 120c0 123 103 171 278 171h50v12c0 51 -12 83 -69 83c-49 0 -67 -29 -71 -62h-168c4 63 31 110 75 142c43 31 103 46 175 46s131 -15 172 -47s64 -82 64 -151v-339h-174v61c-25 -39 -71 -73 -155 -73zM266 109
c51 0 89 29 89 74v32h-47c-72 0 -104 -14 -104 -57c0 -31 19 -49 62 -49zM229 748h128l118 -163h-125l-61 56l-60 -56h-123z" />
    <glyph glyph-name="atilde" unicode="&#xe3;" horiz-adv-x="586" 
d="M204 -12c-47 0 -91 12 -123 37c-33 25 -54 64 -54 120c0 123 103 171 278 171h50v12c0 51 -12 83 -69 83c-49 0 -67 -29 -71 -62h-168c4 63 31 110 75 142c43 31 103 46 175 46s131 -15 172 -47s64 -82 64 -151v-339h-174v61c-25 -39 -71 -73 -155 -73zM266 109
c51 0 89 29 89 74v32h-47c-72 0 -104 -14 -104 -57c0 -31 19 -49 62 -49zM359 587c-28 0 -49 8 -68 17c-19 8 -33 16 -49 16s-28 -13 -31 -32h-97c7 105 52 156 115 156c27 0 48 -9 68 -17c19 -8 35 -17 51 -17c19 0 28 13 32 32h97c-8 -104 -58 -155 -118 -155z" />
    <glyph glyph-name="adieresis" unicode="&#xe4;" horiz-adv-x="586" 
d="M204 -12c-47 0 -91 12 -123 37c-33 25 -54 64 -54 120c0 123 103 171 278 171h50v12c0 51 -12 83 -69 83c-49 0 -67 -29 -71 -62h-168c4 63 31 110 75 142c43 31 103 46 175 46s131 -15 172 -47s64 -82 64 -151v-339h-174v61c-25 -39 -71 -73 -155 -73zM266 109
c51 0 89 29 89 74v32h-47c-72 0 -104 -14 -104 -57c0 -31 19 -49 62 -49zM188 580c-24 0 -45 9 -60 24c-16 15 -25 36 -25 59s9 44 25 60c15 15 36 24 60 24c48 0 86 -37 86 -84s-38 -83 -86 -83zM401 580c-48 0 -85 36 -85 83s37 84 85 84s86 -37 86 -84s-38 -83 -86 -83z
" />
    <glyph glyph-name="aring" unicode="&#xe5;" horiz-adv-x="586" 
d="M204 -12c-47 0 -91 12 -123 37c-33 25 -54 64 -54 120c0 123 103 171 278 171h50v12c0 51 -12 83 -69 83c-49 0 -67 -29 -71 -62h-168c4 63 31 110 75 142c43 31 103 46 175 46s131 -15 172 -47s64 -82 64 -151v-339h-174v61c-25 -39 -71 -73 -155 -73zM266 109
c51 0 89 29 89 74v32h-47c-72 0 -104 -14 -104 -57c0 -31 19 -49 62 -49zM295 642c27 0 46 21 46 50c0 31 -19 51 -46 51s-46 -20 -46 -51c0 -29 19 -50 46 -50zM295 578c-32 0 -62 13 -83 34c-21 20 -35 48 -35 80s14 60 35 81s51 34 83 34s62 -13 83 -34s35 -49 35 -81
s-14 -60 -35 -80c-21 -21 -51 -34 -83 -34z" />
    <glyph glyph-name="ae" unicode="&#xe6;" horiz-adv-x="916" 
d="M631 -12c-93 0 -162 31 -203 91c-43 -57 -104 -91 -207 -91c-53 0 -101 12 -136 37c-36 25 -58 64 -58 120c0 123 102 174 277 173h53v9c0 52 -14 84 -70 84c-49 0 -67 -26 -72 -62h-168c4 63 31 110 74 142c43 31 101 46 169 46c80 0 137 -21 169 -62
c44 41 99 62 167 62c71 0 136 -20 184 -64s78 -114 78 -207v-46h-360c5 -71 40 -109 104 -109c59 0 82 27 89 62h167c-16 -119 -104 -185 -257 -185zM715 318c-4 68 -33 101 -89 101c-53 0 -90 -36 -97 -101h186zM267 109c56 0 90 29 90 74v34h-50c-68 1 -103 -11 -103 -55
c0 -35 22 -53 63 -53z" />
    <glyph glyph-name="ccedilla" unicode="&#xe7;" horiz-adv-x="591" 
d="M285 -226c-72 0 -118 33 -127 93h84c4 -15 13 -28 36 -28c20 0 32 13 32 30c0 19 -12 31 -33 31c-16 0 -25 -6 -32 -11l-39 38l43 65c-64 9 -119 36 -158 80s-62 106 -62 183v8c0 87 31 155 82 202s120 72 197 72c64 0 125 -14 172 -47c47 -35 79 -88 84 -168h-168
c-8 49 -32 76 -84 76c-64 0 -100 -45 -100 -133v-8c0 -92 35 -138 103 -138c51 0 84 30 91 87h161c-5 -129 -88 -213 -249 -218l-23 -33c29 3 57 -2 78 -17c20 -13 33 -37 33 -69c0 -60 -48 -95 -121 -95z" />
    <glyph glyph-name="egrave" unicode="&#xe8;" horiz-adv-x="606" 
d="M313 -12c-83 0 -154 24 -203 69c-51 45 -81 113 -81 198v8c0 84 31 152 82 200s122 74 201 74c72 0 138 -21 187 -65c48 -44 79 -112 79 -205v-47h-368c5 -69 45 -109 109 -109c60 0 84 27 91 62h168c-16 -119 -106 -185 -265 -185zM404 321c-3 64 -33 98 -92 98
c-55 0 -91 -34 -100 -98h192zM143 749h180l53 -166h-128z" />
    <glyph glyph-name="eacute" unicode="&#xe9;" horiz-adv-x="606" 
d="M313 -12c-83 0 -154 24 -203 69c-51 45 -81 113 -81 198v8c0 84 31 152 82 200s122 74 201 74c72 0 138 -21 187 -65c48 -44 79 -112 79 -205v-47h-368c5 -69 45 -109 109 -109c60 0 84 27 91 62h168c-16 -119 -106 -185 -265 -185zM404 321c-3 64 -33 98 -92 98
c-55 0 -91 -34 -100 -98h192zM291 749h180l-105 -166h-128z" />
    <glyph glyph-name="ecircumflex" unicode="&#xea;" horiz-adv-x="606" 
d="M313 -12c-83 0 -154 24 -203 69c-51 45 -81 113 -81 198v8c0 84 31 152 82 200s122 74 201 74c72 0 138 -21 187 -65c48 -44 79 -112 79 -205v-47h-368c5 -69 45 -109 109 -109c60 0 84 27 91 62h168c-16 -119 -106 -185 -265 -185zM404 321c-3 64 -33 98 -92 98
c-55 0 -91 -34 -100 -98h192zM245 748h128l118 -163h-125l-61 56l-60 -56h-123z" />
    <glyph glyph-name="edieresis" unicode="&#xeb;" horiz-adv-x="606" 
d="M313 -12c-83 0 -154 24 -203 69c-51 45 -81 113 -81 198v8c0 84 31 152 82 200s122 74 201 74c72 0 138 -21 187 -65c48 -44 79 -112 79 -205v-47h-368c5 -69 45 -109 109 -109c60 0 84 27 91 62h168c-16 -119 -106 -185 -265 -185zM404 321c-3 64 -33 98 -92 98
c-55 0 -91 -34 -100 -98h192zM200 580c-24 0 -45 9 -60 24c-16 15 -25 36 -25 59s9 44 25 60c15 15 36 24 60 24c48 0 86 -37 86 -84s-38 -83 -86 -83zM413 580c-48 0 -85 36 -85 83s37 84 85 84s86 -37 86 -84s-38 -83 -86 -83z" />
    <glyph glyph-name="igrave" unicode="&#xec;" horiz-adv-x="303" 
d="M62 523h179v-523h-179v523zM-12 749h180l53 -166h-128z" />
    <glyph glyph-name="iacute" unicode="&#xed;" horiz-adv-x="303" 
d="M62 523h179v-523h-179v523zM136 749h180l-105 -166h-128z" />
    <glyph glyph-name="icircumflex" unicode="&#xee;" horiz-adv-x="303" 
d="M62 523h179v-523h-179v523zM90 748h128l118 -163h-125l-61 56l-60 -56h-123z" />
    <glyph glyph-name="idieresis" unicode="&#xef;" horiz-adv-x="303" 
d="M46 580c-24 0 -45 9 -61 24c-15 15 -24 36 -24 59s9 44 24 60c16 15 37 24 61 24c48 0 86 -37 86 -84s-38 -83 -86 -83zM256 580c-24 0 -45 9 -60 24c-16 15 -25 36 -25 59s9 44 25 60c15 15 36 24 60 24c48 0 86 -37 86 -84s-38 -83 -86 -83zM62 523h179v-523h-179v523z
" />
    <glyph glyph-name="eth" unicode="&#xf0;" horiz-adv-x="631" 
d="M121 618l109 40c-41 36 -83 68 -120 95h198c19 -12 40 -26 63 -42l106 39l24 -63l-70 -26c44 -41 86 -91 118 -151s52 -128 52 -205v-22c0 -92 -29 -165 -80 -216s-122 -79 -209 -79c-80 0 -151 25 -202 72s-81 116 -81 203v11c0 80 29 144 73 188c44 43 102 67 161 67
c51 0 77 -12 108 -44c-20 43 -51 83 -87 122l-139 -51zM316 121c68 0 103 49 103 137v8c0 88 -35 137 -103 137c-67 0 -104 -47 -104 -135v-8c0 -91 35 -139 104 -139z" />
    <glyph glyph-name="ntilde" unicode="&#xf1;" horiz-adv-x="632" 
d="M57 523h179v-84c28 55 84 98 172 98c101 0 171 -64 171 -197v-340h-179v304c0 60 -23 88 -75 88c-53 0 -89 -31 -89 -99v-293h-179v523zM381 587c-28 0 -49 8 -68 17c-19 8 -33 16 -49 16s-28 -13 -31 -32h-97c7 105 52 156 115 156c27 0 48 -9 68 -17
c19 -8 35 -17 51 -17c19 0 28 13 32 32h97c-8 -104 -58 -155 -118 -155z" />
    <glyph glyph-name="ograve" unicode="&#xf2;" horiz-adv-x="630" 
d="M316 121c68 0 103 49 103 137v8c0 88 -35 137 -103 137s-104 -47 -104 -135v-8c0 -91 35 -139 104 -139zM315 -12c-80 0 -152 25 -203 70c-52 45 -83 113 -83 197v8c0 84 31 152 83 200c51 48 123 74 204 74c80 0 152 -25 203 -72s82 -114 82 -197v-8
c0 -85 -31 -153 -82 -200c-52 -47 -124 -72 -204 -72zM151 749h180l53 -166h-128z" />
    <glyph glyph-name="oacute" unicode="&#xf3;" horiz-adv-x="630" 
d="M316 121c68 0 103 49 103 137v8c0 88 -35 137 -103 137s-104 -47 -104 -135v-8c0 -91 35 -139 104 -139zM315 -12c-80 0 -152 25 -203 70c-52 45 -83 113 -83 197v8c0 84 31 152 83 200c51 48 123 74 204 74c80 0 152 -25 203 -72s82 -114 82 -197v-8
c0 -85 -31 -153 -82 -200c-52 -47 -124 -72 -204 -72zM299 749h180l-105 -166h-128z" />
    <glyph glyph-name="ocircumflex" unicode="&#xf4;" horiz-adv-x="630" 
d="M316 121c68 0 103 49 103 137v8c0 88 -35 137 -103 137s-104 -47 -104 -135v-8c0 -91 35 -139 104 -139zM315 -12c-80 0 -152 25 -203 70c-52 45 -83 113 -83 197v8c0 84 31 152 83 200c51 48 123 74 204 74c80 0 152 -25 203 -72s82 -114 82 -197v-8
c0 -85 -31 -153 -82 -200c-52 -47 -124 -72 -204 -72zM253 748h128l118 -163h-125l-61 56l-60 -56h-123z" />
    <glyph glyph-name="otilde" unicode="&#xf5;" horiz-adv-x="630" 
d="M316 121c68 0 103 49 103 137v8c0 88 -35 137 -103 137s-104 -47 -104 -135v-8c0 -91 35 -139 104 -139zM315 -12c-80 0 -152 25 -203 70c-52 45 -83 113 -83 197v8c0 84 31 152 83 200c51 48 123 74 204 74c80 0 152 -25 203 -72s82 -114 82 -197v-8
c0 -85 -31 -153 -82 -200c-52 -47 -124 -72 -204 -72zM379 587c-28 0 -49 8 -68 17c-19 8 -33 16 -49 16s-28 -13 -31 -32h-97c7 105 52 156 115 156c27 0 48 -9 68 -17c19 -8 35 -17 51 -17c19 0 28 13 32 32h97c-8 -104 -58 -155 -118 -155z" />
    <glyph glyph-name="odieresis" unicode="&#xf6;" horiz-adv-x="630" 
d="M316 121c68 0 103 49 103 137v8c0 88 -35 137 -103 137s-104 -47 -104 -135v-8c0 -91 35 -139 104 -139zM315 -12c-80 0 -152 25 -203 70c-52 45 -83 113 -83 197v8c0 84 31 152 83 200c51 48 123 74 204 74c80 0 152 -25 203 -72s82 -114 82 -197v-8
c0 -85 -31 -153 -82 -200c-52 -47 -124 -72 -204 -72zM208 580c-24 0 -45 9 -60 24c-16 15 -25 36 -25 59s9 44 25 60c15 15 36 24 60 24c48 0 86 -37 86 -84s-38 -83 -86 -83zM421 580c-48 0 -85 36 -85 83s37 84 85 84s86 -37 86 -84s-38 -83 -86 -83z" />
    <glyph glyph-name="divide" unicode="&#xf7;" horiz-adv-x="580" 
d="M290 43c-52 0 -94 40 -94 92c0 25 11 49 28 66c16 16 39 27 66 27c25 0 50 -11 67 -27c16 -17 27 -41 27 -66c0 -52 -42 -92 -94 -92zM41 402h498v-124h-498v124zM290 452c-27 0 -50 11 -66 28c-17 16 -28 40 -28 65c0 52 42 92 94 92s94 -40 94 -92
c0 -25 -11 -49 -27 -65c-17 -17 -42 -28 -67 -28z" />
    <glyph glyph-name="oslash" unicode="&#xf8;" horiz-adv-x="630" 
d="M25 9l66 70c-39 44 -62 103 -62 176v8c0 84 31 152 83 200c51 48 123 74 204 74c61 0 116 -14 163 -43l65 69l52 -48l-62 -66c43 -47 67 -106 67 -181v-8c0 -85 -31 -153 -82 -200c-52 -47 -124 -72 -204 -72c-65 0 -123 16 -170 45l-68 -72zM316 120
c69 0 105 50 105 138v8c0 21 -2 39 -6 55l-167 -178c17 -15 40 -23 68 -23zM210 260c0 -19 1 -34 4 -49l163 174c-15 13 -36 19 -61 19c-68 0 -106 -47 -106 -136v-8z" />
    <glyph glyph-name="ugrave" unicode="&#xf9;" horiz-adv-x="631" 
d="M229 -12c-51 0 -94 15 -125 47c-32 32 -51 80 -51 147v341h179v-312c0 -59 25 -88 74 -88c55 0 89 31 89 99v301h179v-523h-179v81c-28 -55 -78 -93 -166 -93zM150 749h180l53 -166h-128z" />
    <glyph glyph-name="uacute" unicode="&#xfa;" horiz-adv-x="631" 
d="M229 -12c-51 0 -94 15 -125 47c-32 32 -51 80 -51 147v341h179v-312c0 -59 25 -88 74 -88c55 0 89 31 89 99v301h179v-523h-179v81c-28 -55 -78 -93 -166 -93zM298 749h180l-105 -166h-128z" />
    <glyph glyph-name="ucircumflex" unicode="&#xfb;" horiz-adv-x="631" 
d="M229 -12c-51 0 -94 15 -125 47c-32 32 -51 80 -51 147v341h179v-312c0 -59 25 -88 74 -88c55 0 89 31 89 99v301h179v-523h-179v81c-28 -55 -78 -93 -166 -93zM252 748h128l118 -163h-125l-61 56l-60 -56h-123z" />
    <glyph glyph-name="udieresis" unicode="&#xfc;" horiz-adv-x="631" 
d="M229 -12c-51 0 -94 15 -125 47c-32 32 -51 80 -51 147v341h179v-312c0 -59 25 -88 74 -88c55 0 89 31 89 99v301h179v-523h-179v81c-28 -55 -78 -93 -166 -93zM207 580c-24 0 -45 9 -60 24c-16 15 -25 36 -25 59s9 44 25 60c15 15 36 24 60 24c48 0 86 -37 86 -84
s-38 -83 -86 -83zM420 580c-48 0 -85 36 -85 83s37 84 85 84s86 -37 86 -84s-38 -83 -86 -83z" />
    <glyph glyph-name="yacute" unicode="&#xfd;" horiz-adv-x="597" 
d="M221 53l-209 470h194l108 -279l100 279h171l-280 -698h-171zM293 749h180l-105 -166h-128z" />
    <glyph glyph-name="thorn" unicode="&#xfe;" horiz-adv-x="651" 
d="M57 753h179v-308c31 51 83 92 163 92c61 0 116 -23 156 -68s65 -114 65 -203v-8c0 -91 -25 -158 -65 -202c-40 -45 -96 -68 -157 -68c-80 0 -135 37 -162 89v-252h-179v928zM335 125c68 0 103 46 103 133v8c0 92 -39 136 -103 136c-65 0 -104 -47 -104 -135v-8
c0 -89 39 -134 104 -134z" />
    <glyph glyph-name="ydieresis" unicode="&#xff;" horiz-adv-x="597" 
d="M221 53l-209 470h194l108 -279l100 279h171l-280 -698h-171zM202 580c-24 0 -45 9 -60 24c-16 15 -25 36 -25 59s9 44 25 60c15 15 36 24 60 24c48 0 86 -37 86 -84s-38 -83 -86 -83zM415 580c-48 0 -85 36 -85 83s37 84 85 84s86 -37 86 -84s-38 -83 -86 -83z" />
    <glyph glyph-name="Amacron" unicode="&#x100;" horiz-adv-x="755" 
d="M246 715h265l227 -715h-217l-38 133h-237l-38 -133h-191zM286 274h157l-78 275zM214 878h322v-107h-322v107z" />
    <glyph glyph-name="amacron" unicode="&#x101;" horiz-adv-x="586" 
d="M204 -12c-47 0 -91 12 -123 37c-33 25 -54 64 -54 120c0 123 103 171 278 171h50v12c0 51 -12 83 -69 83c-49 0 -67 -29 -71 -62h-168c4 63 31 110 75 142c43 31 103 46 175 46s131 -15 172 -47s64 -82 64 -151v-339h-174v61c-25 -39 -71 -73 -155 -73zM266 109
c51 0 89 29 89 74v32h-47c-72 0 -104 -14 -104 -57c0 -31 19 -49 62 -49zM141 712h307v-100h-307v100z" />
    <glyph glyph-name="Abreve" unicode="&#x102;" horiz-adv-x="755" 
d="M246 715h265l227 -715h-217l-38 133h-237l-38 -133h-191zM286 274h157l-78 275zM374 752c-99 0 -158 57 -165 153h116c3 -28 20 -46 49 -46s48 18 52 46h115c-8 -96 -71 -153 -167 -153z" />
    <glyph glyph-name="abreve" unicode="&#x103;" horiz-adv-x="586" 
d="M204 -12c-47 0 -91 12 -123 37c-33 25 -54 64 -54 120c0 123 103 171 278 171h50v12c0 51 -12 83 -69 83c-49 0 -67 -29 -71 -62h-168c4 63 31 110 75 142c43 31 103 46 175 46s131 -15 172 -47s64 -82 64 -151v-339h-174v61c-25 -39 -71 -73 -155 -73zM266 109
c51 0 89 29 89 74v32h-47c-72 0 -104 -14 -104 -57c0 -31 19 -49 62 -49zM294 587c-96 0 -158 57 -163 158h111c3 -31 20 -48 52 -48s51 19 54 48h111c-7 -101 -72 -158 -165 -158z" />
    <glyph glyph-name="Aogonek" unicode="&#x104;" horiz-adv-x="755" 
d="M640 -182c-77 0 -123 32 -123 81c0 24 11 45 27 61s37 29 58 40h-81l-38 133h-237l-38 -133h-191l229 715h265l222 -701c-40 -24 -61 -51 -61 -74c0 -17 10 -26 29 -26c12 0 21 2 30 5v-85c-19 -8 -48 -16 -91 -16zM286 274h157l-78 275z" />
    <glyph glyph-name="aogonek" unicode="&#x105;" horiz-adv-x="586" 
d="M447 -182c-72 0 -116 29 -116 80c0 25 11 46 27 62c16 17 38 29 59 40h-58v61c-25 -39 -71 -73 -155 -73c-47 0 -91 12 -123 37c-33 25 -54 64 -54 120c0 123 103 171 278 171h50v12c0 51 -12 83 -69 83c-49 0 -67 -29 -71 -62h-168c4 63 31 110 75 142
c43 31 103 46 175 46s131 -15 172 -47s64 -82 64 -151v-328c-41 -29 -56 -51 -56 -74c0 -19 10 -28 30 -28c12 0 21 2 30 5v-80c-19 -8 -46 -16 -90 -16zM266 109c51 0 89 29 89 74v32h-47c-72 0 -104 -14 -104 -57c0 -31 19 -49 62 -49z" />
    <glyph glyph-name="Cacute" unicode="&#x106;" horiz-adv-x="767" 
d="M409 -12c-125 0 -219 36 -280 100c-63 64 -93 156 -93 265v8c0 109 39 201 104 265s157 100 261 100c93 0 171 -22 230 -66c57 -45 94 -114 102 -209h-211c-8 73 -48 113 -120 113c-92 0 -150 -71 -150 -202v-8c0 -129 54 -202 153 -202c72 0 122 37 133 117h204
c-7 -92 -45 -163 -102 -210c-59 -47 -139 -71 -231 -71zM374 905h187l-103 -146h-135z" />
    <glyph glyph-name="cacute" unicode="&#x107;" horiz-adv-x="591" 
d="M304 -12c-79 0 -147 23 -196 68c-49 44 -79 111 -79 199v8c0 87 31 155 82 202s120 72 197 72c64 0 125 -14 172 -47c47 -35 79 -88 84 -168h-168c-8 49 -32 76 -84 76c-64 0 -100 -45 -100 -133v-8c0 -92 35 -138 103 -138c51 0 84 30 91 87h161
c-5 -132 -94 -218 -263 -218zM287 749h180l-105 -166h-128z" />
    <glyph glyph-name="Ccircumflex" unicode="&#x108;" horiz-adv-x="767" 
d="M409 -12c-125 0 -219 36 -280 100c-63 64 -93 156 -93 265v8c0 109 39 201 104 265s157 100 261 100c93 0 171 -22 230 -66c57 -45 94 -114 102 -209h-211c-8 73 -48 113 -120 113c-92 0 -150 -71 -150 -202v-8c0 -129 54 -202 153 -202c72 0 122 37 133 117h204
c-7 -92 -45 -163 -102 -210c-59 -47 -139 -71 -231 -71zM326 905h150l110 -146h-130l-59 49l-58 -49h-127z" />
    <glyph glyph-name="ccircumflex" unicode="&#x109;" horiz-adv-x="591" 
d="M304 -12c-79 0 -147 23 -196 68c-49 44 -79 111 -79 199v8c0 87 31 155 82 202s120 72 197 72c64 0 125 -14 172 -47c47 -35 79 -88 84 -168h-168c-8 49 -32 76 -84 76c-64 0 -100 -45 -100 -133v-8c0 -92 35 -138 103 -138c51 0 84 30 91 87h161
c-5 -132 -94 -218 -263 -218zM241 748h128l118 -163h-125l-61 56l-60 -56h-123z" />
    <glyph glyph-name="Cdotaccent" unicode="&#x10a;" horiz-adv-x="767" 
d="M409 -12c-125 0 -219 36 -280 100c-63 64 -93 156 -93 265v8c0 109 39 201 104 265s157 100 261 100c93 0 171 -22 230 -66c57 -45 94 -114 102 -209h-211c-8 73 -48 113 -120 113c-92 0 -150 -71 -150 -202v-8c0 -129 54 -202 153 -202c72 0 122 37 133 117h204
c-7 -92 -45 -163 -102 -210c-59 -47 -139 -71 -231 -71zM398 757c-55 0 -95 38 -95 90c0 51 40 89 95 89s95 -38 95 -89c0 -52 -40 -90 -95 -90z" />
    <glyph glyph-name="cdotaccent" unicode="&#x10b;" horiz-adv-x="591" 
d="M304 -12c-79 0 -147 23 -196 68c-49 44 -79 111 -79 199v8c0 87 31 155 82 202s120 72 197 72c64 0 125 -14 172 -47c47 -35 79 -88 84 -168h-168c-8 49 -32 76 -84 76c-64 0 -100 -45 -100 -133v-8c0 -92 35 -138 103 -138c51 0 84 30 91 87h161
c-5 -132 -94 -218 -263 -218zM306 579c-56 0 -96 38 -96 90c0 51 41 89 96 89s95 -38 95 -89c0 -52 -40 -90 -95 -90z" />
    <glyph glyph-name="Ccaron" unicode="&#x10c;" horiz-adv-x="767" 
d="M409 -12c-125 0 -219 36 -280 100c-63 64 -93 156 -93 265v8c0 109 39 201 104 265s157 100 261 100c93 0 171 -22 230 -66c57 -45 94 -114 102 -209h-211c-8 73 -48 113 -120 113c-92 0 -150 -71 -150 -202v-8c0 -129 54 -202 153 -202c72 0 122 37 133 117h204
c-7 -92 -45 -163 -102 -210c-59 -47 -139 -71 -231 -71zM211 905h130l58 -49l59 49h127l-114 -146h-150z" />
    <glyph glyph-name="ccaron" unicode="&#x10d;" horiz-adv-x="591" 
d="M304 -12c-79 0 -147 23 -196 68c-49 44 -79 111 -79 199v8c0 87 31 155 82 202s120 72 197 72c64 0 125 -14 172 -47c47 -35 79 -88 84 -168h-168c-8 49 -32 76 -84 76c-64 0 -100 -45 -100 -133v-8c0 -92 35 -138 103 -138c51 0 84 30 91 87h161
c-5 -132 -94 -218 -263 -218zM118 748h125l61 -56l61 56h122l-123 -163h-127z" />
    <glyph glyph-name="Dcaron" unicode="&#x10e;" horiz-adv-x="751" 
d="M326 158c123 0 176 64 176 197v8c0 137 -53 194 -178 194h-45v-399h47zM73 715h260c253 0 383 -128 383 -349v-8c0 -112 -33 -201 -97 -262c-65 -63 -162 -96 -287 -96h-259v715zM153 905h130l58 -49l59 49h127l-114 -146h-150z" />
    <glyph glyph-name="dcaron" unicode="&#x10f;" horiz-adv-x="650" 
d="M251 -12c-60 0 -115 22 -155 66s-65 111 -65 202v8c0 89 24 157 64 204c40 45 95 69 158 69c83 0 130 -35 161 -88v304h179v-753h-179v85c-27 -55 -83 -97 -163 -97zM314 125c65 0 105 45 105 134v8c0 88 -36 135 -103 135c-68 0 -103 -45 -103 -136v-8
c0 -88 38 -133 101 -133zM638 753h133l-49 -174h-93z" />
    <glyph glyph-name="Dcroat" unicode="&#x110;" horiz-adv-x="782" 
d="M33 428h59v287h259c255 0 383 -128 383 -349v-8c0 -112 -33 -201 -97 -262c-64 -63 -161 -96 -286 -96h-259v290h-59v138zM345 158c121 0 175 64 175 197v8c0 137 -52 194 -177 194h-50v-129h120v-138h-120v-132h52z" />
    <glyph glyph-name="dcroat" unicode="&#x111;" horiz-adv-x="650" 
d="M259 683h155v70h179v-70h57v-96h-57v-587h-179v85c-27 -55 -83 -97 -163 -97c-60 0 -115 22 -155 66s-65 111 -65 202v8c0 89 24 157 64 204c40 45 95 69 158 69c83 0 130 -35 161 -88v138h-155v96zM314 125c65 0 105 45 105 134v8c0 88 -36 135 -103 135
c-68 0 -103 -45 -103 -136v-8c0 -88 38 -133 101 -133z" />
    <glyph glyph-name="Emacron" unicode="&#x112;" horiz-adv-x="620" 
d="M73 715h494v-158h-290v-123h231v-146h-231v-130h306v-158h-510v715zM166 878h322v-107h-322v107z" />
    <glyph glyph-name="emacron" unicode="&#x113;" horiz-adv-x="606" 
d="M313 -12c-83 0 -154 24 -203 69c-51 45 -81 113 -81 198v8c0 84 31 152 82 200s122 74 201 74c72 0 138 -21 187 -65c48 -44 79 -112 79 -205v-47h-368c5 -69 45 -109 109 -109c60 0 84 27 91 62h168c-16 -119 -106 -185 -265 -185zM404 321c-3 64 -33 98 -92 98
c-55 0 -91 -34 -100 -98h192zM153 712h307v-100h-307v100z" />
    <glyph glyph-name="Ebreve" unicode="&#x114;" horiz-adv-x="620" 
d="M73 715h494v-158h-290v-123h231v-146h-231v-130h306v-158h-510v715zM326 752c-99 0 -158 57 -165 153h116c3 -28 20 -46 49 -46s48 18 52 46h115c-8 -96 -71 -153 -167 -153z" />
    <glyph glyph-name="ebreve" unicode="&#x115;" horiz-adv-x="606" 
d="M313 -12c-83 0 -154 24 -203 69c-51 45 -81 113 -81 198v8c0 84 31 152 82 200s122 74 201 74c72 0 138 -21 187 -65c48 -44 79 -112 79 -205v-47h-368c5 -69 45 -109 109 -109c60 0 84 27 91 62h168c-16 -119 -106 -185 -265 -185zM404 321c-3 64 -33 98 -92 98
c-55 0 -91 -34 -100 -98h192zM301 587c-96 0 -158 57 -163 158h111c3 -31 20 -48 52 -48s51 19 54 48h111c-7 -101 -72 -158 -165 -158z" />
    <glyph glyph-name="Edotaccent" unicode="&#x116;" horiz-adv-x="620" 
d="M73 715h494v-158h-290v-123h231v-146h-231v-130h306v-158h-510v715zM328 757c-55 0 -95 38 -95 90c0 51 40 89 95 89s95 -38 95 -89c0 -52 -40 -90 -95 -90z" />
    <glyph glyph-name="edotaccent" unicode="&#x117;" horiz-adv-x="606" 
d="M313 -12c-83 0 -154 24 -203 69c-51 45 -81 113 -81 198v8c0 84 31 152 82 200s122 74 201 74c72 0 138 -21 187 -65c48 -44 79 -112 79 -205v-47h-368c5 -69 45 -109 109 -109c60 0 84 27 91 62h168c-16 -119 -106 -185 -265 -185zM404 321c-3 64 -33 98 -92 98
c-55 0 -91 -34 -100 -98h192zM308 579c-56 0 -96 38 -96 90c0 51 41 89 96 89s95 -38 95 -89c0 -52 -40 -90 -95 -90z" />
    <glyph glyph-name="Eogonek" unicode="&#x118;" horiz-adv-x="620" 
d="M471 -182c-76 0 -122 32 -122 81c0 24 11 45 27 61s38 29 59 40h-362v715h494v-158h-290v-123h231v-146h-231v-130h306v-158h-38c-27 -23 -41 -37 -41 -60c0 -17 10 -26 30 -26c11 0 21 1 29 5v-85c-17 -8 -48 -16 -92 -16z" />
    <glyph glyph-name="eogonek" unicode="&#x119;" horiz-adv-x="606" 
d="M409 -182c-72 0 -118 28 -118 79c0 41 42 72 82 95c-17 -3 -41 -4 -60 -4c-83 0 -154 24 -203 69c-51 45 -81 113 -81 198v8c0 84 31 152 82 200s122 74 201 74c72 0 138 -21 187 -65c48 -44 79 -112 79 -205v-47h-368c5 -69 45 -109 109 -109c60 0 84 27 91 62h168
c-9 -68 -43 -107 -71 -135c-43 -43 -71 -70 -71 -101c0 -19 11 -28 31 -28c12 0 21 2 30 5v-80c-19 -8 -41 -16 -88 -16zM404 321c-3 64 -33 98 -92 98c-55 0 -91 -34 -100 -98h192z" />
    <glyph glyph-name="Ecaron" unicode="&#x11a;" horiz-adv-x="620" 
d="M73 715h494v-158h-290v-123h231v-146h-231v-130h306v-158h-510v715zM141 905h130l58 -49l59 49h127l-114 -146h-150z" />
    <glyph glyph-name="ecaron" unicode="&#x11b;" horiz-adv-x="606" 
d="M313 -12c-83 0 -154 24 -203 69c-51 45 -81 113 -81 198v8c0 84 31 152 82 200s122 74 201 74c72 0 138 -21 187 -65c48 -44 79 -112 79 -205v-47h-368c5 -69 45 -109 109 -109c60 0 84 27 91 62h168c-16 -119 -106 -185 -265 -185zM404 321c-3 64 -33 98 -92 98
c-55 0 -91 -34 -100 -98h192zM122 748h125l61 -56l61 56h122l-123 -163h-127z" />
    <glyph glyph-name="Gcircumflex" unicode="&#x11c;" horiz-adv-x="795" 
d="M410 -12c-121 0 -215 38 -278 103c-64 64 -97 155 -97 262v8c0 109 40 200 107 264s160 101 268 101c84 0 164 -19 225 -62c60 -43 101 -108 108 -201h-203c-9 68 -53 102 -129 102c-101 0 -162 -78 -162 -207v-8c0 -59 10 -110 37 -146c27 -37 67 -60 130 -60
c49 0 84 13 107 33s32 47 35 75h-134v143h336v-88c0 -91 -29 -171 -88 -228s-146 -91 -262 -91zM334 905h150l110 -146h-130l-59 49l-58 -49h-127z" />
    <glyph glyph-name="gcircumflex" unicode="&#x11d;" horiz-adv-x="649" 
d="M302 -194c-89 0 -154 19 -198 52c-45 35 -69 82 -76 142h178c8 -39 31 -68 96 -68c80 0 111 45 111 110v80c-13 -25 -34 -49 -61 -66c-28 -19 -62 -30 -101 -30c-61 0 -117 22 -157 65s-65 106 -65 186v8c0 77 25 140 65 184s96 68 157 68c84 0 131 -35 162 -88v74h179
v-479c0 -157 -102 -238 -290 -238zM314 158c64 0 104 45 104 120v7c0 72 -36 118 -103 118c-68 0 -103 -47 -103 -119v-8c0 -72 38 -118 102 -118zM247 748h128l118 -163h-125l-61 56l-60 -56h-123z" />
    <glyph glyph-name="Gbreve" unicode="&#x11e;" horiz-adv-x="795" 
d="M410 -12c-121 0 -215 38 -278 103c-64 64 -97 155 -97 262v8c0 109 40 200 107 264s160 101 268 101c84 0 164 -19 225 -62c60 -43 101 -108 108 -201h-203c-9 68 -53 102 -129 102c-101 0 -162 -78 -162 -207v-8c0 -59 10 -110 37 -146c27 -37 67 -60 130 -60
c49 0 84 13 107 33s32 47 35 75h-134v143h336v-88c0 -91 -29 -171 -88 -228s-146 -91 -262 -91zM406 752c-99 0 -158 57 -165 153h116c3 -28 20 -46 49 -46s48 18 52 46h115c-8 -96 -71 -153 -167 -153z" />
    <glyph glyph-name="gbreve" unicode="&#x11f;" horiz-adv-x="649" 
d="M302 -194c-89 0 -154 19 -198 52c-45 35 -69 82 -76 142h178c8 -39 31 -68 96 -68c80 0 111 45 111 110v80c-13 -25 -34 -49 -61 -66c-28 -19 -62 -30 -101 -30c-61 0 -117 22 -157 65s-65 106 -65 186v8c0 77 25 140 65 184s96 68 157 68c84 0 131 -35 162 -88v74h179
v-479c0 -157 -102 -238 -290 -238zM314 158c64 0 104 45 104 120v7c0 72 -36 118 -103 118c-68 0 -103 -47 -103 -119v-8c0 -72 38 -118 102 -118zM308 587c-96 0 -158 57 -163 158h111c3 -31 20 -48 52 -48s51 19 54 48h111c-7 -101 -72 -158 -165 -158z" />
    <glyph glyph-name="Gdotaccent" unicode="&#x120;" horiz-adv-x="795" 
d="M410 -12c-121 0 -215 38 -278 103c-64 64 -97 155 -97 262v8c0 109 40 200 107 264s160 101 268 101c84 0 164 -19 225 -62c60 -43 101 -108 108 -201h-203c-9 68 -53 102 -129 102c-101 0 -162 -78 -162 -207v-8c0 -59 10 -110 37 -146c27 -37 67 -60 130 -60
c49 0 84 13 107 33s32 47 35 75h-134v143h336v-88c0 -91 -29 -171 -88 -228s-146 -91 -262 -91zM408 757c-55 0 -95 38 -95 90c0 51 40 89 95 89s95 -38 95 -89c0 -52 -40 -90 -95 -90z" />
    <glyph glyph-name="gdotaccent" unicode="&#x121;" horiz-adv-x="649" 
d="M302 -194c-89 0 -154 19 -198 52c-45 35 -69 82 -76 142h178c8 -39 31 -68 96 -68c80 0 111 45 111 110v80c-13 -25 -34 -49 -61 -66c-28 -19 -62 -30 -101 -30c-61 0 -117 22 -157 65s-65 106 -65 186v8c0 77 25 140 65 184s96 68 157 68c84 0 131 -35 162 -88v74h179
v-479c0 -157 -102 -238 -290 -238zM314 158c64 0 104 45 104 120v7c0 72 -36 118 -103 118c-68 0 -103 -47 -103 -119v-8c0 -72 38 -118 102 -118zM309 579c-56 0 -96 38 -96 90c0 51 41 89 96 89s95 -38 95 -89c0 -52 -40 -90 -95 -90z" />
    <glyph glyph-name="uni0122" unicode="&#x122;" horiz-adv-x="787" 
d="M410 -12c-121 0 -215 38 -278 103c-64 64 -97 155 -97 262v8c0 109 40 200 107 264s160 101 268 101c84 0 164 -19 225 -62c60 -43 101 -108 108 -201h-203c-9 68 -53 102 -129 102c-101 0 -162 -78 -162 -207v-8c0 -59 10 -110 37 -146c27 -37 67 -60 130 -60
c49 0 84 13 107 33s32 47 35 75h-134v143h336v-88c0 -91 -29 -171 -88 -228s-146 -91 -262 -91zM291 -205l42 177l158 -19l-99 -185z" />
    <glyph glyph-name="uni0123" unicode="&#x123;" horiz-adv-x="641" 
d="M302 -194c-89 0 -154 19 -198 52c-45 35 -69 82 -76 142h178c8 -39 31 -68 96 -68c80 0 111 45 111 110v80c-13 -25 -34 -49 -61 -66c-28 -19 -62 -30 -101 -30c-61 0 -117 22 -157 65s-65 106 -65 186v8c0 77 25 140 65 184s96 68 157 68c84 0 131 -35 162 -88v74h179
v-479c0 -157 -102 -238 -290 -238zM314 158c64 0 104 45 104 120v7c0 72 -36 118 -103 118c-68 0 -103 -47 -103 -119v-8c0 -72 38 -118 102 -118zM234 585l99 185l101 -27l-42 -177z" />
    <glyph glyph-name="Hcircumflex" unicode="&#x124;" horiz-adv-x="792" 
d="M73 715h206v-273h235v273h205v-715h-205v282h-235v-282h-206v715zM323 905h150l110 -146h-130l-59 49l-58 -49h-127z" />
    <glyph glyph-name="hcircumflex" unicode="&#x125;" horiz-adv-x="632" 
d="M57 753h179v-314c28 55 84 98 172 98c101 0 171 -64 171 -197v-340h-179v304c0 60 -23 88 -75 88c-53 0 -89 -31 -89 -99v-293h-179v753zM221 938h150l110 -146h-130l-59 49l-58 -49h-127z" />
    <glyph glyph-name="Hbar" unicode="&#x126;" horiz-adv-x="792" 
d="M13 617h60v98h206v-98h235v98h205v-98h60v-96h-60v-521h-205v282h-235v-282h-206v521h-60v96zM514 442v79h-235v-79h235z" />
    <glyph glyph-name="hbar" unicode="&#x127;" horiz-adv-x="632" 
d="M0 683h57v70h179v-70h155v-96h-155v-148c28 55 84 98 172 98c101 0 171 -64 171 -197v-340h-179v304c0 60 -23 88 -75 88c-53 0 -89 -31 -89 -99v-293h-179v587h-57v96z" />
    <glyph glyph-name="Itilde" unicode="&#x128;" horiz-adv-x="360" 
d="M77 715h207v-715h-207v715zM246 758c-28 0 -51 9 -70 17s-34 17 -50 17s-28 -14 -31 -33h-102c4 52 18 91 41 116c21 25 50 37 81 37c27 0 49 -8 69 -16c19 -9 36 -17 52 -17c19 0 28 13 32 32h101c-4 -52 -20 -91 -41 -116c-23 -25 -53 -37 -82 -37z" />
    <glyph glyph-name="itilde" unicode="&#x129;" horiz-adv-x="303" 
d="M62 523h179v-523h-179v523zM216 587c-28 0 -49 8 -68 17c-19 8 -33 16 -49 16s-28 -13 -31 -32h-97c7 105 52 156 115 156c27 0 48 -9 68 -17c19 -8 35 -17 51 -17c19 0 28 13 32 32h97c-8 -104 -58 -155 -118 -155z" />
    <glyph glyph-name="Imacron" unicode="&#x12a;" horiz-adv-x="360" 
d="M77 715h207v-715h-207v715zM19 878h322v-107h-322v107z" />
    <glyph glyph-name="imacron" unicode="&#x12b;" horiz-adv-x="303" 
d="M29 712h245v-100h-245v100zM62 523h179v-523h-179v523z" />
    <glyph glyph-name="Ibreve" unicode="&#x12c;" horiz-adv-x="360" 
d="M77 715h207v-715h-207v715zM180 752c-99 0 -158 57 -165 153h116c3 -28 20 -46 49 -46s48 18 52 46h115c-8 -96 -71 -153 -167 -153z" />
    <glyph glyph-name="ibreve" unicode="&#x12d;" horiz-adv-x="303" 
d="M62 523h179v-523h-179v523zM151 587c-96 0 -158 57 -163 158h111c3 -31 20 -48 52 -48s51 19 54 48h111c-7 -101 -72 -158 -165 -158z" />
    <glyph glyph-name="Iogonek" unicode="&#x12e;" horiz-adv-x="360" 
d="M197 -182c-76 0 -123 32 -123 81c0 24 11 45 27 61s38 29 58 40h-82v715h207v-703c-35 -24 -55 -49 -55 -72c0 -17 10 -26 30 -26c11 0 21 1 29 5v-85c-19 -8 -48 -16 -91 -16z" />
    <glyph glyph-name="iogonek" unicode="&#x12f;" horiz-adv-x="303" 
d="M158 -182c-72 0 -116 30 -116 81c0 25 11 46 27 62s38 28 59 39h-66v523h179v-514c-40 -29 -54 -49 -54 -72c0 -19 11 -28 31 -28c12 0 21 2 30 5v-80c-19 -8 -43 -16 -90 -16zM151 573c-56 0 -98 39 -98 92s42 93 98 93s99 -40 99 -93s-43 -92 -99 -92z" />
    <glyph glyph-name="Idotaccent" unicode="&#x130;" horiz-adv-x="360" 
d="M77 715h207v-715h-207v715zM181 757c-55 0 -95 38 -95 90c0 51 40 89 95 89s95 -38 95 -89c0 -52 -40 -90 -95 -90z" />
    <glyph glyph-name="dotlessi" unicode="&#x131;" horiz-adv-x="303" 
d="M62 523h179v-523h-179v523z" />
    <glyph glyph-name="IJ" unicode="&#x132;" horiz-adv-x="812" 
d="M77 715h207v-715h-207v715zM492 -9c-68 0 -101 9 -130 24v153c24 -8 46 -14 87 -14c56 0 93 24 93 99v462h206v-464c0 -173 -87 -260 -256 -260z" />
    <glyph glyph-name="ij" unicode="&#x133;" horiz-adv-x="303" 
d="M62 523h179v-523h-179v523zM151 573c-56 0 -98 39 -98 92s42 93 98 93s99 -40 99 -93s-43 -92 -99 -92zM293 -54c44 3 64 21 64 62v515h178v-519c0 -56 -13 -104 -50 -137c-37 -32 -97 -51 -192 -51v130zM446 573c-56 0 -98 39 -98 92s42 93 98 93s99 -40 99 -93
s-43 -92 -99 -92z" />
    <glyph glyph-name="Jcircumflex" unicode="&#x134;" horiz-adv-x="486" 
d="M167 -9c-68 0 -101 9 -130 24v153c24 -8 46 -14 87 -14c56 0 93 24 93 99v462h206v-464c0 -173 -87 -260 -256 -260zM246 905h150l110 -146h-130l-59 49l-58 -49h-127z" />
    <glyph glyph-name="jcircumflex" unicode="&#x135;" horiz-adv-x="303" 
d="M-2 -54c44 3 64 21 64 62v515h178v-519c0 -56 -13 -104 -50 -137c-37 -32 -97 -51 -192 -51v130zM89 748h128l118 -163h-125l-61 56l-60 -56h-123z" />
    <glyph glyph-name="uni0136" unicode="&#x136;" horiz-adv-x="726" 
d="M73 715h206v-283l215 283h214l-262 -332l276 -383h-237l-206 299v-299h-206v715zM261 -205l42 177l158 -19l-99 -185z" />
    <glyph glyph-name="uni0137" unicode="&#x137;" horiz-adv-x="577" 
d="M57 753h179v-437l141 207h186l-171 -235l185 -288h-200l-141 229v-229h-179v753zM189 -205l42 177l158 -19l-99 -185z" />
    <glyph glyph-name="Lacute" unicode="&#x139;" horiz-adv-x="583" 
d="M73 715h206v-556h270v-159h-476v715zM154 905h187l-103 -146h-135z" />
    <glyph glyph-name="lacute" unicode="&#x13a;" horiz-adv-x="302" 
d="M62 753h178v-753h-178v753zM135 938h187l-103 -146h-135z" />
    <glyph glyph-name="uni013B" unicode="&#x13b;" horiz-adv-x="575" 
d="M73 715h206v-556h270v-159h-476v715zM192 -205l42 177l158 -19l-99 -185z" />
    <glyph glyph-name="uni013C" unicode="&#x13c;" horiz-adv-x="294" 
d="M62 753h178v-753h-178v753zM36 -205l42 177l158 -19l-99 -185z" />
    <glyph glyph-name="Lcaron" unicode="&#x13d;" horiz-adv-x="583" 
d="M364 715h148l-61 -176h-103zM73 715h206v-556h270v-159h-476v715z" />
    <glyph glyph-name="lcaron" unicode="&#x13e;" horiz-adv-x="302" 
d="M62 753h178v-753h-178v753zM285 753h133l-49 -174h-93z" />
    <glyph glyph-name="Ldot" unicode="&#x13f;" horiz-adv-x="609" 
d="M73 715h206v-556h270v-159h-476v715zM478 299c-29 0 -56 11 -73 30c-19 17 -29 43 -29 71s10 53 29 72c17 17 44 29 73 29s56 -12 75 -29c19 -19 30 -44 30 -72s-11 -54 -30 -71c-19 -19 -46 -30 -75 -30z" />
    <glyph glyph-name="ldot" unicode="&#x140;" horiz-adv-x="463" 
d="M62 753h178v-753h-178v753zM376 258c-29 0 -56 11 -73 30c-19 17 -29 43 -29 71s10 53 29 72c17 17 44 29 73 29s56 -12 75 -29c19 -19 30 -44 30 -72s-11 -54 -30 -71c-19 -19 -46 -30 -75 -30z" />
    <glyph glyph-name="Lslash" unicode="&#x141;" horiz-adv-x="601" 
d="M29 337l63 22v356h205v-285l180 63v-109l-180 -62v-163h271v-159h-476v251l-63 -22v108z" />
    <glyph glyph-name="lslash" unicode="&#x142;" horiz-adv-x="341" 
d="M21 376l61 29v348h178v-261l64 31v-116l-64 -31v-376h-178v290l-61 -29v115z" />
    <glyph glyph-name="Nacute" unicode="&#x143;" horiz-adv-x="785" 
d="M73 715h231l229 -403v403h179v-715h-198l-261 449v-449h-180v715zM385 905h187l-103 -146h-135z" />
    <glyph glyph-name="nacute" unicode="&#x144;" horiz-adv-x="632" 
d="M57 523h179v-84c28 55 84 98 172 98c101 0 171 -64 171 -197v-340h-179v304c0 60 -23 88 -75 88c-53 0 -89 -31 -89 -99v-293h-179v523zM301 749h180l-105 -166h-128z" />
    <glyph glyph-name="uni0145" unicode="&#x145;" horiz-adv-x="777" 
d="M73 715h231l229 -403v403h179v-715h-198l-261 449v-449h-180v715zM272 -205l42 177l158 -19l-99 -185z" />
    <glyph glyph-name="uni0146" unicode="&#x146;" horiz-adv-x="624" 
d="M57 523h179v-84c28 55 84 98 172 98c101 0 171 -64 171 -197v-340h-179v304c0 60 -23 88 -75 88c-53 0 -89 -31 -89 -99v-293h-179v523zM201 -205l42 177l158 -19l-99 -185z" />
    <glyph glyph-name="Ncaron" unicode="&#x147;" horiz-adv-x="785" 
d="M73 715h231l229 -403v403h179v-715h-198l-261 449v-449h-180v715zM222 905h130l58 -49l59 49h127l-114 -146h-150z" />
    <glyph glyph-name="ncaron" unicode="&#x148;" horiz-adv-x="632" 
d="M57 523h179v-84c28 55 84 98 172 98c101 0 171 -64 171 -197v-340h-179v304c0 60 -23 88 -75 88c-53 0 -89 -31 -89 -99v-293h-179v523zM132 748h125l61 -56l61 56h122l-123 -163h-127z" />
    <glyph glyph-name="napostrophe" unicode="&#x149;" horiz-adv-x="751" 
d="M175 523h179v-84c28 55 84 98 172 98c101 0 171 -64 171 -197v-340h-179v304c0 60 -23 88 -75 88c-53 0 -89 -31 -89 -99v-293h-179v523zM-27 467l80 261l158 -53l-137 -247z" />
    <glyph glyph-name="Eng" unicode="&#x14a;" horiz-adv-x="785" 
d="M471 -192c-63 0 -94 8 -123 23v145c23 -8 41 -14 78 -14c43 0 74 17 81 54l-249 450v-466h-185v715h234l221 -412v412h184v-692c0 -65 -21 -119 -61 -156s-100 -59 -180 -59z" />
    <glyph glyph-name="eng" unicode="&#x14b;" horiz-adv-x="632" 
d="M337 -54c44 3 63 21 63 62v296c0 60 -23 88 -75 88c-53 0 -89 -31 -89 -99v-293h-179v523h179v-84c28 55 84 98 172 98c101 0 171 -64 171 -197v-336c0 -56 -13 -104 -50 -137c-37 -32 -97 -51 -192 -51v130z" />
    <glyph glyph-name="Omacron" unicode="&#x14c;" horiz-adv-x="827" 
d="M414 149c101 0 164 77 164 206v8c0 128 -64 202 -165 202s-164 -72 -164 -203v-8c0 -131 65 -205 165 -205zM410 -12c-116 0 -209 38 -274 102s-101 155 -101 263v8c0 109 41 200 109 264s162 100 269 100c109 0 204 -35 272 -96c67 -63 107 -152 107 -263v-8
c0 -111 -37 -203 -104 -267c-67 -65 -162 -103 -278 -103zM251 878h322v-107h-322v107z" />
    <glyph glyph-name="omacron" unicode="&#x14d;" horiz-adv-x="630" 
d="M316 121c68 0 103 49 103 137v8c0 88 -35 137 -103 137s-104 -47 -104 -135v-8c0 -91 35 -139 104 -139zM315 -12c-80 0 -152 25 -203 70c-52 45 -83 113 -83 197v8c0 84 31 152 83 200c51 48 123 74 204 74c80 0 152 -25 203 -72s82 -114 82 -197v-8
c0 -85 -31 -153 -82 -200c-52 -47 -124 -72 -204 -72zM161 712h307v-100h-307v100z" />
    <glyph glyph-name="Obreve" unicode="&#x14e;" horiz-adv-x="827" 
d="M414 149c101 0 164 77 164 206v8c0 128 -64 202 -165 202s-164 -72 -164 -203v-8c0 -131 65 -205 165 -205zM410 -12c-116 0 -209 38 -274 102s-101 155 -101 263v8c0 109 41 200 109 264s162 100 269 100c109 0 204 -35 272 -96c67 -63 107 -152 107 -263v-8
c0 -111 -37 -203 -104 -267c-67 -65 -162 -103 -278 -103zM411 752c-99 0 -158 57 -165 153h116c3 -28 20 -46 49 -46s48 18 52 46h115c-8 -96 -71 -153 -167 -153z" />
    <glyph glyph-name="obreve" unicode="&#x14f;" horiz-adv-x="630" 
d="M316 121c68 0 103 49 103 137v8c0 88 -35 137 -103 137s-104 -47 -104 -135v-8c0 -91 35 -139 104 -139zM315 -12c-80 0 -152 25 -203 70c-52 45 -83 113 -83 197v8c0 84 31 152 83 200c51 48 123 74 204 74c80 0 152 -25 203 -72s82 -114 82 -197v-8
c0 -85 -31 -153 -82 -200c-52 -47 -124 -72 -204 -72zM314 587c-96 0 -158 57 -163 158h111c3 -31 20 -48 52 -48s51 19 54 48h111c-7 -101 -72 -158 -165 -158z" />
    <glyph glyph-name="Ohungarumlaut" unicode="&#x150;" horiz-adv-x="827" 
d="M414 149c101 0 164 77 164 206v8c0 128 -64 202 -165 202s-164 -72 -164 -203v-8c0 -131 65 -205 165 -205zM410 -12c-116 0 -209 38 -274 102s-101 155 -101 263v8c0 109 41 200 109 264s162 100 269 100c109 0 204 -35 272 -96c67 -63 107 -152 107 -263v-8
c0 -111 -37 -203 -104 -267c-67 -65 -162 -103 -278 -103zM284 905h153l-74 -146h-120zM478 905h154l-75 -146h-120z" />
    <glyph glyph-name="ohungarumlaut" unicode="&#x151;" horiz-adv-x="630" 
d="M316 121c68 0 103 49 103 137v8c0 88 -35 137 -103 137s-104 -47 -104 -135v-8c0 -91 35 -139 104 -139zM315 -12c-80 0 -152 25 -203 70c-52 45 -83 113 -83 197v8c0 84 31 152 83 200c51 48 123 74 204 74c80 0 152 -25 203 -72s82 -114 82 -197v-8
c0 -85 -31 -153 -82 -200c-52 -47 -124 -72 -204 -72zM205 749h140l-77 -166h-107zM382 749h140l-77 -166h-106z" />
    <glyph glyph-name="OE" unicode="&#x152;" horiz-adv-x="987" 
d="M35 357c0 112 33 200 98 263c64 61 160 95 284 95h517v-158h-275v-123h216v-146h-216v-130h291v-158h-533c-252 0 -382 126 -382 349v8zM424 557c-123 0 -175 -64 -175 -197v-8c0 -136 53 -194 176 -194h31v399h-32z" />
    <glyph glyph-name="oe" unicode="&#x153;" horiz-adv-x="993" 
d="M315 -12c-80 0 -152 25 -203 70c-52 45 -83 113 -83 197v8c0 84 31 152 83 200c51 48 123 74 204 74s146 -28 193 -79c47 51 111 79 190 79c72 0 138 -21 187 -65c48 -44 79 -112 79 -205v-47h-368c5 -69 45 -109 109 -109c60 0 84 27 91 62h168
c-16 -119 -106 -185 -265 -185c-83 0 -148 25 -195 76c-45 -49 -110 -76 -190 -76zM316 121c68 0 103 49 103 137v8c0 88 -35 137 -103 137s-104 -47 -104 -135v-8c0 -91 35 -139 104 -139zM791 321c-3 64 -33 98 -92 98c-55 0 -91 -34 -100 -98h192z" />
    <glyph glyph-name="Racute" unicode="&#x154;" horiz-adv-x="705" 
d="M73 715h280c188 0 291 -75 291 -227v-4c0 -103 -54 -159 -129 -188l171 -296h-216l-145 256h-48v-256h-204v715zM343 389c69 0 103 30 103 87v4c0 59 -35 81 -102 81h-67v-172h66zM316 905h187l-103 -146h-135z" />
    <glyph glyph-name="racute" unicode="&#x155;" horiz-adv-x="436" 
d="M57 523h179v-104c33 79 88 112 169 111v-167c-109 3 -169 -31 -169 -115v-248h-179v523zM222 749h180l-105 -166h-128z" />
    <glyph glyph-name="uni0156" unicode="&#x156;" horiz-adv-x="697" 
d="M73 715h280c188 0 291 -75 291 -227v-4c0 -103 -54 -159 -129 -188l171 -296h-216l-145 256h-48v-256h-204v715zM343 389c69 0 103 30 103 87v4c0 59 -35 81 -102 81h-67v-172h66zM254 -205l42 177l158 -19l-99 -185z" />
    <glyph glyph-name="uni0157" unicode="&#x157;" horiz-adv-x="428" 
d="M57 523h179v-104c33 79 88 112 169 111v-167c-109 3 -169 -31 -169 -115v-248h-179v523zM34 -205l42 177l158 -19l-99 -185z" />
    <glyph glyph-name="Rcaron" unicode="&#x158;" horiz-adv-x="705" 
d="M73 715h280c188 0 291 -75 291 -227v-4c0 -103 -54 -159 -129 -188l171 -296h-216l-145 256h-48v-256h-204v715zM343 389c69 0 103 30 103 87v4c0 59 -35 81 -102 81h-67v-172h66zM153 905h130l58 -49l59 49h127l-114 -146h-150z" />
    <glyph glyph-name="rcaron" unicode="&#x159;" horiz-adv-x="436" 
d="M57 523h179v-104c33 79 88 112 169 111v-167c-109 3 -169 -31 -169 -115v-248h-179v523zM53 748h125l61 -56l61 56h122l-123 -163h-127z" />
    <glyph glyph-name="Sacute" unicode="&#x15a;" horiz-adv-x="655" 
d="M335 -12c-201 0 -301 83 -308 239h195c3 -25 10 -49 27 -65c16 -17 43 -28 86 -28c60 0 92 28 92 71c0 21 -7 36 -24 47c-17 9 -46 15 -89 22c-101 12 -169 33 -210 69c-43 36 -60 87 -60 159c0 64 26 120 74 160s118 63 203 63c173 0 269 -71 282 -223h-190
c-7 51 -36 77 -92 77s-83 -25 -83 -61c0 -20 6 -34 23 -45c16 -12 44 -20 88 -25c91 -11 158 -27 205 -60c45 -35 69 -85 69 -162c0 -65 -26 -125 -75 -168s-121 -70 -213 -70zM300 905h187l-103 -146h-135z" />
    <glyph glyph-name="sacute" unicode="&#x15b;" horiz-adv-x="523" 
d="M262 -12c-149 0 -236 61 -240 178h165c7 -39 23 -59 74 -59c44 0 64 16 64 43c0 25 -25 36 -97 47c-71 9 -120 23 -152 50c-32 25 -47 63 -47 118c0 57 26 101 67 130c40 28 97 42 157 42c64 0 119 -11 159 -38s65 -68 72 -131h-162c-7 35 -26 52 -67 52
c-39 0 -59 -17 -59 -41c0 -25 24 -35 88 -43c72 -9 126 -23 162 -48c36 -27 53 -64 53 -120c0 -124 -92 -180 -237 -180zM244 749h180l-105 -166h-128z" />
    <glyph glyph-name="Scircumflex" unicode="&#x15c;" horiz-adv-x="655" 
d="M335 -12c-201 0 -301 83 -308 239h195c3 -25 10 -49 27 -65c16 -17 43 -28 86 -28c60 0 92 28 92 71c0 21 -7 36 -24 47c-17 9 -46 15 -89 22c-101 12 -169 33 -210 69c-43 36 -60 87 -60 159c0 64 26 120 74 160s118 63 203 63c173 0 269 -71 282 -223h-190
c-7 51 -36 77 -92 77s-83 -25 -83 -61c0 -20 6 -34 23 -45c16 -12 44 -20 88 -25c91 -11 158 -27 205 -60c45 -35 69 -85 69 -162c0 -65 -26 -125 -75 -168s-121 -70 -213 -70zM252 905h150l110 -146h-130l-59 49l-58 -49h-127z" />
    <glyph glyph-name="scircumflex" unicode="&#x15d;" horiz-adv-x="523" 
d="M262 -12c-149 0 -236 61 -240 178h165c7 -39 23 -59 74 -59c44 0 64 16 64 43c0 25 -25 36 -97 47c-71 9 -120 23 -152 50c-32 25 -47 63 -47 118c0 57 26 101 67 130c40 28 97 42 157 42c64 0 119 -11 159 -38s65 -68 72 -131h-162c-7 35 -26 52 -67 52
c-39 0 -59 -17 -59 -41c0 -25 24 -35 88 -43c72 -9 126 -23 162 -48c36 -27 53 -64 53 -120c0 -124 -92 -180 -237 -180zM196 748h128l118 -163h-125l-61 56l-60 -56h-123z" />
    <glyph glyph-name="uni015E" unicode="&#x15e;" horiz-adv-x="647" 
d="M305 -226c-72 0 -118 33 -127 93h84c4 -15 13 -28 36 -28c20 0 32 13 32 30c0 19 -12 31 -33 31c-16 0 -25 -6 -32 -11l-39 38l42 64c-160 16 -240 97 -245 236h195c5 -51 28 -93 113 -93c60 0 92 28 92 71c0 45 -27 56 -113 69c-202 24 -270 84 -270 228
c0 129 105 223 277 223c173 0 269 -71 282 -223h-190c-7 51 -36 77 -92 77s-83 -25 -83 -61c0 -39 23 -59 111 -70c180 -21 274 -67 274 -222c0 -130 -103 -235 -282 -238l-22 -33c59 5 111 -21 111 -86c0 -60 -48 -95 -121 -95z" />
    <glyph glyph-name="uni015F" unicode="&#x15f;" horiz-adv-x="515" 
d="M240 -226c-72 0 -118 33 -127 93h84c4 -15 13 -28 36 -28c20 0 32 13 32 30c0 19 -12 31 -33 31c-16 0 -25 -6 -32 -11l-39 38l42 64c-117 15 -182 74 -185 175h165c7 -39 23 -59 74 -59c44 0 64 16 64 43c0 25 -25 36 -97 47c-140 19 -199 58 -199 168
c0 116 103 172 224 172c129 0 218 -45 231 -169h-162c-7 35 -26 52 -67 52c-39 0 -59 -17 -59 -41c0 -25 24 -35 88 -43c145 -19 215 -55 215 -168c0 -120 -86 -176 -222 -180l-23 -33c59 5 111 -21 111 -86c0 -60 -48 -95 -121 -95z" />
    <glyph glyph-name="Scaron" unicode="&#x160;" horiz-adv-x="655" 
d="M335 -12c-201 0 -301 83 -308 239h195c3 -25 10 -49 27 -65c16 -17 43 -28 86 -28c60 0 92 28 92 71c0 21 -7 36 -24 47c-17 9 -46 15 -89 22c-101 12 -169 33 -210 69c-43 36 -60 87 -60 159c0 64 26 120 74 160s118 63 203 63c173 0 269 -71 282 -223h-190
c-7 51 -36 77 -92 77s-83 -25 -83 -61c0 -20 6 -34 23 -45c16 -12 44 -20 88 -25c91 -11 158 -27 205 -60c45 -35 69 -85 69 -162c0 -65 -26 -125 -75 -168s-121 -70 -213 -70zM137 905h130l58 -49l59 49h127l-114 -146h-150z" />
    <glyph glyph-name="scaron" unicode="&#x161;" horiz-adv-x="523" 
d="M262 -12c-149 0 -236 61 -240 178h165c7 -39 23 -59 74 -59c44 0 64 16 64 43c0 25 -25 36 -97 47c-71 9 -120 23 -152 50c-32 25 -47 63 -47 118c0 57 26 101 67 130c40 28 97 42 157 42c64 0 119 -11 159 -38s65 -68 72 -131h-162c-7 35 -26 52 -67 52
c-39 0 -59 -17 -59 -41c0 -25 24 -35 88 -43c72 -9 126 -23 162 -48c36 -27 53 -64 53 -120c0 -124 -92 -180 -237 -180zM70 748h125l61 -56l61 56h122l-123 -163h-127z" />
    <glyph glyph-name="Tcommaaccent" unicode="&#x162;" horiz-adv-x="626" 
d="M210 557h-185v158h576v-158h-185v-557h-206v557zM196 -205l42 177l158 -19l-99 -185z" />
    <glyph glyph-name="tcommaaccent" unicode="&#x163;" horiz-adv-x="397" 
d="M265 -12c-119 0 -184 56 -184 180v233h-63v122h63v109h179v-109h103v-122h-103v-216c0 -36 18 -55 53 -55c20 0 35 2 51 9v-136c-23 -7 -56 -15 -99 -15zM98 -205l42 177l158 -19l-99 -185z" />
    <glyph glyph-name="Tcaron" unicode="&#x164;" horiz-adv-x="626" 
d="M210 557h-185v158h576v-158h-185v-557h-206v557zM124 905h130l58 -49l59 49h127l-114 -146h-150z" />
    <glyph glyph-name="tcaron" unicode="&#x165;" horiz-adv-x="397" 
d="M265 -12c-119 0 -184 56 -184 180v233h-63v122h63v109h179v-109h103v-122h-103v-216c0 -36 18 -55 53 -55c20 0 35 2 51 9v-136c-23 -7 -56 -15 -99 -15zM314 753h133l-49 -174h-93z" />
    <glyph glyph-name="Tbar" unicode="&#x166;" horiz-adv-x="626" 
d="M84 407h126v150h-185v158h576v-158h-185v-150h126v-128h-126v-279h-206v279h-126v128z" />
    <glyph glyph-name="tbar" unicode="&#x167;" horiz-adv-x="397" 
d="M18 332h63v69h-63v122h63v109h179v-109h103v-122h-103v-69h103v-99h-103v-48c0 -36 18 -55 53 -55c20 0 35 2 51 9v-136c-23 -7 -56 -15 -99 -15c-119 0 -184 56 -184 180v65h-63v99z" />
    <glyph glyph-name="Utilde" unicode="&#x168;" horiz-adv-x="772" 
d="M385 -12c-203 0 -317 101 -317 302v425h205v-416c0 -101 25 -150 112 -150c85 0 112 45 112 153v413h207v-422c0 -104 -30 -181 -85 -230c-56 -51 -135 -75 -234 -75zM449 758c-28 0 -51 9 -70 17s-34 17 -50 17s-28 -14 -31 -33h-102c4 52 18 91 41 116
c21 25 50 37 81 37c27 0 49 -8 69 -16c19 -9 36 -17 52 -17c19 0 28 13 32 32h101c-4 -52 -20 -91 -41 -116c-23 -25 -53 -37 -82 -37z" />
    <glyph glyph-name="utilde" unicode="&#x169;" horiz-adv-x="631" 
d="M229 -12c-51 0 -94 15 -125 47c-32 32 -51 80 -51 147v341h179v-312c0 -59 25 -88 74 -88c55 0 89 31 89 99v301h179v-523h-179v81c-28 -55 -78 -93 -166 -93zM378 587c-28 0 -49 8 -68 17c-19 8 -33 16 -49 16s-28 -13 -31 -32h-97c7 105 52 156 115 156
c27 0 48 -9 68 -17c19 -8 35 -17 51 -17c19 0 28 13 32 32h97c-8 -104 -58 -155 -118 -155z" />
    <glyph glyph-name="Umacron" unicode="&#x16a;" horiz-adv-x="772" 
d="M385 -12c-203 0 -317 101 -317 302v425h205v-416c0 -101 25 -150 112 -150c85 0 112 45 112 153v413h207v-422c0 -104 -30 -181 -85 -230c-56 -51 -135 -75 -234 -75zM223 878h322v-107h-322v107z" />
    <glyph glyph-name="umacron" unicode="&#x16b;" horiz-adv-x="631" 
d="M229 -12c-51 0 -94 15 -125 47c-32 32 -51 80 -51 147v341h179v-312c0 -59 25 -88 74 -88c55 0 89 31 89 99v301h179v-523h-179v81c-28 -55 -78 -93 -166 -93zM160 712h307v-100h-307v100z" />
    <glyph glyph-name="Ubreve" unicode="&#x16c;" horiz-adv-x="772" 
d="M385 -12c-203 0 -317 101 -317 302v425h205v-416c0 -101 25 -150 112 -150c85 0 112 45 112 153v413h207v-422c0 -104 -30 -181 -85 -230c-56 -51 -135 -75 -234 -75zM383 752c-99 0 -158 57 -165 153h116c3 -28 20 -46 49 -46s48 18 52 46h115
c-8 -96 -71 -153 -167 -153z" />
    <glyph glyph-name="ubreve" unicode="&#x16d;" horiz-adv-x="631" 
d="M229 -12c-51 0 -94 15 -125 47c-32 32 -51 80 -51 147v341h179v-312c0 -59 25 -88 74 -88c55 0 89 31 89 99v301h179v-523h-179v81c-28 -55 -78 -93 -166 -93zM313 587c-96 0 -158 57 -163 158h111c3 -31 20 -48 52 -48s51 19 54 48h111c-7 -101 -72 -158 -165 -158z" />
    <glyph glyph-name="Uring" unicode="&#x16e;" horiz-adv-x="772" 
d="M385 -12c-203 0 -317 101 -317 302v425h205v-416c0 -101 25 -150 112 -150c85 0 112 45 112 153v413h207v-422c0 -104 -30 -181 -85 -230c-56 -51 -135 -75 -234 -75zM384 790c27 0 46 21 46 50c0 31 -19 50 -46 50c-28 0 -46 -19 -46 -50c0 -29 18 -50 46 -50zM384 724
c-33 0 -63 14 -84 35c-23 20 -36 49 -36 81s13 61 36 82c21 21 51 34 84 34s62 -13 85 -34c21 -21 35 -50 35 -82s-14 -61 -35 -81c-23 -21 -52 -35 -85 -35z" />
    <glyph glyph-name="uring" unicode="&#x16f;" horiz-adv-x="631" 
d="M229 -12c-51 0 -94 15 -125 47c-32 32 -51 80 -51 147v341h179v-312c0 -59 25 -88 74 -88c55 0 89 31 89 99v301h179v-523h-179v81c-28 -55 -78 -93 -166 -93zM313 619c27 0 46 21 46 50c0 31 -19 51 -46 51s-46 -20 -46 -51c0 -29 19 -50 46 -50zM313 555
c-32 0 -62 13 -83 34c-21 20 -35 48 -35 80s14 60 35 81s51 34 83 34s62 -13 83 -34s35 -49 35 -81s-14 -60 -35 -80c-21 -21 -51 -34 -83 -34z" />
    <glyph glyph-name="Uhungarumlaut" unicode="&#x170;" horiz-adv-x="772" 
d="M385 -12c-203 0 -317 101 -317 302v425h205v-416c0 -101 25 -150 112 -150c85 0 112 45 112 153v413h207v-422c0 -104 -30 -181 -85 -230c-56 -51 -135 -75 -234 -75zM256 905h153l-74 -146h-120zM450 905h154l-75 -146h-120z" />
    <glyph glyph-name="uhungarumlaut" unicode="&#x171;" horiz-adv-x="631" 
d="M229 -12c-51 0 -94 15 -125 47c-32 32 -51 80 -51 147v341h179v-312c0 -59 25 -88 74 -88c55 0 89 31 89 99v301h179v-523h-179v81c-28 -55 -78 -93 -166 -93zM204 749h140l-77 -166h-107zM381 749h140l-77 -166h-106z" />
    <glyph glyph-name="Uogonek" unicode="&#x172;" horiz-adv-x="772" 
d="M424 -182c-75 0 -120 31 -120 80c0 41 31 70 64 90c-193 7 -300 106 -300 302v425h205v-416c0 -101 25 -150 112 -150c85 0 112 45 112 153v413h207v-422c0 -144 -58 -232 -154 -276c-24 -11 -48 -21 -65 -33c-17 -11 -28 -24 -28 -43s11 -27 31 -27c12 0 21 2 30 5v-85
c-19 -8 -49 -16 -94 -16z" />
    <glyph glyph-name="uogonek" unicode="&#x173;" horiz-adv-x="631" 
d="M489 -182c-72 0 -116 30 -116 81c0 25 11 46 27 62s38 28 59 39h-64v81c-28 -55 -78 -93 -166 -93c-51 0 -94 15 -125 47c-32 32 -51 80 -51 147v341h179v-312c0 -59 25 -88 74 -88c55 0 89 31 89 99v301h179v-511c-41 -31 -55 -52 -55 -75c0 -19 11 -28 30 -28
c12 0 21 2 30 5v-80c-19 -8 -46 -16 -90 -16z" />
    <glyph glyph-name="Wcircumflex" unicode="&#x174;" horiz-adv-x="1004" 
d="M18 715h207l92 -446l96 446h182l104 -450l97 450h190l-167 -715h-214l-110 454l-111 -454h-200zM430 905h150l110 -146h-130l-59 49l-58 -49h-127z" />
    <glyph glyph-name="wcircumflex" unicode="&#x175;" horiz-adv-x="853" 
d="M13 523h187l76 -313l88 313h144l78 -313l85 313h170l-166 -523h-171l-78 292l-81 -292h-174zM364 748h128l118 -163h-125l-61 56l-60 -56h-123z" />
    <glyph glyph-name="Ycircumflex" unicode="&#x176;" horiz-adv-x="685" 
d="M245 306l-233 409h223l121 -241l121 241h196l-222 -409v-306h-206v306zM276 905h150l110 -146h-130l-59 49l-58 -49h-127z" />
    <glyph glyph-name="ycircumflex" unicode="&#x177;" horiz-adv-x="597" 
d="M221 53l-209 470h194l108 -279l100 279h171l-280 -698h-171zM244 748h128l118 -163h-125l-61 56l-60 -56h-123z" />
    <glyph glyph-name="Ydieresis" unicode="&#x178;" horiz-adv-x="685" 
d="M245 306l-233 409h223l121 -241l121 241h196l-222 -409v-306h-206v306zM237 758c-24 0 -45 9 -60 24c-16 15 -25 36 -25 59c0 47 38 84 85 84c48 0 86 -37 86 -84s-38 -83 -86 -83zM460 758c-48 0 -85 36 -85 83s37 84 85 84s86 -37 86 -84s-38 -83 -86 -83z" />
    <glyph glyph-name="Zacute" unicode="&#x179;" horiz-adv-x="635" 
d="M17 23l304 535h-265v157h556v-22l-300 -535h285v-158h-580v23zM300 905h187l-103 -146h-135z" />
    <glyph glyph-name="zacute" unicode="&#x17a;" horiz-adv-x="516" 
d="M14 18l229 370h-205v135h461v-19l-235 -369h223v-135h-473v18zM248 749h180l-105 -166h-128z" />
    <glyph glyph-name="Zdotaccent" unicode="&#x17b;" horiz-adv-x="635" 
d="M17 23l304 535h-265v157h556v-22l-300 -535h285v-158h-580v23zM326 757c-55 0 -95 38 -95 90c0 51 40 89 95 89s95 -38 95 -89c0 -52 -40 -90 -95 -90z" />
    <glyph glyph-name="zdotaccent" unicode="&#x17c;" horiz-adv-x="516" 
d="M14 18l229 370h-205v135h461v-19l-235 -369h223v-135h-473v18zM265 579c-56 0 -96 38 -96 90c0 51 41 89 96 89s95 -38 95 -89c0 -52 -40 -90 -95 -90z" />
    <glyph glyph-name="Zcaron" unicode="&#x17d;" horiz-adv-x="635" 
d="M17 23l304 535h-265v157h556v-22l-300 -535h285v-158h-580v23zM137 905h130l58 -49l59 49h127l-114 -146h-150z" />
    <glyph glyph-name="zcaron" unicode="&#x17e;" horiz-adv-x="516" 
d="M14 18l229 370h-205v135h461v-19l-235 -369h223v-135h-473v18zM79 748h125l61 -56l61 56h122l-123 -163h-127z" />
    <glyph glyph-name="uni0192" unicode="&#x192;" horiz-adv-x="447" 
d="M23 414h90l18 125c19 132 101 186 221 186c33 0 53 -4 78 -11v-134c-15 4 -28 7 -51 7c-41 0 -65 -21 -71 -63l-16 -110h113v-121h-130l-68 -475h-178l67 475h-73v121z" />
    <glyph glyph-name="Aringacute" unicode="&#x1fa;" horiz-adv-x="755" 
d="M246 715h265l227 -715h-217l-38 133h-237l-38 -133h-191zM286 274h157l-78 275zM379 807c27 0 46 21 46 50c0 31 -19 50 -46 50c-28 0 -46 -19 -46 -50c0 -29 18 -50 46 -50zM379 741c-33 0 -63 14 -84 35c-23 20 -36 49 -36 81s13 61 36 82c21 21 51 34 84 34
s62 -13 85 -34c21 -21 35 -50 35 -82s-14 -61 -35 -81c-23 -21 -52 -35 -85 -35zM361 1137h187l-103 -146h-135z" />
    <glyph glyph-name="aringacute" unicode="&#x1fb;" horiz-adv-x="586" 
d="M204 -12c-47 0 -91 12 -123 37c-33 25 -54 64 -54 120c0 123 103 171 278 171h50v12c0 51 -12 83 -69 83c-49 0 -67 -29 -71 -62h-168c4 63 31 110 75 142c43 31 103 46 175 46s131 -15 172 -47s64 -82 64 -151v-339h-174v61c-25 -39 -71 -73 -155 -73zM266 109
c51 0 89 29 89 74v32h-47c-72 0 -104 -14 -104 -57c0 -31 19 -49 62 -49zM296 636c27 0 46 21 46 50c0 31 -19 51 -46 51s-46 -20 -46 -51c0 -29 19 -50 46 -50zM296 572c-32 0 -62 13 -83 34c-21 20 -35 48 -35 80s14 60 35 81s51 34 83 34s62 -13 83 -34s35 -49 35 -81
s-14 -60 -35 -80c-21 -21 -51 -34 -83 -34zM284 975h187l-103 -146h-135z" />
    <glyph glyph-name="AEacute" unicode="&#x1fc;" horiz-adv-x="1010" 
d="M336 715h622v-158h-283v-123h223v-146h-223v-130h299v-158h-504v146h-197l-63 -146h-195zM332 284h138v273h-20zM592 905h187l-103 -146h-135z" />
    <glyph glyph-name="aeacute" unicode="&#x1fd;" horiz-adv-x="916" 
d="M631 -12c-93 0 -162 31 -203 91c-43 -57 -104 -91 -207 -91c-53 0 -101 12 -136 37c-36 25 -58 64 -58 120c0 123 102 174 277 173h53v9c0 52 -14 84 -70 84c-49 0 -67 -26 -72 -62h-168c4 63 31 110 74 142c43 31 101 46 169 46c80 0 137 -21 169 -62
c44 41 99 62 167 62c71 0 136 -20 184 -64s78 -114 78 -207v-46h-360c5 -71 40 -109 104 -109c59 0 82 27 89 62h167c-16 -119 -104 -185 -257 -185zM715 318c-4 68 -33 101 -89 101c-53 0 -90 -36 -97 -101h186zM267 109c56 0 90 29 90 74v34h-50c-68 1 -103 -11 -103 -55
c0 -35 22 -53 63 -53zM458 749h180l-105 -166h-128z" />
    <glyph glyph-name="Oslashacute" unicode="&#x1fe;" horiz-adv-x="827" 
d="M36 26l80 85c-52 63 -81 146 -81 242v8c0 109 41 200 109 264s162 100 269 100c88 0 164 -22 227 -62l73 77l59 -58l-69 -73c56 -60 89 -143 89 -243v-8c0 -111 -37 -203 -104 -267c-67 -65 -162 -103 -278 -103c-93 0 -172 24 -233 67l-82 -87zM414 149
c103 0 166 77 166 206v8c0 39 -5 71 -16 99l-260 -273c29 -27 66 -40 110 -40zM247 354c0 -36 5 -67 13 -92l255 270c-27 23 -61 33 -102 33c-103 0 -166 -72 -166 -203v-8zM388 905h187l-103 -146h-135z" />
    <glyph glyph-name="oslashacute" unicode="&#x1ff;" horiz-adv-x="630" 
d="M25 9l66 70c-39 44 -62 103 -62 176v8c0 84 31 152 83 200c51 48 123 74 204 74c61 0 116 -14 163 -43l65 69l52 -48l-62 -66c43 -47 67 -106 67 -181v-8c0 -85 -31 -153 -82 -200c-52 -47 -124 -72 -204 -72c-65 0 -123 16 -170 45l-68 -72zM316 120
c69 0 105 50 105 138v8c0 21 -2 39 -6 55l-167 -178c17 -15 40 -23 68 -23zM210 260c0 -19 1 -34 4 -49l163 174c-15 13 -36 19 -61 19c-68 0 -106 -47 -106 -136v-8zM298 749h180l-105 -166h-128z" />
    <glyph glyph-name="uni0218" unicode="&#x218;" horiz-adv-x="651" 
d="M335 -12c-201 0 -301 83 -308 239h195c3 -25 10 -49 27 -65c16 -17 43 -28 86 -28c60 0 92 28 92 71c0 21 -7 36 -24 47c-17 9 -46 15 -89 22c-101 12 -169 33 -210 69c-43 36 -60 87 -60 159c0 64 26 120 74 160s118 63 203 63c173 0 269 -71 282 -223h-190
c-7 51 -36 77 -92 77s-83 -25 -83 -61c0 -20 6 -34 23 -45c16 -12 44 -20 88 -25c91 -11 158 -27 205 -60c45 -35 69 -85 69 -162c0 -65 -26 -125 -75 -168s-121 -70 -213 -70zM209 -205l42 177l158 -19l-99 -185z" />
    <glyph glyph-name="uni0219" unicode="&#x219;" horiz-adv-x="515" 
d="M261 -12c-149 0 -236 61 -240 178h165c7 -39 23 -59 74 -59c44 0 64 16 64 43c0 25 -25 36 -97 47c-71 9 -120 23 -152 50c-32 25 -47 63 -47 118c0 57 26 101 67 130c40 28 97 42 157 42c64 0 119 -11 159 -38s65 -68 72 -131h-162c-7 35 -26 52 -67 52
c-39 0 -59 -17 -59 -41c0 -25 24 -35 88 -43c72 -9 126 -23 162 -48c36 -27 53 -64 53 -120c0 -124 -92 -180 -237 -180zM142 -205l42 177l158 -19l-99 -185z" />
    <glyph glyph-name="uni021A" unicode="&#x21a;" horiz-adv-x="618" 
d="M210 557h-185v158h576v-158h-185v-557h-206v557zM196 -205l42 177l158 -19l-99 -185z" />
    <glyph glyph-name="uni021B" unicode="&#x21b;" horiz-adv-x="389" 
d="M265 -12c-119 0 -184 56 -184 180v233h-63v122h63v109h179v-109h103v-122h-103v-216c0 -36 18 -55 53 -55c20 0 35 2 51 9v-136c-23 -7 -56 -15 -99 -15zM98 -205l42 177l158 -19l-99 -185z" />
    <glyph glyph-name="uni0237" unicode="&#x237;" horiz-adv-x="303" 
d="M-2 -54c44 3 64 21 64 62v515h178v-519c0 -56 -13 -104 -50 -137c-37 -32 -97 -51 -192 -51v130z" />
    <glyph glyph-name="circumflex" unicode="&#x2c6;" horiz-adv-x="408" 
d="M142 748h128l118 -163h-125l-61 56l-60 -56h-123z" />
    <glyph glyph-name="caron" unicode="&#x2c7;" horiz-adv-x="408" 
d="M19 748h125l61 -56l61 56h122l-123 -163h-127z" />
    <glyph glyph-name="breve" unicode="&#x2d8;" horiz-adv-x="408" 
d="M203 587c-96 0 -158 57 -163 158h111c3 -31 20 -48 52 -48s51 19 54 48h111c-7 -101 -72 -158 -165 -158z" />
    <glyph glyph-name="dotaccent" unicode="&#x2d9;" horiz-adv-x="408" 
d="M204 579c-56 0 -96 38 -96 90c0 51 41 89 96 89s95 -38 95 -89c0 -52 -40 -90 -95 -90z" />
    <glyph glyph-name="ring" unicode="&#x2da;" horiz-adv-x="408" 
d="M204 642c27 0 46 21 46 50c0 31 -19 51 -46 51s-46 -20 -46 -51c0 -29 19 -50 46 -50zM204 578c-32 0 -62 13 -83 34c-21 20 -35 48 -35 80s14 60 35 81s51 34 83 34s62 -13 83 -34s35 -49 35 -81s-14 -60 -35 -80c-21 -21 -51 -34 -83 -34z" />
    <glyph glyph-name="ogonek" unicode="&#x2db;" horiz-adv-x="408" 
d="M203 -182c-65 0 -117 28 -117 79c0 25 11 46 27 62c16 17 38 30 59 41h102c-28 -23 -42 -40 -42 -63c0 -19 11 -28 30 -28c12 0 22 1 30 5v-80c-19 -8 -50 -16 -89 -16z" />
    <glyph glyph-name="tilde" unicode="&#x2dc;" horiz-adv-x="408" 
d="M268 587c-28 0 -49 8 -68 17c-19 8 -33 16 -49 16s-28 -13 -31 -32h-97c7 105 52 156 115 156c27 0 48 -9 68 -17c19 -8 35 -17 51 -17c19 0 28 13 32 32h97c-8 -104 -58 -155 -118 -155z" />
    <glyph glyph-name="hungarumlaut" unicode="&#x2dd;" horiz-adv-x="408" 
d="M102 749h140l-77 -166h-107zM279 749h140l-77 -166h-106z" />
    <glyph glyph-name="uni037E" unicode="&#x37e;" horiz-adv-x="321" 
d="M14 -81l83 263l166 -59l-143 -245zM178 275c-60 0 -102 44 -102 101c0 28 10 53 29 72c17 17 44 29 73 29s56 -12 75 -29c19 -19 30 -44 30 -72c0 -57 -45 -101 -105 -101z" />
    <glyph glyph-name="tonos" unicode="&#x384;" horiz-adv-x="400" 
d="M186 749h180l-105 -166h-128z" />
    <glyph glyph-name="dieresistonos" unicode="&#x385;" horiz-adv-x="479" 
d="M209 770h135l-83 -178h-98zM407 587c-43 0 -76 33 -76 74c0 40 33 74 76 74s76 -34 76 -74c0 -41 -33 -74 -76 -74zM72 587c-43 0 -76 33 -76 74c0 40 33 74 76 74s76 -34 76 -74c0 -41 -33 -74 -76 -74z" />
    <glyph glyph-name="Alphatonos" unicode="&#x386;" horiz-adv-x="747" 
d="M246 715h265l227 -715h-217l-38 133h-237l-38 -133h-191zM286 274h157l-78 275zM4 716h180l-105 -166h-128z" />
    <glyph glyph-name="anoteleia" unicode="&#x387;" horiz-adv-x="299" 
d="M152 225c-29 0 -56 11 -73 30c-19 17 -29 43 -29 71s10 53 29 72c17 17 44 29 73 29s56 -12 75 -29c19 -19 30 -44 30 -72s-11 -54 -30 -71c-19 -19 -46 -30 -75 -30z" />
    <glyph glyph-name="Epsilontonos" unicode="&#x388;" horiz-adv-x="612" 
d="M-136 716h180l-105 -166h-128zM73 715h494v-158h-290v-123h231v-146h-231v-130h306v-158h-510v715z" />
    <glyph glyph-name="Etatonos" unicode="&#x389;" horiz-adv-x="784" 
d="M73 715h206v-273h235v273h205v-715h-205v282h-235v-282h-206v715zM-136 716h180l-105 -166h-128z" />
    <glyph glyph-name="Iotatonos" unicode="&#x38a;" horiz-adv-x="352" 
d="M77 715h207v-715h-207v715zM-136 716h180l-105 -166h-128z" />
    <glyph glyph-name="Omicrontonos" unicode="&#x38c;" horiz-adv-x="819" 
d="M-73 716h180l-105 -166h-128zM414 149c101 0 164 77 164 206v8c0 128 -64 202 -165 202s-164 -72 -164 -203v-8c0 -131 65 -205 165 -205zM410 -12c-116 0 -209 38 -274 102s-101 155 -101 263v8c0 109 41 200 109 264s162 100 269 100c109 0 204 -35 272 -96
c67 -63 107 -152 107 -263v-8c0 -111 -37 -203 -104 -267c-67 -65 -162 -103 -278 -103z" />
    <glyph glyph-name="Upsilontonos" unicode="&#x38e;" horiz-adv-x="677" 
d="M245 306l-233 409h223l121 -241l121 241h196l-222 -409v-306h-206v306zM-183 716h180l-105 -166h-128z" />
    <glyph glyph-name="Omegatonos" unicode="&#x38f;" horiz-adv-x="825" 
d="M246 353c0 -115 42 -191 121 -251v-102h-330v153h105c-58 43 -107 127 -107 218v6c0 197 153 348 377 348c225 0 378 -140 378 -344v-6c0 -98 -50 -181 -107 -222h105v-153h-331v102c76 56 122 134 122 251v8c0 127 -59 204 -167 204s-166 -75 -166 -204v-8zM-73 716h180
l-105 -166h-128z" />
    <glyph glyph-name="iotadieresistonos" unicode="&#x390;" horiz-adv-x="295" 
d="M58 523h179v-523h-179v523zM140 770h135l-83 -178h-98zM338 587c-43 0 -76 33 -76 74c0 40 33 74 76 74s76 -34 76 -74c0 -41 -33 -74 -76 -74zM3 587c-43 0 -76 33 -76 74c0 40 33 74 76 74s76 -34 76 -74c0 -41 -33 -74 -76 -74z" />
    <glyph glyph-name="Alpha" unicode="&#x391;" horiz-adv-x="747" 
d="M246 715h265l227 -715h-217l-38 133h-237l-38 -133h-191zM286 274h157l-78 275z" />
    <glyph glyph-name="Beta" unicode="&#x392;" horiz-adv-x="679" 
d="M73 715h319c84 0 145 -19 184 -52s57 -79 57 -135v-4c0 -81 -40 -133 -121 -154c88 -15 143 -67 143 -167v-4c0 -128 -83 -199 -260 -199h-322v715zM358 137c65 0 95 30 95 83v4c0 55 -29 82 -101 82h-79v-169h85zM351 431c64 0 88 22 88 73v4c0 49 -25 71 -88 71h-78
v-148h78z" />
    <glyph glyph-name="Gamma" unicode="&#x393;" horiz-adv-x="568" 
d="M69 715h478v-159h-272v-556h-206v715z" />
    <glyph glyph-name="uni0394" unicode="&#x394;" horiz-adv-x="758" 
d="M20 23l219 692h283l216 -692v-23h-718v23zM247 158h242l-120 413z" />
    <glyph glyph-name="Epsilon" unicode="&#x395;" horiz-adv-x="612" 
d="M73 715h494v-158h-290v-123h231v-146h-231v-130h306v-158h-510v715z" />
    <glyph glyph-name="Zeta" unicode="&#x396;" horiz-adv-x="627" 
d="M17 23l304 535h-265v157h556v-22l-300 -535h285v-158h-580v23z" />
    <glyph glyph-name="Eta" unicode="&#x397;" horiz-adv-x="784" 
d="M73 715h206v-273h235v273h205v-715h-205v282h-235v-282h-206v715z" />
    <glyph glyph-name="Theta" unicode="&#x398;" horiz-adv-x="834" 
d="M414 -12c-237 0 -383 144 -383 365v8c0 225 165 364 386 364c224 0 386 -130 386 -359v-8c0 -227 -152 -370 -389 -370zM418 145c108 0 174 81 174 210v8c0 128 -67 206 -175 206s-174 -76 -174 -207v-8c0 -131 70 -209 175 -209zM322 424h190v-128h-190v128z" />
    <glyph glyph-name="Iota" unicode="&#x399;" horiz-adv-x="352" 
d="M77 715h207v-715h-207v715z" />
    <glyph glyph-name="Kappa" unicode="&#x39a;" horiz-adv-x="726" 
d="M73 715h206v-283l215 283h214l-262 -332l276 -383h-237l-206 299v-299h-206v715z" />
    <glyph glyph-name="Lambda" unicode="&#x39b;" horiz-adv-x="729" 
d="M716 0h-220l-145 496l-146 -496h-192l232 715h238z" />
    <glyph glyph-name="Mu" unicode="&#x39c;" horiz-adv-x="942" 
d="M73 715h267l137 -381l137 381h262v-715h-204v445l-175 -445h-68l-173 445v-445h-183v715z" />
    <glyph glyph-name="Nu" unicode="&#x39d;" horiz-adv-x="777" 
d="M73 715h231l229 -403v403h179v-715h-198l-261 449v-449h-180v715z" />
    <glyph glyph-name="Xi" unicode="&#x39e;" horiz-adv-x="623" 
d="M584 715v-163h-544v163h544zM536 435v-152h-449v152h449zM33 164h557v-164h-557v164z" />
    <glyph glyph-name="Omicron" unicode="&#x39f;" horiz-adv-x="819" 
d="M414 149c101 0 164 77 164 206v8c0 128 -64 202 -165 202s-164 -72 -164 -203v-8c0 -131 65 -205 165 -205zM410 -12c-116 0 -209 38 -274 102s-101 155 -101 263v8c0 109 41 200 109 264s162 100 269 100c109 0 204 -35 272 -96c67 -63 107 -152 107 -263v-8
c0 -111 -37 -203 -104 -267c-67 -65 -162 -103 -278 -103z" />
    <glyph glyph-name="Pi" unicode="&#x3a0;" horiz-adv-x="777" 
d="M69 715h639v-715h-205v550h-228v-550h-206v715z" />
    <glyph glyph-name="Rho" unicode="&#x3a1;" horiz-adv-x="652" 
d="M73 715h272c196 0 287 -87 287 -239v-4c0 -151 -99 -231 -278 -231h-77v-241h-204v715zM336 381c68 0 101 30 101 90v4c0 61 -36 86 -100 86h-60v-180h59z" />
    <glyph glyph-name="Sigma" unicode="&#x3a3;" horiz-adv-x="609" 
d="M42 561v154h519v-154h-283l162 -190l-162 -209h298v-162h-538v131l175 228z" />
    <glyph glyph-name="Tau" unicode="&#x3a4;" horiz-adv-x="618" 
d="M210 557h-185v158h576v-158h-185v-557h-206v557z" />
    <glyph glyph-name="Upsilon" unicode="&#x3a5;" horiz-adv-x="677" 
d="M245 306l-233 409h223l121 -241l121 241h196l-222 -409v-306h-206v306z" />
    <glyph glyph-name="Phi" unicode="&#x3a6;" horiz-adv-x="955" 
d="M384 42c-229 11 -353 147 -353 317v6c0 173 139 303 353 316v61h186v-61c216 -13 354 -133 354 -310v-7c0 -176 -125 -309 -354 -322v-69h-186v69zM234 360c0 -92 53 -152 150 -167v338c-101 -15 -150 -73 -150 -165v-6zM721 367c0 89 -51 149 -151 164v-339
c100 15 151 76 151 168v7z" />
    <glyph glyph-name="Chi" unicode="&#x3a7;" horiz-adv-x="755" 
d="M247 368l-204 347h233l112 -213l110 213h210l-192 -340l221 -375h-234l-133 246l-133 -246h-211z" />
    <glyph glyph-name="Psi" unicode="&#x3a8;" horiz-adv-x="897" 
d="M358 164c-214 11 -312 132 -312 298v253h195v-239c0 -93 30 -144 117 -155v394h186v-392c80 15 123 58 123 161v231h185v-239c0 -173 -96 -292 -308 -311v-165h-186v164z" />
    <glyph glyph-name="uni03A9" unicode="&#x3a9;" horiz-adv-x="825" 
d="M246 353c0 -115 42 -191 121 -251v-102h-330v153h105c-58 43 -107 127 -107 218v6c0 197 153 348 377 348c225 0 378 -140 378 -344v-6c0 -98 -50 -181 -107 -222h105v-153h-331v102c76 56 122 134 122 251v8c0 127 -59 204 -167 204s-166 -75 -166 -204v-8z" />
    <glyph glyph-name="Iotadieresis" unicode="&#x3aa;" horiz-adv-x="352" 
d="M77 715h207v-715h-207v715zM68 758c-24 0 -45 9 -60 24c-16 15 -25 36 -25 59c0 47 38 84 85 84c48 0 86 -37 86 -84s-38 -83 -86 -83zM291 758c-48 0 -85 36 -85 83s37 84 85 84s86 -37 86 -84s-38 -83 -86 -83z" />
    <glyph glyph-name="Upsilondieresis" unicode="&#x3ab;" horiz-adv-x="677" 
d="M245 306l-233 409h223l121 -241l121 241h196l-222 -409v-306h-206v306zM240 758c-24 0 -45 9 -60 24c-16 15 -25 36 -25 59c0 47 38 84 85 84c48 0 86 -37 86 -84s-38 -83 -86 -83zM463 758c-48 0 -85 36 -85 83s37 84 85 84s86 -37 86 -84s-38 -83 -86 -83z" />
    <glyph glyph-name="alphatonos" unicode="&#x3ac;" horiz-adv-x="634" 
d="M306 125c60 0 101 45 101 134v8c0 92 -38 135 -98 135c-64 0 -100 -44 -100 -136v-8c0 -88 37 -133 97 -133zM245 -12c-117 0 -218 87 -218 268v8c0 179 103 273 219 273c80 0 125 -34 156 -87v73h179v-523h-179v84c-27 -53 -81 -96 -157 -96zM322 749h180l-105 -166
h-128z" />
    <glyph glyph-name="epsilontonos" unicode="&#x3ad;" horiz-adv-x="578" 
d="M139 273c-56 11 -101 54 -101 113c0 79 65 151 253 151c140 0 246 -49 262 -174h-168c-3 27 -17 56 -84 56c-51 0 -80 -14 -80 -53c0 -21 11 -47 55 -47h96v-101h-95c-51 0 -69 -19 -69 -52c0 -37 32 -54 92 -54c65 0 91 26 95 62h163c-11 -120 -99 -186 -266 -186
c-181 0 -266 60 -266 160c0 63 41 110 113 125zM295 749h180l-105 -166h-128z" />
    <glyph glyph-name="etatonos" unicode="&#x3ae;" horiz-adv-x="624" 
d="M53 523h179v-84c28 55 84 98 172 98c101 0 171 -64 171 -197v-515h-179v479c0 60 -23 88 -75 88c-53 0 -89 -31 -89 -99v-293h-179v523zM302 749h180l-105 -166h-128z" />
    <glyph glyph-name="iotatonos" unicode="&#x3af;" horiz-adv-x="295" 
d="M58 523h179v-523h-179v523zM141 749h180l-105 -166h-128z" />
    <glyph glyph-name="upsilondieresistonos" unicode="&#x3b0;" horiz-adv-x="615" 
d="M307 -12c-171 0 -260 97 -260 245v290h179v-300c0 -64 23 -100 82 -100c56 0 81 35 81 98v302h179v-287c0 -153 -89 -248 -261 -248zM282 770h135l-83 -178h-98zM480 587c-43 0 -76 33 -76 74c0 40 33 74 76 74s76 -34 76 -74c0 -41 -33 -74 -76 -74zM145 587
c-43 0 -76 33 -76 74c0 40 33 74 76 74s76 -34 76 -74c0 -41 -33 -74 -76 -74z" />
    <glyph glyph-name="alpha" unicode="&#x3b1;" horiz-adv-x="634" 
d="M306 125c60 0 101 45 101 134v8c0 92 -38 135 -98 135c-64 0 -100 -44 -100 -136v-8c0 -88 37 -133 97 -133zM245 -12c-117 0 -218 87 -218 268v8c0 179 103 273 219 273c80 0 125 -34 156 -87v73h179v-523h-179v84c-27 -53 -81 -96 -157 -96z" />
    <glyph glyph-name="beta" unicode="&#x3b2;" horiz-adv-x="635" 
d="M303 463c77 -3 110 35 110 88v5c0 47 -33 80 -90 80c-55 0 -91 -37 -91 -105v-291c0 -77 50 -114 98 -114c56 0 99 34 99 107v6c0 65 -41 104 -126 100v124zM461 413c92 -23 150 -94 150 -190v-7c0 -133 -96 -223 -228 -223c-63 0 -122 30 -151 86v-254h-179v696
c0 164 112 240 267 240c151 0 256 -71 256 -191v-4c0 -69 -44 -132 -115 -153z" />
    <glyph glyph-name="gamma" unicode="&#x3b3;" horiz-adv-x="611" 
d="M432 523h172l-209 -516v-182h-178v182l-210 516h193l116 -325z" />
    <glyph glyph-name="delta" unicode="&#x3b4;" horiz-adv-x="619" 
d="M108 753h433v-136h-201l132 -133c80 -80 122 -135 122 -230v-8c0 -152 -125 -258 -285 -258s-284 96 -284 256v7c0 123 84 229 216 229c7 0 22 -1 33 -5l-166 165v113zM412 255c0 75 -38 123 -102 123c-67 0 -102 -46 -102 -121v-7c0 -77 31 -129 102 -129
c68 0 102 48 102 127v7z" />
    <glyph glyph-name="epsilon" unicode="&#x3b5;" horiz-adv-x="578" 
d="M139 273c-56 11 -101 54 -101 113c0 79 65 151 253 151c140 0 246 -49 262 -174h-168c-3 27 -17 56 -84 56c-51 0 -80 -14 -80 -53c0 -21 11 -47 55 -47h96v-101h-95c-51 0 -69 -19 -69 -52c0 -37 32 -54 92 -54c65 0 91 26 95 62h163c-11 -120 -99 -186 -266 -186
c-181 0 -266 60 -266 160c0 63 41 110 113 125z" />
    <glyph glyph-name="zeta" unicode="&#x3b6;" horiz-adv-x="517" 
d="M259 0c-149 0 -234 81 -234 212c0 138 102 288 208 389h-173v152h457v-38c-170 -165 -307 -368 -307 -485c0 -64 35 -85 94 -85h45c111 0 161 -60 161 -145c0 -53 -18 -113 -29 -147h-139c8 24 18 70 18 91c0 37 -18 56 -55 56h-46z" />
    <glyph glyph-name="eta" unicode="&#x3b7;" horiz-adv-x="624" 
d="M53 523h179v-84c28 55 84 98 172 98c101 0 171 -64 171 -197v-515h-179v479c0 60 -23 88 -75 88c-53 0 -89 -31 -89 -99v-293h-179v523z" />
    <glyph glyph-name="theta" unicode="&#x3b8;" horiz-adv-x="638" 
d="M599 363c0 -230 -90 -375 -280 -375c-188 0 -280 141 -280 370v34c0 228 104 369 280 369c175 0 280 -127 280 -366v-32zM426 439c-3 123 -32 189 -107 189c-76 0 -105 -68 -108 -189h215zM320 119c75 0 104 71 107 192h-216c1 -124 30 -192 109 -192z" />
    <glyph glyph-name="iota" unicode="&#x3b9;" horiz-adv-x="295" 
d="M58 523h179v-523h-179v523z" />
    <glyph glyph-name="kappa" unicode="&#x3ba;" horiz-adv-x="581" 
d="M232 224v-224h-179v523h179v-218l153 218h187l-181 -245l187 -278h-200z" />
    <glyph glyph-name="lambda" unicode="&#x3bb;" horiz-adv-x="601" 
d="M183 573c-15 39 -34 52 -71 52c-21 0 -46 -6 -65 -11v130c29 11 75 17 118 17c72 0 135 -26 181 -150l163 -436c8 -21 23 -40 47 -40c13 0 32 3 39 4v-135c-21 -8 -57 -12 -89 -12c-71 0 -120 39 -148 118l-71 203l-100 -313h-186l204 515z" />
    <glyph glyph-name="uni03BC" unicode="&#x3bc;" horiz-adv-x="625" 
d="M53 523h179v-317c0 -57 25 -86 74 -86c55 0 89 31 89 99v304h179v-523h-176v71c-17 -47 -50 -71 -97 -71c-28 0 -53 12 -69 37v-212h-179v698z" />
    <glyph glyph-name="nu" unicode="&#x3bd;" horiz-adv-x="593" 
d="M12 523h191l109 -337l107 337h171l-191 -523h-195z" />
    <glyph glyph-name="xi" unicode="&#x3be;" horiz-adv-x="530" 
d="M363 144c109 0 157 -60 157 -145c0 -52 -18 -112 -28 -146h-139c8 24 18 70 18 91c0 37 -18 56 -55 56h-36c-155 0 -255 77 -255 209c0 95 65 164 150 180c-69 23 -103 65 -103 124c0 55 31 96 92 115h-125v125h464v-142h-140c-68 0 -114 -21 -114 -78
c0 -43 33 -73 96 -73h113v-147h-136c-75 0 -114 -28 -114 -91c0 -56 43 -78 106 -78h49z" />
    <glyph glyph-name="omicron" unicode="&#x3bf;" horiz-adv-x="622" 
d="M316 121c68 0 103 49 103 137v8c0 88 -35 137 -103 137s-104 -47 -104 -135v-8c0 -91 35 -139 104 -139zM315 -12c-80 0 -152 25 -203 70c-52 45 -83 113 -83 197v8c0 84 31 152 83 200c51 48 123 74 204 74c80 0 152 -25 203 -72s82 -114 82 -197v-8
c0 -85 -31 -153 -82 -200c-52 -47 -124 -72 -204 -72z" />
    <glyph glyph-name="pi" unicode="&#x3c0;" horiz-adv-x="655" 
d="M397 393h-139v-393h-178v393h-66v130h627v-130h-66v-393h-178v393z" />
    <glyph glyph-name="rho" unicode="&#x3c1;" horiz-adv-x="627" 
d="M320 121c68 0 99 49 99 137v8c0 88 -33 137 -101 137s-103 -47 -103 -135v-8c0 -93 35 -139 105 -139zM357 -5c-53 0 -112 29 -139 80v-250h-180v439c0 168 118 273 280 273c161 0 284 -103 284 -269v-8c0 -167 -107 -265 -245 -265z" />
    <glyph glyph-name="uni03C2" unicode="&#x3c2;" horiz-adv-x="583" 
d="M208 263c0 -72 34 -123 114 -123h26c111 0 169 -56 169 -141c0 -52 -18 -111 -29 -146h-139c7 24 19 68 19 93c0 39 -18 54 -55 54h-20c-156 0 -268 99 -268 255v8c0 173 125 274 279 274c128 0 245 -55 256 -215h-169c-8 51 -37 76 -87 76c-60 0 -96 -45 -96 -126v-9z
" />
    <glyph glyph-name="sigma" unicode="&#x3c3;" horiz-adv-x="649" 
d="M311 -12c-161 0 -286 98 -286 267v8c0 168 118 260 283 260h326v-130h-118c49 -25 77 -81 77 -138v-7c0 -164 -121 -260 -282 -260zM312 121c68 0 103 49 103 137v9c0 89 -34 134 -103 134s-104 -44 -104 -131v-10c0 -91 35 -139 104 -139z" />
    <glyph glyph-name="tau" unicode="&#x3c4;" horiz-adv-x="496" 
d="M334 -8c-125 0 -184 71 -184 195v206h-136v130h460v-130h-144v-190c0 -52 19 -73 66 -73c17 0 40 3 56 7v-134c-29 -7 -59 -11 -118 -11z" />
    <glyph glyph-name="upsilon" unicode="&#x3c5;" horiz-adv-x="615" 
d="M307 -12c-171 0 -260 97 -260 245v290h179v-300c0 -64 23 -100 82 -100c56 0 81 35 81 98v302h179v-287c0 -153 -89 -248 -261 -248z" />
    <glyph glyph-name="phi" unicode="&#x3c6;" horiz-adv-x="828" 
d="M803 263c0 -179 -128 -266 -301 -269v-169h-177v169c-180 3 -300 90 -300 265v8c0 145 86 244 247 264v-132c-48 -19 -70 -59 -70 -136v-8c0 -83 32 -129 123 -136v411c27 4 81 7 129 7c218 0 349 -106 349 -266v-8zM626 269c0 81 -33 136 -124 137v-287
c95 3 124 58 124 142v8z" />
    <glyph glyph-name="chi" unicode="&#x3c7;" horiz-adv-x="596" 
d="M196 194l-88 160c-15 27 -32 36 -57 36c-11 0 -25 -3 -37 -7v130c31 15 64 20 95 20c64 0 109 -18 144 -85l64 -124l87 199h181l-180 -343l103 -182c15 -27 29 -36 53 -36c11 0 21 1 32 4v-133c-33 -12 -71 -14 -92 -14c-60 0 -110 28 -149 103l-68 130l-105 -227h-174z
" />
    <glyph glyph-name="psi" unicode="&#x3c8;" horiz-adv-x="833" 
d="M221 253c0 -71 28 -121 107 -128v398h177v-398c77 7 107 57 107 128v270h178v-267c0 -171 -123 -256 -285 -261v-170h-177v170c-168 5 -285 86 -285 261v267h178v-270z" />
    <glyph glyph-name="omega" unicode="&#x3c9;" horiz-adv-x="830" 
d="M503 210c0 -59 17 -90 56 -90c43 0 64 44 64 124v8c0 78 -18 138 -91 154v131c181 -11 273 -121 273 -286v-8c0 -150 -82 -255 -223 -255c-99 0 -143 53 -167 106c-21 -53 -74 -106 -166 -106c-146 0 -224 105 -224 255v8c0 165 94 275 273 286v-131
c-71 -16 -90 -75 -90 -153v-8c0 -81 21 -125 64 -125c39 0 55 33 55 90v139h176v-139z" />
    <glyph glyph-name="iotadieresis" unicode="&#x3ca;" horiz-adv-x="295" 
d="M58 523h179v-523h-179v523zM45 580c-24 0 -45 9 -60 24c-16 15 -25 36 -25 59s9 44 25 60c15 15 36 24 60 24c48 0 86 -37 86 -84s-38 -83 -86 -83zM258 580c-48 0 -85 36 -85 83s37 84 85 84s86 -37 86 -84s-38 -83 -86 -83z" />
    <glyph glyph-name="upsilondieresis" unicode="&#x3cb;" horiz-adv-x="615" 
d="M307 -12c-171 0 -260 97 -260 245v290h179v-300c0 -64 23 -100 82 -100c56 0 81 35 81 98v302h179v-287c0 -153 -89 -248 -261 -248zM204 580c-24 0 -45 9 -60 24c-16 15 -25 36 -25 59s9 44 25 60c15 15 36 24 60 24c48 0 86 -37 86 -84s-38 -83 -86 -83zM417 580
c-48 0 -85 36 -85 83s37 84 85 84s86 -37 86 -84s-38 -83 -86 -83z" />
    <glyph glyph-name="omicrontonos" unicode="&#x3cc;" horiz-adv-x="622" 
d="M316 121c68 0 103 49 103 137v8c0 88 -35 137 -103 137s-104 -47 -104 -135v-8c0 -91 35 -139 104 -139zM315 -12c-80 0 -152 25 -203 70c-52 45 -83 113 -83 197v8c0 84 31 152 83 200c51 48 123 74 204 74c80 0 152 -25 203 -72s82 -114 82 -197v-8
c0 -85 -31 -153 -82 -200c-52 -47 -124 -72 -204 -72zM303 749h180l-105 -166h-128z" />
    <glyph glyph-name="upsilontonos" unicode="&#x3cd;" horiz-adv-x="615" 
d="M307 -12c-171 0 -260 97 -260 245v290h179v-300c0 -64 23 -100 82 -100c56 0 81 35 81 98v302h179v-287c0 -153 -89 -248 -261 -248zM298 749h180l-105 -166h-128z" />
    <glyph glyph-name="omegatonos" unicode="&#x3ce;" horiz-adv-x="830" 
d="M503 210c0 -59 17 -90 56 -90c43 0 64 44 64 124v8c0 78 -18 138 -91 154v131c181 -11 273 -121 273 -286v-8c0 -150 -82 -255 -223 -255c-99 0 -143 53 -167 106c-21 -53 -74 -106 -166 -106c-146 0 -224 105 -224 255v8c0 165 94 275 273 286v-131
c-71 -16 -90 -75 -90 -153v-8c0 -81 21 -125 64 -125c39 0 55 33 55 90v139h176v-139zM409 749h180l-105 -166h-128z" />
    <glyph glyph-name="uni0401" unicode="&#x401;" horiz-adv-x="612" 
d="M73 715h494v-158h-290v-123h231v-146h-231v-130h306v-158h-510v715zM215 758c-24 0 -45 9 -60 24c-16 15 -25 36 -25 59c0 47 38 84 85 84c48 0 86 -37 86 -84s-38 -83 -86 -83zM438 758c-48 0 -85 36 -85 83s37 84 85 84s86 -37 86 -84s-38 -83 -86 -83z" />
    <glyph glyph-name="uni0402" unicode="&#x402;" horiz-adv-x="831" 
d="M412 404c12 9 26 17 43 24c28 12 70 24 123 24c159 0 223 -102 223 -234c0 -151 -69 -240 -228 -240c-47 0 -81 8 -110 23v153c8 -3 26 -14 67 -14c49 0 66 36 66 77c0 38 -17 74 -89 74c-31 0 -54 -8 -70 -16c-9 -5 -18 -10 -25 -15v-260h-206v557h-185v158h576v-158
h-185v-153z" />
    <glyph glyph-name="uni0403" unicode="&#x403;" horiz-adv-x="569" 
d="M289 905h187l-103 -146h-135zM69 715h473v-159h-267v-556h-206v715z" />
    <glyph glyph-name="uni0404" unicode="&#x404;" horiz-adv-x="759" 
d="M738 264c-21 -183 -148 -276 -333 -276c-251 0 -373 145 -373 365v8c0 220 156 365 365 365c186 0 311 -83 332 -270h-211c-11 72 -48 108 -120 108s-123 -44 -142 -127h234v-150h-236c16 -88 67 -135 147 -135c72 0 121 33 133 112h204z" />
    <glyph glyph-name="uni0405" unicode="&#x405;" horiz-adv-x="647" 
d="M335 -12c-201 0 -301 83 -308 239h195c3 -25 10 -49 27 -65c16 -17 43 -28 86 -28c60 0 92 28 92 71c0 21 -7 36 -24 47c-17 9 -46 15 -89 22c-101 12 -169 33 -210 69c-43 36 -60 87 -60 159c0 64 26 120 74 160s118 63 203 63c173 0 269 -71 282 -223h-190
c-7 51 -36 77 -92 77s-83 -25 -83 -61c0 -20 6 -34 23 -45c16 -12 44 -20 88 -25c91 -11 158 -27 205 -60c45 -35 69 -85 69 -162c0 -65 -26 -125 -75 -168s-121 -70 -213 -70z" />
    <glyph glyph-name="uni0406" unicode="&#x406;" horiz-adv-x="352" 
d="M77 715h207v-715h-207v715z" />
    <glyph glyph-name="uni0407" unicode="&#x407;" horiz-adv-x="352" 
d="M77 715h207v-715h-207v715zM68 758c-24 0 -45 9 -60 24c-16 15 -25 36 -25 59c0 47 38 84 85 84c48 0 86 -37 86 -84s-38 -83 -86 -83zM291 758c-48 0 -85 36 -85 83s37 84 85 84s86 -37 86 -84s-38 -83 -86 -83z" />
    <glyph glyph-name="uni0408" unicode="&#x408;" horiz-adv-x="478" 
d="M167 -9c-68 0 -101 9 -130 24v153c24 -8 46 -14 87 -14c56 0 93 24 93 99v462h206v-464c0 -173 -87 -260 -256 -260z" />
    <glyph glyph-name="uni0409" unicode="&#x409;" horiz-adv-x="1053" 
d="M480 555h-155c-3 -83 -3 -158 -10 -226c-16 -209 -65 -342 -229 -342c-40 0 -65 13 -66 13v159c1 -1 2 -1 5 -2c4 -1 10 -2 17 -2c53 0 79 69 91 190c5 59 7 129 7 370h544v-251h67c179 0 278 -75 278 -226v-4c0 -153 -90 -234 -287 -234h-262v555zM734 154
c64 0 100 20 100 81v4c0 60 -34 85 -101 85h-49v-170h50z" />
    <glyph glyph-name="uni040A" unicode="&#x40a;" horiz-adv-x="1053" 
d="M734 154c64 0 100 20 100 81v4c0 60 -34 85 -101 85h-49v-170h50zM480 282h-205v-282h-206v715h206v-273h205v273h204v-251h67c179 0 278 -75 278 -226v-4c0 -153 -90 -234 -287 -234h-262v282z" />
    <glyph glyph-name="uni040B" unicode="&#x40b;" horiz-adv-x="841" 
d="M412 404c12 9 26 17 43 24c28 12 70 24 123 24c159 0 223 -101 223 -245v-207h-205v191c0 64 -17 100 -89 100c-31 0 -54 -8 -70 -16c-9 -5 -18 -10 -25 -15v-260h-206v557h-185v158h576v-158h-185v-153z" />
    <glyph glyph-name="uni040C" unicode="&#x40c;" horiz-adv-x="726" 
d="M73 715h206v-283l215 283h214l-262 -332l276 -383h-237l-206 299v-299h-206v715zM357 905h187l-103 -146h-135z" />
    <glyph glyph-name="uni040D" unicode="&#x40d;" horiz-adv-x="799" 
d="M69 0v715h206v-445l250 445h205v-715h-205v452l-250 -452h-206zM245 905h186l49 -146h-135z" />
    <glyph glyph-name="uni040E" unicode="&#x40e;" horiz-adv-x="662" 
d="M347 752c-104 0 -158 57 -165 153h121c3 -28 15 -51 44 -51s43 23 47 51h120c-8 -96 -67 -153 -167 -153zM186 -10c-39 0 -68 9 -77 14v159c11 -3 30 -9 58 -9c36 0 66 20 90 60l-249 501h214l128 -280l113 280h199l-236 -533c-53 -119 -110 -192 -240 -192z" />
    <glyph glyph-name="uni040F" unicode="&#x40f;" horiz-adv-x="774" 
d="M69 0v715h206v-555h225v555h205v-715h-228l-2 -130h-175l-2 130h-229z" />
    <glyph glyph-name="uni0410" unicode="&#x410;" horiz-adv-x="747" 
d="M246 715h265l227 -715h-217l-38 133h-237l-38 -133h-191zM286 274h157l-78 275z" />
    <glyph glyph-name="uni0411" unicode="&#x411;" horiz-adv-x="648" 
d="M628 230c0 -144 -91 -230 -287 -230h-272v715h492v-158h-287l-1 -103h77c179 0 278 -77 278 -220v-4zM333 154c64 0 100 24 100 77v4c0 53 -34 79 -101 79h-59v-160h60z" />
    <glyph glyph-name="uni0412" unicode="&#x412;" horiz-adv-x="679" 
d="M73 715h319c84 0 145 -19 184 -52s57 -79 57 -135v-4c0 -81 -40 -133 -121 -154c88 -15 143 -67 143 -167v-4c0 -128 -83 -199 -260 -199h-322v715zM358 137c65 0 95 30 95 83v4c0 55 -29 82 -101 82h-79v-169h85zM351 431c64 0 88 22 88 73v4c0 49 -25 71 -88 71h-78
v-148h78z" />
    <glyph glyph-name="uni0413" unicode="&#x413;" horiz-adv-x="569" 
d="M69 715h473v-159h-267v-556h-206v715z" />
    <glyph glyph-name="uni0414" unicode="&#x414;" horiz-adv-x="765" 
d="M294 340c-7 -73 -19 -133 -40 -180h215v395h-165c-3 -81 -3 -152 -10 -215zM171 -130h-180v290h45c44 21 65 83 76 191c5 57 7 125 7 364h555v-555h91v-290h-180l-5 130h-404z" />
    <glyph glyph-name="uni0415" unicode="&#x415;" horiz-adv-x="612" 
d="M73 715h494v-158h-290v-123h231v-146h-231v-130h306v-158h-510v715z" />
    <glyph glyph-name="uni0416" unicode="&#x416;" horiz-adv-x="1027" 
d="M413 307l-186 -307h-219l245 379l-230 336h208l182 -291v291h201v-290l185 290h205l-233 -329l248 -386h-224l-181 307v-307h-201v307z" />
    <glyph glyph-name="uni0417" unicode="&#x417;" horiz-adv-x="673" 
d="M331 -12c-160 0 -289 85 -310 266h194c13 -65 50 -102 119 -102c60 0 95 26 95 77c0 49 -28 74 -84 74h-68v131h62c53 0 76 19 76 67c0 44 -37 63 -78 63c-69 0 -95 -39 -106 -98h-196c21 174 137 260 305 260c170 0 283 -87 283 -198c0 -84 -40 -137 -121 -158
c88 -15 143 -68 143 -160c0 -140 -130 -222 -314 -222z" />
    <glyph glyph-name="uni0418" unicode="&#x418;" horiz-adv-x="799" 
d="M69 0v715h206v-445l250 445h205v-715h-205v452l-250 -452h-206z" />
    <glyph glyph-name="uni0419" unicode="&#x419;" horiz-adv-x="799" 
d="M396 752c-104 0 -158 57 -165 153h121c3 -28 15 -51 44 -51s43 23 47 51h120c-8 -96 -67 -153 -167 -153zM69 0v715h206v-445l250 445h205v-715h-205v452l-250 -452h-206z" />
    <glyph glyph-name="uni041A" unicode="&#x41a;" horiz-adv-x="726" 
d="M73 715h206v-283l215 283h214l-262 -332l276 -383h-237l-206 299v-299h-206v715z" />
    <glyph glyph-name="uni041B" unicode="&#x41b;" horiz-adv-x="754" 
d="M309 271c-21 -175 -75 -284 -223 -284c-40 0 -65 13 -66 13v159c1 -1 2 -1 5 -2c4 -1 10 -2 17 -2c51 0 76 60 88 168c8 61 10 141 10 392h545v-715h-205v555h-155c-3 -107 -5 -201 -16 -284z" />
    <glyph glyph-name="uni041C" unicode="&#x41c;" horiz-adv-x="942" 
d="M73 715h267l137 -381l137 381h262v-715h-204v445l-175 -445h-68l-173 445v-445h-183v715z" />
    <glyph glyph-name="uni041D" unicode="&#x41d;" horiz-adv-x="784" 
d="M73 715h206v-273h235v273h205v-715h-205v282h-235v-282h-206v715z" />
    <glyph glyph-name="uni041E" unicode="&#x41e;" horiz-adv-x="819" 
d="M414 149c101 0 164 77 164 206v8c0 128 -64 202 -165 202s-164 -72 -164 -203v-8c0 -131 65 -205 165 -205zM410 -12c-116 0 -209 38 -274 102s-101 155 -101 263v8c0 109 41 200 109 264s162 100 269 100c109 0 204 -35 272 -96c67 -63 107 -152 107 -263v-8
c0 -111 -37 -203 -104 -267c-67 -65 -162 -103 -278 -103z" />
    <glyph glyph-name="uni041F" unicode="&#x41f;" horiz-adv-x="774" 
d="M500 555h-225v-555h-206v715h636v-715h-205v555z" />
    <glyph glyph-name="uni0420" unicode="&#x420;" horiz-adv-x="652" 
d="M73 715h272c196 0 287 -87 287 -239v-4c0 -151 -99 -231 -278 -231h-77v-241h-204v715zM336 381c68 0 101 30 101 90v4c0 61 -36 86 -100 86h-60v-180h59z" />
    <glyph glyph-name="uni0421" unicode="&#x421;" horiz-adv-x="759" 
d="M409 -12c-125 0 -219 36 -280 100c-63 64 -93 156 -93 265v8c0 109 39 201 104 265s157 100 261 100c93 0 171 -22 230 -66c57 -45 94 -114 102 -209h-211c-8 73 -48 113 -120 113c-92 0 -150 -71 -150 -202v-8c0 -129 54 -202 153 -202c72 0 122 37 133 117h204
c-7 -92 -45 -163 -102 -210c-59 -47 -139 -71 -231 -71z" />
    <glyph glyph-name="uni0422" unicode="&#x422;" horiz-adv-x="618" 
d="M210 557h-185v158h576v-158h-185v-557h-206v557z" />
    <glyph glyph-name="uni0423" unicode="&#x423;" horiz-adv-x="662" 
d="M186 -10c-39 0 -68 9 -77 14v159c11 -3 30 -9 58 -9c36 0 66 20 90 60l-249 501h214l128 -280l113 280h199l-236 -533c-53 -119 -110 -192 -240 -192z" />
    <glyph glyph-name="uni0424" unicode="&#x424;" horiz-adv-x="935" 
d="M570 651c198 -5 336 -109 336 -284v-8c0 -178 -150 -278 -336 -283v-86h-205v86c-198 5 -336 109 -336 284v8c0 178 151 278 336 283v84h205v-84zM365 506c-71 -5 -133 -48 -133 -137v-8c0 -95 61 -135 133 -138v283zM570 221c72 3 133 47 133 137v8
c0 97 -60 133 -133 138v-283z" />
    <glyph glyph-name="uni0425" unicode="&#x425;" horiz-adv-x="755" 
d="M247 368l-204 347h233l112 -213l110 213h210l-192 -340l221 -375h-234l-133 246l-133 -246h-211z" />
    <glyph glyph-name="uni0426" unicode="&#x426;" horiz-adv-x="795" 
d="M615 -130l-5 130h-541v715h206v-555h225v555h205v-555h90v-290h-180z" />
    <glyph glyph-name="uni0427" unicode="&#x427;" horiz-adv-x="741" 
d="M467 0v274c-11 -8 -24 -15 -40 -21c-27 -11 -68 -20 -121 -20c-179 0 -259 101 -259 296v186h205v-186c0 -100 34 -135 106 -135c35 0 61 7 80 15c11 5 21 10 29 16v290h205v-715h-205z" />
    <glyph glyph-name="uni0428" unicode="&#x428;" horiz-adv-x="1085" 
d="M69 715h206v-555h165v555h206v-555h165v555h205v-715h-947v715z" />
    <glyph glyph-name="uni0429" unicode="&#x429;" horiz-adv-x="1106" 
d="M926 -130l-5 130h-852v715h206v-555h165v555h206v-555h165v555h205v-555h90v-290h-180z" />
    <glyph glyph-name="uni042A" unicode="&#x42a;" horiz-adv-x="768" 
d="M185 557h-164v158h368v-241h77c179 0 278 -80 278 -231v-4c0 -152 -91 -239 -287 -239h-272v557zM449 154c64 0 100 25 100 86v4c0 60 -34 90 -101 90h-59v-180h60z" />
    <glyph glyph-name="uni042B" unicode="&#x42b;" horiz-adv-x="942" 
d="M873 0h-204v715h204v-715zM69 715h204v-241h67c179 0 278 -80 278 -231v-4c0 -152 -91 -239 -287 -239h-262v715zM323 154c64 0 100 25 100 86v4c0 60 -34 90 -101 90h-49v-180h50z" />
    <glyph glyph-name="uni042C" unicode="&#x42c;" horiz-adv-x="652" 
d="M69 715h204v-241h77c179 0 278 -80 278 -231v-4c0 -152 -91 -239 -287 -239h-272v715zM333 154c64 0 100 25 100 86v4c0 60 -34 90 -101 90h-59v-180h60z" />
    <glyph glyph-name="uni042D" unicode="&#x42d;" horiz-adv-x="759" 
d="M354 -12c-185 0 -312 93 -333 276h204c12 -79 61 -112 133 -112c79 0 127 40 146 133h-235v150h236c-16 88 -68 129 -137 129c-80 0 -116 -36 -127 -108h-211c21 187 146 270 340 270c199 0 357 -142 357 -349v-8c0 -235 -122 -381 -373 -381z" />
    <glyph glyph-name="uni042E" unicode="&#x42e;" horiz-adv-x="1094" 
d="M695 -12c-195 0 -329 118 -356 294h-64v-282h-206v715h206v-273h67c35 172 177 283 356 283c207 0 365 -138 365 -359v-8c0 -220 -147 -370 -368 -370zM699 149c92 0 150 77 150 206v8c0 128 -60 202 -151 202c-92 0 -150 -72 -150 -203v-8c0 -131 62 -205 151 -205z" />
    <glyph glyph-name="uni042F" unicode="&#x42f;" horiz-adv-x="703" 
d="M363 561c-67 0 -102 -25 -102 -84v-4c0 -59 34 -90 103 -90h66v178h-67zM235 0h-217l179 294c-80 20 -134 84 -134 187v4c0 151 111 230 291 230h280v-715h-204v250h-54z" />
    <glyph glyph-name="uni0430" unicode="&#x430;" horiz-adv-x="578" 
d="M204 -12c-47 0 -91 12 -123 37c-33 25 -54 64 -54 120c0 123 103 171 278 171h50v12c0 51 -12 83 -69 83c-49 0 -67 -29 -71 -62h-168c4 63 31 110 75 142c43 31 103 46 175 46s131 -15 172 -47s64 -82 64 -151v-339h-174v61c-25 -39 -71 -73 -155 -73zM266 109
c51 0 89 29 89 74v32h-47c-72 0 -104 -14 -104 -57c0 -31 19 -49 62 -49z" />
    <glyph glyph-name="uni0431" unicode="&#x431;" horiz-adv-x="622" 
d="M311 -12c-179 0 -286 94 -286 339v27c0 273 127 384 321 392l50 2c81 3 125 10 148 17v-132c-24 -13 -59 -24 -155 -29l-42 -2c-116 -5 -171 -70 -186 -177h6c33 52 82 92 186 92c144 0 244 -112 244 -259v-8c0 -163 -125 -262 -286 -262zM312 121c68 0 103 47 103 127v8
c0 80 -35 127 -103 127s-104 -45 -104 -125v-8c0 -83 35 -129 104 -129z" />
    <glyph glyph-name="uni0432" unicode="&#x432;" horiz-adv-x="561" 
d="M54 523h263c129 0 199 -43 199 -127v-1c0 -68 -35 -104 -108 -120c83 -13 128 -50 128 -119v-1c0 -95 -63 -155 -206 -155h-276v523zM273 320c43 0 64 15 64 51c0 37 -25 47 -73 47h-32v-98h41zM284 104c47 0 73 15 73 56c0 36 -19 56 -63 56h-62v-112h52z" />
    <glyph glyph-name="uni0433" unicode="&#x433;" horiz-adv-x="444" 
d="M232 401v-401h-178v523h375v-122h-197z" />
    <glyph glyph-name="uni0434" unicode="&#x434;" horiz-adv-x="623" 
d="M251 253c-4 -54 -13 -98 -26 -131h140v279h-109c0 -56 -2 -105 -5 -148zM168 -127h-158v249h26c29 15 49 56 58 144c3 37 6 81 6 257h443v-401h70v-249h-158v127h-287v-127z" />
    <glyph glyph-name="uni0435" unicode="&#x435;" horiz-adv-x="598" 
d="M313 -12c-83 0 -154 24 -203 69c-51 45 -81 113 -81 198v8c0 84 31 152 82 200s122 74 201 74c72 0 138 -21 187 -65c48 -44 79 -112 79 -205v-47h-368c5 -69 45 -109 109 -109c60 0 84 27 91 62h168c-16 -119 -106 -185 -265 -185zM404 321c-3 64 -33 98 -92 98
c-55 0 -91 -34 -100 -98h192z" />
    <glyph glyph-name="uni0436" unicode="&#x436;" horiz-adv-x="805" 
d="M313 236l-119 -236h-190l158 282l-149 241h183l117 -214v214h177v-214l117 214h181l-148 -235l161 -288h-194l-117 236v-236h-177v236z" />
    <glyph glyph-name="uni0437" unicode="&#x437;" horiz-adv-x="541" 
d="M502 395c0 -68 -35 -104 -108 -120c81 -13 122 -52 122 -116v-3c0 -95 -98 -168 -238 -168c-159 0 -238 77 -258 200h157c17 -49 47 -73 99 -73c39 0 58 18 58 53v3c0 27 -17 45 -60 45h-61v104h56c33 0 51 16 51 41v2c0 23 -14 39 -57 39c-39 0 -67 -21 -79 -60h-157
c13 132 122 195 239 195c140 0 236 -56 236 -140v-2z" />
    <glyph glyph-name="uni0438" unicode="&#x438;" horiz-adv-x="628" 
d="M54 0v523h178v-318l164 318h178v-523h-178v318l-164 -318h-178z" />
    <glyph glyph-name="uni0439" unicode="&#x439;" horiz-adv-x="628" 
d="M309 588c-104 0 -158 57 -165 153h121c3 -28 15 -51 44 -51s43 23 47 51h120c-8 -96 -67 -153 -167 -153zM54 0v523h178v-318l164 318h178v-523h-178v318l-164 -318h-178z" />
    <glyph glyph-name="uni043A" unicode="&#x43a;" horiz-adv-x="577" 
d="M232 229v-229h-179v523h179v-207l141 207h186l-171 -235l185 -288h-200z" />
    <glyph glyph-name="uni043B" unicode="&#x43b;" horiz-adv-x="604" 
d="M259 223c-16 -149 -59 -236 -175 -236c-41 0 -59 10 -60 10v135c1 -1 3 -1 5 -2s7 -1 14 -1c36 0 56 41 64 136c0 18 4 82 4 143l2 115h437v-523h-178v401h-104c-1 -67 -2 -126 -9 -178z" />
    <glyph glyph-name="uni043C" unicode="&#x43c;" horiz-adv-x="758" 
d="M194 336v-336h-140v523h229l102 -261l104 261h215v-523h-176v336l-135 -336h-67z" />
    <glyph glyph-name="uni043D" unicode="&#x43d;" horiz-adv-x="621" 
d="M389 205h-157v-205h-178v523h178v-196h157v196h178v-523h-178v205z" />
    <glyph glyph-name="uni043E" unicode="&#x43e;" horiz-adv-x="622" 
d="M316 121c68 0 103 49 103 137v8c0 88 -35 137 -103 137s-104 -47 -104 -135v-8c0 -91 35 -139 104 -139zM315 -12c-80 0 -152 25 -203 70c-52 45 -83 113 -83 197v8c0 84 31 152 83 200c51 48 123 74 204 74c80 0 152 -25 203 -72s82 -114 82 -197v-8
c0 -85 -31 -153 -82 -200c-52 -47 -124 -72 -204 -72z" />
    <glyph glyph-name="uni043F" unicode="&#x43f;" horiz-adv-x="611" 
d="M379 401h-147v-401h-178v523h503v-523h-178v401z" />
    <glyph glyph-name="uni0440" unicode="&#x440;" horiz-adv-x="643" 
d="M57 523h179v-78c31 51 83 92 163 92c61 0 116 -23 156 -68s65 -114 65 -203v-8c0 -91 -25 -158 -65 -202c-40 -45 -96 -68 -157 -68c-80 0 -135 37 -162 89v-252h-179v698zM335 125c68 0 103 46 103 133v8c0 92 -39 136 -103 136c-65 0 -104 -47 -104 -135v-8
c0 -89 39 -134 104 -134z" />
    <glyph glyph-name="uni0441" unicode="&#x441;" horiz-adv-x="583" 
d="M304 -12c-79 0 -147 23 -196 68c-49 44 -79 111 -79 199v8c0 87 31 155 82 202s120 72 197 72c64 0 125 -14 172 -47c47 -35 79 -88 84 -168h-168c-8 49 -32 76 -84 76c-64 0 -100 -45 -100 -133v-8c0 -92 35 -138 103 -138c51 0 84 30 91 87h161
c-5 -132 -94 -218 -263 -218z" />
    <glyph glyph-name="uni0442" unicode="&#x442;" horiz-adv-x="492" 
d="M482 401h-147v-401h-178v401h-147v122h472v-122z" />
    <glyph glyph-name="uni0443" unicode="&#x443;" horiz-adv-x="589" 
d="M221 53l-209 470h194l108 -279l100 279h171l-280 -698h-171z" />
    <glyph glyph-name="uni0444" unicode="&#x444;" horiz-adv-x="820" 
d="M498 536c164 -8 287 -97 287 -266v-8c0 -167 -124 -268 -287 -273v-164h-176v164c-164 8 -287 97 -287 266v8c0 167 124 268 287 273v217h176v-217zM498 117c68 7 105 60 105 140v8c0 84 -33 137 -105 144v-292zM322 408c-68 -7 -105 -60 -105 -140v-8
c0 -84 33 -137 105 -144v292z" />
    <glyph glyph-name="uni0445" unicode="&#x445;" horiz-adv-x="600" 
d="M189 266l-163 257h206l81 -138l79 138h184l-165 -243l181 -280h-206l-93 156l-95 -156h-183z" />
    <glyph glyph-name="uni0446" unicode="&#x446;" horiz-adv-x="637" 
d="M475 -127l-6 127h-415v523h178v-401h147v401h178v-401h70v-249h-152z" />
    <glyph glyph-name="uni0447" unicode="&#x447;" horiz-adv-x="595" 
d="M362 0v214c-9 -11 -20 -21 -35 -30c-25 -15 -64 -30 -121 -30c-101 0 -166 61 -166 194v175h179v-146c0 -60 13 -88 64 -88c31 0 50 9 62 18c7 5 13 12 17 19v197h179v-523h-179z" />
    <glyph glyph-name="uni0448" unicode="&#x448;" horiz-adv-x="846" 
d="M54 523h178v-401h102v401h178v-401h102v401h178v-523h-738v523z" />
    <glyph glyph-name="uni0449" unicode="&#x449;" horiz-adv-x="872" 
d="M710 -127l-6 127h-650v523h178v-401h102v401h178v-401h102v401h178v-401h70v-249h-152z" />
    <glyph glyph-name="uni044A" unicode="&#x44a;" horiz-adv-x="626" 
d="M127 401h-117v122h295v-156h96c129 0 203 -73 203 -185v-3c0 -112 -66 -179 -210 -179h-267v401zM348 122c47 0 73 14 73 58v3c0 41 -24 62 -73 62h-43v-123h43z" />
    <glyph glyph-name="uni044B" unicode="&#x44b;" horiz-adv-x="784" 
d="M553 523h177v-523h-177v523zM54 523h178v-156h84c129 0 203 -73 203 -185v-3c0 -112 -66 -179 -210 -179h-255v523zM265 122c47 0 73 14 73 58v3c0 41 -24 62 -73 62h-33v-123h33z" />
    <glyph glyph-name="uni044C" unicode="&#x44c;" horiz-adv-x="553" 
d="M54 523h178v-156h96c129 0 203 -73 203 -185v-3c0 -112 -66 -179 -210 -179h-267v523zM275 122c47 0 73 14 73 58v3c0 41 -24 62 -73 62h-43v-123h43z" />
    <glyph glyph-name="uni044D" unicode="&#x44d;" horiz-adv-x="583" 
d="M283 -12c-169 0 -244 76 -263 208h161c15 -55 43 -77 91 -77c53 0 85 29 98 88h-156v112h156c-11 53 -41 79 -92 79c-52 0 -75 -27 -86 -66h-168c13 146 130 205 258 205c154 0 276 -98 276 -271v-8c0 -176 -119 -270 -275 -270z" />
    <glyph glyph-name="uni044E" unicode="&#x44e;" horiz-adv-x="844" 
d="M543 -11c-136 0 -236 72 -263 201l-3 15h-45v-205h-178v523h178v-196h47c24 131 129 211 265 211c157 0 275 -103 275 -269v-8c0 -171 -120 -272 -276 -272zM544 122c57 0 93 49 93 137v8c0 88 -33 137 -93 137c-56 0 -93 -47 -93 -135v-8c0 -91 33 -139 93 -139z" />
    <glyph glyph-name="uni044F" unicode="&#x44f;" horiz-adv-x="559" 
d="M292 403c-47 0 -73 -21 -73 -56v-3c0 -44 25 -59 73 -59h49v118h-49zM199 0h-191l118 209c-55 27 -87 69 -87 137v3c0 101 66 174 210 174h270v-523h-178v171h-55z" />
    <glyph glyph-name="uni0451" unicode="&#x451;" horiz-adv-x="598" 
d="M313 -12c-83 0 -154 24 -203 69c-51 45 -81 113 -81 198v8c0 84 31 152 82 200s122 74 201 74c72 0 138 -21 187 -65c48 -44 79 -112 79 -205v-47h-368c5 -69 45 -109 109 -109c60 0 84 27 91 62h168c-16 -119 -106 -185 -265 -185zM404 321c-3 64 -33 98 -92 98
c-55 0 -91 -34 -100 -98h192zM200 580c-24 0 -45 9 -60 24c-16 15 -25 36 -25 59s9 44 25 60c15 15 36 24 60 24c48 0 86 -37 86 -84s-38 -83 -86 -83zM413 580c-48 0 -85 36 -85 83s37 84 85 84s86 -37 86 -84s-38 -83 -86 -83z" />
    <glyph glyph-name="uni0452" unicode="&#x452;" horiz-adv-x="624" 
d="M396 304c0 60 -23 88 -75 88c-53 0 -89 -31 -89 -99v-293h-179v587h-57v96h57v70h179v-70h155v-96h-155v-148c28 55 84 98 172 98c101 0 171 -64 171 -197v-287c0 -165 -53 -241 -242 -241v130c44 3 63 21 63 85v277z" />
    <glyph glyph-name="uni0453" unicode="&#x453;" horiz-adv-x="444" 
d="M237 749h180l-105 -166h-128zM232 401v-401h-178v523h375v-122h-197z" />
    <glyph glyph-name="uni0454" unicode="&#x454;" horiz-adv-x="583" 
d="M563 196c-19 -132 -94 -208 -263 -208c-156 0 -275 91 -275 267v8c0 173 125 274 279 274c128 0 242 -59 255 -205h-168c-11 39 -31 66 -83 66c-48 0 -82 -27 -94 -79h155v-112h-157c12 -59 45 -88 99 -88c48 0 76 22 91 77h161z" />
    <glyph glyph-name="uni0455" unicode="&#x455;" horiz-adv-x="515" 
d="M262 -12c-149 0 -236 61 -240 178h165c7 -39 23 -59 74 -59c44 0 64 16 64 43c0 25 -25 36 -97 47c-71 9 -120 23 -152 50c-32 25 -47 63 -47 118c0 57 26 101 67 130c40 28 97 42 157 42c64 0 119 -11 159 -38s65 -68 72 -131h-162c-7 35 -26 52 -67 52
c-39 0 -59 -17 -59 -41c0 -25 24 -35 88 -43c72 -9 126 -23 162 -48c36 -27 53 -64 53 -120c0 -124 -92 -180 -237 -180z" />
    <glyph glyph-name="uni0456" unicode="&#x456;" horiz-adv-x="295" 
d="M62 523h179v-523h-179v523zM151 573c-56 0 -98 39 -98 92s42 93 98 93s99 -40 99 -93s-43 -92 -99 -92z" />
    <glyph glyph-name="uni0457" unicode="&#x457;" horiz-adv-x="295" 
d="M46 580c-24 0 -45 9 -61 24c-15 15 -24 36 -24 59s9 44 24 60c16 15 37 24 61 24c48 0 86 -37 86 -84s-38 -83 -86 -83zM256 580c-24 0 -45 9 -60 24c-16 15 -25 36 -25 59s9 44 25 60c15 15 36 24 60 24c48 0 86 -37 86 -84s-38 -83 -86 -83zM62 523h179v-523h-179v523z
" />
    <glyph glyph-name="uni0458" unicode="&#x458;" horiz-adv-x="295" 
d="M-2 -54c44 3 64 21 64 62v515h178v-519c0 -56 -13 -104 -50 -137c-37 -32 -97 -51 -192 -51v130zM151 573c-56 0 -98 39 -98 92s42 93 98 93s99 -40 99 -93s-43 -92 -99 -92z" />
    <glyph glyph-name="uni0459" unicode="&#x459;" horiz-adv-x="850" 
d="M361 401h-93c-1 -59 -3 -112 -7 -159c-16 -161 -57 -255 -177 -255c-41 0 -59 10 -60 10v135c1 -1 3 -1 5 -2s7 -1 14 -1c39 0 58 45 65 152c3 34 4 74 4 242h427v-156h86c129 0 203 -73 203 -185v-3c0 -112 -66 -179 -210 -179h-257v401zM572 122c47 0 73 14 73 58v3
c0 41 -24 62 -73 62h-33v-123h33z" />
    <glyph glyph-name="uni045A" unicode="&#x45a;" horiz-adv-x="867" 
d="M589 122c47 0 73 14 73 58v3c0 41 -24 62 -73 62h-33v-123h33zM378 205h-146v-205h-178v523h178v-196h146v196h178v-156h86c129 0 203 -73 203 -185v-3c0 -112 -66 -179 -210 -179h-257v205z" />
    <glyph glyph-name="uni045B" unicode="&#x45b;" horiz-adv-x="624" 
d="M0 683h57v70h179v-70h155v-96h-155v-148c28 55 84 98 172 98c101 0 171 -64 171 -197v-340h-179v304c0 60 -23 88 -75 88c-53 0 -89 -31 -89 -99v-293h-179v587h-57v96z" />
    <glyph glyph-name="uni045C" unicode="&#x45c;" horiz-adv-x="577" 
d="M288 749h180l-105 -166h-128zM232 229v-229h-179v523h179v-207l141 207h186l-171 -235l185 -288h-200z" />
    <glyph glyph-name="uni045D" unicode="&#x45d;" horiz-adv-x="628" 
d="M54 0v523h178v-318l164 318h178v-523h-178v318l-164 -318h-178zM162 749h180l53 -166h-128z" />
    <glyph glyph-name="uni045E" unicode="&#x45e;" horiz-adv-x="589" 
d="M305 588c-104 0 -158 57 -165 153h121c3 -28 15 -51 44 -51s43 23 47 51h120c-8 -96 -67 -153 -167 -153zM221 53l-209 470h194l108 -279l100 279h171l-280 -698h-171z" />
    <glyph glyph-name="uni045F" unicode="&#x45f;" horiz-adv-x="611" 
d="M54 0v523h178v-401h147v401h178v-523h-174l-2 -127h-149l-3 127h-175z" />
    <glyph glyph-name="uni0490" unicode="&#x490;" horiz-adv-x="572" 
d="M275 555v-555h-206v715h291l6 134h179v-294h-270z" />
    <glyph glyph-name="uni0491" unicode="&#x491;" horiz-adv-x="443" 
d="M232 401v-401h-178v523h207l5 134h153v-256h-187z" />
    <glyph glyph-name="Wgrave" unicode="&#x1e80;" horiz-adv-x="1004" 
d="M18 715h207l92 -446l96 446h182l104 -450l97 450h190l-167 -715h-214l-110 454l-111 -454h-200zM346 905h186l49 -146h-135z" />
    <glyph glyph-name="wgrave" unicode="&#x1e81;" horiz-adv-x="853" 
d="M13 523h187l76 -313l88 313h144l78 -313l85 313h170l-166 -523h-171l-78 292l-81 -292h-174zM271 749h180l53 -166h-128z" />
    <glyph glyph-name="Wacute" unicode="&#x1e82;" horiz-adv-x="1004" 
d="M18 715h207l92 -446l96 446h182l104 -450l97 450h190l-167 -715h-214l-110 454l-111 -454h-200zM485 905h187l-103 -146h-135z" />
    <glyph glyph-name="wacute" unicode="&#x1e83;" horiz-adv-x="853" 
d="M13 523h187l76 -313l88 313h144l78 -313l85 313h170l-166 -523h-171l-78 292l-81 -292h-174zM425 749h180l-105 -166h-128z" />
    <glyph glyph-name="Wdieresis" unicode="&#x1e84;" horiz-adv-x="1004" 
d="M18 715h207l92 -446l96 446h182l104 -450l97 450h190l-167 -715h-214l-110 454l-111 -454h-200zM393 758c-24 0 -45 9 -60 24c-16 15 -25 36 -25 59c0 47 38 84 85 84c48 0 86 -37 86 -84s-38 -83 -86 -83zM616 758c-48 0 -85 36 -85 83s37 84 85 84s86 -37 86 -84
s-38 -83 -86 -83z" />
    <glyph glyph-name="wdieresis" unicode="&#x1e85;" horiz-adv-x="853" 
d="M13 523h187l76 -313l88 313h144l78 -313l85 313h170l-166 -523h-171l-78 292l-81 -292h-174zM328 580c-24 0 -45 9 -60 24c-16 15 -25 36 -25 59s9 44 25 60c15 15 36 24 60 24c48 0 86 -37 86 -84s-38 -83 -86 -83zM541 580c-48 0 -85 36 -85 83s37 84 85 84
s86 -37 86 -84s-38 -83 -86 -83z" />
    <glyph glyph-name="Ygrave" unicode="&#x1ef2;" horiz-adv-x="685" 
d="M245 306l-233 409h223l121 -241l121 241h196l-222 -409v-306h-206v306zM192 905h186l49 -146h-135z" />
    <glyph glyph-name="ygrave" unicode="&#x1ef3;" horiz-adv-x="597" 
d="M221 53l-209 470h194l108 -279l100 279h171l-280 -698h-171zM144 749h180l53 -166h-128z" />
    <glyph glyph-name="uni2009" unicode="&#x2009;" horiz-adv-x="87" 
 />
    <glyph glyph-name="endash" unicode="&#x2013;" horiz-adv-x="549" 
d="M50 345h449v-105h-449v105z" />
    <glyph glyph-name="emdash" unicode="&#x2014;" horiz-adv-x="954" 
d="M50 345h855v-105h-855v105z" />
    <glyph glyph-name="quoteleft" unicode="&#x2018;" horiz-adv-x="318" 
d="M34 481l137 247l101 -39l-80 -261z" />
    <glyph glyph-name="quoteright" unicode="&#x2019;" horiz-adv-x="318" 
d="M46 467l80 261l158 -53l-137 -247z" />
    <glyph glyph-name="quotesinglbase" unicode="&#x201a;" horiz-adv-x="317" 
d="M43 -67l80 261l157 -53l-136 -247z" />
    <glyph glyph-name="quotedblleft" unicode="&#x201c;" horiz-adv-x="544" 
d="M34 481l137 247l101 -39l-80 -261zM261 481l137 247l101 -39l-80 -261z" />
    <glyph glyph-name="quotedblright" unicode="&#x201d;" horiz-adv-x="544" 
d="M46 467l80 261l158 -53l-137 -247zM273 467l80 261l158 -53l-138 -247z" />
    <glyph glyph-name="quotedblbase" unicode="&#x201e;" horiz-adv-x="544" 
d="M43 -67l80 261l157 -53l-136 -247zM270 -67l80 261l157 -53l-136 -247z" />
    <glyph glyph-name="dagger" unicode="&#x2020;" horiz-adv-x="413" 
d="M134 472h-107v126h107v117h145v-117h107v-126h-107v-259h-145v259z" />
    <glyph glyph-name="daggerdbl" unicode="&#x2021;" horiz-adv-x="413" 
d="M134 501h-107v114h107v100h145v-100h107v-114h-107v-74h107v-114h-107v-100h-145v100h-107v114h107v74z" />
    <glyph glyph-name="bullet" unicode="&#x2022;" horiz-adv-x="380" 
d="M190 156c-41 0 -79 16 -104 43c-27 27 -43 64 -43 104s16 77 43 104c25 25 63 42 104 42c43 0 78 -17 105 -42c25 -27 41 -64 41 -104s-16 -77 -41 -104c-27 -27 -62 -43 -105 -43z" />
    <glyph glyph-name="ellipsis" unicode="&#x2026;" horiz-adv-x="901" 
d="M152 -11c-29 0 -56 11 -73 30c-19 17 -29 43 -29 71s10 53 29 72c17 17 44 29 73 29s56 -12 75 -29c19 -19 30 -44 30 -72s-11 -54 -30 -71c-19 -19 -46 -30 -75 -30zM449 -11c-29 0 -56 11 -73 30c-19 17 -29 43 -29 71s10 53 29 72c17 17 44 29 73 29s56 -12 75 -29
c19 -19 30 -44 30 -72s-11 -54 -30 -71c-19 -19 -46 -30 -75 -30zM746 -11c-29 0 -56 11 -73 30c-19 17 -29 43 -29 71s10 53 29 72c17 17 44 29 73 29s56 -12 75 -29c19 -19 30 -44 30 -72s-11 -54 -30 -71c-19 -19 -46 -30 -75 -30z" />
    <glyph glyph-name="perthousand" unicode="&#x2030;" horiz-adv-x="1230" 
d="M217 472c36 0 56 28 56 75s-20 74 -56 74s-57 -28 -57 -73c0 -48 21 -76 57 -76zM216 368c-59 0 -105 19 -137 51s-50 77 -50 128c0 49 21 94 54 126c33 31 81 50 134 50s100 -18 133 -49s54 -73 54 -124c0 -52 -18 -97 -50 -129c-33 -33 -81 -53 -138 -53zM615 715h98
l-496 -715h-98zM610 92c36 0 56 29 56 76c0 45 -20 73 -56 73s-57 -28 -57 -73c0 -48 21 -76 57 -76zM609 -12c-59 0 -105 19 -137 51s-50 77 -50 128c0 49 21 94 54 126c33 31 81 50 134 50s100 -18 133 -49s54 -73 54 -124c0 -52 -18 -97 -50 -129
c-33 -33 -81 -53 -138 -53zM1014 92c37 0 57 29 57 76c0 45 -20 73 -57 73c-35 0 -57 -28 -57 -73c0 -48 22 -76 57 -76zM1014 -12c-59 0 -106 19 -138 51s-50 77 -50 128c0 49 21 94 54 126c33 31 81 50 134 50s101 -18 134 -49s54 -73 54 -124c0 -52 -19 -97 -51 -129
c-33 -33 -80 -53 -137 -53z" />
    <glyph glyph-name="uni2032" unicode="&#x2032;" horiz-adv-x="258" 
d="M59 715h169l-63 -275h-126z" />
    <glyph glyph-name="uni2033" unicode="&#x2033;" horiz-adv-x="470" 
d="M59 715h169l-63 -275h-126zM272 715h168l-62 -275h-127z" />
    <glyph glyph-name="guilsinglleft" unicode="&#x2039;" horiz-adv-x="315" 
d="M35 261l124 191h122l-120 -191l120 -191h-122z" />
    <glyph glyph-name="guilsinglright" unicode="&#x203a;" horiz-adv-x="315" 
d="M154 261l-120 191h121l125 -191l-125 -191h-121z" />
    <glyph glyph-name="fraction" unicode="&#x2044;" horiz-adv-x="176" 
d="M321 715h94l-560 -715h-94z" />
    <glyph glyph-name="Euro" unicode="&#x20ac;" horiz-adv-x="728" 
d="M27 452h63c12 80 48 149 101 197s125 76 210 76c173 0 275 -87 290 -258h-189c-9 69 -43 104 -103 104c-65 0 -99 -46 -111 -119h155l-12 -71h-147v-52h138l-12 -71h-122c11 -72 44 -112 112 -112s99 39 108 116h188c-20 -173 -116 -274 -301 -274c-91 0 -161 28 -212 76
c-52 48 -83 115 -94 194h-62v71h58v52h-58v71z" />
    <glyph glyph-name="uni20B4" unicode="&#x20b4;" horiz-adv-x="668" 
d="M331 -12c-179 0 -278 80 -278 212c0 25 3 47 10 65h-38v71h88c24 20 56 37 96 53h-184v71h371c17 16 22 36 22 61c0 41 -25 58 -73 58c-51 0 -75 -26 -82 -77h-190c13 152 105 223 272 223c165 0 267 -77 267 -197c0 -25 -3 -47 -9 -68h40v-71h-81
c-21 -21 -47 -38 -78 -53h159v-71h-353c-32 -20 -41 -41 -41 -68c0 -42 27 -63 82 -63c77 0 98 42 103 93h195c-7 -156 -103 -239 -298 -239z" />
    <glyph glyph-name="uni20B8" unicode="&#x20b8;" horiz-adv-x="598" 
d="M21 644v71h556v-71h-556zM196 428h-175v158h556v-158h-175v-428h-206v428z" />
    <glyph glyph-name="uni20BD" unicode="&#x20bd;" horiz-adv-x="699" 
d="M379 381c67 0 101 30 101 90v4c0 61 -36 86 -100 86h-60v-180h59zM320 118v-118h-204v118h-96v71h96v52h-96v71h96v403h272c196 0 287 -87 287 -239v-4c0 -151 -99 -231 -278 -231h-77v-52h206v-71h-206z" />
    <glyph glyph-name="uni2116" unicode="&#x2116;" horiz-adv-x="1186" 
d="M952 331c-117 0 -208 67 -208 190v6c0 122 91 196 209 196c116 0 207 -71 207 -192v-5c0 -124 -92 -195 -208 -195zM953 440c40 0 60 28 60 85v5c0 57 -20 85 -60 85c-41 0 -62 -28 -62 -83v-5c0 -58 21 -87 62 -87zM69 715h231l199 -393v393h179v-715h-198l-231 439
v-439h-180v715zM759 265h386v-96h-386v96z" />
    <glyph glyph-name="trademark" unicode="&#x2122;" horiz-adv-x="768" 
d="M345 715h128l59 -158l60 158h131v-321h-109v183l-72 -183h-33l-71 183v-183h-93v321zM116 631h-83v84h273v-84h-83v-237h-107v237z" />
    <glyph glyph-name="Omega" unicode="&#x2126;" horiz-adv-x="825" 
d="M246 353c0 -115 42 -191 121 -251v-102h-330v153h105c-58 43 -107 127 -107 218v6c0 197 153 348 377 348c225 0 378 -140 378 -344v-6c0 -98 -50 -181 -107 -222h105v-153h-331v102c76 56 122 134 122 251v8c0 127 -59 204 -167 204s-166 -75 -166 -204v-8z" />
    <glyph glyph-name="onethird" unicode="&#x2153;" horiz-adv-x="821" 
d="M109 587l-82 -46v107l102 67h114v-376h-134v248zM623 715h94l-560 -715h-94zM625 -7c-59 0 -100 14 -127 38s-40 57 -41 96h116c3 -24 16 -42 45 -42c27 0 39 11 39 34s-14 34 -45 34h-30v74h30c32 0 45 11 45 34c0 17 -11 29 -34 29s-38 -13 -42 -38h-116
c7 76 57 129 161 129c99 0 156 -37 156 -104c0 -43 -25 -69 -68 -81c45 -7 76 -37 76 -82c0 -72 -54 -121 -165 -121z" />
    <glyph glyph-name="twothirds" unicode="&#x2154;" horiz-adv-x="868" 
d="M12 356l128 133c43 43 68 71 68 102c0 21 -10 32 -31 32c-23 0 -36 -17 -40 -52h-120c3 99 66 149 166 149c105 0 155 -52 155 -120c0 -51 -32 -91 -77 -132l-35 -34h113v-95h-327v17zM686 715h94l-560 -715h-94zM673 -7c-59 0 -100 14 -127 38s-40 57 -41 96h116
c3 -24 16 -42 45 -42c27 0 39 11 39 34s-14 34 -45 34h-30v74h30c32 0 45 11 45 34c0 17 -11 29 -34 29s-38 -13 -42 -38h-116c7 76 57 129 161 129c99 0 156 -37 156 -104c0 -43 -25 -69 -68 -81c45 -7 76 -37 76 -82c0 -72 -54 -121 -165 -121z" />
    <glyph glyph-name="oneeighth" unicode="&#x215b;" horiz-adv-x="815" 
d="M109 587l-82 -46v107l102 67h114v-376h-134v248zM613 715h94l-560 -715h-94zM617 -7c-111 0 -171 40 -171 113c0 40 22 76 69 91c-32 13 -53 37 -53 76c0 35 18 62 46 81c28 17 67 27 110 27c91 0 156 -38 156 -107c0 -40 -21 -63 -53 -76c47 -15 67 -48 67 -88
c0 -73 -60 -117 -171 -117zM618 82c23 0 41 15 41 38s-17 39 -41 39s-42 -15 -42 -39s18 -38 42 -38zM618 227c21 0 37 14 37 35s-16 34 -37 34c-19 0 -37 -14 -37 -34c0 -21 18 -35 37 -35z" />
    <glyph glyph-name="threeeighths" unicode="&#x215c;" horiz-adv-x="855" 
d="M193 332c-59 0 -100 14 -127 38s-40 57 -41 96h116c3 -24 16 -42 45 -42c27 0 39 11 39 34s-14 34 -45 34h-30v74h30c32 0 45 11 45 34c0 17 -11 29 -34 29s-38 -13 -42 -38h-116c7 76 57 129 161 129c99 0 156 -37 156 -104c0 -43 -25 -69 -68 -81c45 -7 76 -37 76 -82
c0 -72 -54 -121 -165 -121zM665 715h94l-560 -715h-94zM657 -7c-111 0 -171 40 -171 113c0 40 22 76 69 91c-32 13 -53 37 -53 76c0 35 18 62 46 81c28 17 67 27 110 27c91 0 156 -38 156 -107c0 -40 -21 -63 -53 -76c47 -15 67 -48 67 -88c0 -73 -60 -117 -171 -117z
M658 82c23 0 41 15 41 38s-17 39 -41 39s-42 -15 -42 -39s18 -38 42 -38zM658 227c21 0 37 14 37 35s-16 34 -37 34c-19 0 -37 -14 -37 -34c0 -21 18 -35 37 -35z" />
    <glyph glyph-name="fiveeighths" unicode="&#x215d;" horiz-adv-x="841" 
d="M186 332c-55 0 -95 13 -120 36c-27 23 -39 54 -40 90h120c3 -17 11 -29 38 -29c23 0 35 16 35 41c0 27 -13 40 -38 40c-23 0 -34 -11 -41 -24h-102l11 229h281v-93h-190l-3 -80c16 24 42 48 98 48c71 0 117 -41 117 -118c0 -87 -59 -140 -166 -140zM650 715h94l-560 -715
h-94zM643 -7c-111 0 -171 40 -171 113c0 40 22 76 69 91c-32 13 -53 37 -53 76c0 35 18 62 46 81c28 17 67 27 110 27c91 0 156 -38 156 -107c0 -40 -21 -63 -53 -76c47 -15 67 -48 67 -88c0 -73 -60 -117 -171 -117zM644 82c23 0 41 15 41 38s-17 39 -41 39
s-42 -15 -42 -39s18 -38 42 -38zM644 227c21 0 37 14 37 35s-16 34 -37 34c-19 0 -37 -14 -37 -34c0 -21 18 -35 37 -35z" />
    <glyph glyph-name="seveneighths" unicode="&#x215e;" horiz-adv-x="810" 
d="M174 611h-148v104h314v-13l-136 -363h-132zM600 715h94l-560 -715h-94zM612 -7c-111 0 -171 40 -171 113c0 40 22 76 69 91c-32 13 -53 37 -53 76c0 35 18 62 46 81c28 17 67 27 110 27c91 0 156 -38 156 -107c0 -40 -21 -63 -53 -76c47 -15 67 -48 67 -88
c0 -73 -60 -117 -171 -117zM613 82c23 0 41 15 41 38s-17 39 -41 39s-42 -15 -42 -39s18 -38 42 -38zM613 227c21 0 37 14 37 35s-16 34 -37 34c-19 0 -37 -14 -37 -34c0 -21 18 -35 37 -35z" />
    <glyph glyph-name="Delta" unicode="&#x2206;" horiz-adv-x="758" 
d="M20 23l219 692h283l216 -692v-23h-718v23zM247 158h242l-120 413z" />
    <glyph glyph-name="minus" unicode="&#x2212;" horiz-adv-x="580" 
d="M41 409h498v-138h-498v138z" />
    <glyph glyph-name="approxequal" unicode="&#x2248;" horiz-adv-x="587" 
d="M41 121c4 63 22 108 47 137c25 28 59 41 94 41c40 0 82 -11 119 -20c37 -11 72 -20 96 -20c27 0 41 15 45 44h103c-3 -60 -20 -105 -45 -134s-59 -44 -94 -44c-41 0 -83 9 -120 20c-39 9 -72 20 -96 20c-25 0 -41 -15 -45 -44h-104zM41 342c4 63 22 107 47 136
c25 28 59 41 94 41c40 0 82 -11 119 -20c37 -11 72 -20 96 -20c27 0 41 15 45 44h103c-3 -60 -20 -105 -45 -133c-25 -29 -59 -44 -94 -44c-41 0 -83 9 -120 20c-39 9 -72 20 -96 20c-25 0 -41 -17 -45 -44h-104z" />
    <glyph glyph-name="notequal" unicode="&#x2260;" horiz-adv-x="565" 
d="M43 486h244l37 96h116l-38 -96h120v-123h-167l-29 -74h196v-122h-243l-37 -96h-115l37 96h-121v122h168l28 74h-196v123z" />
    <glyph glyph-name="lessequal" unicode="&#x2264;" horiz-adv-x="521" 
d="M46 368v34l421 226v-160l-166 -82l166 -82v-161zM46 118h421v-118h-421v118z" />
    <glyph glyph-name="greaterequal" unicode="&#x2265;" horiz-adv-x="521" 
d="M53 304l166 82l-166 82v160l422 -226v-34l-422 -225v161zM53 118h422v-118h-422v118z" />
    <glyph glyph-name="uni24C5" unicode="&#x24c5;" horiz-adv-x="851" 
d="M283 561h159c116 0 165 -52 165 -137v-3c0 -85 -54 -131 -158 -131h-41v-132h-125v403zM435 375c36 0 54 15 54 46v3c0 29 -17 43 -53 43h-28v-92h27zM424 31c88 0 169 32 228 91c59 57 95 138 95 237c0 96 -36 178 -93 235c-59 57 -139 90 -228 90
c-91 0 -171 -34 -228 -91c-59 -57 -94 -139 -94 -236c0 -99 36 -180 95 -236c57 -57 138 -90 225 -90zM424 -20c-107 0 -202 41 -271 109c-69 67 -112 161 -112 268c0 105 43 200 112 268s165 110 273 110c109 0 205 -41 274 -109c68 -68 110 -162 110 -267
c0 -108 -43 -202 -112 -270s-166 -109 -274 -109z" />
    <glyph glyph-name="zero.tab" unicode="&#xe44f;" 
d="M307 145c59 0 75 37 75 136v154c0 96 -20 136 -77 136c-59 0 -79 -40 -79 -137v-153c0 -100 22 -136 81 -136zM301 -12c-167 0 -265 101 -265 292v153c0 96 28 169 76 218c47 49 113 74 192 74c77 0 144 -22 192 -69c48 -48 76 -119 76 -218v-153
c0 -192 -103 -297 -271 -297z" />
    <glyph glyph-name="one.tab" unicode="&#xe450;" 
d="M257 513l-172 -116v171l197 147h180v-715h-205v513z" />
    <glyph glyph-name="two.tab" unicode="&#xe451;" 
d="M27 30l222 263c71 87 113 144 113 207c0 47 -21 73 -62 73c-47 0 -68 -30 -73 -118h-187c3 81 23 149 67 197c43 47 108 73 201 73c171 0 256 -85 256 -213c0 -49 -16 -94 -41 -137c-27 -44 -62 -85 -102 -128l-87 -90h229v-157h-536v30z" />
    <glyph glyph-name="three.tab" unicode="&#xe452;" 
d="M308 -12c-189 0 -276 88 -283 248h179c4 -63 26 -99 93 -99c59 0 83 32 83 81c0 55 -25 82 -85 82h-57v129h55c59 0 86 28 86 77c0 43 -22 70 -73 70s-82 -30 -87 -91h-176c7 148 100 240 267 240c159 0 251 -75 251 -196c0 -80 -43 -131 -114 -154
c77 -17 130 -74 130 -161c0 -137 -93 -226 -269 -226z" />
    <glyph glyph-name="four.tab" unicode="&#xe453;" 
d="M325 137h-302v70l256 508h227v-443h72v-135h-72v-137h-181v137zM329 272v287l-142 -287h142z" />
    <glyph glyph-name="five.tab" unicode="&#xe454;" 
d="M297 -12c-177 0 -257 84 -262 239h176c4 -55 24 -81 85 -81c55 0 78 39 78 102c0 60 -32 96 -91 96c-53 0 -86 -23 -107 -52h-118l14 423h453v-151h-310l-5 -161c27 40 75 77 154 77c131 0 204 -87 204 -232c0 -80 -25 -145 -70 -190c-47 -45 -114 -70 -201 -70z" />
    <glyph glyph-name="six.tab" unicode="&#xe455;" 
d="M317 -12c-99 0 -169 32 -214 88c-47 56 -68 137 -68 236v65c0 112 30 199 82 259c52 59 125 89 213 89c71 0 129 -17 170 -50c41 -35 65 -88 69 -161h-171c-7 40 -23 66 -68 66c-72 0 -110 -61 -111 -198c27 44 70 82 149 82c59 0 110 -19 149 -55c37 -37 61 -94 61 -170
s-24 -138 -69 -182s-111 -69 -192 -69zM313 138c52 0 89 40 89 97c0 61 -35 98 -90 98c-53 0 -92 -35 -92 -94c0 -64 38 -101 93 -101z" />
    <glyph glyph-name="seven.tab" unicode="&#xe456;" 
d="M322 553h-279v162h531v-21l-254 -694h-205z" />
    <glyph glyph-name="eight.tab" unicode="&#xe457;" 
d="M304 -12c-83 0 -151 19 -198 55c-48 36 -75 90 -75 159c0 81 41 144 120 175c-57 28 -93 75 -93 147c0 64 29 114 74 149c44 33 106 52 174 52c69 0 132 -19 176 -52c44 -35 71 -84 71 -148c0 -73 -37 -120 -93 -147c79 -29 118 -90 118 -171c0 -69 -27 -124 -74 -161
c-48 -37 -116 -58 -200 -58zM305 137c52 0 90 31 90 87s-36 88 -89 88c-52 0 -91 -32 -91 -88s39 -87 90 -87zM307 430c43 0 78 30 78 77s-35 77 -79 77c-43 0 -78 -29 -78 -76c0 -48 36 -78 79 -78z" />
    <glyph glyph-name="nine.tab" unicode="&#xe458;" 
d="M287 -11c-155 0 -243 69 -252 214h172c7 -40 27 -69 76 -69c77 0 106 60 107 197c-27 -44 -71 -81 -150 -81c-57 0 -111 18 -148 55c-39 36 -62 92 -62 168s25 139 70 183c44 44 109 70 192 70c188 0 281 -115 281 -322v-73c0 -220 -103 -342 -286 -342zM296 383
c53 0 92 34 92 93c0 64 -38 102 -93 102c-52 0 -89 -38 -89 -97c0 -61 35 -98 90 -98z" />
    <glyph glyph-name="cent.tab" unicode="&#xe459;" 
d="M281 -10c-72 7 -135 32 -179 77c-44 44 -71 107 -71 188v8c0 79 27 142 72 189c45 45 107 74 178 82v95h78v-94c59 -5 111 -24 151 -59c39 -36 65 -86 70 -154h-164c-5 40 -26 67 -57 78v-284c37 11 63 41 67 90h157c-7 -121 -87 -203 -224 -216v-125h-78v125zM208 257
c0 -76 26 -122 73 -139v281c-45 -16 -73 -61 -73 -134v-8z" />
    <glyph glyph-name="dollar.tab" unicode="&#xe45a;" 
d="M268 -10c-163 12 -245 104 -250 236h176c4 -47 22 -82 74 -93v145c-83 12 -142 35 -179 71c-39 36 -56 87 -56 156c0 60 23 112 64 151c40 37 99 63 171 68v89h76v-90c137 -12 218 -79 230 -216h-172c-7 37 -19 63 -58 74v-137c72 -11 133 -30 174 -63
c41 -35 65 -84 65 -156c0 -61 -19 -117 -58 -158c-39 -43 -100 -72 -181 -77v-125h-76v125zM204 520c0 -35 13 -53 64 -64v128c-43 -8 -64 -32 -64 -64zM406 203c0 33 -13 50 -62 62v-133c41 11 62 36 62 71z" />
    <glyph glyph-name="Euro.tab" unicode="&#xe45b;" 
d="M16 453h47c4 87 32 155 79 202c47 45 110 70 185 70c72 0 130 -18 173 -57c41 -39 66 -99 70 -184h-166c-7 67 -25 93 -76 93c-56 0 -83 -37 -86 -124h145l-12 -71h-133v-51h124l-13 -72h-111c3 -84 27 -121 87 -121c52 0 77 26 82 101h163c-7 -175 -93 -251 -252 -251
c-155 0 -251 95 -259 271h-47v72h47v51h-47v71z" />
    <glyph glyph-name="a.alt" unicode="&#xe4c0;" horiz-adv-x="642" 
d="M249 -12c-59 0 -113 22 -153 66s-65 111 -65 202v8c0 89 26 157 66 204c40 45 94 69 153 69c80 0 125 -34 156 -87v73h179v-523h-179v84c-27 -53 -81 -96 -157 -96zM310 125c60 0 101 45 101 134v8c0 92 -38 135 -98 135c-64 0 -100 -44 -100 -136v-8
c0 -88 37 -133 97 -133z" />
    <glyph glyph-name="t.alt" unicode="&#xe4d3;" horiz-adv-x="387" 
d="M90 401h-72v122h72v109h179v-109h96v-122h-96v-401h-179v401z" />
    <glyph glyph-name="f_i" unicode="&#xfb01;" horiz-adv-x="683" 
d="M84 401h-66v122h66v46c0 65 20 113 56 145s87 47 148 47c33 0 57 -3 80 -10v-131c-13 4 -27 6 -47 6c-41 0 -59 -22 -59 -57v-46h106v-122h-106v-401h-178v401zM441 523h179v-523h-179v523zM530 573c-56 0 -98 39 -98 92s42 93 98 93s99 -40 99 -93s-43 -92 -99 -92z" />
    <glyph glyph-name="f_l" unicode="&#xfb02;" horiz-adv-x="681" 
d="M84 401h-66v122h66v46c0 65 20 113 56 145s87 47 148 47c33 0 57 -3 80 -10v-131c-13 4 -27 6 -47 6c-41 0 -59 -22 -59 -57v-46h106v-122h-106v-401h-178v401zM441 753h178v-753h-178v753z" />
    <glyph glyph-name="hyphen.uc" horiz-adv-x="413" 
d="M55 397h303v-142h-303v142z" />
    <glyph glyph-name="four.old" horiz-adv-x="677" 
d="M369 40h-351v65l302 514h239v-451h93v-128h-93v-132h-190v132zM374 168v306l-170 -306h170z" />
    <glyph glyph-name="zero.num" horiz-adv-x="430" 
d="M215 433c37 0 55 31 55 91v8c0 64 -17 89 -56 89s-53 -26 -53 -90v-7c0 -63 15 -91 54 -91zM212 332c-119 0 -185 68 -185 191v8c0 60 19 108 54 140c33 32 79 49 134 49c52 0 99 -14 134 -45c33 -31 54 -77 54 -141v-7c0 -123 -72 -195 -191 -195z" />
    <glyph glyph-name="nine.oldtab" horiz-adv-x="600" 
d="M289 288c55 0 95 38 95 99c0 67 -40 106 -95 106c-53 0 -93 -41 -93 -102c0 -64 38 -103 93 -103zM282 -106c-152 0 -240 72 -248 215h164c7 -43 29 -73 84 -73c76 0 100 63 103 204c-27 -44 -72 -76 -148 -76c-116 0 -210 68 -210 217s101 250 261 250
c188 0 275 -122 275 -318v-76c0 -220 -98 -343 -281 -343z" />
    <glyph glyph-name="eight.oldtab" horiz-adv-x="600" 
d="M300 -12c-163 0 -269 75 -269 213c0 83 46 143 125 174c-61 27 -98 74 -98 149c0 131 111 201 244 201c137 0 242 -71 242 -200c0 -75 -37 -122 -97 -149c79 -29 122 -89 122 -170c0 -136 -105 -218 -269 -218zM303 429c45 0 79 31 79 82c0 49 -35 81 -80 81
c-43 0 -79 -30 -79 -81s36 -82 80 -82zM301 127c55 0 92 35 92 92c0 56 -35 92 -91 92c-53 0 -93 -33 -93 -92c0 -57 37 -92 92 -92z" />
    <glyph glyph-name="seven.oldtab" horiz-adv-x="600" 
d="M315 462h-277v157h528v-22l-258 -689h-204z" />
    <glyph glyph-name="six.oldtab" horiz-adv-x="600" 
d="M315 -12c-191 0 -278 124 -278 319v74c0 220 117 344 289 344c139 0 229 -64 237 -208h-166c-7 41 -25 67 -72 67c-72 0 -108 -65 -109 -212c27 43 74 83 151 83c117 0 206 -69 206 -218s-98 -249 -258 -249zM314 128c53 0 93 41 93 102c0 64 -38 103 -93 103
s-96 -38 -96 -99c0 -67 41 -106 96 -106z" />
    <glyph glyph-name="five.oldtab" horiz-adv-x="600" 
d="M294 -104c-172 0 -256 88 -259 229h170c5 -52 25 -86 88 -86c57 0 85 42 85 107s-34 102 -94 102c-51 0 -86 -21 -109 -53h-113l13 424h444v-146h-305l-5 -169c27 39 73 76 153 76c125 0 199 -87 199 -226c0 -159 -97 -258 -267 -258z" />
    <glyph glyph-name="four.oldtab" horiz-adv-x="600" 
d="M319 40h-302v63l255 516h227v-452h75v-127h-75v-132h-180v132zM323 167v299l-147 -299h147z" />
    <glyph glyph-name="three.oldtab" horiz-adv-x="600" 
d="M297 -105c-186 0 -273 97 -276 244h173c4 -63 31 -102 99 -102c60 0 89 34 89 87c0 56 -29 87 -92 87h-55v121h52c61 0 90 33 90 84c0 44 -25 76 -76 76c-53 0 -86 -32 -91 -96h-171c8 133 103 235 268 235c157 0 245 -75 245 -195c0 -81 -41 -132 -112 -155
c77 -17 130 -73 130 -161c0 -136 -98 -225 -273 -225z" />
    <glyph glyph-name="two.oldtab" horiz-adv-x="600" 
d="M25 27l227 218c72 69 108 117 108 172c0 43 -20 70 -67 70s-75 -35 -83 -104h-172c9 155 105 248 268 248c156 0 246 -81 246 -197c0 -85 -54 -149 -134 -224l-77 -71h215v-139h-531v27z" />
    <glyph glyph-name="one.oldtab" horiz-adv-x="600" 
d="M262 430l-175 -114v161l201 142h165v-619h-191v430z" />
    <glyph glyph-name="zero.oldtab" horiz-adv-x="600" 
d="M297 -12c-167 0 -263 105 -263 282v82c0 176 111 279 266 279c154 0 266 -94 266 -276v-81c0 -179 -102 -286 -269 -286zM302 140c60 0 80 43 80 131v80c0 88 -22 131 -82 131s-82 -42 -82 -130v-82c0 -88 24 -130 84 -130z" />
    <glyph glyph-name="yen.oldtab" horiz-adv-x="600" 
d="M63 368h134l-170 326h199l88 -204l85 204h174l-166 -326h142v-69h-150v-51h150v-69h-150v-179h-192v179h-144v69h144v51h-144v69z" />
    <glyph glyph-name="sterling.oldtab" horiz-adv-x="600" 
d="M25 396h43c-7 27 -10 53 -10 84c0 148 121 223 258 223c161 0 243 -81 248 -232h-177c-7 61 -20 82 -64 82c-45 0 -68 -24 -68 -83c0 -25 2 -50 5 -74h149v-119h-133c2 -18 3 -36 3 -53c0 -21 -3 -40 -9 -57c29 -9 52 -20 75 -20c35 0 55 16 58 56h174
c-5 -131 -80 -212 -196 -212c-89 0 -133 51 -176 51c-28 0 -40 -18 -43 -42h-151c4 65 37 126 89 159c7 17 10 38 10 65c0 17 -3 34 -7 53h-78v119z" />
    <glyph glyph-name="f.short" horiz-adv-x="384" 
d="M84 401h-66v122h66v46c0 65 20 113 56 145s87 47 148 47c33 0 57 -3 80 -10v-131c-13 4 -27 6 -47 6c-41 0 -59 -22 -59 -57v-46h106v-122h-106v-401h-178v401z" />
    <glyph glyph-name="f_f.short" horiz-adv-x="714" 
d="M84 401h-66v122h66v40c0 129 80 191 204 191c33 0 57 -3 80 -10v-131c-13 4 -28 7 -48 7c-40 0 -58 -24 -58 -57v-40h152v46c0 129 81 192 205 192c33 0 56 -3 79 -10v-131c-13 4 -26 6 -47 6c-41 0 -58 -22 -58 -57v-46h105v-122h-105v-401h-179v401h-152v-401h-178v401
z" />
    <glyph glyph-name="Euro.oldtab" horiz-adv-x="600" 
d="M24 439h46c8 169 111 264 256 264c140 0 228 -69 236 -233h-161c-5 64 -26 89 -75 89c-53 0 -79 -36 -82 -120h141l-13 -68h-128v-50h119l-12 -70h-107c3 -83 27 -117 84 -117c51 0 75 26 80 98h158c-7 -169 -92 -244 -245 -244c-149 0 -243 92 -251 263h-46v70h46v50
h-46v68z" />
    <glyph glyph-name="dollar.oldtab" horiz-adv-x="600" 
d="M203 504c0 -33 13 -50 62 -61v123c-41 -8 -62 -31 -62 -62zM404 197c0 32 -12 48 -63 60v-129c43 9 63 34 63 69zM265 -10c-161 12 -241 101 -246 229h174c5 -44 21 -79 72 -90v141c-164 24 -231 86 -231 220c0 116 89 201 231 212v87h76v-88c137 -12 217 -76 229 -209
h-171c-7 36 -19 61 -58 72v-133c144 -21 237 -72 237 -213c0 -118 -74 -218 -237 -229v-120h-76v121z" />
    <glyph glyph-name="braceright.tab" horiz-adv-x="308" 
d="M20 -31c64 4 80 28 67 100l-18 98c-15 77 16 123 100 150c-84 27 -115 73 -100 149l18 98c12 69 -3 92 -67 96v117c188 0 256 -68 220 -235l-18 -87c-11 -47 3 -77 67 -84v-112c-64 -7 -78 -37 -67 -84l18 -88c33 -160 -32 -235 -220 -235v117z" />
    <glyph glyph-name="braceleft.tab" horiz-adv-x="308" 
d="M288 -148c-188 0 -255 75 -220 235l18 88c11 47 -3 77 -67 84v112c64 7 78 37 67 84l-18 87c-36 167 32 235 220 235v-117c-64 -4 -79 -27 -67 -96l18 -98c15 -76 -16 -122 -100 -149c84 -27 115 -73 100 -150l-18 -98c-13 -72 3 -96 67 -100v-117z" />
    <glyph glyph-name="bracketright.tab" horiz-adv-x="308" 
d="M20 -31h78v690h-78v117h238v-924h-238v117z" />
    <glyph glyph-name="bracketleft.tab" horiz-adv-x="308" 
d="M50 776h238v-117h-78v-690h78v-117h-238v924z" />
    <glyph glyph-name="parenright.tab" horiz-adv-x="308" 
d="M-1 -148c28 51 56 114 77 191c21 76 36 166 36 270s-15 194 -36 271c-21 76 -49 140 -77 191h127c32 -47 68 -106 96 -182s48 -168 48 -280c0 -111 -20 -203 -48 -279s-64 -135 -96 -182h-127z" />
    <glyph glyph-name="parenleft.tab" horiz-adv-x="308" 
d="M182 -148c-32 47 -68 106 -96 182s-48 168 -48 279c0 112 20 204 48 280s64 135 96 182h127c-28 -51 -56 -115 -77 -191c-21 -77 -36 -167 -36 -271s15 -194 36 -270c21 -77 49 -140 77 -191h-127z" />
    <glyph glyph-name="semicolon.tab" horiz-adv-x="308" 
d="M-8 -81l83 263l166 -59l-143 -245zM156 275c-60 0 -102 44 -102 101c0 28 10 53 29 72c17 17 44 29 73 29s56 -12 75 -29c19 -19 30 -44 30 -72c0 -57 -45 -101 -105 -101z" />
    <glyph glyph-name="colon.tab" horiz-adv-x="308" 
d="M154 -11c-29 0 -55 11 -72 30c-19 17 -30 43 -30 71s11 53 30 72c17 17 43 29 72 29s56 -12 75 -29c19 -19 30 -44 30 -72s-11 -54 -30 -71c-19 -19 -46 -30 -75 -30zM154 275c-59 0 -102 44 -102 101c0 28 11 53 30 72c17 17 43 29 72 29s56 -12 75 -29
c19 -19 30 -44 30 -72c0 -57 -45 -101 -105 -101z" />
    <glyph glyph-name="comma.tab" horiz-adv-x="308" 
d="M14 -81l84 263l166 -59l-144 -245z" />
    <glyph glyph-name="period.tab" horiz-adv-x="308" 
d="M153 -11c-29 0 -56 11 -73 30c-19 17 -29 43 -29 71s10 53 29 72c17 17 44 29 73 29s56 -12 75 -29c19 -19 30 -44 30 -72s-11 -54 -30 -71c-19 -19 -46 -30 -75 -30z" />
    <glyph glyph-name="greaterequal.tab" 
d="M97 304l166 82l-166 82v160l421 -226v-34l-421 -225v161zM97 118h421v-118h-421v118z" />
    <glyph glyph-name="lessequal.tab" 
d="M90 368v34l421 226v-160l-166 -82l166 -82v-161zM90 118h421v-118h-421v118z" />
    <glyph glyph-name="greater.tab" 
d="M84 223l204 99l-204 106v158l441 -246v-34l-441 -246v163z" />
    <glyph glyph-name="less.tab" 
d="M83 305v34l442 246v-162l-204 -100l204 -106v-158z" />
    <glyph glyph-name="approxequal.tab" 
d="M55 121c4 63 21 108 46 137c25 28 59 41 94 41c40 0 81 -11 117 -20c36 -11 69 -20 93 -20c27 0 41 15 45 44h103c-3 -60 -20 -105 -45 -134s-58 -44 -93 -44c-41 0 -82 9 -118 20c-37 9 -69 20 -94 20s-41 -15 -45 -44h-103zM55 342c4 63 21 107 46 136
c25 28 59 41 94 41c40 0 81 -11 117 -20c36 -11 69 -20 93 -20c27 0 41 15 45 44h103c-3 -60 -20 -105 -45 -133c-25 -29 -58 -44 -93 -44c-41 0 -82 9 -118 20c-37 9 -69 20 -94 20s-41 -17 -45 -44h-103z" />
    <glyph glyph-name="notequal.tab" 
d="M64 486h244l38 96h115l-37 -96h120v-123h-168l-28 -74h196v-122h-243l-37 -96h-116l37 96h-121v122h168l29 74h-197v123z" />
    <glyph glyph-name="equal.tab" 
d="M71 289h466v-122h-466v122zM71 486h466v-123h-466v123z" />
    <glyph glyph-name="divide.tab" 
d="M304 43c-52 0 -94 40 -94 92c0 25 11 49 28 66c16 16 39 27 66 27c25 0 50 -11 67 -27c16 -17 27 -41 27 -66c0 -52 -42 -92 -94 -92zM55 402h498v-124h-498v124zM304 452c-27 0 -50 11 -66 28c-17 16 -28 40 -28 65c0 52 42 92 94 92s94 -40 94 -92
c0 -25 -11 -49 -27 -65c-17 -17 -42 -28 -67 -28z" />
    <glyph glyph-name="multiply.tab" 
d="M57 184l152 152l-155 154l95 96l154 -156l153 153l94 -95l-153 -152l155 -154l-95 -95l-154 155l-152 -152z" />
    <glyph glyph-name="plusminus.tab" 
d="M232 341h-175v131h175v164h144v-164h176v-131h-176v-165h-144v165zM57 118h497v-118h-497v118z" />
    <glyph glyph-name="minus.tab" 
d="M62 409h484v-138h-484v138z" />
    <glyph glyph-name="plus.tab" 
d="M232 275h-169v130h169v185h144v-185h169v-130h-169v-185h-144v185z" />
    <glyph glyph-name="perthousand.tab" horiz-adv-x="1008" 
d="M181 479c27 0 39 22 39 78s-12 77 -39 77s-40 -21 -40 -77c0 -59 13 -78 40 -78zM180 387c-96 0 -154 66 -154 169c0 51 17 93 45 122c27 28 66 45 110 45s82 -15 110 -43c27 -28 44 -69 44 -121s-15 -96 -42 -125c-28 -31 -66 -47 -113 -47zM534 715h95l-483 -715h-95z
M494 80c27 0 39 22 39 78s-12 77 -39 77s-40 -21 -40 -77c0 -59 13 -78 40 -78zM494 -12c-96 0 -155 66 -155 169c0 51 17 93 45 122c28 28 66 45 110 45s82 -15 110 -43c27 -28 44 -69 44 -121c0 -104 -61 -172 -154 -172zM828 80c27 0 39 22 39 78s-12 77 -39 77
s-40 -21 -40 -77c0 -59 13 -78 40 -78zM827 -12c-96 0 -154 66 -154 169c0 51 17 93 45 122c27 28 66 45 110 45s82 -15 110 -43c27 -28 44 -69 44 -121c0 -104 -60 -172 -155 -172z" />
    <glyph glyph-name="percent.tab" horiz-adv-x="808" 
d="M216 482c35 0 53 26 53 73c0 44 -18 72 -53 72c-33 0 -54 -27 -54 -72c0 -47 21 -73 54 -73zM215 383c-55 0 -99 18 -130 49s-48 74 -48 122s19 90 51 121c32 29 77 48 128 48s95 -18 127 -47s51 -71 51 -119c0 -49 -17 -93 -48 -124c-32 -31 -76 -50 -131 -50zM599 715
h97l-483 -715h-98zM593 87c35 0 53 26 53 73c0 44 -18 72 -53 72c-33 0 -54 -27 -54 -72c0 -47 21 -73 54 -73zM592 -12c-56 0 -100 18 -131 49s-47 74 -47 122s19 90 51 121c32 29 77 48 128 48s95 -18 127 -47s51 -71 51 -119c0 -49 -17 -93 -48 -124
c-32 -31 -76 -50 -131 -50z" />
    <glyph glyph-name="two.num" horiz-adv-x="361" 
d="M9 356l128 133c43 43 68 71 68 102c0 21 -10 32 -31 32c-23 0 -36 -17 -40 -52h-120c3 99 66 149 166 149c105 0 155 -52 155 -120c0 -51 -32 -91 -77 -132l-35 -34h113v-95h-327v17z" />
    <glyph glyph-name="uni045D.bgr" horiz-adv-x="623" 
d="M229 -12c-51 0 -94 15 -125 47c-32 32 -51 80 -51 147v341h179v-312c0 -59 25 -88 74 -88c55 0 89 31 89 99v301h179v-523h-179v81c-28 -55 -78 -93 -166 -93zM150 749h180l53 -166h-128z" />
    <glyph glyph-name="three.num" horiz-adv-x="382" 
d="M190 332c-59 0 -100 14 -127 38s-40 57 -41 96h116c3 -24 16 -42 45 -42c27 0 39 11 39 34s-14 34 -45 34h-30v74h30c32 0 45 11 45 34c0 17 -11 29 -34 29s-38 -13 -42 -38h-116c7 76 57 129 161 129c99 0 156 -37 156 -104c0 -43 -25 -69 -68 -81c45 -7 76 -37 76 -82
c0 -72 -54 -121 -165 -121z" />
    <glyph glyph-name="four.num" horiz-adv-x="402" 
d="M203 409h-187v49l156 257h159v-219h48v-87h-48v-70h-128v70zM207 496v132l-77 -132h77z" />
    <glyph glyph-name="uni20B4.old" horiz-adv-x="649" 
d="M322 -12c-175 0 -270 78 -270 206c0 24 3 45 10 63h-37v69h86c24 19 54 36 93 51h-179v69h360c16 16 21 35 21 59c0 40 -24 56 -71 56c-48 0 -72 -25 -79 -74h-184c12 147 102 216 263 216c160 0 259 -74 259 -191c0 -24 -3 -46 -9 -66h39v-69h-79
c-19 -20 -43 -36 -74 -51h153v-69h-341c-32 -19 -41 -39 -41 -66c0 -41 27 -61 80 -61c75 0 95 39 100 90h189c-7 -152 -100 -232 -289 -232z" />
    <glyph glyph-name="uni20B4.oldtab" horiz-adv-x="600" 
d="M297 -12c-165 0 -256 78 -256 206c0 23 3 44 9 63h-35v69h82c22 19 51 36 88 51h-170v69h341c15 16 20 35 20 59c0 40 -22 56 -67 56s-68 -25 -75 -74h-174c11 147 96 216 249 216c152 0 246 -74 246 -191c0 -23 -3 -45 -8 -66h36v-69h-74c-17 -19 -40 -36 -71 -51h145
v-69h-323c-31 -19 -39 -39 -39 -66c0 -41 25 -61 76 -61c72 0 90 39 95 90h179c-7 -152 -95 -232 -274 -232z" />
    <glyph glyph-name="uni20B4.tab" horiz-adv-x="600" 
d="M297 -12c-161 0 -252 80 -252 212c0 24 3 46 9 65h-33v71h79c21 19 50 37 88 53h-167v71h335c15 16 20 36 20 61c0 41 -23 58 -66 58s-68 -26 -74 -77h-172c13 152 95 223 246 223c150 0 242 -77 242 -197c0 -25 -3 -47 -8 -68h35v-71h-73c-19 -20 -40 -38 -71 -53h144
v-71h-319c-29 -20 -37 -41 -37 -68c0 -43 27 -63 74 -63c69 0 88 42 93 93h176c-7 -156 -93 -239 -269 -239z" />
    <glyph glyph-name="five.num" horiz-adv-x="375" 
d="M183 332c-55 0 -95 13 -120 36c-27 23 -39 54 -40 90h120c3 -17 11 -29 38 -29c23 0 35 16 35 41c0 27 -13 40 -38 40c-23 0 -34 -11 -41 -24h-102l11 229h281v-93h-190l-3 -80c16 24 42 48 98 48c71 0 117 -41 117 -118c0 -87 -59 -140 -166 -140z" />
    <glyph glyph-name="uni20B8.old" horiz-adv-x="581" 
d="M21 625v69h539v-69h-539zM191 415h-170v153h539v-153h-169v-415h-200v415z" />
    <glyph glyph-name="uni20B8.oldtab" horiz-adv-x="600" 
d="M40 625v69h519v-69h-519zM200 415h-160v153h519v-153h-159v-415h-200v415z" />
    <glyph glyph-name="uni20B8.tab" horiz-adv-x="600" 
d="M42 644v71h516v-71h-516zM197 428h-155v158h516v-158h-155v-428h-206v428z" />
    <glyph glyph-name="six.num" horiz-adv-x="399" 
d="M209 332c-64 0 -110 20 -139 53c-29 32 -43 79 -43 135v11c0 59 20 106 53 139c32 32 79 50 132 50c96 0 148 -42 155 -118h-121c-3 13 -9 25 -32 25c-36 0 -51 -34 -54 -86c16 24 40 41 88 41c35 0 66 -8 90 -27c23 -19 37 -47 37 -88c0 -81 -62 -135 -166 -135z
M207 420c25 0 41 18 41 45c0 25 -17 43 -41 43c-25 0 -40 -20 -40 -43c0 -27 15 -45 40 -45z" />
    <glyph glyph-name="uni20BD.old" horiz-adv-x="679" 
d="M368 370c65 0 98 29 98 87v4c0 60 -34 83 -97 83h-58v-174h57zM311 114v-114h-198v114h-93v69h93v51h-93v69h93v391h264c191 0 278 -84 278 -232v-4c0 -147 -97 -224 -269 -224h-75v-51h200v-69h-200z" />
    <glyph glyph-name="uni20BD.oldtab" horiz-adv-x="600" 
d="M328 370c59 0 89 29 89 87v4c0 60 -32 83 -88 83h-53v-174h52zM276 114v-114h-181v114h-85v69h85v51h-85v69h85v391h241c173 0 254 -85 254 -232v-4c0 -147 -89 -224 -246 -224h-68v-51h182v-69h-182z" />
    <glyph glyph-name="uni20BD.tab" horiz-adv-x="600" 
d="M326 381c55 0 83 30 83 90v4c0 61 -28 86 -83 86h-48v-180h48zM278 118v-118h-184v118h-84v71h84v52h-84v71h84v403h239c173 0 253 -87 253 -239v-4c0 -151 -88 -231 -245 -231h-63v-52h177v-71h-177z" />
    <glyph glyph-name="seven.num" horiz-adv-x="351" 
d="M171 611h-148v104h314v-13l-136 -363h-132z" />
    <glyph glyph-name="eight.num" horiz-adv-x="388" 
d="M194 332c-111 0 -171 40 -171 113c0 40 22 76 69 91c-32 13 -53 37 -53 76c0 35 18 62 46 81c28 17 67 27 110 27c91 0 156 -38 156 -107c0 -40 -21 -63 -53 -76c47 -15 67 -48 67 -88c0 -73 -60 -117 -171 -117zM195 421c23 0 41 15 41 38s-17 39 -41 39
s-42 -15 -42 -39s18 -38 42 -38zM195 566c21 0 37 14 37 35s-16 34 -37 34c-19 0 -37 -14 -37 -34c0 -21 18 -35 37 -35z" />
    <glyph glyph-name="nine.num" horiz-adv-x="399" 
d="M190 332c-96 0 -153 43 -160 119h122c3 -15 11 -25 35 -25c39 0 52 32 53 84c-17 -23 -36 -39 -83 -39c-37 0 -70 8 -94 27c-24 17 -38 46 -38 89c0 80 62 134 165 134c63 0 108 -20 139 -53c29 -33 44 -80 44 -135v-10c0 -121 -63 -191 -183 -191zM190 545
c27 0 41 18 41 42c0 27 -14 46 -41 46c-24 0 -40 -18 -40 -45c0 -24 15 -43 40 -43z" />
    <glyph glyph-name="zero.den" horiz-adv-x="430" 
d="M215 94c37 0 55 31 55 91v8c0 64 -17 89 -56 89s-53 -26 -53 -90v-7c0 -63 15 -91 54 -91zM212 -7c-119 0 -185 68 -185 191v8c0 60 19 108 54 140c33 32 79 49 134 49c52 0 99 -14 134 -45c33 -31 54 -77 54 -141v-7c0 -123 -72 -195 -191 -195z" />
    <glyph glyph-name="one.den" horiz-adv-x="295" 
d="M106 248l-82 -46v107l102 67h114v-376h-134v248z" />
    <glyph glyph-name="two.den" horiz-adv-x="362" 
d="M9 17l128 133c43 43 68 71 68 102c0 21 -10 32 -31 32c-23 0 -36 -17 -40 -52h-120c3 99 66 149 166 149c105 0 155 -52 155 -120c0 -51 -32 -91 -77 -132l-35 -34h113v-95h-327v17z" />
    <glyph glyph-name="uni0437.bgr" horiz-adv-x="527" 
d="M508 23c0 -121 -79 -217 -253 -217c-163 0 -242 91 -255 203h178c5 -43 25 -77 73 -77c56 0 76 38 76 94v6c0 59 -19 91 -84 91h-49v122h48c52 0 73 27 73 78v10c0 57 -23 78 -63 78c-41 0 -66 -23 -69 -95h-169c13 175 121 221 244 221c144 0 233 -83 233 -193v-8
c0 -66 -46 -128 -110 -144c83 -21 127 -70 127 -161v-8z" />
    <glyph glyph-name="uni0449.bgr" horiz-adv-x="957" 
d="M795 -127l-6 127h-90v80c-28 -51 -83 -94 -164 -94c-69 0 -117 29 -142 87c-45 -61 -106 -87 -173 -87c-99 0 -171 64 -171 195v342h179v-312c0 -53 26 -79 67 -79c48 0 80 31 80 88v303h177v-312c0 -53 26 -79 67 -79c48 0 80 31 80 88v303h179v-401h69v-249h-152z" />
    <glyph glyph-name="three.den" horiz-adv-x="382" 
d="M190 -7c-59 0 -100 14 -127 38s-40 57 -41 96h116c3 -24 16 -42 45 -42c27 0 39 11 39 34s-14 34 -45 34h-30v74h30c32 0 45 11 45 34c0 17 -11 29 -34 29s-38 -13 -42 -38h-116c7 76 57 129 161 129c99 0 156 -37 156 -104c0 -43 -25 -69 -68 -81c45 -7 76 -37 76 -82
c0 -72 -54 -121 -165 -121z" />
    <glyph glyph-name="uni044A.bgr" horiz-adv-x="620" 
d="M18 401v122h285v-158c13 1 35 3 66 2c159 -1 229 -69 229 -178v-7c0 -117 -87 -193 -243 -193c-171 3 -230 78 -230 226v186h-107zM356 106c37 0 59 24 59 67v5c0 47 -24 71 -71 71c-17 1 -30 0 -41 -1v-73c0 -44 16 -69 53 -69z" />
    <glyph glyph-name="four.den" horiz-adv-x="403" 
d="M203 70h-187v49l156 257h159v-219h48v-87h-48v-70h-128v70zM207 157v132l-77 -132h77z" />
    <glyph glyph-name="five.den" horiz-adv-x="375" 
d="M183 -7c-55 0 -95 13 -120 36c-27 23 -39 54 -40 90h120c3 -17 11 -29 38 -29c23 0 35 16 35 41c0 27 -13 40 -38 40c-23 0 -34 -11 -41 -24h-102l11 229h281v-93h-190l-3 -80c16 24 42 48 98 48c71 0 117 -41 117 -118c0 -87 -59 -140 -166 -140z" />
    <glyph glyph-name="six.den" horiz-adv-x="400" 
d="M209 -7c-64 0 -110 20 -139 53c-29 32 -43 79 -43 135v11c0 59 20 106 53 139c32 32 79 50 132 50c96 0 148 -42 155 -118h-121c-3 13 -9 25 -32 25c-36 0 -51 -34 -54 -86c16 24 40 41 88 41c35 0 66 -8 90 -27c23 -19 37 -47 37 -88c0 -81 -62 -135 -166 -135zM207 81
c25 0 41 18 41 45c0 25 -17 43 -41 43c-25 0 -40 -20 -40 -43c0 -27 15 -45 40 -45z" />
    <glyph glyph-name="seven.den" horiz-adv-x="352" 
d="M171 272h-148v104h314v-13l-136 -363h-132z" />
    <glyph glyph-name="florin.tab" 
d="M91 414h103l18 125c19 133 100 186 221 186c33 0 53 -4 78 -11v-134c-15 4 -28 7 -51 7c-40 0 -64 -20 -72 -63l-16 -110h124v-121h-141l-67 -475h-178l67 475h-86v121z" />
    <glyph glyph-name="uni0431.locl" horiz-adv-x="622" 
d="M311 -12c-161 0 -286 98 -286 257v8c0 88 56 186 176 213l25 4l16 2c-103 26 -176 64 -176 148c0 81 51 133 159 133h164c87 0 145 8 164 13v-127c-20 -11 -65 -21 -165 -21h-159c-17 0 -25 -9 -25 -20s8 -29 88 -53c202 -64 305 -139 305 -287v-8
c0 -160 -125 -262 -286 -262zM312 121c68 0 103 50 103 127v8c0 79 -35 127 -103 127s-104 -46 -104 -125v-8c0 -80 35 -129 104 -129z" />
    <glyph glyph-name="yen.tab" 
d="M59 365h139l-174 350h205l88 -213l88 213h179l-170 -350h145v-71h-153v-51h153v-72h-153v-171h-199v171h-148v72h148v51h-148v71z" />
    <glyph glyph-name="eight.den" horiz-adv-x="389" 
d="M194 -7c-111 0 -171 40 -171 113c0 40 22 76 69 91c-32 13 -53 37 -53 76c0 35 18 62 46 81c28 17 67 27 110 27c91 0 156 -38 156 -107c0 -40 -21 -63 -53 -76c47 -15 67 -48 67 -88c0 -73 -60 -117 -171 -117zM195 82c23 0 41 15 41 38s-17 39 -41 39s-42 -15 -42 -39
s18 -38 42 -38zM195 227c21 0 37 14 37 35s-16 34 -37 34c-19 0 -37 -14 -37 -34c0 -21 18 -35 37 -35z" />
    <glyph glyph-name="nine.den" horiz-adv-x="400" 
d="M190 -8c-96 0 -153 43 -160 119h122c3 -15 11 -25 35 -25c39 0 52 32 53 84c-17 -23 -36 -39 -83 -39c-37 0 -70 8 -94 27c-24 17 -38 46 -38 89c0 80 62 134 165 134c63 0 108 -20 139 -53c29 -33 44 -80 44 -135v-10c0 -121 -63 -191 -183 -191zM190 205
c27 0 41 18 41 42c0 27 -14 46 -41 46c-24 0 -40 -18 -40 -45c0 -24 15 -43 40 -43z" />
    <glyph glyph-name="zero.sub" horiz-adv-x="430" 
d="M215 -26c37 0 55 31 55 91v8c0 64 -17 89 -56 89s-53 -26 -53 -90v-7c0 -63 15 -91 54 -91zM212 -127c-119 0 -185 68 -185 191v8c0 60 19 108 54 140c33 32 79 49 134 49c52 0 99 -14 134 -45c33 -31 54 -77 54 -141v-7c0 -123 -72 -195 -191 -195z" />
    <glyph glyph-name="one.sub" horiz-adv-x="295" 
d="M106 128l-82 -46v107l102 67h114v-376h-134v248z" />
    <glyph glyph-name="sterling.tab" 
d="M35 401h45c-7 28 -11 59 -11 95c0 76 28 132 73 171c44 39 107 58 178 58c168 0 242 -82 247 -238h-165c-7 64 -29 84 -74 84c-47 0 -74 -26 -74 -86c0 -28 3 -56 7 -84h161v-108h-144c3 -21 4 -42 4 -63c0 -19 -3 -38 -10 -57c32 -11 60 -21 84 -21c35 0 58 16 61 57
h165c-4 -135 -70 -218 -189 -218c-47 0 -82 13 -111 26s-53 26 -76 26c-28 0 -41 -18 -44 -43h-142c5 75 33 141 90 172c5 16 8 35 8 59c0 20 -3 41 -8 62h-75v108z" />
    <glyph glyph-name="two.sub" horiz-adv-x="362" 
d="M9 -103l128 133c43 43 68 71 68 102c0 21 -10 32 -31 32c-23 0 -36 -17 -40 -52h-120c3 99 66 149 166 149c105 0 155 -52 155 -120c0 -51 -32 -91 -77 -132l-35 -34h113v-95h-327v17z" />
    <glyph glyph-name="three.sub" horiz-adv-x="382" 
d="M190 -127c-59 0 -100 14 -127 38s-40 57 -41 96h116c3 -24 16 -42 45 -42c27 0 39 11 39 34s-14 34 -45 34h-30v74h30c32 0 45 11 45 34c0 17 -11 29 -34 29s-38 -13 -42 -38h-116c7 76 57 129 161 129c99 0 156 -37 156 -104c0 -43 -25 -69 -68 -81c45 -7 76 -37 76 -82
c0 -72 -54 -121 -165 -121z" />
    <glyph glyph-name="four.sub" horiz-adv-x="403" 
d="M203 -50h-187v49l156 257h159v-219h48v-87h-48v-70h-128v70zM207 37v132l-77 -132h77z" />
    <glyph glyph-name="space.tab" horiz-adv-x="300" 
 />
    <glyph glyph-name="uni0433.bgr" horiz-adv-x="517" 
d="M246 -12c-133 0 -226 57 -226 166c0 100 71 139 187 160c92 16 111 33 111 57s-15 41 -54 41c-41 0 -60 -17 -67 -52h-162c19 121 102 177 243 177c123 0 212 -56 212 -159s-62 -144 -182 -165c-92 -16 -109 -29 -109 -59c0 -23 15 -39 59 -39c51 0 67 20 74 59h165
c-6 -124 -90 -186 -251 -186z" />
    <glyph glyph-name="uni043F.bgr" horiz-adv-x="624" 
d="M53 523h179v-84c28 55 84 98 172 98c101 0 171 -64 171 -197v-340h-179v304c0 60 -23 88 -75 88c-53 0 -89 -31 -89 -99v-293h-179v523z" />
    <glyph glyph-name="uni0448.bgr" horiz-adv-x="931" 
d="M878 0h-179v80c-28 -51 -83 -94 -164 -94c-69 0 -117 29 -142 87c-45 -61 -106 -87 -173 -87c-99 0 -171 64 -171 195v342h179v-312c0 -53 26 -79 67 -79c48 0 80 31 80 88v303h177v-312c0 -53 26 -79 67 -79c48 0 80 31 80 88v303h179v-523z" />
    <glyph glyph-name="uni044E.bgr" horiz-adv-x="844" 
d="M543 -11c-140 0 -245 78 -266 216h-45v-205h-178v753h178v-426h47c24 131 129 211 265 211c157 0 275 -103 275 -269v-8c0 -171 -120 -272 -276 -272zM544 122c57 0 93 49 93 137v8c0 88 -33 137 -93 137c-56 0 -93 -47 -93 -135v-8c0 -91 33 -139 93 -139z" />
    <glyph glyph-name="nine.old" horiz-adv-x="659" 
d="M309 -106c-161 0 -255 80 -268 215h180c8 -36 33 -70 89 -70c41 0 69 15 88 48s27 86 30 162c-31 -47 -79 -85 -164 -85c-64 0 -122 19 -163 56c-43 37 -68 92 -68 163c0 75 27 137 76 181c49 43 121 67 210 67c109 0 185 -35 233 -96s69 -147 69 -250v-31
c0 -112 -28 -202 -80 -265c-53 -61 -131 -95 -232 -95zM319 286c60 0 99 45 99 102c0 61 -39 104 -99 104s-97 -43 -97 -103s37 -103 97 -103z" />
    <glyph glyph-name="eight.old" horiz-adv-x="647" 
d="M323 -12c-87 0 -159 19 -210 55s-80 89 -80 158c0 83 51 143 135 174c-61 27 -106 74 -106 149c0 65 30 115 78 150c48 33 113 51 185 51c73 0 139 -18 186 -51c47 -35 76 -85 76 -149c0 -75 -46 -122 -106 -149c83 -29 133 -89 133 -170c0 -68 -28 -123 -79 -160
c-52 -37 -124 -58 -212 -58zM324 127c59 0 99 36 99 93c0 56 -39 92 -99 92c-57 0 -99 -33 -99 -92s42 -93 99 -93zM325 429c49 0 86 31 86 82c0 49 -38 81 -86 81c-47 0 -86 -32 -86 -81c0 -51 39 -82 86 -82z" />
    <glyph glyph-name="seven.old" horiz-adv-x="579" 
d="M315 462h-290v157h540v-22l-260 -689h-204z" />
    <glyph glyph-name="six.old" horiz-adv-x="659" 
d="M340 -12c-109 0 -185 36 -233 96s-69 145 -69 244v34c0 116 33 206 89 269c55 61 133 94 224 94c155 0 245 -71 260 -208h-181c-7 37 -28 63 -79 63c-76 0 -116 -67 -120 -210c29 47 79 86 163 86c64 0 121 -20 164 -57c41 -37 67 -94 67 -167s-27 -134 -76 -177
s-121 -67 -209 -67zM339 127c60 0 98 43 98 103s-37 103 -97 103c-61 0 -100 -44 -100 -101c0 -63 39 -105 99 -105z" />
    <glyph glyph-name="uni0434.bgr" horiz-adv-x="641" 
d="M310 158c64 0 104 45 104 120v7c0 72 -36 118 -103 118c-68 0 -103 -47 -103 -119v-8c0 -72 38 -118 102 -118zM298 -194c-178 0 -261 75 -274 194h178c8 -39 31 -68 96 -68c80 0 111 45 111 110v80c-26 -50 -84 -96 -162 -96c-123 0 -222 90 -222 251v8
c0 155 99 252 222 252c84 0 131 -35 162 -88v74h179v-479c0 -157 -102 -238 -290 -238z" />
    <glyph glyph-name="five.old" horiz-adv-x="621" 
d="M304 -104c-92 0 -160 25 -205 65c-47 41 -69 99 -72 164h178c4 -24 10 -45 25 -60c15 -16 37 -25 72 -25c60 0 94 45 94 105c0 64 -40 101 -103 101c-59 0 -95 -23 -118 -52h-118l15 425h472v-148h-331l-5 -167c31 41 83 73 167 73c61 0 114 -20 153 -59
c37 -40 59 -97 59 -172c0 -76 -26 -138 -74 -182c-49 -44 -120 -68 -209 -68z" />
    <glyph glyph-name="uni0438.bgr" horiz-adv-x="623" 
d="M225 -12c-100 0 -176 61 -176 194v341h179v-312c0 -59 25 -88 74 -88c55 0 89 31 89 99v301h179v-523h-179v81c-28 -55 -78 -93 -166 -93z" />
    <glyph glyph-name="uni043F.locl" horiz-adv-x="611" 
d="M379 401h-147v-401h-178v523h503v-523h-178v401z" />
    <glyph glyph-name="one.num" horiz-adv-x="294" 
d="M106 587l-82 -46v107l102 67h114v-376h-134v248z" />
    <glyph glyph-name="five.sub" horiz-adv-x="375" 
d="M183 -127c-55 0 -95 13 -120 36c-27 23 -39 54 -40 90h120c3 -17 11 -29 38 -29c23 0 35 16 35 41c0 27 -13 40 -38 40c-23 0 -34 -11 -41 -24h-102l11 229h281v-93h-190l-3 -80c16 24 42 48 98 48c71 0 117 -41 117 -118c0 -87 -59 -140 -166 -140z" />
    <glyph glyph-name="uni044C.bgr" horiz-adv-x="544" 
d="M279 -11c-171 3 -230 78 -230 226v308h178v-158c13 1 35 3 66 2c159 -1 229 -69 229 -178v-7c0 -117 -87 -193 -243 -193zM280 106c37 0 59 24 59 67v5c0 47 -24 71 -71 71c-17 1 -30 0 -41 -1v-73c0 -44 16 -69 53 -69z" />
    <glyph glyph-name="three.old" horiz-adv-x="628" 
d="M317 -104c-97 0 -168 23 -215 66c-48 43 -71 102 -75 177h174c5 -61 34 -101 106 -101c65 0 97 33 97 88c0 57 -34 85 -102 85h-58v121h54c71 0 98 32 98 83c0 47 -28 77 -79 77c-56 0 -92 -36 -99 -96h-173c4 67 28 125 75 168c45 41 114 67 203 67
c161 0 254 -78 254 -195c0 -80 -43 -129 -118 -156c84 -20 135 -70 135 -166c0 -64 -23 -118 -70 -157s-115 -61 -207 -61z" />
    <glyph glyph-name="uni0439.bgr" horiz-adv-x="623" 
d="M303 588c-104 0 -158 57 -165 153h121c3 -28 15 -51 44 -51s43 23 47 51h120c-8 -96 -67 -153 -167 -153zM225 -12c-100 0 -176 61 -176 194v341h179v-312c0 -59 25 -88 74 -88c55 0 89 31 89 99v301h179v-523h-179v81c-28 -55 -78 -93 -166 -93z" />
    <glyph glyph-name="uni0414.bgr" horiz-adv-x="746" 
d="M257 160h203l-102 342zM185 -130h-180v290h60l189 555h233l194 -555h60v-290h-180l-5 130h-366z" />
    <glyph glyph-name="uni0416.bgr" horiz-adv-x="1027" 
d="M413 307l-186 -307h-219l245 379l-230 336h208l182 -291v291h201v-290l185 290h205l-233 -329l248 -386h-224l-181 307v-307h-201v307z" />
    <glyph glyph-name="uni041A.bgr" horiz-adv-x="726" 
d="M275 299v-299h-206v715h206v-283l215 283h214l-262 -332l276 -383h-237z" />
    <glyph glyph-name="uni0436.bgr" horiz-adv-x="805" 
d="M313 236l-119 -236h-190l158 282l-149 241h183l117 -214v444h177v-444l117 214h181l-148 -235l161 -288h-194l-117 236v-236h-177v236z" />
    <glyph glyph-name="two.old" horiz-adv-x="594" 
d="M15 27l227 218c72 69 119 118 119 174c0 40 -24 68 -72 68c-49 0 -81 -35 -89 -104h-172c4 77 30 139 77 182s113 66 196 66c80 0 142 -20 186 -55c43 -35 65 -85 65 -142c0 -43 -14 -80 -38 -116c-25 -36 -59 -71 -99 -108l-77 -71h220v-139h-543v27z" />
    <glyph glyph-name="one.old" horiz-adv-x="443" 
d="M169 430l-133 -81v161l158 109h165v-619h-190v430z" />
    <glyph glyph-name="uni0432.bgr" horiz-adv-x="546" 
d="M30 478c0 213 111 285 250 285c141 0 229 -61 229 -193v-10c0 -77 -47 -154 -124 -167c100 -17 141 -81 141 -169v-7c0 -120 -94 -231 -250 -231c-141 0 -246 64 -246 250v242zM215 446h33c67 0 85 39 85 103v10c0 53 -14 78 -53 78c-43 0 -65 -38 -65 -126v-65zM276 112
c47 0 69 33 69 110v10c0 69 -24 98 -96 98h-34v-111c0 -68 13 -107 61 -107z" />
    <glyph glyph-name="zero.old" horiz-adv-x="682" 
d="M342 134c79 0 113 57 113 166v22c0 108 -35 164 -114 164c-76 0 -114 -54 -114 -163v-23c0 -111 39 -166 115 -166zM339 -12c-91 0 -167 28 -220 81c-55 52 -85 129 -85 228v23c0 99 33 177 88 230c55 52 131 81 219 81s164 -27 219 -78c55 -52 88 -128 88 -228v-23
c0 -99 -31 -178 -86 -231c-55 -55 -132 -83 -223 -83z" />
    <glyph glyph-name="yen.old" horiz-adv-x="635" 
d="M66 355h133l-185 339h216l100 -227l100 227h190l-175 -339h134v-69h-156v-51h156v-69h-156v-166h-200v166h-157v69h157v51h-157v69z" />
    <glyph glyph-name="uni0424.bgr" horiz-adv-x="938" 
d="M573 676c198 -5 336 -120 336 -309v-8c0 -193 -150 -302 -336 -307v-62h-205v62c-198 5 -336 118 -336 308v8c0 193 151 303 336 308v59h205v-59zM368 531c-71 -5 -133 -56 -133 -162v-8c0 -111 61 -159 133 -162v332zM573 197c72 3 133 55 133 161v8
c0 113 -60 158 -133 163v-332z" />
    <glyph glyph-name="sterling.old" horiz-adv-x="659" 
d="M37 395h50c-7 27 -12 54 -12 86c0 72 29 126 77 165c48 37 114 57 190 57c89 0 154 -23 198 -64c43 -41 64 -99 67 -170h-181c-8 60 -31 84 -78 84s-76 -31 -76 -83c0 -25 3 -50 7 -75h171v-117h-152c3 -19 4 -35 4 -54c0 -23 -3 -40 -10 -57c35 -11 63 -22 88 -22
c39 0 60 19 61 58h179c-3 -61 -21 -114 -54 -151c-35 -39 -83 -61 -147 -61c-49 0 -88 13 -121 26c-33 12 -59 25 -83 25c-31 0 -44 -19 -47 -42h-147c5 75 38 143 103 171c5 15 8 33 8 53c0 17 -3 35 -8 54h-87v117z" />
    <glyph glyph-name="Euro.old" horiz-adv-x="706" 
d="M26 438h62c12 77 46 144 98 191c51 47 120 74 203 74c168 0 266 -84 281 -249h-183c-8 67 -41 99 -100 99c-64 0 -97 -44 -108 -115h152l-13 -69h-143v-49h134l-11 -69h-119c11 -71 44 -110 109 -110s96 37 105 113h182c-19 -167 -112 -266 -292 -266
c-88 0 -157 27 -206 74s-79 112 -90 189h-61v69h57v49h-57v69z" />
    <glyph glyph-name="dollar.old" horiz-adv-x="648" 
d="M282 -10c-83 5 -145 31 -186 71c-43 40 -64 94 -68 158h180c5 -44 23 -79 74 -90v141c-84 12 -143 33 -182 69c-39 35 -56 84 -56 151c0 57 23 109 64 146c41 36 101 62 174 67v86h78v-87c141 -12 224 -77 236 -210h-176c-7 36 -21 61 -60 72v-133
c73 -11 135 -29 178 -62s67 -80 67 -151c0 -59 -19 -114 -59 -154c-41 -41 -102 -70 -186 -75v-120h-78v121zM425 197c0 32 -13 48 -65 60v-129c44 9 65 33 65 69zM218 504c0 -33 13 -50 64 -61v123c-43 -8 -64 -31 -64 -62z" />
    <glyph glyph-name="uni0442.bgr" horiz-adv-x="931" 
d="M53 523h179v-80c28 51 83 94 164 94c69 0 117 -29 142 -87c45 61 106 87 173 87c99 0 171 -64 171 -195v-342h-179v312c0 53 -26 79 -67 79c-48 0 -80 -31 -80 -88v-303h-177v312c0 53 -26 79 -67 79c-48 0 -80 -31 -80 -88v-303h-179v523z" />
    <glyph glyph-name="six.sub" horiz-adv-x="400" 
d="M209 -127c-64 0 -110 20 -139 53c-29 32 -43 79 -43 135v11c0 59 20 106 53 139c32 32 79 50 132 50c96 0 148 -42 155 -118h-121c-3 13 -9 25 -32 25c-36 0 -51 -34 -54 -86c16 24 40 41 88 41c35 0 66 -8 90 -27c23 -19 37 -47 37 -88c0 -81 -62 -135 -166 -135z
M207 -39c25 0 41 18 41 45c0 25 -17 43 -41 43c-25 0 -40 -20 -40 -43c0 -27 15 -45 40 -45z" />
    <glyph glyph-name="seven.sub" horiz-adv-x="352" 
d="M171 152h-148v104h314v-13l-136 -363h-132z" />
    <glyph glyph-name="eight.sub" horiz-adv-x="389" 
d="M194 -127c-111 0 -171 40 -171 113c0 40 22 76 69 91c-32 13 -53 37 -53 76c0 35 18 62 46 81c28 17 67 27 110 27c91 0 156 -38 156 -107c0 -40 -21 -63 -53 -76c47 -15 67 -48 67 -88c0 -73 -60 -117 -171 -117zM195 -38c23 0 41 15 41 38s-17 39 -41 39
s-42 -15 -42 -39s18 -38 42 -38zM195 107c21 0 37 14 37 35s-16 34 -37 34c-19 0 -37 -14 -37 -34c0 -21 18 -35 37 -35z" />
    <glyph glyph-name="nine.sub" horiz-adv-x="400" 
d="M190 -127c-96 0 -153 43 -160 119h122c3 -15 11 -25 35 -25c39 0 52 32 53 84c-17 -23 -36 -39 -83 -39c-37 0 -70 8 -94 27c-24 17 -38 46 -38 89c0 80 62 134 165 134c63 0 108 -20 139 -53c29 -33 44 -80 44 -135v-10c0 -121 -63 -191 -183 -191zM190 86
c27 0 41 18 41 42c0 27 -14 46 -41 46c-24 0 -40 -18 -40 -45c0 -24 15 -43 40 -43z" />
    <glyph glyph-name="hungarumlaut.uc" horiz-adv-x="408" 
d="M84 905h153l-74 -146h-120zM278 905h154l-75 -146h-120z" />
    <glyph glyph-name="tilde.uc" horiz-adv-x="408" 
d="M269 758c-28 0 -51 9 -70 17s-34 17 -50 17s-28 -14 -31 -33h-102c4 52 18 91 41 116c21 25 50 37 81 37c27 0 49 -8 69 -16c19 -9 36 -17 52 -17c19 0 28 13 32 32h101c-4 -52 -20 -91 -41 -116c-23 -25 -53 -37 -82 -37z" />
    <glyph glyph-name="ring.uc" horiz-adv-x="408" 
d="M204 810c27 0 46 21 46 50c0 31 -19 50 -46 50c-28 0 -46 -19 -46 -50c0 -29 18 -50 46 -50zM204 744c-33 0 -63 14 -84 35c-23 20 -36 49 -36 81s13 61 36 82c21 21 51 34 84 34s62 -13 85 -34c21 -21 35 -50 35 -82s-14 -61 -35 -81c-23 -21 -52 -35 -85 -35z" />
    <glyph glyph-name="dotaccent.uc" horiz-adv-x="408" 
d="M204 757c-55 0 -95 38 -95 90c0 51 40 89 95 89s95 -38 95 -89c0 -52 -40 -90 -95 -90z" />
    <glyph glyph-name="breve.uc" horiz-adv-x="408" 
d="M203 752c-99 0 -158 57 -165 153h116c3 -28 20 -46 49 -46s48 18 52 46h115c-8 -96 -71 -153 -167 -153z" />
    <glyph glyph-name="caron.uc" horiz-adv-x="408" 
d="M16 905h130l58 -49l59 49h127l-114 -146h-150z" />
    <glyph glyph-name="circumflex.uc" horiz-adv-x="408" 
d="M131 905h150l110 -146h-130l-59 49l-58 -49h-127z" />
    <glyph glyph-name="acute.uc" horiz-adv-x="408" 
d="M177 905h187l-103 -146h-135z" />
    <glyph glyph-name="macron.uc" horiz-adv-x="408" 
d="M43 878h322v-107h-322v107z" />
    <glyph glyph-name="uni041B.bgr" horiz-adv-x="728" 
d="M350 502l-146 -502h-192l234 715h233l237 -715h-221z" />
    <glyph glyph-name="dieresis.uc" horiz-adv-x="408" 
d="M92 758c-24 0 -45 9 -60 24c-16 15 -25 36 -25 59c0 47 38 84 85 84c48 0 86 -37 86 -84s-38 -83 -86 -83zM315 758c-48 0 -85 36 -85 83s37 84 85 84s86 -37 86 -84s-38 -83 -86 -83z" />
    <glyph glyph-name="grave.uc" horiz-adv-x="408" 
d="M47 905h186l49 -146h-135z" />
    <glyph glyph-name="at.uc" horiz-adv-x="929" 
d="M464 -80c-133 0 -241 45 -314 118s-113 175 -113 287c0 131 53 240 136 316c81 76 193 119 309 119c117 0 220 -36 293 -99s117 -154 117 -262c0 -99 -27 -166 -67 -209c-40 -44 -94 -62 -147 -62c-87 0 -131 28 -146 81c-27 -53 -69 -84 -133 -84
c-97 0 -161 70 -161 185c0 69 22 128 58 169c35 40 83 63 138 63c61 0 92 -26 107 -59l7 51h147l-33 -270c-5 -41 7 -66 42 -66c28 0 54 15 74 48c20 32 33 83 33 155c0 87 -32 158 -88 209c-57 51 -139 80 -239 80c-101 0 -192 -35 -257 -99s-105 -156 -105 -268
c0 -95 28 -178 87 -238c57 -60 144 -96 259 -96c116 0 203 39 254 87h91c-33 -47 -81 -85 -142 -113c-61 -29 -130 -43 -207 -43zM447 242c43 0 79 47 79 116c0 43 -20 69 -63 69c-44 0 -75 -44 -75 -111c0 -43 20 -74 59 -74z" />
    <glyph glyph-name="bar.uc" horiz-adv-x="276" 
d="M75 777h125v-861h-125v861z" />
    <glyph glyph-name="backslash.uc" horiz-adv-x="442" 
d="M2 777h143l296 -861h-142z" />
    <glyph glyph-name="slash.uc" horiz-adv-x="442" 
d="M297 777h143l-297 -861h-143z" />
    <glyph glyph-name="braceright.uc" horiz-adv-x="426" 
d="M42 36c37 1 61 8 76 23c13 13 16 36 12 71l-9 85c-8 68 28 115 103 132c-73 17 -111 64 -103 132l9 85c8 67 -12 86 -88 89v131c201 0 290 -62 265 -226l-11 -68c-8 -47 18 -82 95 -82v-125c-77 0 -103 -36 -95 -83l11 -69c25 -159 -62 -225 -265 -225v130z" />
    <glyph glyph-name="braceleft.uc" horiz-adv-x="426" 
d="M384 -94c-203 0 -290 66 -265 225l11 69c8 47 -18 83 -95 83v125c77 0 103 35 95 82l-11 68c-27 164 64 226 265 226v-131c-76 -3 -96 -22 -88 -89l9 -85c8 -68 -30 -115 -103 -132c75 -17 111 -64 103 -132l-9 -85c-4 -35 -2 -58 13 -71c13 -15 36 -22 75 -23v-130z" />
    <glyph glyph-name="bracketright.uc" horiz-adv-x="417" 
d="M43 37h124v616h-124v130h304v-876h-304v130z" />
    <glyph glyph-name="bracketleft.uc" horiz-adv-x="417" 
d="M70 783h305v-130h-125v-616h125v-130h-305v876z" />
    <glyph glyph-name="space_uni0326" horiz-adv-x="408" 
d="M100 -205l42 177l158 -19l-99 -185z" />
    <glyph glyph-name="parenright.uc" horiz-adv-x="364" 
d="M15 -98c32 49 66 112 91 187c25 73 43 159 43 255c0 95 -18 180 -43 255c-25 73 -59 135 -91 186h140c37 -45 79 -104 111 -176c32 -73 54 -161 54 -265s-22 -192 -54 -265s-74 -132 -111 -177h-140z" />
    <glyph glyph-name="parenleft.uc" horiz-adv-x="364" 
d="M209 -98c-39 45 -80 104 -112 177c-32 72 -54 160 -54 264s22 192 54 265s73 132 112 177h139c-32 -51 -66 -113 -90 -186c-25 -75 -43 -160 -43 -256c0 -95 18 -181 43 -254c24 -75 58 -138 90 -187h-139z" />
    <glyph glyph-name="guillemotright.uc" horiz-adv-x="488" 
d="M154 301l-120 195h115l125 -195l-125 -195h-115zM334 301l-120 195h115l125 -195l-125 -195h-115z" />
    <glyph glyph-name="guillemotleft.uc" horiz-adv-x="488" 
d="M35 301l124 195h115l-119 -195l119 -195h-115zM215 301l124 195h115l-119 -195l119 -195h-115z" />
    <glyph glyph-name="guilsinglright.uc" horiz-adv-x="315" 
d="M154 301l-120 195h121l125 -195l-125 -195h-121z" />
    <glyph glyph-name="guilsinglleft.uc" horiz-adv-x="315" 
d="M35 301l124 195h122l-120 -195l120 -195h-122z" />
    <glyph glyph-name="uni0442.locl" horiz-adv-x="492" 
d="M482 401h-147v-401h-178v401h-147v122h472v-122z" />
    <glyph glyph-name="emdash.uc" horiz-adv-x="954" 
d="M50 381h855v-105h-855v105z" />
    <glyph glyph-name="idotaccent" horiz-adv-x="303" 
d="M151 573c-56 0 -98 39 -98 92s42 93 98 93s99 -40 99 -93s-43 -92 -99 -92zM62 523h179v-523h-179v523z" />
    <glyph glyph-name="endash.uc" horiz-adv-x="549" 
d="M50 381h449v-105h-449v105z" />
    <glyph glyph-name="plus.sub" horiz-adv-x="365" 
d="M135 27h-96v93h96v99h95v-99h96v-93h-96v-98h-95v98z" />
    <glyph glyph-name="exclamdown.uc" horiz-adv-x="342" 
d="M171 725c60 0 106 -42 106 -98s-46 -100 -106 -100c-29 0 -56 12 -76 29c-19 19 -31 43 -31 71s12 53 31 70c20 19 47 28 76 28zM272 0h-202l27 480h148z" />
    <glyph glyph-name="questiondown.uc" horiz-adv-x="564" 
d="M391 461c0 -37 -13 -69 -32 -96s-43 -49 -66 -72c-35 -33 -65 -63 -65 -98c0 -40 20 -60 61 -60c43 0 72 32 79 88h174c-3 -76 -30 -134 -78 -174c-47 -39 -112 -59 -189 -59c-155 0 -241 68 -241 188c0 67 33 111 73 150c24 24 51 47 72 68c23 23 39 45 43 69v15h169
v-19zM306 725c31 0 57 -9 76 -28c20 -17 32 -42 32 -70s-12 -52 -32 -71c-19 -17 -45 -29 -76 -29c-29 0 -55 12 -75 29c-19 19 -31 43 -31 71s12 53 31 70c20 19 46 28 75 28z" />
    <glyph glyph-name="caron.alt" horiz-adv-x="408" 
d="M163 753h133l-49 -174h-93z" />
    <glyph glyph-name="registered.alt" horiz-adv-x="851" 
d="M265 562h163c112 0 167 -43 167 -130v-2c0 -57 -28 -89 -68 -106l92 -165h-129l-77 139h-24v-139h-124v403zM421 379c36 0 53 16 53 45v3c0 28 -17 41 -52 41h-33v-89h32zM424 31c88 0 169 32 228 91c59 57 95 138 95 237c0 96 -36 178 -93 235c-59 57 -139 90 -228 90
c-91 0 -171 -34 -228 -91c-59 -57 -94 -139 -94 -236c0 -99 36 -180 95 -236c57 -57 138 -90 225 -90zM424 -20c-107 0 -202 41 -271 109c-69 67 -112 161 -112 268c0 105 43 200 112 268s165 110 273 110c109 0 205 -41 274 -109c68 -68 110 -162 110 -267
c0 -108 -43 -202 -112 -270s-166 -109 -274 -109z" />
    <glyph glyph-name="space_uni0326.alt" horiz-adv-x="408" 
d="M121 585l99 185l101 -27l-42 -177z" />
    <glyph glyph-name="tcommaaccent.alt" horiz-adv-x="387" 
d="M65 -205l42 177l158 -19l-99 -185zM90 401h-72v122h72v109h179v-109h96v-122h-96v-401h-179v401z" />
    <glyph glyph-name="tcaron.alt" horiz-adv-x="387" 
d="M90 401h-72v122h72v109h179v-109h96v-122h-96v-401h-179v401zM319 753h133l-49 -174h-93z" />
    <glyph glyph-name="tbar.alt" horiz-adv-x="379" 
d="M14 332h72v69h-72v122h72v109h179v-109h96v-122h-96v-69h96v-99h-96v-233h-179v233h-72v99z" />
    <glyph glyph-name="germandbls.alt" horiz-adv-x="700" 
d="M472 -9c-137 0 -207 65 -210 169h155c3 -35 17 -53 45 -53c25 0 41 11 41 43c0 17 -8 29 -23 40s-36 20 -63 32c-28 13 -59 29 -83 52c-24 21 -41 50 -41 89c0 47 28 83 56 115c27 32 55 59 55 90c0 41 -21 62 -72 62c-59 0 -96 -32 -96 -97v-533h-179v530
c0 75 29 133 78 173s119 61 200 61c72 0 134 -15 177 -43c43 -29 68 -72 68 -127c0 -59 -30 -97 -59 -126s-59 -49 -59 -70c0 -11 6 -17 22 -26c15 -9 39 -20 74 -39c29 -16 59 -35 80 -62s35 -59 35 -102c0 -59 -21 -104 -56 -133c-36 -31 -86 -45 -145 -45z" />
    <glyph glyph-name="atilde.alt" horiz-adv-x="642" 
d="M249 -12c-59 0 -113 22 -153 66s-65 111 -65 202v8c0 89 26 157 66 204c40 45 94 69 153 69c80 0 125 -34 156 -87v73h179v-523h-179v84c-27 -53 -81 -96 -157 -96zM310 125c60 0 101 45 101 134v8c0 92 -38 135 -98 135c-64 0 -100 -44 -100 -136v-8
c0 -88 37 -133 97 -133zM389 587c-28 0 -49 8 -68 17c-19 8 -33 16 -49 16s-28 -13 -31 -32h-97c7 105 52 156 115 156c27 0 48 -9 68 -17c19 -8 35 -17 51 -17c19 0 28 13 32 32h97c-8 -104 -58 -155 -118 -155z" />
    <glyph glyph-name="uni043A.bgr" horiz-adv-x="577" 
d="M232 229v-229h-179v753h179v-437l141 207h186l-171 -235l185 -288h-200z" />
    <glyph glyph-name="uni043D.bgr" horiz-adv-x="621" 
d="M389 205h-157v-205h-178v523h178v-196h157v196h178v-523h-178v205z" />
    <glyph glyph-name="aringacute.alt" horiz-adv-x="642" 
d="M249 -12c-59 0 -113 22 -153 66s-65 111 -65 202v8c0 89 26 157 66 204c40 45 94 69 153 69c80 0 125 -34 156 -87v73h179v-523h-179v84c-27 -53 -81 -96 -157 -96zM310 125c60 0 101 45 101 134v8c0 92 -38 135 -98 135c-64 0 -100 -44 -100 -136v-8
c0 -88 37 -133 97 -133zM324 636c27 0 46 21 46 50c0 31 -19 51 -46 51s-46 -20 -46 -51c0 -29 19 -50 46 -50zM324 572c-32 0 -62 13 -83 34c-21 20 -35 48 -35 80s14 60 35 81s51 34 83 34s62 -13 83 -34s35 -49 35 -81s-14 -60 -35 -80c-21 -21 -51 -34 -83 -34zM312 975
h187l-103 -146h-135z" />
    <glyph glyph-name="aring.alt" horiz-adv-x="642" 
d="M249 -12c-59 0 -113 22 -153 66s-65 111 -65 202v8c0 89 26 157 66 204c40 45 94 69 153 69c80 0 125 -34 156 -87v73h179v-523h-179v84c-27 -53 -81 -96 -157 -96zM310 125c60 0 101 45 101 134v8c0 92 -38 135 -98 135c-64 0 -100 -44 -100 -136v-8
c0 -88 37 -133 97 -133zM324 642c27 0 46 21 46 50c0 31 -19 51 -46 51s-46 -20 -46 -51c0 -29 19 -50 46 -50zM324 578c-32 0 -62 13 -83 34c-21 20 -35 48 -35 80s14 60 35 81s51 34 83 34s62 -13 83 -34s35 -49 35 -81s-14 -60 -35 -80c-21 -21 -51 -34 -83 -34z" />
    <glyph glyph-name="aogonek.alt" horiz-adv-x="642" 
d="M500 -182c-72 0 -117 30 -117 81c0 25 11 46 27 62s38 28 59 39h-63v84c-27 -53 -81 -96 -157 -96c-59 0 -113 22 -153 66s-65 111 -65 202v8c0 89 26 157 66 204c40 45 94 69 153 69c80 0 125 -34 156 -87v73h179v-511c-41 -31 -56 -52 -56 -75c0 -19 11 -28 30 -28
c12 0 22 1 30 5v-80c-19 -8 -46 -16 -89 -16zM310 125c60 0 101 45 101 134v8c0 92 -38 135 -98 135c-64 0 -100 -44 -100 -136v-8c0 -88 37 -133 97 -133z" />
    <glyph glyph-name="uni0433.locl" horiz-adv-x="439" 
d="M232 401v-401h-178v523h375v-122h-197z" />
    <glyph glyph-name="uni0446.bgr" horiz-adv-x="649" 
d="M487 -127l-6 127h-90v81c-28 -55 -78 -93 -166 -93c-100 0 -176 61 -176 194v341h179v-312c0 -59 25 -88 74 -88c55 0 89 31 89 99v301h179v-401h69v-249h-152z" />
    <glyph glyph-name="uni0447.bgr" horiz-adv-x="595" 
d="M362 0v214c-9 -11 -20 -21 -35 -30c-25 -15 -64 -30 -121 -30c-101 0 -166 61 -166 194v175h179v-146c0 -60 13 -88 64 -88c31 0 50 9 62 18c7 5 13 12 17 19v197h179v-523h-179z" />
    <glyph glyph-name="amacron.alt" horiz-adv-x="642" 
d="M249 -12c-59 0 -113 22 -153 66s-65 111 -65 202v8c0 89 26 157 66 204c40 45 94 69 153 69c80 0 125 -34 156 -87v73h179v-523h-179v84c-27 -53 -81 -96 -157 -96zM310 125c60 0 101 45 101 134v8c0 92 -38 135 -98 135c-64 0 -100 -44 -100 -136v-8
c0 -88 37 -133 97 -133zM172 712h307v-100h-307v100z" />
    </font>
</defs>
</svg>
